<svg version="1.0" xmlns="http://www.w3.org/2000/svg"
 width="1080.000000pt" height="1280.000000pt" viewBox="0 0 1080.000000 1280.000000"
 preserveAspectRatio="xMidYMid meet">
<metadata>
Created by potrace 1.15, written by Peter Selinger 2001-2017
</metadata>
<g transform="translate(0.000000,1280.000000) scale(0.100000,-0.100000)"
fill="#000000" stroke="none">
<path d="M8210 12793 c-258 -42 -469 -158 -673 -373 -462 -486 -601 -1291
-315 -1820 310 -571 992 -612 1494 -89 235 245 396 582 455 954 19 116 16 379
-5 494 -70 382 -271 663 -559 782 -115 48 -287 70 -397 52z m280 -159 c194
-57 367 -222 464 -442 15 -34 38 -106 52 -159 120 -475 -37 -1051 -388 -1418
-186 -195 -372 -298 -589 -327 -289 -38 -552 115 -698 409 -144 289 -157 674
-35 1043 126 378 372 684 669 832 69 35 168 67 234 78 76 12 224 4 291 -16z"/>
<path d="M6569 10188 c-1 -18 -2 -19 -6 -5 -3 12 -10 16 -21 12 -10 -3 -96
-33 -192 -65 -345 -114 -573 -200 -861 -321 l-165 -70 -501 -395 c-474 -373
-517 -410 -804 -684 l-303 -290 -182 0 -182 0 -11 50 c-6 28 -11 57 -11 65 0
8 -4 16 -8 19 -4 3 -154 -6 -333 -19 -178 -14 -336 -25 -350 -25 -18 0 -44
-16 -77 -45 l-50 -45 -1131 0 -1131 0 0 -238 0 -237 324 -230 c179 -127 325
-232 325 -235 1 -4 -15 -4 -34 -2 -19 2 -35 1 -35 -3 0 -6 -214 -1478 -290
-1990 -16 -110 -104 -711 -195 -1335 -91 -624 -168 -1141 -170 -1147 -3 -8
-23 -13 -55 -13 -40 0 -55 -5 -80 -28 -55 -49 -50 -139 9 -179 23 -15 60 -18
291 -24 146 -3 275 -2 287 2 29 11 63 66 63 102 0 68 -58 127 -126 127 -32 0
-44 4 -44 15 0 8 29 205 65 437 35 233 101 662 145 953 44 292 119 780 165
1085 47 305 127 833 179 1173 52 340 96 621 100 624 3 3 225 -152 493 -343
l488 -349 1142 -5 1142 -5 -231 -386 -230 -385 -123 -17 c-144 -19 -260 -58
-349 -117 l-61 -40 -134 -495 c-93 -344 -138 -495 -147 -495 -8 0 -14 -2 -14
-5 0 -11 -281 -1369 -284 -1373 -2 -1 -118 -32 -257 -68 -140 -36 -286 -79
-325 -96 l-71 -30 -85 -217 -85 -216 141 -149 c106 -112 885 -833 987 -913 12
-10 74 3 318 66 166 43 303 80 305 82 2 2 20 157 40 344 30 281 37 385 40 600
3 191 9 301 25 415 36 270 115 705 132 724 6 7 770 -435 803 -465 16 -14 -221
-119 -268 -119 l-41 0 -63 -148 -63 -149 79 -174 c68 -150 102 -209 248 -429
169 -254 171 -256 274 -501 l105 -247 170 -22 c93 -12 173 -25 177 -29 4 -3
-31 -164 -77 -356 -46 -193 -112 -471 -148 -620 l-64 -270 -59 -2 c-52 -2 -62
-6 -86 -33 -53 -58 -29 -128 50 -149 20 -6 147 -11 280 -11 268 -1 277 1 302
59 25 62 -31 131 -110 134 -32 1 -40 5 -37 17 2 8 70 286 152 616 l149 601
230 112 231 111 3 262 3 263 -42 267 c-23 148 -39 271 -36 275 4 3 62 1 129
-5 246 -24 497 -34 683 -28 l190 6 18 -83 c27 -123 88 -445 277 -1457 93 -503
173 -927 176 -942 l6 -28 -61 0 -61 0 0 -95 0 -95 290 0 290 0 0 95 0 95 -60
0 c-59 0 -59 0 -65 33 -376 2006 -432 2313 -422 2319 10 6 1 82 -20 166 -5 21
-3 22 77 22 57 0 95 6 128 19 26 11 133 34 237 52 105 17 193 35 197 38 5 4
-31 36 -78 70 -47 35 -95 77 -106 92 -12 15 -38 35 -59 43 -28 11 -474 332
-522 375 -4 4 15 246 43 537 46 477 50 544 44 680 l-6 151 123 16 c220 30 249
37 254 61 3 11 75 387 160 835 85 448 158 818 164 824 5 5 312 172 682 371
l674 361 372 304 c365 296 376 306 519 472 80 93 150 169 154 169 4 0 32 24
62 54 181 181 150 410 -87 639 -240 232 -661 442 -1008 502 -21 3 -222 85
-445 182 -351 151 -573 238 -1102 432 l-105 39 -660 66 c-363 37 -670 69 -682
71 -18 4 -23 1 -24 -17z m2390 -1942 c-13 -13 -170 -157 -349 -321 -179 -165
-376 -346 -438 -403 l-112 -105 22 59 c13 32 86 223 164 424 l141 365 294 5
c162 3 296 4 298 2 3 -1 -6 -13 -20 -26z m-7935 -903 c71 -51 76 -56 44 -51
-24 5 -28 2 -33 -26 -3 -17 -45 -296 -95 -621 -94 -624 -222 -1466 -371 -2440
-192 -1261 -193 -1269 -181 -1273 7 -2 12 -21 12 -43 l0 -39 -79 0 c-47 0 -83
5 -87 11 -4 7 6 10 32 7 l38 -3 62 430 c35 237 77 522 93 635 17 113 116 792
221 1510 105 718 211 1442 235 1610 25 167 45 310 45 317 0 19 7 17 64 -24z
m3131 -1775 c-18 -33 -738 -1429 -1038 -2011 -27 -53 -51 -96 -53 -94 -2 1 35
185 81 407 46 223 91 446 100 495 10 50 23 95 30 100 7 6 27 62 44 124 31 111
37 123 298 560 146 245 271 449 277 453 6 4 73 8 148 8 l137 0 -24 -42z m150
-1193 c44 -49 88 -100 99 -112 l19 -23 -140 0 -141 0 24 83 c14 45 29 99 35
121 6 21 14 35 18 30 4 -5 43 -49 86 -99z m414 -467 c146 -166 452 -548 438
-548 -6 0 -1051 631 -1061 640 -5 6 -5 26 0 52 l9 43 175 5 c96 3 194 7 217 8
l42 2 180 -202z m870 -718 c154 -50 281 -94 281 -98 0 -4 -5 -24 -11 -44 l-10
-38 -55 0 c-53 0 -64 5 -282 135 -220 132 -255 155 -221 142 9 -3 143 -47 298
-97z m2128 -130 l21 -16 -31 -16 c-18 -9 -45 -19 -61 -23 -17 -3 -41 -15 -56
-25 -15 -11 -35 -16 -51 -13 -24 4 -27 12 -48 121 -12 64 -25 128 -28 141 -5
19 15 8 113 -64 66 -49 129 -96 141 -105z m-368 33 c12 -65 25 -128 28 -141 5
-22 3 -23 -38 -20 l-44 3 -22 115 c-27 141 -27 147 -5 153 56 15 56 15 81
-110z m-239 75 c0 -2 11 -56 24 -120 l23 -117 -351 -3 c-347 -3 -351 -3 -395
20 -24 12 -59 22 -76 22 -19 0 -39 8 -50 20 -10 11 -36 23 -57 27 -34 5 -39 9
-34 27 3 12 6 24 6 29 0 4 87 7 193 8 182 0 204 2 427 43 211 39 289 51 290
44z m-1056 -115 c-9 -36 -18 -45 -41 -41 -17 3 -18 8 -11 36 7 25 14 32 33 32
23 0 25 -3 19 -27z m-94 -317 c0 -8 -5 -27 -10 -42 -8 -19 -8 -29 0 -34 7 -4
-97 -437 -294 -1231 -260 -1042 -303 -1226 -290 -1235 23 -18 16 -24 -32 -24
-39 0 -45 3 -40 18 3 9 46 186 95 392 304 1269 322 1341 360 1437 24 61 65
209 106 379 83 352 84 354 95 354 6 0 10 -6 10 -14z m1460 -5 c0 -5 -4 -11 -9
-13 -5 -1 96 -565 225 -1253 129 -687 234 -1251 234 -1252 0 -2 -13 -3 -30 -3
-16 0 -30 2 -30 5 0 7 -461 2467 -467 2492 -4 18 0 22 24 26 50 7 53 7 53 -2z"/>
</g>
</svg>