<svg xmlns="http://www.w3.org/2000/svg" xmlns:xlink="http://www.w3.org/1999/xlink" xmlns:dc="http://purl.org/dc/elements/1.1/" xmlns:cc="http://creativecommons.org/ns#" xmlns:rdf="http://www.w3.org/1999/02/22-rdf-syntax-ns#" version="1.1" id="DESIGNS" x="0px" y="0px" width="32px" height="32px" viewBox="0 0 32 32" style="enable-background:new 0 0 32 32;" xml:space="preserve">
<title property="dc:title">to study</title><desc property="dc:description">An icon for "study" from the Feather series on to [icon]. Downloaded from http://www.toicon.com/icons/feather_study by 127.0.0.1 on 2017-07-10. Licensed CC-BY, see http://toicon.com/license/ for details.</desc>
<path class="feather_een" d="M27,21V7c0-0.552-0.448-1-1-1H6C5.448,6,5,6.448,5,7v14c0,0.552,0.448,1,1,1h20  C26.552,22,27,21.552,27,21z M6,7h20v14H6V7z M29,23V7c0-1.657-1.343-3-3-3H6C4.343,4,3,5.343,3,7v16c-1.105,0-2,0.895-2,2  c0,1.105,0.895,2,2,2h26c1.105,0,2-0.895,2-2C31,23.895,30.105,23,29,23z M4,7c0-1.103,0.897-2,2-2h20c1.103,0,2,0.897,2,2v16H4V7z   M29,26H3c-0.551,0-1-0.449-1-1s0.449-1,1-1h10c0,0.552,0.448,1,1,1h4c0.552,0,1-0.448,1-1h10c0.551,0,1,0.449,1,1S29.551,26,29,26z  " style="fill: #111918;"/>
<metadata><work rdf:about=""><format>image/svg+xml</format><type rdf:resource="http://purl.org/dc/dcmitype/StillImage"/><license rdf:resource="http://creativecommons.org/licenses/by/4.0/"/><attributionname>Shannon E Thomas</attributionname><attributionurl>http://www.toicon.com/icons/feather_study</attributionurl></work></metadata></svg>