<svg xmlns="http://www.w3.org/2000/svg" xmlns:xlink="http://www.w3.org/1999/xlink" xmlns:dc="http://purl.org/dc/elements/1.1/" xmlns:cc="http://creativecommons.org/ns#" xmlns:rdf="http://www.w3.org/1999/02/22-rdf-syntax-ns#" version="1.1" id="DESIGNS" x="0px" y="0px" width="32px" height="32px" viewBox="0 0 32 32" style="enable-background:new 0 0 32 32;" xml:space="preserve">
<title property="dc:title">to study</title><desc property="dc:description">An icon for "study" from the Blueprint series on to [icon]. Downloaded from http://www.toicon.com/icons/blueprint_study by 127.0.0.1 on 2017-07-10. Licensed CC-BY, see http://toicon.com/license/ for details.</desc>
<path class="blueprint_een" d="M20,6H3v5h17V6z M19,10H4V7h15V10z M29,6h-8v6h8V6z M28,11h-6V7h6V11z M29,13h-8v6h8V13z M28,18h-6  v-4h6V18z M29,20h-8v6h8V20z M28,25h-6v-4h6V25z M13,9h-3V8h3V9z M26,9h-2V8h2V9z M26,16h-2v-1h2V16z M26,23h-2v-1h2V23z M31,3H1  C0.448,3,0,3.448,0,4v24c0,0.552,0.448,1,1,1h3c0.552,0,1-0.448,1-1V14h13v14c0,0.552,0.448,1,1,1h12c0.552,0,1-0.448,1-1V4  C32,3.448,31.552,3,31,3z M30,27H20V13v-1H3v15H2V5h28V27z" style="fill: #111918;"/>
<metadata><work rdf:about=""><format>image/svg+xml</format><type rdf:resource="http://purl.org/dc/dcmitype/StillImage"/><license rdf:resource="http://creativecommons.org/licenses/by/4.0/"/><attributionname>Shannon E Thomas</attributionname><attributionurl>http://www.toicon.com/icons/blueprint_study</attributionurl></work></metadata></svg>