<svg
   xmlns:dc="http://purl.org/dc/elements/1.1/"
   xmlns:cc="http://creativecommons.org/ns#"
   xmlns:rdf="http://www.w3.org/1999/02/22-rdf-syntax-ns#"
   xmlns:svg="http://www.w3.org/2000/svg"
   xmlns="http://www.w3.org/2000/svg"
   xmlns:xlink="http://www.w3.org/1999/xlink"
   xmlns:sodipodi="http://sodipodi.sourceforge.net/DTD/sodipodi-0.dtd"
   xmlns:inkscape="http://www.inkscape.org/namespaces/inkscape"
   width="30mm"
   height="30mm"
   viewBox="0 0 106.29921 106.29921"
   id="svg2"
   version="1.1"
   inkscape:version="0.91 r13725"
   sodipodi:docname="Winterschlaf-lineart.svg">
  <title
     id="title4140">sleeping bear -lineart</title>
  <defs
     id="defs4">
    <pattern
       inkscape:collect="always"
       xlink:href="#Polkadots-large"
       id="pattern5950"
       patternTransform="matrix(1.4913247,0,0,1.5985866,-39.997134,-41.720626)" />
    <pattern
       inkscape:collect="always"
       xlink:href="#Polkadots-large"
       id="pattern5813"
       patternTransform="matrix(1.8474455,0.09034567,-0.08518267,1.7814341,-17.048483,-64.024241)" />
    <pattern
       inkscape:stockid="Polka dots, large"
       id="Polkadots-large"
       patternTransform="translate(0,0) scale(10,10)"
       height="10"
       width="10"
       patternUnits="userSpaceOnUse"
       inkscape:collect="always">
      <circle
         id="circle5503"
         r="0.45"
         cy="0.810"
         cx="2.567"
         style="fill:black;stroke:none" />
      <circle
         id="circle5505"
         r="0.45"
         cy="2.33"
         cx="3.048"
         style="fill:black;stroke:none" />
      <circle
         id="circle5507"
         r="0.45"
         cy="2.415"
         cx="4.418"
         style="fill:black;stroke:none" />
      <circle
         id="circle5509"
         r="0.45"
         cy="3.029"
         cx="1.844"
         style="fill:black;stroke:none" />
      <circle
         id="circle5511"
         r="0.45"
         cy="1.363"
         cx="6.08"
         style="fill:black;stroke:none" />
      <circle
         id="circle5513"
         r="0.45"
         cy="4.413"
         cx="5.819"
         style="fill:black;stroke:none" />
      <circle
         id="circle5515"
         r="0.45"
         cy="4.048"
         cx="4.305"
         style="fill:black;stroke:none" />
      <circle
         id="circle5517"
         r="0.45"
         cy="3.045"
         cx="5.541"
         style="fill:black;stroke:none" />
      <circle
         id="circle5519"
         r="0.45"
         cy="5.527"
         cx="4.785"
         style="fill:black;stroke:none" />
      <circle
         id="circle5521"
         r="0.45"
         cy="5.184"
         cx="2.667"
         style="fill:black;stroke:none" />
      <circle
         id="circle5523"
         r="0.45"
         cy="1.448"
         cx="7.965"
         style="fill:black;stroke:none" />
      <circle
         id="circle5525"
         r="0.45"
         cy="5.049"
         cx="7.047"
         style="fill:black;stroke:none" />
      <circle
         id="circle5527"
         r="0.45"
         cy="0.895"
         cx="4.340"
         style="fill:black;stroke:none" />
      <circle
         id="circle5529"
         r="0.45"
         cy="0.340"
         cx="7.125"
         style="fill:black;stroke:none" />
      <circle
         id="circle5531"
         r="0.45"
         cy="1.049"
         cx="9.553"
         style="fill:black;stroke:none" />
      <circle
         id="circle5533"
         r="0.45"
         cy="2.689"
         cx="7.006"
         style="fill:black;stroke:none" />
      <circle
         id="circle5535"
         r="0.45"
         cy="2.689"
         cx="8.909"
         style="fill:black;stroke:none" />
      <circle
         id="circle5537"
         r="0.45"
         cy="4.407"
         cx="9.315"
         style="fill:black;stroke:none" />
      <circle
         id="circle5539"
         r="0.45"
         cy="3.870"
         cx="7.820"
         style="fill:black;stroke:none" />
      <circle
         id="circle5541"
         r="0.45"
         cy="5.948"
         cx="8.270"
         style="fill:black;stroke:none" />
      <circle
         id="circle5543"
         r="0.45"
         cy="7.428"
         cx="7.973"
         style="fill:black;stroke:none" />
      <circle
         id="circle5545"
         r="0.45"
         cy="8.072"
         cx="9.342"
         style="fill:black;stroke:none" />
      <circle
         id="circle5547"
         r="0.45"
         cy="9.315"
         cx="8.206"
         style="fill:black;stroke:none" />
      <circle
         id="circle5549"
         r="0.45"
         cy="9.475"
         cx="9.682"
         style="fill:black;stroke:none" />
      <circle
         id="circle5551"
         r="0.45"
         cy="6.186"
         cx="9.688"
         style="fill:black;stroke:none" />
      <circle
         id="circle5553"
         r="0.45"
         cy="6.296"
         cx="3.379"
         style="fill:black;stroke:none" />
      <circle
         id="circle5555"
         r="0.45"
         cy="8.204"
         cx="2.871"
         style="fill:black;stroke:none" />
      <circle
         id="circle5557"
         r="0.45"
         cy="8.719"
         cx="4.59"
         style="fill:black;stroke:none" />
      <circle
         id="circle5559"
         r="0.45"
         cy="9.671"
         cx="3.181"
         style="fill:black;stroke:none" />
      <circle
         id="circle5561"
         r="0.45"
         cy="7.315"
         cx="5.734"
         style="fill:black;stroke:none" />
      <circle
         id="circle5563"
         r="0.45"
         cy="6.513"
         cx="6.707"
         style="fill:black;stroke:none" />
      <circle
         id="circle5565"
         r="0.45"
         cy="9.670"
         cx="5.730"
         style="fill:black;stroke:none" />
      <circle
         id="circle5567"
         r="0.45"
         cy="8.373"
         cx="6.535"
         style="fill:black;stroke:none" />
      <circle
         id="circle5569"
         r="0.45"
         cy="7.154"
         cx="4.37"
         style="fill:black;stroke:none" />
      <circle
         id="circle5571"
         r="0.45"
         cy="7.25"
         cx="0.622"
         style="fill:black;stroke:none" />
      <circle
         id="circle5573"
         r="0.45"
         cy="5.679"
         cx="0.831"
         style="fill:black;stroke:none" />
      <circle
         id="circle5575"
         r="0.45"
         cy="8.519"
         cx="1.257"
         style="fill:black;stroke:none" />
      <circle
         id="circle5577"
         r="0.45"
         cy="6.877"
         cx="1.989"
         style="fill:black;stroke:none" />
      <circle
         id="circle5579"
         r="0.45"
         cy="3.181"
         cx="0.374"
         style="fill:black;stroke:none" />
      <circle
         id="circle5581"
         r="0.45"
         cy="1.664"
         cx="1.166"
         style="fill:black;stroke:none" />
      <circle
         id="circle5583"
         r="0.45"
         cy="0.093"
         cx="1.151"
         style="fill:black;stroke:none" />
      <circle
         id="circle5585"
         r="0.45"
         cy="10.093"
         cx="1.151"
         style="fill:black;stroke:none" />
      <circle
         id="circle5587"
         r="0.45"
         cy="4.451"
         cx="1.302"
         style="fill:black;stroke:none" />
      <circle
         id="circle5589"
         r="0.45"
         cy="3.763"
         cx="3.047"
         style="fill:black;stroke:none" />
    </pattern>
  </defs>
  <sodipodi:namedview
     id="base"
     pagecolor="#ffffff"
     bordercolor="#666666"
     borderopacity="1.0"
     inkscape:pageopacity="0.0"
     inkscape:pageshadow="2"
     inkscape:zoom="3.6203867"
     inkscape:cx="88.365023"
     inkscape:cy="50.94433"
     inkscape:document-units="mm"
     inkscape:current-layer="layer2"
     showgrid="false"
     showborder="true"
     inkscape:window-width="1469"
     inkscape:window-height="1058"
     inkscape:window-x="981"
     inkscape:window-y="217"
     inkscape:window-maximized="0"
     borderlayer="true"
     showguides="false"
     inkscape:snap-global="false" />
  <metadata
     id="metadata7">
    <rdf:RDF>
      <cc:Work
         rdf:about="">
        <dc:format>image/svg+xml</dc:format>
        <dc:type
           rdf:resource="http://purl.org/dc/dcmitype/StillImage" />
        <dc:title>sleeping bear -lineart</dc:title>
        <cc:license
           rdf:resource="http://creativecommons.org/publicdomain/zero/1.0/" />
        <dc:date>2015-11-08</dc:date>
        <dc:creator>
          <cc:Agent>
            <dc:title>Frank Tremmel</dc:title>
          </cc:Agent>
        </dc:creator>
        <dc:subject>
          <rdf:Bag>
            <rdf:li>winter</rdf:li>
            <rdf:li>animals</rdf:li>
            <rdf:li>education</rdf:li>
            <rdf:li>school</rdf:li>
            <rdf:li>bear</rdf:li>
            <rdf:li>sleeping</rdf:li>
            <rdf:li>tiere</rdf:li>
            <rdf:li>winter</rdf:li>
            <rdf:li>unterricht</rdf:li>
            <rdf:li>schule</rdf:li>
            <rdf:li>bär</rdf:li>
            <rdf:li>schlafen</rdf:li>
          </rdf:Bag>
        </dc:subject>
        <dc:description>sleeping bear as a symbol image for hibernation</dc:description>
      </cc:Work>
      <cc:License
         rdf:about="http://creativecommons.org/publicdomain/zero/1.0/">
        <cc:permits
           rdf:resource="http://creativecommons.org/ns#Reproduction" />
        <cc:permits
           rdf:resource="http://creativecommons.org/ns#Distribution" />
        <cc:permits
           rdf:resource="http://creativecommons.org/ns#DerivativeWorks" />
      </cc:License>
    </rdf:RDF>
  </metadata>
  <g
     inkscape:groupmode="layer"
     id="layer2"
     inkscape:label="Ebene 2">
    <path
       style="fill:#ffffff;fill-opacity:1;fill-rule:evenodd;stroke:#0077ff;stroke-width:0.29055119;stroke-linecap:butt;stroke-linejoin:miter;stroke-miterlimit:4;stroke-dasharray:none;stroke-opacity:1"
       d="m 5.4531163,40.213285 6.7057757,-0.150699 0.298034,3.315402 11.325308,-11.151808 0,-12.960209 5.066585,-4.521003 5.662655,0.301401 -0.298035,7.082904 c 14.38479,-8.65783 15.321512,-1.589867 18.180101,1.054901 l 2.086241,3.014003 c 4.765459,-2.525357 9.091249,-2.234694 12.666463,2.863301 l 7.599878,-5.274503 0.149018,-6.028005 c 0.761165,-2.295198 2.342728,-2.516241 3.874447,-2.863302 l 4.172483,2.260502 1.639188,-2.561902 8.941034,-2.411201 c 2.885655,0.23547 4.613613,1.875865 5.513636,4.521003 2.090912,5.197913 1.887612,8.539721 2.086242,12.206708 l -0.89411,8.740606 4.91757,6.329404 -0.44705,29.23582 -0.29803,23.509221 -7.152828,-0.75351 -4.023465,-7.0829 0.149017,-4.521003 -81.959468,0 -0.149018,4.219603 -3.874448,7.08291 -5.9606886,-0.602806 1.0431205,-50.936635 z"
       id="path4292"
       inkscape:connector-curvature="0"
       sodipodi:nodetypes="cccccccccccccccccccccccccccccccc" />
    <path
       style="fill:#ffffff;fill-opacity:1;fill-rule:evenodd;stroke:#ff00ff;stroke-width:0.29055119;stroke-linecap:butt;stroke-linejoin:miter;stroke-miterlimit:4;stroke-dasharray:none;stroke-opacity:1"
       d="m 82.196984,26.650276 5.811671,-6.781504 c 2.148546,1.217855 3.115055,4.109249 3.278378,8.137805 2.805249,1.707934 3.799755,3.41587 3.427396,5.123804 -0.590463,2.420694 -2.615442,6.020274 -0.596069,6.178703 l -0.596068,23.057117 -9.388085,0.452101 -5.662654,-10.247607 c 3.697552,3.072778 4.149042,-2.60837 5.662654,-5.425204 3.195881,-3.53901 4.59944,-8.06669 3.427396,-14.01511 z"
       id="path4296"
       inkscape:connector-curvature="0"
       sodipodi:nodetypes="ccccccccccc" />
    <path
       style="fill:url(#pattern5950);fill-opacity:1;fill-rule:evenodd;stroke:#ff00ff;stroke-width:0.29055119;stroke-linecap:butt;stroke-linejoin:miter;stroke-miterlimit:4;stroke-dasharray:none;stroke-opacity:1"
       d="m 82.11049,26.883223 5.811677,-6.781505 c 2.148547,1.217855 3.115051,4.10925 3.278379,8.137805 2.805249,1.707935 3.799752,3.415869 3.427389,5.123803 -0.590461,2.420694 -2.615442,6.020274 -0.596061,6.178704 L 93.435802,62.599146 84.047715,63.051247 78.385059,52.80364 c 3.69756,3.072778 4.149046,-2.608369 5.662656,-5.425204 3.195879,-3.53901 4.599443,-8.06669 3.4274,-14.01511 z"
       id="path4296-1"
       inkscape:connector-curvature="0"
       sodipodi:nodetypes="ccccccccccc" />
    <path
       style="color:#000000;font-style:normal;font-variant:normal;font-weight:normal;font-stretch:normal;font-size:medium;line-height:normal;font-family:sans-serif;text-indent:0;text-align:start;text-decoration:none;text-decoration-line:none;text-decoration-style:solid;text-decoration-color:#000000;letter-spacing:normal;word-spacing:normal;text-transform:none;direction:ltr;block-progression:tb;writing-mode:lr-tb;baseline-shift:baseline;text-anchor:start;white-space:normal;clip-rule:nonzero;display:inline;overflow:visible;visibility:visible;opacity:1;isolation:auto;mix-blend-mode:normal;color-interpolation:sRGB;color-interpolation-filters:linearRGB;solid-color:#000000;solid-opacity:1;fill:#000000;fill-opacity:1;fill-rule:evenodd;stroke:none;stroke-width:1.77165341;stroke-linecap:butt;stroke-linejoin:miter;stroke-miterlimit:4;stroke-dasharray:none;stroke-dashoffset:0;stroke-opacity:1;color-rendering:auto;image-rendering:auto;shape-rendering:auto;text-rendering:auto;enable-background:accumulate"
       d="m 92.795129,11.313202 c -2.932751,1.867925 -8.101135,1.127956 -10.132542,2.988164 -0.515414,1.785175 0.157146,3.161327 1.530047,4.296352 -0.30797,-2.391945 0.91466,-2.934217 1.004262,-0.361621 l -0.675503,11.218062 c 2.367137,0.944243 2.026053,-1.205577 2.088957,-2.893853 0.08678,-3.282219 0.623788,-6.684321 0.435573,-9.893313 -3.089227,-2.061714 3.23192,-2.819757 0.461838,-0.08737 0.76672,6.625333 2.251758,-6.023627 5.752469,-1.49545 3.786901,4.469409 2.986462,10.994723 2.831969,16.474354 -0.433867,2.564674 0.442584,6.876129 -3.227473,5.623433 L 92.432704,61.413946 11.14102,62.309058 c -0.848627,1.285779 -2.8107568,2.057177 -2.3197406,3.785896 L 8.9746419,85.183509 C 11.750281,84.359501 10.727882,88.124753 9.5711958,89.336668 8.0583088,93.187737 8.2004293,90.6319 8.2962035,88.225366 L 8.7807554,45.250814 c 0.9243434,-0.480967 2.2471206,-3.173643 2.8466386,-3.14212 -0.07376,1.638444 -0.422052,3.091115 -0.151748,4.812663 0.173107,2.831454 -0.0369,6.948031 -0.0269,9.782639 2.412159,0.818635 1.436267,-3.227607 1.412672,-4.917585 0.153307,-1.590231 0.343275,-2.764201 0.810329,-4.225494 5.354335,-5.644864 11.639187,-11.76024 16.063005,-16.934592 -1.760097,0.05126 -3.27878,-1.356753 -4.901962,-0.948556 -0.398248,0.258561 -0.167901,0.430048 -0.706867,0.595357 L 24.62215,19.399053 c 1.485879,0.188653 4.385881,-0.640454 5.393808,0.0075 l -0.578349,6.895543 c 2.376319,0.922719 1.962935,-3.034208 2.008555,-4.724127 -0.09696,-0.889227 -0.293864,-1.592526 -0.01545,-2.299526 1.039033,-0.658921 1.48348,-1.410386 2.343094,-1.904896 0.274362,0.863678 -0.347609,1.819519 -0.05014,2.964095 2.237888,0.961478 0.443236,-0.08404 1.064285,-0.566852 -0.173552,-1.632539 0.580205,-3.971003 0.18871,-5.081025 -1.982836,0.06858 -5.082254,-0.366151 -6.963757,0.0056 -1.760848,1.442436 -3.121782,2.792116 -4.870204,4.224178 -0.05819,1.776429 -0.373124,3.480125 -0.224614,5.042612 l -0.0915,8.062267 -9.283192,9.599021 c 0.364963,-2.08129 -0.08615,-2.593805 -2.17155,-2.225044 -2.0943191,0.135104 -4.4213086,-0.269581 -6.3710611,0.200913 -1.3148084,1.43834 -2.6917575,2.919634 -3.9733642,4.325846 0.5105116,1.662277 0.019308,3.760291 0.1635182,5.581925 L 0.76608662,95.992969 c 2.34110828,0.22638 4.84786288,0.0174 7.05316868,0.61713 0.6522857,-1.523787 2.2239277,-3.863666 3.7599987,-6.960686 2.176585,-1.20059 -0.434746,-5.285554 2.602825,-4.465992 l 78.532915,0 c 0.04352,2.036032 -0.381191,4.189952 1.017181,5.884864 l 3.246133,6.184244 8.056672,-0.18329 c 0.45443,-17.573961 0.90968,-35.256366 1.3637,-52.762644 -1.69255,-2.056548 -3.04342,-4.726083 -4.60471,-7.018104 -1.990747,-1.755058 0.68434,-7.895559 -0.27099,-11.26171 C 101.32771,20.2635 99.940843,11.705692 92.795129,11.313202 Z m 1.184372,2.169584 c 5.565022,2.130481 5.462483,9.506773 5.663512,14.547446 -0.198907,2.024161 0.32876,10.778471 -2.121528,8.052339 0.715683,-6.771938 1.708348,-14.260681 -1.573952,-20.501606 -0.530892,-0.806194 -1.195646,-1.524104 -1.968032,-2.098179 z M 28.29749,15.782373 c 0.903053,-0.162937 4.333341,-0.100575 4.561431,0.259497 0.206908,0.326626 -2.136249,1.628619 -2.711944,1.830304 -0.276686,0.09693 -3.922742,0.30877 -4.417157,0.286508 -0.931504,-0.06188 1.282091,-1.487071 2.56767,-2.376309 z m -2.988325,15.517423 c 0.5971,0.258957 0.982939,0.295876 1.548644,0.649281 l -13.34599,12.979916 c 0.04187,-0.511261 0.004,-0.844468 0.256698,-1.753191 z m 70.859947,7.921749 c 1.558944,0.273773 3.723091,-0.569557 4.871358,0.462254 0.3861,1.135327 3.2623,3.616496 0.58,3.093416 -1.60499,-0.150583 -3.864363,0.835767 -4.284427,-1.373557 z m -1.452014,1.349063 c 0.745257,1.604044 1.988105,3.351049 2.4588,4.783209 L 96.658034,93.67852 C 95.721938,91.646677 93.736198,89.9061 94.25768,85.495843 94.614311,85.039305 95.323239,84.992324 95.844569,85.18187 L 96.266053,63.952245 C 95.054466,63.044179 93.925977,61.443601 94.374207,59.737583 Z M 6.0199356,41.331455 c 1.1115512,0.258149 4.8456054,-0.765167 2.7210316,1.07429 -0.8711111,1.846219 -3.1520111,0.835897 -4.7736608,1.161361 z m 98.4587444,3.318312 -1.30871,50.526995 c -1.35358,-0.302812 -4.061405,0.783277 -4.513533,-0.444039 L 99.092106,44.764852 Z M 6.8692261,45.425531 6.3149741,94.351979 C 4.9869444,93.950189 2.0249232,95.102086 2.7069595,92.789013 L 3.1390896,45.523567 Z M 93.197647,63.338446 c 0.936113,1.338743 -2.787427,0.345421 -3.866662,0.675522 l -77.77696,0.686329 c 1.204198,-1.051859 3.231996,-0.223464 4.768546,-0.516575 z m 1.156975,2.563859 0,17.348143 -83.483402,0 -0.132768,-16.61074 z"
       id="path4173"
       inkscape:connector-curvature="0"
       sodipodi:nodetypes="cccccccccccccccccccccccccccccccccccccccccccccccccccccccccccccccccccccccccccccccccccccccccccccccccccccccccccc" />
    <path
       style="fill:#ffffff;fill-rule:evenodd;stroke:#ffd42a;stroke-width:0.29055119;stroke-linecap:butt;stroke-linejoin:miter;stroke-miterlimit:4;stroke-dasharray:none;stroke-opacity:1"
       d="m 67.444279,28.760078 7.003808,-5.274504 0.447053,-6.480104 c 1.003971,-0.883908 1.761932,-1.850747 5.066585,-1.959101 1.732031,1.175096 3.642056,1.81018 4.619533,5.274503 -0.315093,1.78258 0.529006,3.044145 -3.129362,6.329404 l 6.258724,7.836406 c 1.373994,7.070032 -1.593992,9.200173 -3.129362,12.960209 l 2.384276,1.657701 c 0.644737,1.809078 0.230929,4.331823 -0.298035,6.932205 l 4.917569,-3.616803 c 1.08005,-1.152735 1.847368,0.224633 2.533292,2.260502 -0.678469,1.976236 -1.110227,4.20197 -2.533292,5.425203 -3.513216,2.057993 -6.954037,4.286817 -11.623343,3.616803 C 74.852554,64.712836 71.300671,62.55342 67.742313,60.4071 L 68.4874,55.886096 66.997227,50.310193 65.507055,47.145491 Z"
       id="path4298"
       inkscape:connector-curvature="0"
       sodipodi:nodetypes="ccccccccccccccccccc" />
    <path
       style="color:#000000;font-style:normal;font-variant:normal;font-weight:normal;font-stretch:normal;font-size:medium;line-height:normal;font-family:sans-serif;text-indent:0;text-align:start;text-decoration:none;text-decoration-line:none;text-decoration-style:solid;text-decoration-color:#000000;letter-spacing:normal;word-spacing:normal;text-transform:none;direction:ltr;block-progression:tb;writing-mode:lr-tb;baseline-shift:baseline;text-anchor:start;white-space:normal;clip-rule:nonzero;display:inline;overflow:visible;visibility:visible;opacity:1;isolation:auto;mix-blend-mode:normal;color-interpolation:sRGB;color-interpolation-filters:linearRGB;solid-color:#000000;solid-opacity:1;fill:#000000;fill-opacity:1;fill-rule:evenodd;stroke:none;stroke-width:2.83464575;stroke-linecap:butt;stroke-linejoin:miter;stroke-miterlimit:4;stroke-dasharray:none;stroke-dashoffset:0;stroke-opacity:1;color-rendering:auto;image-rendering:auto;shape-rendering:auto;text-rendering:auto;enable-background:accumulate"
       d="m 78.814494,14.290518 c -1.194728,0.01483 -2.386512,0.385683 -3.392948,1.212665 -1.216628,0.999692 -1.258295,2.229437 -1.37404,3.205357 -0.102978,0.86834 -0.08781,1.537657 -0.136982,2.478611 -0.04917,0.940953 -0.462597,1.497178 -1.060032,2.04384 -0.571883,0.52328 -1.522445,0.962188 -2.033662,1.400214 l -4.322323,2.81108 1.601642,2.63419 3.051545,-3.252244 c 0.356066,-0.318467 1.526685,-0.91099 2.754401,-1.700715 0.499394,-0.321234 0.848352,-0.509578 1.521558,-1.434312 0,0 -0.08141,-3.641334 0.0021,-4.34556 0.07308,-0.616198 0.99748,-2.017893 1.032638,-2.082203 0.370499,-0.677709 2.458951,-1.451459 4.170587,-0.677728 0.53452,0.241624 2.143392,1.543436 2.613203,2.725831 0.441775,1.111837 0.277853,2.024689 0.267642,3.156339 -0.006,0.670466 -0.466602,1.934767 -1.709119,3.171257 l -1.616393,0.843964 1.070571,1.103973 c 0,0 0.931431,0.956828 1.947258,2.224995 1.015825,1.268168 2.07313,2.930561 2.288659,3.727506 0.8685,3.211379 1.257865,6.136462 0.04004,9.454098 -0.133497,0.363675 -1.373576,1.573611 -1.970439,2.312375 -1.16311,1.255438 -1.558454,1.999416 -0.368799,3.152077 l -2.646922,5.402646 c -0.677685,0.805633 -0.945053,1.017876 -3.137951,1.178565 -2.192898,0.160689 -4.994413,-1.515434 -6.950276,-5.558225 l -2.745971,1.359719 c 2.413455,4.988634 6.777218,7.606195 9.852196,7.359107 3.074979,-0.247089 3.257068,-0.411829 3.580509,-0.639366 0.323441,-0.227538 0.675421,-0.507463 1.034745,-0.835439 0.718647,-0.655953 1.405337,-2.937114 1.822919,-4.059976 l 0.480492,-2.342213 c -0.108442,-0.292052 2.511243,-2.248653 2.307627,1.014462 -0.03392,0.543651 -0.972079,2.941336 -0.868257,3.484546 0.103821,0.543211 -0.822083,2.461459 0.897761,2.84305 1.331517,-0.766326 2.033933,-1.576199 2.899812,-2.506316 0.18276,-0.196319 1.271591,-1.949869 2.324487,-1.762521 0.796072,0.648245 0.70166,2.955165 0.501566,3.817017 -0.25347,1.091753 -1.191057,1.998369 -4.033606,3.284213 -4.227997,1.788344 -7.393414,1.89647 -10.798428,1.462018 -3.405019,-0.434453 -4.723098,-0.842238 -5.942929,-1.427919 -1.219831,-0.58568 -2.369164,-1.456448 -4.03782,-2.154664 l -1.16962,2.857967 c 1.258416,0.526559 2.343737,1.34615 3.894517,2.090729 1.482155,0.711632 3.405478,1.223695 5.972433,1.167909 4.482573,1.003114 7.212323,0.394586 11.573959,-1.451362 l 0.01686,-0.0085 0.01475,-0.0064 c 3.642678,-1.642847 5.573061,-4.429416 6.206357,-6.932862 0.316649,-1.251724 0.339915,-2.431602 0.04847,-3.473891 -0.29144,-1.042289 -1.058796,-2.174448 -2.779689,-1.568579 -1.720895,0.605869 -2.209426,1.507125 -2.773367,2.084334 -0.31625,0.323692 -0.640661,0.545748 -1.038959,0.699041 0.08959,-0.692798 0.33323,-1.699317 0.244461,-3.416348 -0.08877,-1.717031 -1.133304,-2.046981 -1.576352,-2.830262 0.22753,-0.85863 1.465811,-3.233004 1.736516,-3.970465 1.383481,-3.768911 1.442686,-6.814887 0.339295,-10.894804 -0.489747,-1.810985 -1.375465,-3.195407 -2.49308,-4.59065 -0.655315,-0.818102 -3.117571,-1.184388 -3.521501,-1.62399 1.692721,-0.303276 2.732384,-2.484568 3.003076,-3.3652 0.603886,-1.9646 0.313281,-3.149681 -0.246569,-4.558682 -0.559849,-1.409 -1.340774,-2.408595 -2.960928,-3.365199 -1.016679,-0.600288 -2.212972,-0.9419 -3.407701,-0.927081 z m 0.68702,4.328511 c -0.385172,0.0015 -0.971091,0.0916 -1.321353,0.456082 -0.467016,0.48598 -0.75289,1.056175 -0.901977,1.489723 -0.298172,0.867096 -0.08219,2.13122 -0.08219,2.131221 0.1461,1.65322 0.375282,0.616727 0.58797,0.115086 0,0 0.252078,-0.861692 0.514212,-1.62399 0.131068,-0.38115 0.633258,-0.854481 0.813464,-1.040037 0.663035,-0.682715 1.088381,-0.08265 1.534203,0.57543 0.231171,0.34123 0.316618,0.782466 0.305576,1.253159 -0.02209,0.941385 -0.436236,1.883999 -0.436236,1.883999 -0.631279,0.951563 -1.399976,2.021945 0.217064,1.044299 0,0 1.269165,-1.664094 1.298172,-2.900593 0.0145,-0.618249 -0.09263,-1.304914 -0.495244,-1.898918 -0.402609,-0.594004 -0.753014,-1.288996 -1.730193,-1.46628 -0.06779,-0.0123 -0.175079,-0.0197 -0.303469,-0.01918 z m -3.207495,10.425934 -0.413056,0.481657 c 0.559929,0.342665 1.780257,1.160227 2.36242,1.918099 0.582164,0.757872 0.801223,2.211819 0.541608,2.930429 l 1.01367,-0.153448 c 0.433034,-1.198628 0.444604,-2.835936 -0.254999,-3.746687 -0.699597,-0.910751 -2.581311,-1.021042 -3.249643,-1.43005 z m -3.165348,3.54209 -0.606937,0.381489 c -1.363948,0.863464 -2.496444,1.814596 -2.893491,3.090271 -0.397046,1.275675 0.09577,2.731412 1.610071,4.24113 l 0.282395,0.281322 0.347724,-0.187548 c 0.931362,-0.499165 1.567514,-1.054209 1.957794,-1.675139 0.390281,-0.620932 0.514204,-1.295628 0.480493,-1.933019 -0.06743,-1.27478 -0.156279,-1.771259 -0.459418,-2.828131 l -0.718631,-1.370375 z m -0.619582,1.760389 c 0.306177,0.887818 0.680856,1.781448 0.718631,2.495661 0.02465,0.46626 -0.05168,0.872033 -0.314006,1.289388 -0.202998,0.322968 -0.682371,0.664673 -1.199123,1.003805 -1.000539,-1.133639 -1.287524,-2.011595 -1.057926,-2.749275 0.210707,-0.676982 0.927408,-1.366505 1.852424,-2.039579 z m 6.060945,1.95433 -1.091645,0.513624 c 0.922515,2.612712 1.757728,3.512961 1.833457,4.874104 0.131545,2.364344 -0.275298,2.723509 -0.777638,3.373723 -0.971743,-2.2378 -1.846636,-3.708717 -2.528906,-3.299131 -0.961329,0.577114 -0.866544,1.339827 -1.171727,2.282538 -0.254562,0.786343 1.762355,3.410695 2.34556,3.292737 -0.248569,1.266616 -1.541668,1.899641 -2.227544,2.167452 -1.101336,0.316831 -1.360719,-1.370655 -1.860853,-2.214338 -0.730264,-1.231889 -1.770877,-2.287332 -2.010481,-3.128633 l -0.946233,-2.231389 c -0.453851,-1.071577 -0.489344,-3.324237 -1.131685,0.179023 l 0.680698,3.143551 c 1.630023,0.976749 1.192305,3.681474 2.126388,4.492615 1.168766,0.9792 1.940767,1.840466 3.888193,1.519561 1.160427,-0.191221 2.639262,-1.677164 3.989349,-3.490941 0.448101,-0.602002 1.08449,-1.687636 1.371931,-2.474348 0.433681,-1.186964 0.333923,-2.415677 -0.305576,-4.343429 -0.678422,-2.045088 -1.157589,-1.751772 -2.183288,-4.656719 z m 3.605799,4.562946 c -0.190931,-0.01674 -0.01714,0.462865 0.136982,1.093316 0.334642,0.612098 0.222065,1.267283 0.14752,1.875475 -0.07455,0.608192 -0.155868,1.238024 -0.849292,2.003347 -0.144274,0.541828 -0.627774,1.205695 0.573219,0.775765 0.801316,-0.884403 1.239324,-1.769274 1.346642,-2.644845 0.107318,-0.875573 -0.122929,-1.709446 -0.535285,-2.463693 -0.45957,-0.440536 -0.705229,-0.629325 -0.819786,-0.639365 z"
       id="path4246"
       inkscape:connector-curvature="0" />
    <path
       style="fill:#ffffff;fill-rule:evenodd;stroke:#46ff00;stroke-width:0.29055119;stroke-linecap:butt;stroke-linejoin:miter;stroke-miterlimit:4;stroke-dasharray:none;stroke-opacity:1"
       d="m 42.260369,18.663171 c -5.053885,0.585853 -8.996747,2.435723 -10.878257,6.630805 l -4.023465,12.056007 c -2.397631,3.356987 -5.624999,4.616202 -8.792015,6.028005 -1.96363,0.752563 -3.882769,1.88757 -5.066585,9.343406 0.337991,1.818227 -1.415885,5.751943 -3.427397,9.946207 0.178645,3.4921 -1.3864236,9.384109 1.490173,11.151808 l 2.235257,-1.507001 c 1.953918,0.76914 3.909978,-1.191644 6.258723,-3.616803 l 2.384276,-4.068903 4.321499,-0.602801 c 2.244831,-0.763638 2.526087,-2.023714 3.278379,-3.164701 0.331871,1.63717 1.55615,2.732847 3.874447,3.164701 l 8.792016,0.753502 8.344965,-0.452101 3.725431,-2.411201 c 0.327732,3.998647 2.682273,6.630829 5.364619,9.042005 1.022869,2.091254 2.646117,1.753875 4.023464,2.411202 1.9826,-0.224503 2.025236,-1.385564 2.086242,-3.164702 0.269412,-2.815621 2.458212,-4.3372 0.596069,-8.589906 1.682919,-2.382264 1.933741,-5.05418 1.63919,-7.836405 -0.548477,-3.435729 -1.96573,-4.674987 -3.27838,-6.178705 l 2.086242,-18.084011 c -1.595896,-2.975299 -3.524965,-3.92898 -5.513637,-4.521004 -3.297071,-0.42077 -5.301518,0.465683 -7.450862,1.205602 -3.067117,-3.237029 -3.195874,-8.702716 -12.070394,-7.535006 z"
       id="path4294"
       inkscape:connector-curvature="0"
       sodipodi:nodetypes="cccccccccccccccccccccccccc" />
    <path
       style="fill:url(#pattern5813);fill-opacity:1;fill-rule:evenodd;stroke:#46ff00;stroke-width:0.29055119;stroke-linecap:butt;stroke-linejoin:miter;stroke-miterlimit:4;stroke-dasharray:none;stroke-opacity:1"
       d="m 41.893982,18.878818 c -5.053886,0.585853 -8.996748,2.435723 -10.878257,6.630804 L 26.992259,37.56563 c -2.39763,3.356987 -5.624999,4.616202 -8.792014,6.028004 -1.96363,0.752564 -3.88277,1.887568 -5.066586,9.343408 0.337992,1.818231 -1.415884,5.751943 -3.4273972,9.946208 0.178646,3.492099 -1.3864228,9.384106 1.4901742,11.151805 l 2.235257,-1.507003 c 1.953918,0.769143 3.909977,-1.19164 6.258723,-3.6168 l 2.384276,-4.068899 4.321499,-0.602803 c 2.244831,-0.763644 2.526086,-2.023712 3.278379,-3.164699 0.33187,1.63717 1.55615,2.73284 3.874447,3.164699 l 8.792016,0.753496 8.344965,-0.4521 3.72543,-2.411203 c 0.327733,3.998649 2.682273,6.630839 5.36462,9.042009 1.022869,2.091257 2.646116,1.753873 4.023464,2.411203 1.9826,-0.224501 2.025235,-1.385565 2.086242,-3.164699 0.269412,-2.815618 2.458212,-4.3372 0.596069,-8.589909 1.682919,-2.382265 1.933741,-5.054185 1.639189,-7.836402 -0.548476,-3.435728 -1.965729,-4.674987 -3.278379,-6.178706 l 2.086242,-18.084013 c -1.595896,-2.975299 -3.524965,-3.928981 -5.513638,-4.521004 -3.297071,-0.42077 -5.301517,0.465683 -7.450861,1.205601 -3.067118,-3.237028 -3.195875,-8.702715 -12.070394,-7.535005 z"
       id="path4294-1"
       inkscape:connector-curvature="0"
       sodipodi:nodetypes="cccccccccccccccccccccccccc" />
    <path
       style="color:#000000;font-style:normal;font-variant:normal;font-weight:normal;font-stretch:normal;font-size:medium;line-height:normal;font-family:sans-serif;text-indent:0;text-align:start;text-decoration:none;text-decoration-line:none;text-decoration-style:solid;text-decoration-color:#000000;letter-spacing:normal;word-spacing:normal;text-transform:none;direction:ltr;block-progression:tb;writing-mode:lr-tb;baseline-shift:baseline;text-anchor:start;white-space:normal;clip-rule:nonzero;display:inline;overflow:visible;visibility:visible;opacity:1;isolation:auto;mix-blend-mode:normal;color-interpolation:sRGB;color-interpolation-filters:linearRGB;solid-color:#000000;solid-opacity:1;fill:#000000;fill-opacity:1;fill-rule:evenodd;stroke:none;stroke-width:1.77165353;stroke-linecap:butt;stroke-linejoin:miter;stroke-miterlimit:4;stroke-dasharray:none;stroke-dashoffset:0;stroke-opacity:1;color-rendering:auto;image-rendering:auto;shape-rendering:auto;text-rendering:auto;enable-background:accumulate"
       d="m 45.462439,17.099468 c 2.537939,0.441986 5.050728,1.553911 6.662779,3.868034 1.383991,1.986739 2.906165,5.085304 5.861843,3.021669 3.752117,-1.00773 7.178009,0.39902 9.025872,3.685415 -0.819159,-0.307877 2.289466,0.872997 1.42847,2.673101 -0.175074,5.884642 -2.301024,11.627203 -1.846892,17.534032 2.128258,1.434871 2.508425,4.685132 2.740017,7.308615 1.01023,3.052292 -1.659681,5.36486 -0.806152,8.097307 0.519211,3.068079 -1.793411,5.568201 -1.536264,8.668206 -0.133928,3.635213 -4.367235,3.718856 -5.687783,1.299711 -2.23144,-1.883297 -4.853919,-3.10089 -5.683058,-6.3179 -0.537072,-1.602229 -1.27743,-4.732163 -3.168926,-2.840892 -3.75442,2.496219 -8.420472,1.701606 -12.566634,0.948545 -2.80655,0.115656 -6.109952,1.011024 -8.393502,-1.236194 -1.669742,-3.001427 -3.085664,2.296905 -5.821215,1.211437 -2.937535,-1.368224 -3.224039,2.848531 -4.974963,4.378539 -1.577461,2.802037 -5.204551,4.142711 -7.439779,5.085905 -2.377689,2.840417 -4.7298201,-2.595988 -4.4328524,-5.033169 -0.3039014,-2.795613 -0.3003439,-5.603881 0.6996032,-8.25862 0.6994362,-2.768053 3.1724012,-4.827202 3.1158422,-7.806137 0.03147,-3.604398 1.066792,-7.347351 3.896998,-9.748227 1.829689,-2.168558 4.91069,-2.292732 6.868054,-4.326337 3.563002,-2.89756 4.5878,-7.540059 5.846304,-11.737727 1.111653,-4.332596 4.055478,-8.394596 8.500662,-9.614713 2.512419,-0.689611 5.158848,-1.305161 7.711576,-0.8606 z m -11.160017,7.194755 c -3.977951,4.660069 -2.926729,10.212665 -7.004273,14.85313 -1.950028,2.825572 -5.962434,3.573613 -8.727769,5.245421 -2.660484,1.92044 -4.010124,5.145326 -3.938788,8.394679 0.10843,2.649069 -1.149222,4.902235 -2.509132,7.045515 -1.901765,3.585998 -1.831484,7.845432 -0.928791,11.71282 0.994307,0.413689 1.672984,-2.334682 3.328743,-1.122443 3.324624,0.461691 5.249669,-2.780319 6.619186,-5.29571 0.891622,-1.71517 1.862595,-3.54168 3.886916,-2.071261 2.526714,0.63444 4.078538,-1.800807 4.89707,-3.8327 0.729589,-0.447207 1.474687,2.585555 2.517645,3.021869 2.453006,2.458681 5.933963,0.0881 8.842171,1.072138 3.525054,0.648884 7.574001,1.203673 10.59531,-1.23608 0.970177,-0.342482 3.722036,-2.575458 3.803351,-0.736326 0.26513,3.589112 2.164214,7.262904 5.737897,8.425208 1.313185,1.279563 4.171923,4.746128 3.833397,0.59035 -0.329896,-2.184018 1.251678,-3.74799 1.474543,-5.746539 0.337051,-1.402071 -1.621045,-4.067895 0.08917,-4.664478 1.306531,-2.348358 0.495891,-5.346755 0.111467,-7.888469 -0.459336,-2.335317 -3.148362,-3.428576 -2.358502,-6.304794 0.176085,-5.440953 1.966793,-10.72971 1.892947,-16.174507 -3.077941,-1.707704 -6.39115,-4.52828 -10.137801,-3.179456 -1.369506,0.290609 -3.04944,2.305361 -3.334063,-0.04691 -1.268085,-2.858477 -2.457162,-4.956318 -5.808331,-5.812501 -2.87144,-0.733617 -5.02248,-0.402534 -7.799657,0.414186 -1.510912,0.444332 -4.049069,2.125979 -5.082705,3.336858 z m 0.06655,23.765498 c 2.00499,0.985039 4.409545,0.62609 6.448679,0.76848 2.568452,3.562294 6.881452,5.870156 10.5958,3.740503 2.096845,-0.588559 3.325084,2.681704 5.582907,1.688598 1.553674,-0.814311 2.724411,-2.080962 4.764173,-2.318141 -1.604906,2.073697 -6.072538,4.747266 -8.569712,2.883825 -1.962001,-1.900409 -4.465751,0.25363 -6.867971,-0.635215 -2.832925,-0.176934 -3.975759,-2.510201 -6.364993,-3.100178 -3.985392,0.331645 -9.162958,-2.787051 -10.877547,-6.645995 -0.234014,-1.040648 1.008187,-0.197422 2.275019,1.101319 0.730803,1.115819 1.789988,2.003531 3.013645,2.516804 z"
       id="path4258"
       inkscape:connector-curvature="0"
       sodipodi:nodetypes="sscccccccccccccccccccccsssccccccccccccccccccccccsssccccccccccc" />
    <path
       style="color:#000000;font-style:normal;font-variant:normal;font-weight:normal;font-stretch:normal;font-size:medium;line-height:normal;font-family:sans-serif;text-indent:0;text-align:start;text-decoration:none;text-decoration-line:none;text-decoration-style:solid;text-decoration-color:#000000;letter-spacing:normal;word-spacing:normal;text-transform:none;direction:ltr;block-progression:tb;writing-mode:lr-tb;baseline-shift:baseline;text-anchor:start;white-space:normal;clip-rule:nonzero;display:inline;overflow:visible;visibility:visible;opacity:1;isolation:auto;mix-blend-mode:normal;color-interpolation:sRGB;color-interpolation-filters:linearRGB;solid-color:#000000;solid-opacity:1;fill:#000000;fill-opacity:1;fill-rule:evenodd;stroke:none;stroke-width:1px;stroke-linecap:butt;stroke-linejoin:miter;stroke-miterlimit:4;stroke-dasharray:none;stroke-dashoffset:0;stroke-opacity:1;color-rendering:auto;image-rendering:auto;shape-rendering:auto;text-rendering:auto;enable-background:accumulate"
       d="m 88.112439,19.311675 c -0.892779,0.353577 -1.402394,1.799276 -1.693835,2.699045 L 85.370689,24.433003 82.1653,26.15503 c 0.242436,0.24393 0.308613,1.069928 0.686619,0.866153 l 3.357524,-1.803891 1.508913,-3.486678 c 0.421623,-0.710099 1.307273,-1.09551 1.395553,0.047 0.547767,1.691989 0.594238,3.490605 0.879501,5.237678 l 0.255961,1.920987 c 1.5035,0.508739 2.758091,1.79387 2.940292,3.434392 0.134542,0.74292 -0.371768,2.482524 -2.268027,5.549062 -3.757596,6.076599 -2.456389,12.072032 -0.721676,14.661022 0.419024,2.671607 -2.092362,-10.420374 3.505532,-14.934183 2.21439,-1.500377 2.381878,-4.957919 1.217236,-7.157856 -0.542375,-0.975391 -1.527421,-2.258684 -2.513299,-2.748064 -0.304173,-2.039812 -0.688908,-2.823926 -1.089232,-4.846733 -0.199703,-1.049848 -1.852164,-3.999611 -3.207758,-3.582244 z"
       id="path4282"
       inkscape:connector-curvature="0"
       sodipodi:nodetypes="cccccccccccscccccc" />
  </g>
</svg>