<svg version="1.0" xmlns="http://www.w3.org/2000/svg"
 width="1280.000000pt" height="1132.000000pt" viewBox="0 0 1280.000000 1132.000000"
 preserveAspectRatio="xMidYMid meet">
<metadata>
Created by potrace 1.15, written by Peter Selinger 2001-2017
</metadata>
<g transform="translate(0.000000,1132.000000) scale(0.100000,-0.100000)"
fill="#000000" stroke="none">
<path d="M7626 11010 c-67 -59 -163 -292 -187 -450 l-11 -81 -147 -111 c-574
-437 -971 -795 -1166 -1054 -41 -54 -121 -174 -181 -272 -1 -2 -67 -23 -147
-47 l-145 -45 -249 10 c-136 5 -253 10 -260 10 -7 0 2 -30 23 -76 19 -42 33
-78 32 -79 -4 -3 -134 13 -170 21 -28 6 -28 5 -28 -50 l0 -56 -140 0 c-77 0
-140 -3 -140 -8 0 -4 14 -43 30 -86 17 -43 29 -81 26 -83 -2 -2 -66 -9 -142
-14 -77 -5 -154 -12 -171 -15 l-33 -5 60 -72 c32 -39 58 -73 56 -74 -1 -2 -85
-10 -187 -19 -101 -9 -185 -17 -187 -19 -2 -1 8 -34 22 -73 l24 -71 -109 -45
c-84 -36 -121 -46 -164 -46 l-55 0 0 -65 0 -64 -32 -5 c-31 -6 -255 -36 -262
-36 -2 0 3 -33 10 -72 7 -40 13 -78 13 -85 1 -12 -30 -18 -140 -29 l-65 -6
-23 -99 -22 -99 -94 0 -93 0 -12 -52 c-15 -61 -22 -68 -71 -68 -45 0 -51 -7
-80 -98 l-24 -74 -45 6 c-25 3 -77 8 -117 12 l-72 7 -3 -89 -3 -89 -78 -3
c-50 -2 -79 -7 -82 -15 -2 -7 -11 -38 -19 -69 l-16 -56 -36 10 c-20 5 -38 8
-40 6 -2 -3 -7 -43 -10 -91 -4 -48 -9 -87 -12 -87 -3 0 -34 5 -70 11 -76 13
-82 9 -82 -62 0 -44 -2 -47 -31 -53 -17 -3 -42 -6 -54 -6 -18 0 -25 -7 -29
-30 -3 -16 -9 -43 -12 -59 -5 -27 -10 -31 -52 -36 -72 -10 -70 -8 -61 -62 15
-91 19 -87 -65 -80 l-74 7 -7 -88 c-3 -48 -8 -93 -10 -99 -7 -22 -47 -14 -76
13 l-27 26 -7 -68 c-15 -170 -13 -163 -53 -173 -21 -5 -75 -17 -122 -26 -47
-10 -88 -19 -92 -22 -4 -2 10 -40 32 -84 l41 -80 -101 -103 c-55 -56 -100
-106 -100 -109 0 -4 23 -18 51 -33 l52 -26 -78 -78 -78 -78 5 -96 5 -96 -66
-36 c-36 -20 -67 -37 -68 -38 -1 0 7 -41 17 -89 l18 -89 -84 -39 c-71 -32 -84
-42 -84 -62 0 -13 -5 -49 -11 -81 -10 -46 -15 -55 -29 -51 -12 4 -31 -16 -72
-78 -30 -45 -71 -93 -90 -106 l-35 -24 23 -59 c13 -31 24 -61 24 -66 0 -4 -32
-25 -71 -46 -39 -21 -73 -44 -76 -52 -3 -7 2 -34 10 -59 l16 -44 -63 -46 -62
-46 -19 -90 -18 -90 -63 -45 c-62 -44 -63 -46 -69 -102 -4 -31 -9 -64 -11 -74
-3 -9 -47 -51 -99 -94 -52 -43 -95 -79 -95 -80 0 -1 50 -19 111 -39 91 -31
120 -36 158 -31 180 25 486 57 627 66 112 7 193 17 239 30 123 35 300 69 444
85 92 10 180 28 258 50 65 20 158 40 207 45 163 19 231 64 511 340 116 114
255 240 310 282 55 41 256 179 448 307 485 323 1032 712 1272 904 162 130 236
198 500 457 266 261 364 349 351 315 -4 -11 -32 -105 -62 -209 -94 -329 -160
-657 -194 -961 -16 -142 -16 -144 -48 -151 -326 -71 -695 -244 -983 -460 -339
-256 -676 -692 -782 -1014 -43 -131 -52 -209 -51 -440 1 -255 13 -376 60 -610
77 -383 150 -635 231 -791 60 -117 58 -113 43 -104 -9 5 -11 4 -6 -4 4 -6 12
-8 18 -5 8 5 9 1 5 -10 -4 -9 -3 -15 2 -11 5 3 20 -11 32 -32 12 -20 50 -70
83 -112 33 -42 52 -69 42 -61 -10 7 -47 54 -84 102 -36 48 -67 88 -70 88 -2 0
0 -6 6 -12 5 -7 27 -44 47 -83 21 -38 70 -117 108 -175 66 -101 106 -157 247
-351 36 -49 79 -110 95 -136 17 -26 38 -59 47 -73 10 -14 22 -35 27 -46 5 -12
21 -34 35 -49 14 -15 26 -33 26 -40 0 -17 24 -62 44 -83 9 -9 36 -47 60 -84
l44 -68 -46 -1 -47 -1 55 -8 c175 -26 482 -51 983 -80 l348 -21 75 21 c41 12
130 30 197 40 130 20 263 57 337 95 25 13 95 37 155 55 61 17 116 33 123 35 9
3 5 12 -13 28 l-27 23 53 41 c67 52 219 208 283 290 27 35 52 61 56 58 4 -2 7
1 7 8 0 21 55 97 66 90 5 -3 7 -1 3 5 -3 6 18 57 48 114 52 98 104 227 142
351 12 38 21 53 26 45 5 -8 6 -3 3 12 -3 14 3 59 14 100 50 188 129 665 156
955 62 643 -82 1116 -502 1640 -103 128 -318 348 -418 427 -234 184 -447 288
-692 338 -116 24 -352 42 -436 33 l-60 -6 6 114 c9 187 56 421 152 754 215
744 416 1209 887 2044 279 493 350 625 546 1006 281 545 283 550 325 670 82
234 155 353 239 392 50 24 149 23 196 -1 45 -23 104 -94 195 -233 48 -73 158
-216 258 -333 658 -775 1064 -1398 1459 -2240 264 -562 372 -870 419 -1195 60
-412 94 -885 69 -947 -6 -15 -20 -13 -140 18 -192 49 -301 64 -479 64 -286 0
-508 -37 -674 -114 -311 -144 -594 -441 -768 -806 -142 -296 -220 -593 -272
-1030 -16 -136 -23 -406 -14 -565 26 -459 129 -836 309 -1131 23 -36 36 -63
31 -60 -5 4 -31 42 -57 86 -26 44 -48 80 -50 80 -4 0 79 -197 120 -285 21 -44
45 -96 53 -115 8 -19 21 -47 29 -62 9 -16 13 -28 10 -28 -3 0 3 -16 14 -36 11
-19 21 -46 22 -60 1 -13 6 -24 10 -24 4 0 8 -13 8 -28 0 -16 3 -32 7 -36 6 -6
8 -14 16 -61 2 -11 6 -26 11 -33 4 -7 5 -25 1 -41 -8 -36 8 -75 48 -121 18
-20 41 -50 52 -66 62 -90 183 -193 229 -195 12 0 16 -3 10 -5 -6 -2 -71 9
-144 26 -73 16 -135 28 -137 26 -10 -10 372 -91 528 -113 154 -21 572 -24 729
-5 429 52 783 172 1134 384 518 313 987 856 1244 1439 133 301 208 554 247
833 16 110 21 380 10 480 -35 305 -93 519 -210 761 -74 152 -124 232 -211 335
-172 203 -458 375 -698 420 -84 16 -264 18 -528 7 -163 -7 -199 -6 -202 5 -2
7 -16 105 -31 218 -40 305 -79 529 -126 717 -131 531 -270 930 -460 1321 -116
239 -196 383 -413 742 -286 474 -440 705 -998 1491 -162 228 -328 464 -369
524 l-76 110 -17 107 c-9 59 -16 151 -16 206 0 116 -12 189 -41 249 -30 62
-67 84 -157 95 -163 20 -177 31 -198 155 -7 41 -19 81 -25 89 -20 25 -75 17
-113 -16z m-166 -900 c1 -102 -37 -313 -79 -438 -48 -141 -148 -341 -301 -602
-112 -192 -207 -365 -448 -820 -234 -440 -261 -488 -262 -460 0 9 -13 49 -29
90 -50 132 -54 120 34 120 58 0 76 3 72 13 -3 6 -72 179 -154 382 l-149 370 7
125 c4 69 8 146 8 171 1 45 0 46 -26 41 l-27 -5 18 29 c155 239 600 651 1171
1082 l150 114 7 -59 c4 -32 7 -101 8 -153z m-1132 -2430 c-7 -10 -14 -17 -17
-15 -4 4 18 35 25 35 2 0 -1 -9 -8 -20z m-2168 -6385 c13 -14 21 -25 18 -25
-2 0 -15 11 -28 25 -13 14 -21 25 -18 25 2 0 15 -11 28 -25z m643 -962 c-7 -2
-19 -2 -25 0 -7 3 -2 5 12 5 14 0 19 -2 13 -5z"/>
<path d="M7531 1433 c-1 -6 -4 -20 -7 -30 -5 -17 -5 -17 6 0 6 10 9 23 6 30
-3 9 -5 9 -5 0z"/>
<path d="M7490 1318 c-12 -35 -36 -89 -51 -120 -16 -32 -29 -61 -29 -65 1 -4
17 24 37 62 36 71 76 175 69 182 -2 2 -13 -25 -26 -59z"/>
<path d="M7390 1100 c-6 -11 -8 -20 -6 -20 3 0 10 9 16 20 6 11 8 20 6 20 -3
0 -10 -9 -16 -20z"/>
<path d="M8508 483 c7 -3 16 -2 19 1 4 3 -2 6 -13 5 -11 0 -14 -3 -6 -6z"/>
<path d="M8548 473 c7 -3 16 -2 19 1 4 3 -2 6 -13 5 -11 0 -14 -3 -6 -6z"/>
<path d="M8588 463 c7 -3 16 -2 19 1 4 3 -2 6 -13 5 -11 0 -14 -3 -6 -6z"/>
<path d="M4498 353 c6 -2 18 -2 25 0 6 3 1 5 -13 5 -14 0 -19 -2 -12 -5z"/>
<path d="M4573 343 c15 -2 37 -2 50 0 12 2 0 4 -28 4 -27 0 -38 -2 -22 -4z"/>
</g>
</svg>