<svg version="1.0" xmlns="http://www.w3.org/2000/svg"
 width="1280.000000pt" height="1073.000000pt" viewBox="0 0 1280.000000 1073.000000"
 preserveAspectRatio="xMidYMid meet">
<metadata>
Created by potrace 1.15, written by Peter Selinger 2001-2017
</metadata>
<g transform="translate(0.000000,1073.000000) scale(0.100000,-0.100000)"
fill="#000000" stroke="none">
<path d="M9729 9378 c-728 -739 -1366 -1387 -1418 -1440 l-96 -98 -644 -55
c-355 -30 -645 -56 -646 -58 -4 -4 -55 -344 -70 -469 -94 -766 -80 -1338 42
-1713 77 -240 206 -383 361 -402 l51 -6 -67 -32 c-68 -34 -109 -66 -138 -110
-75 -114 12 -297 210 -447 198 -149 467 -230 821 -246 l150 -7 -90 -55 c-49
-30 -153 -97 -230 -149 -422 -285 -653 -428 -1055 -656 -418 -238 -603 -316
-1315 -553 -165 -55 -408 -137 -540 -182 -515 -175 -1250 -371 -1560 -415
-148 -21 -175 -19 -304 24 -237 80 -389 98 -691 81 -294 -17 -1345 -8 -1635
14 -359 27 -578 46 -634 56 -84 15 -133 12 -169 -10 -35 -21 -62 -72 -62 -115
0 -43 36 -101 73 -118 64 -31 353 -61 877 -93 310 -19 1283 -25 1620 -10 237
10 342 -3 524 -65 102 -36 137 -43 224 -47 329 -15 1142 195 2237 578 66 23
226 76 355 117 334 107 560 198 822 329 323 162 979 553 1277 762 264 184 879
549 936 553 34 3 36 1 82 -76 57 -98 206 -250 317 -325 106 -70 300 -164 397
-190 215 -58 504 -37 799 56 116 36 277 102 372 150 l57 29 -51 60 c-196 229
-269 384 -208 445 11 11 23 20 28 21 120 8 168 20 247 58 229 109 608 408
1140 899 233 214 665 631 665 641 0 4 -48 13 -107 20 -482 55 -893 157 -1079
266 -100 59 -153 139 -140 210 4 19 23 58 42 87 83 122 106 245 105 563 0 443
-76 1065 -237 1955 -88 483 -302 1510 -315 1510 -4 0 -602 -604 -1330 -1342z"/>
<path d="M5570 5986 c0 -47 -4 -88 -10 -91 -5 -3 -26 19 -45 50 -53 83 -63 75
-38 -32 9 -38 -20 -27 -47 17 -14 22 -29 40 -34 40 -8 0 -5 -49 10 -132 6 -34
4 -38 -14 -38 -39 0 -248 -58 -322 -89 -531 -226 -854 -779 -787 -1346 47
-394 242 -719 565 -939 370 -252 838 -296 1251 -117 434 186 724 581 781 1061
13 113 12 184 -5 310 -67 500 -422 923 -900 1073 -44 13 -114 30 -155 37 -41
8 -76 14 -78 15 -1 2 11 37 28 80 17 43 28 80 25 84 -4 3 -20 -9 -37 -27 -16
-19 -31 -32 -33 -30 -3 2 -9 22 -14 44 l-9 39 -2 -50 c-2 -54 -13 -95 -22 -79
-3 5 -11 42 -18 82 -7 39 -17 72 -22 72 -5 0 -7 -8 -4 -17 12 -46 17 -123 7
-123 -11 0 -37 79 -48 143 -11 69 -23 49 -23 -37z"/>
<path d="M2960 4741 c0 -39 -3 -71 -7 -71 -5 0 -21 20 -36 45 -16 25 -31 45
-34 45 -3 0 -3 -20 0 -45 8 -55 -4 -57 -38 -8 l-25 38 0 -30 c1 -17 5 -49 9
-72 l8 -43 -36 -6 c-315 -51 -598 -254 -751 -537 -134 -248 -160 -562 -68
-832 94 -278 325 -521 598 -631 155 -63 373 -89 541 -65 292 43 559 213 722
458 131 197 194 451 168 679 -52 461 -364 813 -813 916 -51 11 -94 22 -96 23
-2 2 8 30 22 64 16 40 20 61 13 61 -7 0 -18 -9 -25 -20 -17 -27 -32 -25 -32 4
0 14 -4 28 -10 31 -6 4 -10 -16 -10 -52 0 -70 -16 -55 -26 24 -9 71 -22 68
-17 -4 5 -73 -11 -55 -28 30 -16 81 -29 80 -29 -2z"/>
<path d="M7835 3464 c-261 -46 -506 -174 -697 -364 -312 -311 -447 -760 -358
-1185 55 -262 174 -480 367 -672 l103 -101 -67 -53 c-67 -52 -71 -71 -11 -50
46 16 48 14 32 -25 -23 -54 -11 -51 26 6 18 27 36 50 41 50 12 0 12 2 -16 -75
-33 -87 -27 -107 8 -27 14 34 31 62 37 62 14 0 13 -5 -19 -108 -16 -51 -26
-92 -22 -91 3 0 28 34 54 76 55 87 67 85 67 -9 0 -32 4 -58 9 -58 5 0 17 22
26 50 25 75 36 65 48 -45 3 -30 3 -30 24 15 12 25 28 62 37 82 l15 38 46 -20
c143 -61 346 -95 529 -87 190 8 323 40 493 118 384 176 650 518 740 949 21
102 23 360 4 459 -53 274 -175 506 -366 696 -198 199 -435 323 -704 369 -116
20 -334 20 -446 0z"/>
<path d="M4660 2119 c-36 -5 -112 -26 -169 -45 -333 -111 -573 -362 -677 -710
-36 -120 -45 -346 -19 -472 46 -227 141 -403 304 -560 l75 -73 -29 -23 c-17
-13 -41 -33 -55 -45 l-25 -22 43 7 44 6 -16 -31 c-24 -45 -5 -38 22 9 35 61
45 47 17 -25 -13 -36 -22 -65 -20 -65 3 0 16 23 31 51 14 28 28 49 31 46 3 -3
-4 -37 -16 -76 -11 -38 -21 -73 -21 -78 0 -4 19 21 43 57 l42 65 5 -57 c3 -31
8 -59 11 -63 4 -3 14 12 23 35 21 53 36 51 36 -6 0 -55 12 -50 36 14 9 26 21
51 25 55 4 5 42 -3 85 -17 309 -104 654 -57 925 124 83 56 227 201 279 282
139 213 200 461 171 695 -54 440 -358 790 -780 900 -110 28 -310 39 -421 22z"/>
<path d="M2445 1851 c-149 -40 -270 -113 -366 -220 -71 -78 -115 -152 -153
-258 -29 -83 -31 -96 -31 -233 0 -137 2 -150 31 -233 42 -116 85 -186 169
-274 l70 -73 -35 -31 -35 -30 28 6 c26 5 27 4 17 -17 -9 -18 -5 -16 15 7 26
29 26 29 19 5 -4 -14 -9 -32 -11 -40 -2 -8 3 -2 12 13 23 40 28 29 10 -28 -8
-27 -13 -51 -11 -53 2 -2 14 15 27 37 26 47 39 45 40 -7 l1 -37 16 35 16 35 4
-33 c4 -43 16 -41 34 7 l16 40 48 -18 c120 -45 307 -52 439 -16 192 52 367
196 458 378 47 95 67 172 74 286 13 215 -59 403 -212 557 -82 82 -178 142
-290 180 -108 37 -294 44 -400 15z"/>
</g>
</svg>