<svg version="1.0" xmlns="http://www.w3.org/2000/svg"
 width="994.000000pt" height="1280.000000pt" viewBox="0 0 994.000000 1280.000000"
 preserveAspectRatio="xMidYMid meet">
<metadata>
Created by potrace 1.15, written by Peter Selinger 2001-2017
</metadata>
<g transform="translate(0.000000,1280.000000) scale(0.100000,-0.100000)"
fill="#000000" stroke="none">
<path d="M1985 12777 c-48 -74 -58 -125 -59 -297 -1 -158 -2 -165 -21 -166
-41 -2 -45 -5 -45 -33 0 -19 16 -50 46 -90 54 -72 96 -109 208 -185 98 -65
155 -81 221 -61 53 15 68 7 85 -46 8 -23 22 -44 31 -46 21 -6 31 -53 16 -72
-10 -11 -8 -13 11 -7 18 6 22 4 22 -13 0 -15 6 -21 21 -21 17 0 20 -5 17 -25
-4 -20 -1 -25 14 -25 26 0 43 -41 29 -69 -11 -20 -10 -21 15 -15 25 6 26 6 14
-16 -11 -20 -10 -25 4 -35 9 -7 16 -20 16 -29 0 -14 3 -14 20 -4 25 16 35 4
44 -53 4 -23 12 -39 20 -39 9 0 12 -8 8 -25 -3 -20 0 -25 16 -25 11 0 22 -8
26 -17 3 -10 20 -40 36 -67 22 -34 26 -47 15 -42 -9 3 -20 6 -25 6 -5 0 -30
19 -57 42 -69 60 -122 80 -225 86 -79 4 -94 2 -146 -21 -32 -15 -88 -31 -124
-36 -37 -5 -83 -17 -103 -27 -46 -22 -90 -80 -112 -151 l-17 -53 -26 25 c-37
35 -219 103 -229 86 -4 -5 -26 -14 -51 -21 -24 -7 -83 -31 -130 -54 -47 -23
-105 -49 -130 -57 -61 -19 -127 -85 -135 -136 -15 -96 -23 -111 -95 -168 -41
-33 -70 -64 -72 -77 -10 -62 30 -118 122 -172 79 -46 127 -63 269 -96 180 -41
285 -79 289 -106 3 -18 16 -23 90 -37 131 -25 173 -22 318 24 125 40 129 41
162 25 27 -13 32 -19 22 -31 -9 -11 -5 -14 27 -17 31 -2 39 -7 41 -25 2 -13 9
-23 16 -23 7 0 21 -9 31 -20 10 -11 26 -20 36 -20 10 0 23 -9 28 -19 6 -10 24
-24 41 -29 16 -6 30 -18 30 -26 0 -9 8 -16 18 -16 11 0 27 -9 36 -19 10 -11
24 -17 32 -14 8 3 15 -1 15 -11 1 -9 2 -20 3 -26 0 -5 11 -17 24 -26 22 -15
25 -15 43 2 18 17 19 16 19 -14 0 -31 13 -42 25 -22 13 20 25 -2 25 -46 0 -42
11 -56 26 -33 4 8 11 4 19 -11 8 -15 15 -19 19 -11 14 21 26 11 26 -22 0 -40
8 -51 27 -36 10 9 13 4 13 -25 0 -35 12 -47 25 -26 14 22 23 8 14 -22 -10 -37
-5 -46 16 -28 12 10 20 7 46 -20 28 -28 30 -34 20 -56 -17 -38 -13 -46 14 -28
33 21 44 11 19 -17 l-19 -21 44 7 44 7 -7 -41 c-7 -45 -5 -47 27 -27 20 13 24
12 39 -9 17 -23 17 -23 -27 -34 -24 -6 -59 -11 -77 -11 -53 0 -253 -106 -316
-168 -51 -50 -78 -60 -65 -25 5 12 2 15 -10 10 -21 -8 -22 2 -1 31 17 25 7 29
-22 7 -23 -18 -48 -19 -41 -2 20 50 21 51 5 44 -12 -4 -15 0 -10 16 5 22 5 22
-21 -2 -22 -20 -29 -22 -41 -12 -8 7 -21 9 -27 5 -8 -5 -10 -2 -6 8 7 21 -3
31 -18 18 -9 -8 -18 -2 -33 22 -12 18 -25 32 -29 31 -14 -4 -83 20 -83 29 0 4
-9 8 -20 8 -12 0 -24 10 -30 23 -5 12 -9 16 -9 10 -1 -18 -21 -16 -21 1 0 8
-8 12 -23 9 -18 -4 -35 6 -67 37 -36 35 -47 40 -71 35 -25 -6 -29 -3 -29 14 0
24 -16 37 -23 19 -3 -7 -6 -2 -6 11 -1 19 -4 21 -15 12 -11 -10 -16 -9 -23 4
-8 13 -12 12 -33 -10 -28 -29 -60 -33 -67 -6 -4 16 -12 18 -74 13 -60 -4 -71
-2 -86 16 -10 11 -32 23 -50 27 -26 5 -32 3 -38 -14 -7 -22 -16 -26 -29 -14
-13 13 -65 11 -77 -3 -15 -18 -33 -18 -71 2 -27 14 -32 14 -45 1 -10 -10 -27
-13 -53 -10 -31 4 -41 1 -51 -14 -11 -18 -15 -19 -53 -6 -39 14 -41 13 -59 -9
l-19 -23 -21 29 c-74 102 -155 177 -211 196 -18 6 -73 11 -122 13 -85 2 -93 0
-176 -38 -95 -43 -109 -64 -58 -85 17 -7 30 -15 30 -19 0 -4 -44 -36 -97 -71
-185 -122 -292 -267 -301 -406 -4 -57 -1 -68 22 -99 33 -43 132 -99 211 -119
78 -21 155 -19 240 5 116 33 119 33 130 7 17 -38 62 -26 112 30 22 26 44 45
47 42 3 -3 0 -25 -6 -48 -6 -25 -7 -47 -2 -52 5 -5 35 4 71 21 74 35 96 72
118 197 7 44 23 98 34 120 13 25 21 64 23 106 3 63 4 66 29 66 14 0 34 9 44
20 23 25 37 25 53 -1 l13 -20 17 20 c9 11 36 27 60 35 40 13 43 13 53 -5 13
-25 26 -24 34 1 3 11 13 20 21 20 7 0 19 -9 26 -20 17 -26 22 -25 36 5 12 26
45 34 57 14 4 -6 19 -7 38 -3 25 5 33 2 48 -17 16 -21 18 -22 24 -6 4 9 12 17
17 17 6 0 8 -7 5 -15 -8 -18 11 -31 25 -17 6 6 16 8 23 5 8 -2 22 0 33 6 15 8
23 7 33 -5 7 -8 18 -13 25 -10 23 9 47 -19 40 -47 -8 -34 0 -34 26 -1 23 29
35 23 40 -21 l4 -30 14 28 c12 25 15 26 30 12 9 -9 24 -13 32 -10 17 7 84 -53
80 -72 -5 -21 17 -24 28 -3 14 26 24 25 40 -5 10 -19 21 -25 47 -25 18 0 33
-4 33 -10 0 -5 7 -10 16 -10 12 0 15 -6 10 -25 -6 -22 -3 -25 22 -25 15 0 33
5 40 12 19 19 26 1 15 -36 -14 -44 -6 -52 24 -24 28 26 37 20 23 -17 -13 -35
-6 -43 18 -22 20 18 62 23 62 7 0 -5 -11 -17 -24 -25 -32 -21 -71 -82 -87
-134 -10 -33 -17 -41 -33 -39 -13 2 -23 14 -28 36 -10 39 -23 41 -32 6 l-7
-27 -25 24 -25 23 -6 -22 c-6 -25 -33 -30 -33 -7 0 23 -17 18 -24 -7 -6 -22
-7 -22 -23 7 l-16 30 -11 -25 c-14 -35 -14 -34 -32 -20 -13 12 -17 11 -25 -1
-5 -8 -9 -19 -9 -25 0 -15 -42 -12 -60 5 -13 13 -16 11 -20 -20 -3 -22 -8 -30
-13 -21 -13 20 -29 14 -25 -10 3 -23 1 -24 -60 -27 -18 -1 -22 -5 -17 -20 5
-16 0 -18 -34 -16 -39 2 -40 2 -34 -27 6 -30 5 -30 -27 -23 -31 7 -33 6 -28
-18 5 -23 3 -25 -14 -16 -26 14 -32 6 -17 -19 17 -27 5 -52 -26 -52 -22 0 -25
-3 -20 -21 6 -19 5 -20 -15 -9 -27 15 -38 5 -22 -20 18 -29 15 -51 -5 -48 -13
2 -19 -5 -21 -24 -2 -16 -5 -28 -6 -28 -2 0 -23 11 -47 25 -68 37 -131 66
-164 75 -16 5 -64 17 -105 29 -138 38 -162 24 -85 -48 25 -23 45 -46 45 -50 0
-14 -24 -20 -135 -31 -147 -15 -178 -29 -150 -66 17 -23 19 -34 5 -34 -20 0
-269 -185 -302 -225 -53 -63 -127 -239 -148 -355 -7 -36 -26 -105 -43 -155
-29 -81 -32 -102 -32 -206 1 -70 5 -122 12 -130 6 -8 13 -44 15 -80 3 -57 9
-73 37 -110 51 -66 106 -107 169 -125 31 -9 77 -25 102 -36 74 -34 179 -36
291 -4 52 15 127 41 167 58 58 25 78 30 99 22 40 -14 51 -58 26 -108 -37 -75
-54 -174 -55 -317 0 -118 4 -150 32 -269 18 -74 37 -141 43 -148 18 -23 -1
-25 -36 -3 -19 11 -46 21 -60 21 -15 0 -41 13 -60 30 -32 28 -67 40 -67 23 0
-4 10 -26 21 -50 12 -24 19 -46 16 -49 -3 -3 -22 -1 -43 5 -66 17 -215 23
-317 13 -114 -13 -141 -25 -262 -127 -44 -37 -90 -72 -102 -78 -13 -5 -26 -19
-29 -31 -8 -28 -75 -129 -196 -299 -104 -145 -150 -227 -191 -344 -15 -40 -30
-80 -36 -90 -18 -36 -71 -153 -71 -158 0 -3 -8 -24 -19 -48 -37 -84 -91 -316
-91 -392 0 -20 -3 -26 -9 -17 -8 13 -21 -239 -21 -408 0 -99 23 -273 46 -342
32 -97 142 -229 264 -313 49 -34 147 -74 182 -75 14 0 48 -11 75 -25 85 -44
263 -50 478 -16 110 18 135 27 215 79 84 55 120 75 124 70 4 -5 25 -114 36
-191 11 -73 40 -159 63 -186 13 -15 67 -185 67 -211 0 -22 79 -229 115 -300
43 -86 116 -169 197 -226 35 -24 74 -51 86 -61 13 -9 32 -17 43 -18 10 -1 27
-9 37 -18 28 -25 145 -76 194 -83 70 -11 73 -15 37 -60 -76 -95 -99 -141 -99
-200 0 -41 -5 -63 -20 -81 -12 -16 -20 -41 -20 -64 0 -37 2 -39 33 -41 51 -3
61 -2 87 7 21 6 23 5 13 -6 -32 -39 -105 -207 -123 -280 -26 -110 -36 -251
-21 -306 7 -24 16 -43 21 -43 16 0 68 50 105 100 20 28 41 47 47 44 13 -9 4
-148 -16 -236 -30 -130 -27 -374 5 -393 4 -3 29 22 54 57 25 35 60 80 78 100
l32 37 8 -32 c17 -67 27 -114 36 -157 5 -25 16 -83 25 -130 26 -129 55 -229
87 -292 16 -32 29 -68 29 -81 0 -22 25 -55 34 -46 2 2 25 48 50 102 26 54 51
95 56 92 4 -3 16 -29 26 -58 18 -56 36 -94 110 -232 73 -136 69 -131 88 -116
8 7 18 29 22 50 4 20 11 47 16 61 9 23 12 19 38 -51 31 -86 56 -129 75 -129 7
0 37 29 65 65 28 36 56 65 61 65 15 0 79 70 79 88 0 9 24 43 53 75 28 31 77
90 107 129 189 247 298 345 595 540 244 159 300 195 355 222 30 15 62 33 70
40 8 7 58 27 110 46 52 18 185 77 295 131 110 53 252 119 315 144 63 26 133
60 155 75 22 15 63 41 90 58 28 17 69 48 92 69 22 21 63 54 89 73 58 43 96 94
120 161 10 27 44 82 76 122 82 102 104 152 133 307 13 74 33 178 44 230 11 52
23 163 26 246 8 163 13 186 39 165 18 -15 21 -47 6 -56 -6 -3 -10 -11 -10 -16
0 -5 10 -3 23 6 39 25 54 -17 17 -50 -28 -25 -25 -36 6 -25 14 6 27 10 30 10
2 0 30 -27 62 -60 63 -65 88 -76 78 -35 -4 14 -2 25 4 25 5 0 10 7 10 16 0 11
6 14 20 9 24 -8 25 -3 4 38 -9 18 -13 29 -9 25 5 -4 14 -3 21 3 10 8 17 4 31
-18 10 -17 23 -28 28 -26 6 2 26 -13 45 -32 52 -54 80 -44 80 27 0 25 3 29 20
25 24 -6 27 15 4 33 -8 8 -19 21 -25 31 -8 15 -4 21 22 34 40 21 30 30 -27 26
-30 -2 -44 1 -40 8 4 5 1 13 -6 18 -7 4 -19 19 -27 32 -12 22 -11 26 9 41 l21
16 -26 12 c-14 7 -23 16 -20 22 8 13 168 111 173 106 2 -3 -8 -22 -22 -43 -14
-20 -26 -47 -26 -58 0 -16 8 -11 40 25 40 46 56 48 20 3 -30 -39 -24 -45 17
-18 40 28 50 27 34 -3 -17 -33 -14 -47 7 -29 26 24 46 22 32 -2 -18 -34 -11
-45 14 -22 l23 22 17 -25 c21 -32 20 -38 -5 -87 -27 -53 -18 -75 11 -27 25 43
28 44 45 21 11 -15 15 -15 29 -4 14 12 23 7 67 -43 52 -56 115 -103 126 -93 3
4 -9 28 -26 55 -17 27 -31 51 -31 53 0 6 110 -7 178 -20 51 -10 52 -4 17 75
-30 68 -31 84 -5 84 25 0 25 11 -1 44 -12 15 -30 26 -45 26 -27 0 -28 3 -14
30 8 15 6 20 -11 25 -20 7 -20 7 -2 28 17 19 17 20 1 14 -32 -12 -19 19 22 52
60 48 54 65 -17 40 -31 -10 -61 -19 -67 -19 -5 0 14 22 44 50 60 55 62 76 3
36 -20 -14 -45 -26 -53 -26 -21 0 -40 20 -40 41 0 21 -46 56 -80 61 -25 3 -25
6 -13 51 4 11 0 17 -10 17 -8 0 -32 7 -53 16 -36 15 -37 17 -19 30 39 26 47
36 37 46 -5 5 -19 4 -36 -3 -20 -9 -29 -10 -34 -2 -4 6 -20 15 -35 18 -21 6
-25 10 -17 20 12 15 -7 25 -46 25 -29 0 -31 15 -4 30 28 15 25 32 -4 24 -33
-8 -76 17 -118 68 -34 42 -36 47 -47 168 -7 69 -16 147 -22 173 -15 80 -11
105 30 175 48 82 131 166 234 239 43 31 146 121 230 200 208 199 323 278 461
318 32 9 92 40 134 69 42 29 107 73 143 98 66 45 117 68 195 88 22 5 86 39
142 75 57 37 134 79 173 95 38 15 102 52 142 81 81 59 166 117 182 123 5 2 -9
24 -33 48 l-43 45 33 32 c32 32 86 77 278 236 255 210 317 268 312 287 -8 32
-49 50 -122 56 -54 4 -70 8 -70 20 0 17 106 119 160 155 23 15 49 49 76 99 43
80 94 154 157 226 20 24 37 50 37 57 0 20 -32 35 -76 35 l-36 0 28 38 c15 20
63 79 107 131 43 51 95 119 116 150 57 85 122 213 116 229 -4 11 -17 12 -55 7
-42 -6 -51 -4 -56 10 -4 9 -3 20 2 24 30 20 174 257 174 284 0 17 54 121 83
159 123 163 145 208 102 208 -9 0 -54 -16 -101 -35 -46 -19 -91 -35 -99 -35
-19 0 -19 21 -1 90 7 30 16 82 19 115 9 89 33 168 79 264 46 95 56 165 27 184
-13 8 -28 3 -68 -22 -55 -36 -131 -53 -131 -31 0 8 22 61 50 120 85 184 123
358 85 390 -12 10 -32 9 -102 -4 -47 -9 -89 -14 -91 -11 -3 3 4 24 15 48 34
68 51 138 63 264 6 65 16 126 21 135 5 10 5 19 0 23 -5 3 -7 14 -4 25 8 29
-19 26 -191 -15 -80 -19 -157 -35 -171 -35 -31 0 -33 21 -6 81 29 64 18 72
-89 67 -72 -4 -98 -10 -168 -43 -45 -21 -86 -35 -90 -31 -10 10 -9 102 2 149
8 35 7 37 -16 37 -13 0 -73 -17 -134 -39 -105 -36 -204 -87 -303 -154 -48 -33
-66 -25 -57 24 6 34 -2 66 -20 73 -12 4 -110 -38 -289 -124 -33 -16 -99 -59
-147 -95 -47 -36 -91 -65 -97 -65 -6 0 -11 20 -11 49 0 42 -3 51 -21 56 -31
10 -147 -4 -200 -24 -57 -22 -139 -78 -139 -94 0 -7 -5 -18 -11 -24 -9 -9 -25
9 -63 70 -29 45 -68 102 -87 127 -106 138 -141 178 -183 209 -68 51 -69 71 -1
94 21 8 40 18 42 24 2 6 -22 25 -53 43 -47 26 -79 35 -173 48 -142 20 -187 19
-232 -1 -19 -9 -55 -21 -81 -28 -70 -17 -133 -75 -149 -139 -10 -39 -15 -47
-26 -38 -10 8 -18 7 -31 -6 -25 -22 -28 -21 -41 14 -14 40 -31 38 -31 -4 0
-44 -11 -51 -43 -26 -33 26 -35 25 -39 -7 -2 -23 -8 -29 -35 -31 -19 -2 -33 1
-33 7 0 6 -4 11 -10 11 -5 0 -10 -11 -10 -25 0 -29 -16 -32 -43 -7 -19 17 -20
16 -13 -12 6 -23 4 -27 -8 -22 -9 3 -23 9 -32 13 -13 5 -15 2 -10 -14 8 -26
-20 -54 -30 -29 -9 23 -27 20 -21 -4 7 -26 -9 -35 -30 -18 -14 11 -16 10 -11
-8 8 -31 -6 -51 -25 -36 -17 15 -27 6 -27 -25 0 -17 -5 -23 -17 -21 -10 2 -17
-3 -15 -10 1 -7 -5 -15 -13 -18 -8 -4 -15 -12 -15 -20 0 -21 -17 -17 -34 8
-21 30 -28 19 -14 -20 15 -39 5 -51 -22 -27 -26 24 -35 14 -22 -24 13 -36 5
-46 -20 -24 -25 22 -35 9 -20 -29 14 -37 9 -48 -23 -48 -20 0 -24 -5 -22 -22
1 -17 -4 -24 -20 -26 -18 -3 -23 -10 -23 -34 0 -30 -1 -30 -37 -24 -21 3 -62
6 -91 6 -34 0 -52 4 -50 11 2 6 53 37 113 68 60 32 111 63 113 69 2 6 -20 13
-53 17 -31 4 -54 12 -52 18 1 5 36 33 77 61 109 75 119 100 121 291 1 83 6
156 11 162 7 8 6 30 -2 64 -12 47 -9 163 4 176 3 3 26 -13 51 -35 46 -40 101
-67 109 -54 3 4 -21 62 -53 127 -45 94 -75 139 -134 207 -99 113 -166 148
-295 157 l-86 6 -21 66 c-11 36 -27 77 -36 90 -23 35 -194 122 -224 115 -29
-7 -129 11 -133 24 -5 15 -22 12 -22 -3 0 -25 -21 -37 -42 -24 -14 9 -20 9
-27 -1 -4 -7 -15 -10 -24 -7 -10 4 -20 -1 -27 -15 -7 -13 -20 -21 -33 -20 -38
3 -43 1 -55 -25 -6 -14 -16 -25 -22 -25 -18 0 -89 -55 -96 -73 -3 -10 -12 -16
-19 -13 -8 3 -19 -2 -26 -10 -6 -8 -23 -13 -38 -12 -24 3 -25 0 -23 -33 2 -21
-1 -40 -7 -44 -6 -3 -11 -15 -11 -25 0 -13 -5 -17 -15 -14 -12 5 -15 -3 -15
-35 0 -31 -4 -41 -16 -41 -10 0 -13 -6 -10 -18 4 -10 -1 -27 -9 -38 -8 -10
-15 -31 -15 -46 0 -23 -4 -28 -26 -28 -14 0 -23 -4 -19 -10 3 -5 -1 -10 -10
-10 -10 0 -15 -5 -12 -12 3 -7 8 -20 12 -29 4 -11 0 -18 -16 -22 -16 -4 -20
-10 -14 -24 18 -45 18 -53 -4 -53 -25 0 -28 -15 -5 -24 24 -9 14 -50 -13 -54
-23 -3 -30 -16 -15 -26 4 -2 6 -25 4 -50 -3 -37 -8 -46 -23 -46 -23 0 -25 -15
-4 -24 23 -8 18 -25 -9 -32 -22 -5 -24 -9 -21 -69 2 -35 6 -68 9 -73 3 -6 -1
-12 -9 -16 -22 -8 -18 -24 8 -29 20 -3 19 -5 -11 -16 -36 -15 -42 -30 -12 -38
11 -3 23 -17 26 -32 3 -14 12 -48 19 -74 15 -55 8 -64 -45 -54 -22 5 -33 2
-43 -13 -8 -11 -17 -17 -21 -13 -4 4 -9 -3 -13 -15 -9 -36 -18 -26 -31 36 -11
53 -11 58 7 73 22 18 18 29 -10 29 -13 0 -16 5 -12 16 3 9 0 20 -7 24 -9 6 -7
10 9 15 30 9 26 21 -11 35 -31 10 -32 12 -15 25 18 13 18 13 -1 19 -14 5 -18
13 -15 26 3 11 0 26 -6 34 -7 8 -9 25 -5 40 4 18 2 28 -9 32 -9 3 -14 11 -11
18 2 6 -2 42 -10 80 -7 37 -12 76 -9 86 3 11 2 28 -3 37 -4 10 -9 23 -9 28 -1
6 -5 18 -10 28 -4 10 -2 23 5 32 10 12 9 16 -5 21 -12 5 -15 14 -10 31 3 13 2
29 -2 36 -4 7 -13 41 -19 75 -8 50 -7 69 3 89 12 22 11 29 -3 44 -13 15 -14
22 -5 33 10 11 10 23 0 54 -12 43 0 101 28 134 10 11 11 18 4 23 -16 9 -13 25
3 25 12 0 13 6 4 31 -9 26 -8 33 6 41 9 5 16 19 16 32 0 24 15 64 56 152 13
28 24 56 24 62 0 32 18 5 38 -55 39 -120 130 -215 215 -228 80 -12 183 39 234
116 25 38 27 39 86 39 72 0 109 24 162 104 62 93 71 235 19 311 -13 20 -24 38
-24 40 0 2 23 8 50 14 103 22 175 77 205 156 15 37 17 69 13 187 -4 129 -7
148 -31 194 -42 83 -154 152 -226 140 -88 -16 -111 -18 -111 -9 0 6 22 29 49
51 66 55 81 99 51 146 -50 81 -131 129 -252 150 -46 8 -110 26 -143 40 -33 14
-72 26 -87 26 -15 0 -59 5 -97 12 -61 10 -72 10 -95 -6 -37 -24 -66 -74 -66
-116 0 -19 -3 -45 -6 -57 -6 -23 -7 -23 -53 11 -57 41 -127 66 -188 66 -26 0
-80 9 -122 21 -92 26 -142 21 -183 -18 -36 -35 -154 -275 -169 -345 -9 -39 -8
-69 1 -121 16 -88 53 -138 138 -185 34 -18 62 -40 62 -47 0 -8 -13 -22 -29
-31 -36 -21 -97 -93 -112 -131 -29 -77 -2 -235 53 -309 81 -109 174 -194 211
-194 15 0 194 -48 225 -61 19 -7 21 -12 12 -28 -5 -11 -10 -31 -10 -45 0 -14
-9 -35 -21 -47 -13 -13 -18 -27 -14 -40 4 -11 2 -19 -5 -19 -7 0 -10 -7 -6
-15 3 -8 -2 -22 -11 -30 -13 -14 -14 -30 -9 -100 5 -62 4 -84 -6 -87 -9 -3 -9
-11 0 -34 7 -16 10 -52 8 -80 -2 -29 0 -58 4 -65 5 -7 2 -28 -6 -47 -17 -42
-17 -42 0 -42 8 0 16 -15 20 -37 4 -29 2 -41 -12 -51 -18 -14 -16 -18 34 -48
16 -10 16 -12 -6 -34 -16 -16 -20 -25 -11 -28 9 -3 9 -7 -1 -20 -11 -13 -10
-14 16 -8 27 7 28 6 22 -20 -4 -15 -2 -40 5 -57 11 -25 10 -31 -4 -39 -25 -13
-21 -38 6 -38 l22 -1 -23 -12 c-25 -14 -20 -27 12 -27 20 -1 20 -2 4 -14 -25
-18 -22 -26 9 -26 25 0 26 0 8 -20 -17 -19 -17 -21 -1 -39 11 -12 15 -27 12
-39 -4 -13 -1 -22 9 -26 10 -4 15 -19 15 -51 0 -35 4 -45 16 -45 12 0 15 -6
11 -22 -4 -13 0 -29 7 -38 19 -21 36 -86 36 -137 0 -45 -9 -53 -30 -28 -20 24
-30 17 -19 -12 14 -37 5 -57 -20 -43 -29 15 -31 13 -31 -25 0 -41 -20 -47 -44
-13 -18 26 -24 22 -32 -20 -4 -21 -3 -32 5 -32 21 0 11 -16 -18 -27 -23 -8
-31 -19 -36 -47 -9 -48 -21 -53 -39 -18 -25 48 -110 118 -162 132 -33 10 -51
22 -65 44 -22 36 -24 67 -7 84 10 10 10 15 1 20 -6 4 -17 19 -23 32 -6 14 -17
36 -25 50 -8 14 -15 42 -15 62 0 20 -5 38 -11 40 -6 2 -14 19 -18 38 -4 19
-13 34 -19 32 -7 -1 -12 8 -12 20 0 26 -35 88 -49 88 -5 0 -7 18 -4 39 5 33 2
40 -13 43 -11 2 -19 12 -19 23 0 13 -8 21 -23 23 -18 3 -21 8 -16 27 3 12 1
26 -5 30 -6 3 -8 17 -5 30 4 17 -2 31 -24 55 -20 20 -32 46 -36 74 -4 24 -16
53 -26 64 -11 12 -20 28 -20 36 0 9 -13 31 -30 49 -20 23 -30 45 -30 66 0 17
-3 31 -7 31 -7 0 -26 28 -59 88 -7 12 -10 22 -7 22 3 0 -2 9 -11 19 -10 10
-18 33 -18 50 -1 20 -6 31 -15 31 -9 0 -13 8 -11 23 1 14 -8 36 -25 56 -15 18
-27 41 -27 50 0 10 -10 34 -23 52 -13 19 -41 77 -62 128 -24 57 -48 99 -62
108 -13 8 -23 24 -23 34 0 10 -9 34 -21 53 -11 19 -18 40 -14 46 3 5 -6 21
-20 36 -36 36 -58 71 -51 83 4 5 2 12 -4 16 -5 3 -10 14 -10 23 0 10 -10 22
-22 27 -14 6 -31 31 -45 65 -12 30 -31 61 -42 69 -12 7 -21 24 -21 37 0 12 -5
26 -10 29 -18 11 -91 115 -106 150 -22 54 -17 95 23 186 36 79 38 90 38 189 0
98 -2 108 -29 154 -27 46 -30 48 -42 31 -8 -10 -14 -27 -14 -37 0 -37 -19 -16
-60 67 -63 124 -115 175 -225 221 -49 20 -111 39 -136 42 -42 4 -49 1 -64 -21z
m3142 -1754 c10 2 26 8 36 12 12 5 17 3 17 -8 0 -19 50 -29 69 -14 18 15 37
-12 46 -63 9 -51 -15 -107 -52 -121 -15 -5 -57 -34 -93 -64 -100 -80 -161
-194 -200 -370 -27 -125 -26 -185 5 -185 7 0 34 23 59 50 l45 51 6 -38 c29
-176 85 -300 177 -394 95 -97 171 -140 307 -175 42 -11 53 -34 17 -34 -14 0
-52 -13 -85 -29 -40 -19 -58 -24 -54 -14 4 11 -1 13 -23 7 -16 -4 -35 -11 -41
-17 -9 -7 -13 -5 -13 7 0 9 -5 16 -11 16 -6 0 -8 9 -4 21 7 20 4 21 -21 16
-24 -4 -37 2 -71 34 -23 21 -47 39 -53 39 -5 0 -10 14 -10 32 0 31 0 31 -21
12 -22 -19 -22 -19 -17 9 5 27 -5 37 -17 17 -9 -15 -42 -12 -49 5 -3 8 -14 15
-25 15 -11 0 -22 9 -26 20 -7 21 -20 26 -30 11 -7 -13 -95 -7 -122 7 -12 7
-47 12 -78 12 -40 0 -57 4 -61 15 -8 20 -22 19 -26 -2 -5 -26 -55 -23 -67 4
-13 27 -29 30 -38 6 -13 -33 -30 -44 -43 -27 -14 16 -25 11 -25 -14 0 -19 -39
-42 -72 -42 -19 0 -23 6 -23 29 0 56 13 93 35 103 l23 10 -29 27 -29 28 25 23
c22 21 23 25 10 40 -20 22 -19 47 3 59 14 9 15 12 3 20 -11 7 -11 15 -2 41 6
18 11 47 11 64 0 17 7 40 15 50 8 11 15 37 15 57 0 21 6 39 13 42 9 4 9 7 0
18 -10 10 -10 16 0 27 6 8 17 31 22 51 7 24 18 37 34 41 l23 5 -21 19 c-26 23
-17 40 16 31 27 -6 28 0 8 47 -5 13 -2 15 15 11 20 -5 22 -3 16 25 -6 25 -4
31 14 37 16 5 18 10 10 20 -7 9 -6 16 5 25 8 7 15 20 15 29 0 25 76 98 115
111 34 11 40 19 36 48 -2 9 4 12 18 7 13 -4 23 0 30 12 9 17 11 17 40 0 l31
-18 0 30 c0 30 13 41 25 21 10 -16 40 -12 65 10 22 19 25 19 41 4 10 -9 26
-14 36 -11z m-2207 -50 c0 -13 5 -23 10 -23 6 0 10 -9 10 -20 0 -11 5 -20 11
-20 6 0 8 -8 4 -19 -4 -14 -1 -19 12 -17 11 0 17 -5 16 -14 -1 -8 -3 -24 -5
-35 -2 -15 2 -19 20 -18 23 3 31 -20 12 -32 -18 -11 -10 -34 18 -47 23 -12 27
-19 24 -52 -3 -31 0 -37 12 -33 11 5 17 -3 22 -29 4 -20 21 -49 41 -69 24 -24
33 -40 29 -53 -4 -12 3 -27 19 -42 14 -13 25 -29 25 -36 0 -7 14 -29 31 -49
23 -26 27 -35 15 -35 -20 0 -21 -16 -1 -24 8 -3 12 -12 9 -20 -3 -9 3 -19 16
-26 20 -11 21 -12 4 -25 -17 -12 -17 -14 -1 -38 9 -14 26 -28 37 -32 12 -4 20
-15 20 -29 0 -13 10 -36 22 -51 14 -18 23 -45 25 -73 1 -24 8 -52 15 -61 26
-32 38 -60 32 -76 -4 -10 0 -15 10 -15 13 0 15 -4 6 -19 -15 -29 -13 -32 18
-25 26 7 27 6 10 -13 -24 -27 -23 -47 2 -40 16 4 20 0 20 -20 0 -14 14 -44 31
-68 22 -30 29 -49 24 -64 -8 -26 -20 -20 -97 49 -32 28 -62 49 -67 46 -6 -4 1
-43 15 -94 14 -48 27 -98 30 -112 5 -25 5 -25 -20 5 -14 17 -26 38 -26 47 0 9
-4 20 -10 23 -5 3 -10 18 -10 33 0 20 -3 23 -12 14 -20 -20 -28 -14 -28 21 0
33 -17 54 -62 77 -39 21 -68 52 -68 76 0 13 -8 24 -19 27 -11 2 -31 28 -46 56
-21 43 -29 51 -45 46 -13 -4 -22 -1 -26 9 -3 9 -12 16 -20 16 -8 0 -26 26 -40
58 -25 57 -25 57 -43 36 -17 -21 -18 -21 -29 -3 -7 10 -17 19 -23 19 -6 0 -54
40 -105 90 -52 49 -108 97 -124 105 -17 9 -30 22 -30 29 0 8 -10 17 -22 20
-13 3 -42 24 -65 45 l-42 38 72 36 c39 20 90 54 111 76 34 34 37 42 26 56 -9
11 -22 14 -42 10 -15 -4 -28 -4 -28 -1 0 4 14 30 30 59 17 30 30 65 30 79 0
14 25 65 56 114 31 49 68 114 81 144 35 78 44 87 59 58 8 -13 13 -33 14 -45z
m3536 -1133 c13 -128 27 -167 92 -240 45 -52 67 -91 77 -140 15 -76 56 -104
76 -52 39 97 52 110 78 78 7 -8 58 -33 114 -55 136 -55 136 -55 114 -79 -12
-13 -38 -22 -75 -27 -68 -8 -76 -12 -170 -83 -40 -30 -74 -53 -75 -51 -1 2
-12 18 -24 36 -19 27 -20 33 -8 43 23 19 18 27 -15 22 -22 -3 -30 0 -30 10 0
8 -11 20 -25 26 -15 7 -25 20 -25 32 0 17 -5 20 -27 18 -22 -2 -27 1 -25 15 2
11 -4 17 -18 17 -11 0 -28 8 -39 19 -14 14 -23 16 -36 8 -15 -8 -17 -6 -12 12
5 21 -7 29 -18 11 -11 -18 -25 -10 -25 14 0 20 -4 23 -32 22 -22 -1 -34 -7
-36 -19 -5 -22 -22 -12 -22 14 0 10 -4 19 -10 19 -5 0 -10 -6 -10 -14 0 -26
-20 -28 -39 -5 l-18 23 -8 -23 c-6 -18 -9 -21 -16 -10 -6 10 -11 11 -16 3 -5
-6 -18 -14 -30 -18 -21 -7 -23 -4 -23 34 0 46 -23 53 -28 9 -8 -73 -21 -87
-40 -44 -17 38 -34 31 -26 -10 7 -37 -5 -46 -26 -20 -18 21 -33 19 -27 -5 4
-14 0 -20 -12 -20 -9 0 -23 -6 -29 -12 -10 -10 -17 -7 -35 14 -12 14 -34 34
-49 43 -35 21 -35 33 -3 45 14 5 25 16 25 24 0 9 7 12 20 9 18 -5 19 -2 14 26
-6 27 -4 30 11 25 14 -6 16 -3 10 14 -5 19 -2 22 19 22 17 0 26 6 26 15 0 9 7
18 15 21 8 4 15 10 15 15 0 6 7 21 16 34 15 23 17 23 40 8 26 -17 30 -12 14
17 -8 16 -8 18 5 14 10 -4 15 0 15 15 0 21 35 47 58 43 7 -2 12 8 12 23 0 27
14 34 24 10 9 -24 24 -17 28 13 2 18 8 26 19 24 9 -1 24 6 33 17 11 12 25 17
38 13 14 -3 26 1 35 14 11 15 17 17 33 6 29 -18 39 -15 52 13 7 15 18 24 27
23 12 -3 18 -28 27 -118z m-1676 -85 c20 18 21 18 35 -2 10 -14 22 -19 40 -16
14 3 25 9 25 14 0 5 4 9 9 9 5 0 7 -9 4 -20 -7 -26 4 -25 28 3 l18 22 1 -22
c0 -23 23 -32 35 -13 6 10 45 14 45 5 0 -4 -7 -20 -16 -36 -19 -38 -11 -49 16
-24 32 29 74 10 78 -34 3 -32 4 -32 23 -15 11 10 19 12 19 6 0 -7 7 -12 17
-12 13 0 99 -80 91 -85 -50 -28 -108 -69 -108 -76 0 -9 -53 -39 -70 -39 -5 0
-10 18 -10 40 0 22 -4 40 -10 40 -5 0 -10 -13 -10 -30 0 -22 -5 -30 -17 -31
-10 0 -27 -2 -37 -4 -11 -2 -25 4 -32 13 -11 16 -15 15 -39 -8 -22 -21 -28
-22 -36 -10 -8 13 -14 10 -35 -13 -14 -17 -31 -27 -39 -23 -10 3 -15 -1 -15
-11 0 -14 -2 -14 -20 2 -20 18 -20 17 -20 -13 0 -34 -8 -40 -28 -20 -9 9 -12
7 -12 -11 0 -12 -4 -19 -10 -16 -6 3 -14 -5 -20 -19 -5 -15 -20 -28 -35 -32
-16 -4 -25 -13 -25 -25 0 -10 -5 -19 -11 -19 -5 0 -16 -15 -24 -34 -12 -28
-18 -33 -40 -29 -27 6 -35 -13 -13 -35 16 -16 -5 -16 -34 -1 -29 16 -33 4 -9
-29 18 -25 19 -31 7 -42 -18 -14 -31 6 -45 70 -14 61 -3 110 25 121 32 11 30
21 -11 75 -38 49 -41 64 -23 94 10 15 10 26 0 53 -15 41 -16 87 -2 87 6 0 10
5 10 10 0 6 -7 10 -15 10 -15 0 -20 21 -8 34 12 11 12 40 1 53 -14 17 -12 18
40 36 26 9 45 11 48 5 3 -5 13 0 21 11 9 13 25 21 43 21 16 0 32 5 36 12 5 8
11 6 20 -7 12 -16 14 -16 29 -1 10 10 25 14 39 10 17 -4 25 0 31 13 6 16 8 16
16 -6 9 -23 10 -23 29 -6z m-452 -132 c22 -20 38 -98 22 -108 -6 -4 -7 -11 -4
-17 9 -14 14 -88 6 -88 -14 0 -72 25 -72 31 0 4 7 9 15 13 8 3 15 10 15 17 0
6 -7 9 -15 5 -19 -7 -19 4 1 32 17 25 11 42 -16 42 -17 0 -40 26 -40 45 0 3
12 4 28 3 22 -3 27 1 26 20 -1 27 7 28 34 5z m-140 -127 c-15 -18 -8 -26 19
-26 l28 0 -25 -24 c-17 -17 -39 -25 -70 -28 -40 -3 -45 0 -48 19 -2 15 5 25
25 35 17 8 28 21 28 33 0 11 9 28 20 37 19 16 20 15 26 -10 3 -15 2 -31 -3
-36z m1933 -136 l1 25 7 -25 c9 -31 33 -32 46 -2 12 28 31 28 46 0 l11 -21 18
23 c15 20 21 22 34 11 8 -7 24 -10 36 -6 18 6 20 4 14 -19 -8 -35 13 -34 26 0
14 36 36 25 32 -15 l-4 -33 26 17 c14 10 26 13 26 9 0 -5 10 -14 23 -19 22
-10 25 -25 11 -60 -7 -19 -7 -19 13 -2 11 9 24 17 30 17 5 0 17 -8 25 -17 17
-20 51 -103 45 -110 -3 -2 -16 2 -31 8 -29 14 -46 5 -28 -13 21 -21 13 -29
-13 -12 l-25 16 6 -31 c7 -34 7 -34 -73 -31 -23 1 -80 -10 -127 -24 -46 -14
-95 -26 -108 -26 -23 0 -78 46 -78 64 0 7 -79 185 -101 228 -13 25 -12 28 15
28 36 0 56 10 56 29 0 12 5 10 20 -9 l20 -25 1 25z m-1296 -79 c3 -6 1 -29 -5
-53 -6 -24 -13 -58 -15 -75 -7 -42 -30 -113 -62 -185 -26 -58 -25 -88 1 -88
28 0 144 108 151 140 10 45 20 44 22 -3 5 -155 65 -362 113 -392 6 -4 17 -23
26 -43 8 -20 44 -66 79 -103 57 -59 65 -72 67 -108 4 -90 5 -86 -21 -83 -30 5
-24 -18 9 -35 23 -11 23 -12 -10 -15 -43 -4 -48 -20 -14 -51 26 -25 26 -25 5
-32 -16 -5 -20 -12 -16 -26 5 -15 2 -19 -14 -19 -29 0 -26 -17 4 -24 35 -9 31
-26 -6 -26 -24 0 -30 -4 -25 -15 3 -9 0 -15 -10 -15 -8 0 -12 -4 -9 -10 3 -5
19 -10 35 -10 16 0 32 -4 35 -10 4 -6 -6 -10 -24 -10 -36 0 -49 -17 -26 -34
16 -12 16 -13 1 -19 -9 -4 -16 -11 -16 -17 0 -6 5 -8 10 -5 13 8 50 -3 50 -15
0 -5 -17 -11 -37 -13 -33 -3 -35 -5 -15 -12 18 -6 20 -10 11 -21 -13 -16 -13
-16 16 -32 18 -10 17 -12 -13 -18 -44 -9 -51 -24 -11 -24 30 0 31 -1 16 -18
-19 -20 -23 -37 -7 -27 6 3 10 4 10 1 0 -3 -12 -12 -27 -21 l-28 -16 38 5 c40
5 51 -8 15 -18 l-23 -7 23 -11 c29 -15 28 -28 -3 -28 -14 0 -25 -4 -25 -10 0
-5 9 -10 20 -10 11 0 20 -4 20 -9 0 -5 -9 -13 -20 -16 -29 -9 -25 -25 8 -26
l27 -1 -25 -11 c-42 -20 -49 -27 -43 -42 3 -10 19 -15 45 -15 44 0 43 -15 -2
-25 -35 -8 -31 -25 6 -25 29 0 32 -16 5 -23 -17 -4 -19 -11 -14 -58 l5 -53
-38 34 c-22 18 -43 39 -47 47 -4 7 -17 13 -28 13 -11 0 -22 7 -25 15 -4 9 -19
15 -39 15 -61 0 -113 30 -129 75 -7 20 -8 20 -19 -1 -7 -13 -21 -20 -34 -19
-14 1 -23 -4 -23 -12 0 -18 -10 -16 -26 5 -11 14 -15 14 -22 4 -7 -11 -11 -10
-16 4 -6 16 -8 16 -21 -2 -13 -17 -14 -17 -15 -1 0 24 -20 22 -20 -3 0 -21
-15 -27 -25 -10 -9 15 -25 12 -25 -5 0 -25 -18 -17 -35 15 -22 43 -19 69 10
80 33 13 32 29 -4 36 -21 5 -27 11 -24 24 3 10 15 21 26 25 20 6 19 8 -12 16
-31 10 -32 11 -15 24 18 14 18 14 -1 15 -18 0 -18 2 5 20 l25 19 -25 9 c-27
10 -29 20 -10 32 9 6 6 12 -11 20 l-23 13 23 8 c13 6 19 13 15 21 -4 6 -8 24
-9 40 -2 15 -8 35 -15 43 -6 8 -9 19 -6 24 4 5 1 13 -5 17 -8 5 -8 9 1 14 19
12 23 63 5 56 -8 -3 -3 10 11 31 27 41 32 68 9 59 -17 -6 -21 9 -5 19 6 3 7
17 4 30 -4 17 0 26 13 34 12 6 28 37 41 78 61 195 56 407 -14 545 -26 52 -20
59 31 36 20 -9 28 -9 37 0 10 10 1 22 -35 56 -32 29 -45 48 -41 59 7 20 31 29
55 22 26 -9 24 10 -3 30 -23 16 -23 16 -4 30 11 8 30 15 43 15 26 0 27 3 13
30 -9 16 -8 18 6 13 12 -4 15 0 12 18 -3 24 2 26 36 13 16 -6 17 -4 7 14 -16
29 -14 34 8 22 18 -9 19 -7 14 25 -5 30 -3 35 14 35 12 0 26 7 33 15 14 17 36
20 45 6z m-2331 -346 c8 -30 36 -34 36 -5 0 22 10 26 27 9 9 -9 3 -24 -22 -59
-76 -108 -126 -246 -145 -400 -6 -52 -28 -167 -50 -255 -44 -185 -58 -268 -71
-420 -5 -60 -12 -131 -15 -156 l-6 -46 -60 -7 c-100 -10 -108 -9 -108 17 0 12
16 74 36 137 29 96 36 136 41 242 l6 127 27 -6 c16 -3 31 0 35 7 4 7 -12 53
-36 103 -33 71 -60 110 -118 172 -41 44 -83 83 -93 87 -10 4 -18 12 -18 18 0
21 21 50 35 50 19 0 19 11 0 36 -18 24 -19 38 -2 31 8 -3 20 -1 28 4 11 7 12
12 2 29 -17 25 -16 30 2 30 11 0 13 8 9 30 -6 29 7 42 21 20 13 -21 25 -9 19
17 l-7 27 26 -17 c26 -17 27 -17 27 4 0 22 0 22 21 3 22 -19 22 -19 17 10 -7
37 14 63 32 41 16 -19 30 -10 30 18 0 12 5 29 10 37 8 13 14 10 35 -15 l26
-30 -6 38 c-7 44 -3 45 33 12 l27 -25 3 45 c4 52 14 57 32 15 14 -34 30 -31
30 6 0 32 16 31 24 -2 9 -34 30 -25 34 14 4 38 17 42 26 7z m2934 -675 c36
-17 77 -40 89 -52 22 -20 22 -21 4 -57 -10 -20 -25 -56 -32 -81 -7 -25 -28
-66 -46 -91 -19 -27 -31 -53 -27 -62 3 -8 -1 -28 -9 -44 -8 -15 -13 -40 -10
-54 3 -15 -3 -34 -14 -48 -17 -20 -22 -22 -41 -12 -21 11 -21 13 -5 37 13 20
14 27 4 33 -9 6 -6 10 9 14 29 8 16 27 -18 27 l-27 0 25 19 c19 15 22 22 12
33 -6 8 -8 24 -5 37 4 17 8 19 14 9 6 -9 9 -4 9 15 0 15 -5 27 -11 27 -6 0 -7
5 -2 13 9 15 5 48 -10 65 -8 11 -7 16 6 23 14 8 15 13 5 29 -10 16 -10 23 3
36 15 14 15 19 2 45 -12 25 -11 69 3 69 2 0 35 -14 72 -30z m-1058 -399 c0
-27 -15 -49 -26 -39 -7 8 8 68 17 68 5 0 9 -13 9 -29z m-17 -78 c-27 -5 -31
-22 -5 -24 16 -1 16 -2 -1 -6 -14 -4 -16 -8 -6 -19 9 -11 9 -14 -1 -14 -7 0
-10 -6 -7 -14 3 -7 0 -19 -6 -26 -10 -10 -6 -11 15 -6 37 8 46 -11 11 -26
l-28 -11 35 -7 c19 -4 28 -8 19 -9 -9 0 -22 -8 -29 -16 -11 -13 -8 -15 21 -16
32 0 33 -1 12 -11 -13 -6 -23 -15 -23 -21 0 -5 10 -7 23 -4 21 6 21 6 3 -8
-11 -8 -23 -15 -28 -15 -4 0 -8 -4 -8 -10 0 -5 7 -10 15 -10 9 0 12 -6 8 -16
-5 -14 -3 -15 15 -5 23 12 28 5 12 -19 -6 -9 -5 -19 3 -29 10 -12 6 -13 -26
-7 -34 6 -39 5 -44 -13 -7 -28 -17 -26 -32 6 -11 25 -14 26 -22 10 -6 -9 -7
-22 -4 -27 3 -6 -3 -10 -14 -10 -12 0 -21 6 -21 14 0 8 -12 16 -27 18 -19 2
-29 10 -33 28 -4 16 -8 21 -13 13 -9 -14 -77 22 -77 40 0 28 37 74 188 232 6
8 12 18 12 23 0 14 19 21 55 20 23 -1 24 -2 8 -5z m1015 -55 c-3 -7 -13 -15
-24 -17 -16 -3 -17 -1 -5 13 16 19 34 21 29 4z m-3 -53 c0 -19 -5 -25 -22 -25
-29 0 -29 14 -1 34 12 9 23 16 23 16 0 0 0 -11 0 -25z m129 -181 c9 -86 19
-161 24 -167 8 -10 109 -353 116 -392 1 -5 25 -51 54 -101 28 -50 52 -103 52
-117 0 -14 -12 -63 -26 -108 -27 -87 -27 -105 1 -204 12 -43 15 -78 11 -121
-4 -34 -2 -83 4 -110 11 -55 66 -446 80 -570 16 -147 122 -605 172 -744 84
-230 100 -278 108 -315 14 -69 95 -276 149 -380 28 -56 51 -107 51 -115 0 -16
-46 32 -130 137 -41 51 -63 89 -75 130 -9 32 -47 123 -85 203 -38 80 -75 168
-84 195 -8 28 -26 91 -41 140 -91 314 -211 629 -253 663 -14 10 -13 12 9 12
23 0 23 1 -9 26 -26 20 -30 29 -22 40 15 17 4 34 -21 34 -21 0 -26 15 -8 25 6
5 4 12 -8 20 -14 11 -16 16 -5 26 19 20 14 39 -14 50 -26 9 -26 10 -8 24 10 8
25 15 32 15 18 0 5 51 -19 72 -15 13 -17 21 -9 42 6 17 6 27 -2 32 -7 5 -5 12
7 21 11 7 14 13 7 13 -6 0 -9 6 -6 14 3 9 -4 19 -17 26 l-22 12 23 18 22 17
-31 22 c-33 24 -33 41 0 41 17 0 29 20 12 20 -5 1 -19 10 -32 21 -23 19 -23
20 -5 34 19 14 19 14 -1 15 -19 1 -19 2 3 12 27 14 29 28 3 28 -11 0 -23 5
-26 10 -3 6 4 10 18 10 38 0 39 11 5 42 -22 19 -29 31 -20 34 17 8 15 24 -3
24 -22 0 -18 17 5 23 14 3 20 14 20 32 0 20 -7 29 -31 39 -34 14 -31 20 18 31
47 10 51 25 6 25 -34 1 -36 2 -20 14 16 13 16 14 -10 21 l-28 7 25 18 c23 18
24 19 7 38 -9 10 -17 35 -17 54 0 20 -6 38 -12 41 -10 4 -10 7 0 18 16 18 15
29 -3 29 -20 0 -19 17 3 30 12 8 13 13 5 16 -20 8 -16 25 13 55 l25 26 -30 6
-30 6 1 78 c0 62 -3 78 -15 82 -14 5 -13 13 10 60 25 53 25 55 7 68 -12 9 -15
16 -8 21 5 4 10 42 11 85 0 43 3 81 7 84 10 11 7 48 -6 62 -10 11 -10 14 -1
18 8 3 11 14 7 29 -5 18 -2 24 9 24 27 0 29 18 6 50 -21 28 -21 31 -6 48 9 10
17 34 18 53 1 74 19 -13 33 -167z m-140 128 c-12 -7 -14 -90 -2 -108 7 -10
-15 -110 -26 -122 -11 -10 -6 59 5 80 9 17 8 24 -5 33 -11 8 -16 27 -16 57 0
46 13 68 40 68 10 0 11 -3 4 -8z m-1273 -227 c52 -19 79 -42 79 -67 0 -15 -3
-17 -19 -8 -11 5 -29 10 -41 10 -20 0 -20 -1 -3 -26 17 -27 17 -27 -4 -15 -12
6 -26 11 -32 11 -15 0 -14 -33 2 -49 10 -10 7 -10 -15 -2 -16 6 -30 7 -33 1
-3 -5 -13 -6 -21 -3 -14 5 -15 3 -5 -15 15 -29 14 -42 -4 -36 -8 4 -15 2 -15
-4 0 -6 -9 -8 -19 -5 -16 4 -19 1 -14 -17 5 -20 4 -21 -14 -12 -29 16 -48 -2
-48 -45 0 -38 0 -38 -40 -37 -22 1 -60 5 -85 10 l-44 9 25 20 c14 11 50 54 82
95 31 41 68 84 83 95 15 11 34 27 42 35 26 26 84 70 92 70 4 0 27 -7 51 -15z
m642 -121 c3 -4 9 7 13 22 4 16 9 32 11 36 7 14 33 -4 33 -23 0 -10 5 -19 10
-19 6 0 10 7 10 15 0 19 19 19 26 0 4 -10 14 -13 29 -9 20 5 22 2 18 -19 -6
-32 14 -45 32 -21 21 28 36 6 37 -55 1 -28 5 -51 8 -51 4 0 19 9 34 21 30 24
36 11 6 -16 -11 -10 -20 -24 -20 -32 0 -16 5 -16 32 -2 18 10 20 9 15 -5 -4
-9 -2 -16 3 -16 5 0 7 -6 4 -14 -4 -10 2 -12 23 -9 l28 5 -25 -21 c-28 -22
-22 -38 8 -22 24 13 62 15 62 3 0 -4 -6 -14 -12 -21 -11 -11 -9 -13 11 -8 l24
6 -27 -28 c-30 -31 -25 -44 11 -30 29 11 44 4 36 -16 -3 -9 1 -15 8 -15 10 0
10 -3 1 -12 -15 -15 -16 -48 -1 -48 8 0 7 -6 -2 -17 -13 -15 -12 -16 8 -11 13
4 25 2 28 -2 3 -5 -5 -10 -17 -12 -27 -4 -35 -31 -15 -50 12 -11 10 -15 -17
-28 l-31 -14 45 -4 c44 -3 45 -4 20 -17 l-25 -14 24 -1 c20 0 22 -2 10 -16
-11 -14 -11 -18 4 -29 10 -7 15 -19 11 -29 -4 -11 -1 -16 10 -16 9 0 15 -3 15
-7 -1 -5 0 -10 1 -13 9 -22 4 -99 -8 -118 -14 -21 -13 -23 7 -29 17 -4 19 -8
10 -19 -9 -11 -8 -18 2 -30 7 -9 9 -18 3 -22 -16 -12 -15 -75 2 -93 11 -12 12
-19 4 -24 -20 -12 -36 2 -49 43 -8 22 -33 62 -56 89 -23 26 -60 86 -83 133
-38 80 -45 88 -114 135 -40 28 -96 62 -125 75 -44 21 -51 28 -47 47 5 17 1 22
-18 25 -23 3 -22 4 6 19 22 13 26 18 15 25 -8 5 -21 9 -29 9 -8 0 -21 14 -29
30 -8 17 -18 31 -23 33 -4 2 -5 15 -2 28 5 18 3 24 -7 22 -9 -2 -13 11 -13 50
1 44 -2 52 -18 52 -21 0 -25 35 -5 44 8 3 7 8 -6 16 -13 9 -15 15 -7 25 8 9 7
14 -5 19 -18 7 -20 57 -2 75 10 11 9 13 -5 8 -22 -8 -24 29 -3 57 15 19 35 14
35 -10 0 -8 5 -14 10 -14 6 0 10 11 10 23 0 39 15 41 21 3 3 -20 9 -39 12 -42z
m-270 -6 c4 -24 9 -54 13 -68 5 -21 4 -23 -8 -10 -10 12 -58 51 -107 87 -2 2
-2 6 2 9 9 9 81 33 88 28 3 -2 9 -23 12 -46z m-137 -74 c-5 -19 -3 -22 11 -17
12 5 14 3 8 -7 -6 -10 -4 -12 9 -7 15 6 17 3 12 -17 -5 -20 -3 -23 14 -19 11
3 20 0 20 -6 0 -6 7 -11 15 -11 23 0 29 -26 12 -51 -9 -12 -13 -28 -10 -36 4
-11 10 -10 29 8 19 18 24 19 24 7 0 -9 11 -23 25 -32 14 -9 25 -24 25 -34 -1
-15 -60 -62 -79 -62 -4 0 -24 18 -44 40 -36 38 -67 45 -67 15 0 -29 -19 -23
-63 20 -52 51 -74 56 -83 20 -3 -14 -10 -22 -15 -19 -15 9 -22 -25 -9 -41 6
-8 9 -19 5 -25 -4 -6 -17 2 -32 20 -13 17 -30 27 -36 23 -6 -4 -8 0 -4 10 11
30 -12 18 -39 -20 -24 -36 -26 -36 -20 -10 9 37 0 50 -24 37 -15 -8 -20 -6
-26 12 -5 17 0 27 22 45 16 12 37 30 48 39 17 15 20 15 47 -5 33 -25 35 -22
14 19 -14 27 -5 44 10 20 8 -13 16 -12 38 4 16 12 17 18 7 37 -11 20 -11 21
15 15 22 -6 26 -4 22 8 -7 18 8 22 18 6 13 -21 24 -9 19 20 -7 32 11 41 34 18
9 -9 12 -8 12 5 0 15 3 16 21 7 15 -9 19 -18 15 -36z m219 -299 c0 -5 -18 -11
-40 -13 -38 -3 -39 -2 -20 12 21 17 60 17 60 1z m9 -2634 c32 -36 222 -68 312
-53 64 11 220 -5 589 -58 28 -4 66 -13 85 -20 19 -7 42 -15 50 -17 10 -3 -2
-20 -40 -54 -48 -44 -52 -50 -27 -45 17 4 27 2 27 -5 0 -12 -154 -7 -315 12
-170 19 -593 -2 -731 -37 -36 -9 -67 -14 -69 -12 -2 2 3 30 12 63 66 263 69
268 107 226z m1786 -637 c0 -38 4 -54 13 -54 21 0 28 12 16 27 -9 10 -8 13 5
13 9 0 16 5 16 10 0 6 -4 10 -10 10 -5 0 -10 9 -10 20 0 28 14 25 68 -12 57
-39 73 -58 66 -80 -3 -10 3 -21 16 -28 11 -6 18 -15 15 -21 -4 -5 3 -9 14 -9
26 0 27 -18 4 -37 -16 -13 -15 -14 10 -10 24 4 28 2 24 -14 -4 -14 -1 -19 11
-17 21 4 29 -37 12 -58 -10 -11 -9 -14 9 -14 20 0 19 -3 -11 -49 -25 -37 -39
-49 -58 -49 -14 0 -38 -5 -53 -11 -21 -8 -33 -8 -47 2 -24 14 -25 21 -4 38 14
11 44 61 44 73 0 2 -14 0 -32 -5 -45 -12 -47 -3 -4 15 20 8 36 20 36 26 0 22
-33 22 -76 2 -49 -24 -55 -20 -22 15 l21 23 -44 0 -44 0 38 22 c38 22 50 48
22 48 -9 0 -27 -7 -41 -16 -33 -22 -42 -10 -18 24 20 27 20 27 1 45 -13 13
-29 18 -48 15 l-29 -5 22 36 c11 20 28 48 37 63 22 37 31 26 31 -38z"/>
<path d="M5910 9811 c0 -5 5 -13 10 -16 6 -3 10 -2 10 4 0 5 -4 13 -10 16 -5
3 -10 2 -10 -4z"/>
<path d="M4 8675 c0 -82 2 -115 3 -72 2 43 2 110 0 150 -1 40 -3 5 -3 -78z"/>
</g>
</svg>