<svg version="1.0" xmlns="http://www.w3.org/2000/svg"
 width="1024.000000pt" height="1280.000000pt" viewBox="0 0 1024.000000 1280.000000"
 preserveAspectRatio="xMidYMid meet">
<metadata>
Created by potrace 1.15, written by Peter Selinger 2001-2017
</metadata>
<g transform="translate(0.000000,1280.000000) scale(0.100000,-0.100000)"
fill="#000000" stroke="none">
<path d="M8765 12786 c-118 -37 -221 -113 -378 -276 -278 -288 -592 -770 -982
-1510 -175 -332 -511 -1026 -642 -1327 -20 -46 -38 -81 -40 -79 -2 2 6 46 18
97 17 75 42 133 119 284 158 306 253 535 334 805 107 353 137 651 85 842 -23
86 -75 155 -143 191 -56 29 -176 28 -260 -2 l-59 -21 -53 50 c-182 172 -459
166 -864 -17 -52 -24 -76 -30 -79 -22 -2 7 -14 22 -26 33 -30 29 -39 92 -39
274 0 83 -3 152 -8 152 -4 0 -8 -5 -8 -11 0 -5 -22 -34 -49 -62 -27 -29 -52
-63 -56 -76 -12 -39 -7 -103 10 -145 12 -29 15 -54 9 -102 -3 -35 -10 -64 -15
-64 -4 0 -30 36 -56 81 -26 44 -63 101 -82 126 -18 25 -41 70 -52 100 -19 57
-54 113 -70 113 -5 0 -14 -11 -19 -25 -16 -42 -45 -28 -85 40 -18 30 -45 -7
-45 -60 0 -100 55 -187 150 -235 22 -11 40 -22 40 -23 0 -2 -13 -2 -29 1 -28
4 -71 -12 -71 -26 0 -4 24 -16 53 -27 l52 -19 -95 -13 c-207 -29 -333 -90
-405 -199 -63 -95 -78 -203 -51 -364 8 -47 20 -132 26 -188 30 -277 158 -480
366 -583 73 -37 89 -49 106 -84 66 -131 176 -242 305 -308 46 -23 86 -50 89
-60 9 -28 64 -86 98 -104 91 -48 276 10 494 154 101 67 239 196 298 279 47 65
113 200 115 231 0 10 3 13 5 7 10 -23 -97 -485 -186 -812 -39 -139 -41 -145
-122 -260 -193 -274 -422 -534 -630 -717 l-133 -116 -6 36 c-8 46 -42 82 -99
102 l-46 16 40 116 c40 115 41 117 41 261 0 127 -3 152 -23 200 -35 86 -53
104 -104 105 -24 0 -58 -3 -77 -7 -29 -7 -32 -6 -26 10 38 99 55 268 35 353
-27 116 -107 222 -176 235 -44 8 -112 -16 -176 -62 -37 -26 -49 -31 -44 -18
42 107 45 315 7 416 -30 76 -97 166 -159 212 -49 36 -53 37 -93 26 -27 -7 -61
-30 -95 -62 -36 -34 -55 -46 -58 -37 -2 8 -14 73 -26 144 -52 303 -123 459
-199 440 -58 -15 -124 -91 -208 -243 l-29 -53 -39 98 c-140 357 -281 550 -388
529 -47 -9 -91 -49 -123 -110 -16 -31 -31 -56 -34 -56 -3 0 -23 28 -45 62 -91
142 -198 226 -330 259 -55 14 -85 -1 -105 -53 -7 -18 -15 -35 -16 -37 -2 -2
-32 15 -66 37 -114 74 -166 82 -199 30 -15 -25 -19 -47 -17 -91 3 -58 3 -58
-22 -50 -14 4 -62 8 -107 8 -67 0 -87 -4 -109 -20 -67 -50 -71 -197 -11 -375
19 -58 34 -106 33 -107 -1 -1 -33 9 -72 22 -68 24 -136 31 -183 18 -23 -6 -23
-8 -19 -102 4 -71 13 -119 36 -188 31 -90 110 -259 158 -334 13 -21 24 -41 24
-44 0 -3 -37 13 -82 36 -111 56 -181 79 -238 79 -53 0 -60 -8 -60 -65 0 -126
92 -365 231 -600 28 -48 49 -89 46 -91 -2 -2 -46 3 -98 12 -121 21 -240 24
-262 5 -24 -19 -21 -36 12 -73 21 -24 31 -51 40 -103 27 -155 128 -338 265
-482 22 -24 38 -44 35 -47 -2 -2 -38 2 -79 10 -105 19 -234 17 -295 -4 l-50
-17 1 -55 c2 -125 71 -256 177 -339 35 -27 53 -47 45 -50 -25 -8 -26 -25 -6
-64 l20 -39 -34 -29 c-150 -129 -340 -221 -552 -267 -114 -24 -408 -24 -526 1
-247 52 -446 148 -637 308 -447 376 -493 1035 -102 1463 274 300 731 355 1056
127 286 -201 381 -539 234 -836 -100 -202 -272 -315 -481 -315 -185 0 -347 90
-433 241 -37 67 -50 129 -45 221 7 143 86 266 207 325 73 36 190 39 263 6 66
-30 132 -94 158 -155 39 -92 15 -212 -57 -280 -117 -111 -316 -50 -331 101 -8
89 56 164 139 163 101 -2 151 -112 80 -176 -45 -40 -121 -12 -121 45 0 35 33
61 64 49 15 -5 21 -16 21 -39 0 -38 19 -35 23 3 7 61 -67 88 -113 41 -52 -51
-9 -146 67 -148 73 -2 118 47 118 127 0 36 -6 52 -30 80 -110 124 -302 23
-288 -151 12 -137 160 -224 310 -183 20 6 59 31 86 55 164 147 116 408 -93
510 -227 111 -491 -26 -560 -292 -44 -169 1 -321 134 -453 124 -123 262 -176
436 -167 155 8 283 66 394 178 210 213 267 530 146 814 -66 155 -242 325 -421
406 -131 60 -204 74 -379 74 -136 0 -172 -4 -238 -23 -169 -48 -307 -132 -430
-261 -366 -384 -420 -964 -131 -1410 69 -106 240 -278 345 -349 151 -101 316
-171 491 -208 126 -27 380 -25 518 5 241 52 492 178 666 335 29 25 56 46 60
46 5 0 30 -21 56 -46 45 -46 47 -48 41 -94 -5 -42 -2 -50 27 -84 18 -20 52
-48 76 -62 l43 -25 -16 -34 c-16 -34 -16 -34 22 -80 20 -25 36 -48 34 -49 -2
-2 -89 -27 -194 -56 -559 -153 -1001 -286 -1113 -336 -38 -17 -53 -28 -50 -40
5 -28 50 -54 133 -78 l77 -22 -143 -58 c-173 -70 -423 -189 -533 -254 -88 -51
-171 -123 -164 -143 3 -8 52 -23 118 -36 62 -13 114 -24 116 -26 1 -1 -54 -48
-124 -104 -252 -203 -402 -352 -402 -400 0 -13 11 -30 27 -40 23 -15 48 -18
163 -16 l135 2 -196 -197 c-303 -306 -334 -368 -187 -386 56 -7 229 7 356 28
39 7 72 11 72 9 0 -3 -36 -45 -80 -95 -293 -332 -482 -612 -432 -641 4 -3 112
17 239 43 128 26 233 45 233 43 0 -3 -22 -31 -49 -62 -208 -242 -376 -492
-339 -506 7 -3 103 20 212 50 109 31 200 54 201 53 2 -2 -19 -51 -45 -110
-116 -256 -154 -437 -106 -503 12 -17 17 -15 81 34 38 28 70 49 73 47 2 -3 -1
-28 -7 -56 -14 -64 -14 -126 -1 -151 22 -40 78 -17 210 84 l84 65 16 -64 c17
-67 42 -104 70 -104 24 0 154 139 299 320 68 85 130 161 137 169 10 11 14 3
24 -45 13 -63 58 -174 70 -174 17 0 109 80 178 156 41 43 128 147 194 231
l121 151 51 -86 c52 -88 114 -162 135 -162 6 0 24 21 40 46 31 48 165 339 247
537 27 64 51 117 54 117 3 0 50 -62 105 -137 l99 -136 39 44 c84 94 240 385
327 609 18 47 34 86 35 88 1 1 38 -33 81 -76 43 -43 101 -91 127 -107 47 -27
48 -27 69 -9 53 49 278 385 422 631 26 46 51 85 55 87 7 5 100 -55 101 -64 0
-3 -26 -21 -57 -40 -84 -51 -215 -184 -246 -250 -36 -73 -44 -160 -23 -231 26
-87 14 -84 180 -55 197 35 189 36 165 -14 -10 -21 -24 -63 -30 -92 -14 -65 -6
-221 16 -300 15 -54 14 -60 -3 -95 -11 -21 -47 -112 -81 -203 -34 -91 -67
-177 -73 -192 -11 -30 -121 -116 -278 -218 -205 -133 -485 -252 -700 -297 -92
-19 -364 -25 -470 -10 -52 7 -53 7 -29 -7 14 -8 61 -25 105 -37 99 -27 356
-38 472 -19 243 38 480 128 722 274 41 25 76 43 78 41 2 -2 -17 -67 -42 -145
-69 -212 -60 -250 38 -175 26 19 48 35 50 35 3 0 0 -15 -5 -32 -20 -72 -69
-329 -78 -418 -9 -87 -4 -161 13 -178 4 -3 31 18 61 48 30 30 57 52 59 49 3
-2 10 -69 16 -149 13 -168 34 -295 51 -316 6 -8 20 -14 29 -14 21 0 80 65 113
123 l21 38 27 -158 c30 -181 51 -261 77 -293 16 -19 22 -21 40 -11 27 14 88
104 137 200 l37 74 43 -169 c71 -276 128 -412 163 -390 5 3 35 66 68 140 32
75 61 136 64 136 3 0 20 -55 39 -123 42 -153 86 -269 110 -291 17 -16 20 -11
68 120 l50 137 47 -79 c93 -152 159 -224 219 -239 27 -7 27 -7 27 49 l0 56 51
-40 c29 -22 57 -39 63 -37 26 8 37 53 33 135 -2 45 -3 82 -2 82 1 0 23 -7 48
-16 60 -20 77 -14 77 28 0 36 -34 183 -74 318 -14 46 -24 86 -22 87 1 1 26 -6
54 -17 29 -11 63 -20 77 -20 22 0 25 4 25 38 0 46 -29 176 -69 314 -17 58 -31
110 -31 115 0 4 34 7 75 5 87 -5 125 2 125 23 0 19 -48 115 -101 202 -36 58
-39 67 -24 75 9 5 45 31 80 58 l64 49 5 -32 c3 -18 8 -115 11 -217 21 -673
130 -1260 311 -1678 102 -234 127 -466 79 -721 -90 -470 -446 -891 -871 -1030
-524 -171 -1100 123 -1264 644 -30 95 -38 281 -17 381 32 149 101 285 200 390
183 197 416 278 652 229 221 -46 426 -235 480 -440 70 -269 -94 -554 -356
-621 -208 -53 -432 78 -485 285 -26 105 3 213 80 299 126 139 344 120 429 -37
76 -139 -11 -301 -160 -301 -85 0 -153 64 -153 143 0 105 105 164 179 101 24
-20 31 -34 31 -63 0 -66 -73 -107 -113 -63 -38 42 -10 89 46 78 30 -5 31 -5
13 9 -27 20 -52 19 -76 -5 -27 -27 -25 -66 5 -95 65 -66 175 10 145 101 -17
50 -63 84 -113 84 -119 0 -185 -128 -122 -236 34 -58 115 -99 181 -91 102 11
190 103 201 209 22 212 -219 366 -422 269 -148 -70 -236 -237 -207 -392 39
-211 233 -369 451 -369 132 0 256 55 361 160 113 112 170 252 170 415 0 166
-64 310 -200 446 -72 73 -101 94 -180 132 -120 58 -206 78 -335 78 -176 0
-330 -57 -480 -176 -161 -128 -270 -301 -322 -511 -26 -107 -23 -315 6 -424
124 -463 586 -810 1080 -810 445 0 886 280 1098 696 100 196 133 329 140 561
6 183 -8 311 -48 437 -10 33 -17 62 -15 63 2 2 20 -23 41 -54 96 -145 213
-252 350 -318 124 -61 202 -78 355 -77 215 1 349 51 475 177 119 118 166 235
166 410 0 211 -90 364 -264 450 -124 61 -243 68 -363 24 -249 -93 -327 -432
-138 -598 112 -99 299 -98 391 1 61 65 82 192 43 267 -38 75 -115 118 -197
108 -148 -16 -199 -219 -70 -280 43 -21 58 -21 103 -2 41 17 69 71 59 116 -8
34 -48 69 -80 69 -35 0 -75 -37 -75 -69 0 -56 67 -80 97 -35 12 19 11 24 -6
45 -16 20 -23 22 -38 13 -26 -16 -23 -48 5 -52 12 -2 22 1 22 7 0 6 -7 8 -15
5 -10 -4 -15 0 -15 11 0 10 6 15 18 13 22 -4 22 -38 0 -52 -14 -8 -22 -6 -40
12 -21 21 -22 24 -8 50 20 36 70 42 99 13 50 -50 6 -141 -68 -141 -138 0 -162
196 -31 250 49 20 132 8 175 -25 150 -114 57 -364 -142 -382 -198 -18 -350
158 -312 362 33 178 165 292 349 303 134 7 240 -29 333 -116 99 -94 145 -193
154 -332 16 -268 -129 -483 -387 -574 -81 -28 -93 -30 -240 -30 -141 0 -162 3
-235 27 -450 150 -707 715 -790 1737 -15 191 -33 780 -23 770 3 -3 24 -50 47
-104 24 -55 64 -143 91 -195 88 -174 221 -366 239 -345 4 5 49 67 101 137 51
71 96 125 100 120 4 -4 44 -96 90 -203 107 -253 202 -450 228 -473 17 -16 23
-17 42 -5 21 13 112 143 144 206 l17 32 138 -172 c146 -182 283 -328 332 -354
l30 -15 25 56 c14 31 31 83 37 116 6 32 14 59 17 59 3 -1 30 -33 60 -72 187
-245 354 -428 388 -428 29 0 55 43 71 116 l13 55 41 -35 c74 -63 175 -127 210
-133 31 -5 35 -3 45 27 8 23 9 53 1 108 -6 42 -13 80 -15 84 -12 18 13 5 76
-42 37 -27 70 -50 73 -50 2 0 10 14 17 30 31 76 -11 257 -114 489 -25 57 -45
106 -43 107 2 2 91 -21 198 -51 107 -30 200 -55 207 -55 52 0 -85 214 -311
485 -42 49 -75 91 -74 92 2 1 394 -78 455 -92 19 -5 22 -1 22 25 0 78 -150
293 -419 601 -50 57 -89 105 -86 107 2 2 57 -4 122 -13 166 -25 320 -25 356
-2 15 9 27 26 27 36 0 41 -93 155 -275 337 l-190 191 130 -1 c107 -1 136 2
163 17 40 22 40 42 4 93 -50 68 -268 264 -461 414 -51 40 -53 38 89 65 52 10
99 21 104 25 16 16 -80 103 -177 160 l-98 59 48 6 c80 11 119 24 138 45 17 18
17 25 6 55 -7 19 -10 39 -7 44 4 5 39 7 82 4 l75 -6 45 44 c86 83 94 126 34
184 -22 21 -40 42 -40 46 0 3 23 9 52 12 105 13 121 81 54 224 l-38 81 22 32
22 31 92 -6 c59 -5 101 -3 120 4 26 10 28 15 24 49 -3 21 -15 58 -27 82 -27
57 -27 62 7 49 64 -24 221 -59 269 -59 78 0 100 32 91 131 -5 43 -3 49 11 43
122 -54 210 -65 278 -35 77 35 75 48 -21 164 -47 56 -83 103 -81 106 2 2 22
-3 43 -12 73 -29 193 -41 274 -28 108 18 258 92 258 128 0 22 -63 79 -118 107
l-46 23 140 5 c183 7 235 28 214 84 -17 43 -87 88 -290 182 -22 10 -19 11 21
6 25 -3 101 -6 170 -7 126 -2 169 8 169 37 0 25 -78 85 -172 130 l-93 46 53 0
c68 0 75 15 36 89 -38 74 -211 246 -334 333 -180 127 -375 212 -548 240 l-80
12 -4 73 c-2 53 -9 79 -24 100 -70 95 -227 80 -551 -54 -7 -3 1 25 18 62 36
75 47 142 30 173 -23 44 -66 55 -181 49 -91 -5 -274 -42 -354 -73 -13 -5 -16
1 -16 36 0 114 -61 208 -153 235 -28 8 -72 15 -97 15 -49 0 -177 -29 -243 -55
-20 -8 -38 -15 -40 -15 -1 0 0 24 1 54 4 64 -19 117 -73 164 -53 47 -101 64
-180 65 -112 1 -230 -52 -336 -150 l-46 -43 -31 49 c-27 44 -92 103 -125 114
-13 4 30 99 289 643 770 1620 1332 2583 1679 2876 272 230 444 129 555 -324
17 -67 30 -129 30 -137 0 -8 -16 -32 -36 -52 -20 -20 -41 -47 -48 -60 -17 -35
-33 -33 -46 5 -9 28 -17 36 -35 36 -55 0 -72 24 -120 170 -15 47 -35 93 -43
103 -42 48 -112 -17 -112 -105 0 -90 55 -219 127 -299 20 -22 33 -39 31 -39
-2 0 -24 10 -49 22 -29 14 -73 24 -132 28 -102 8 -117 16 -99 62 15 41 11 44
-21 14 -37 -35 -44 -86 -18 -138 11 -23 19 -43 18 -44 -1 -1 -32 -15 -69 -33
-333 -157 -442 -491 -297 -909 47 -134 144 -324 212 -414 207 -275 496 -290
766 -41 304 280 427 754 264 1016 -14 23 -35 53 -47 66 l-21 23 25 -7 c24 -7
116 -52 260 -126 64 -34 66 -34 195 -33 110 0 139 3 187 22 87 35 90 46 21 80
-32 16 -85 38 -118 48 -75 22 -72 20 -47 41 25 22 154 214 148 221 -3 2 -18
-5 -35 -17 -63 -45 -232 -100 -307 -101 -27 0 -32 4 -37 29 -4 18 -26 46 -63
77 -32 27 -65 61 -74 77 -17 27 -17 27 -35 7 -10 -11 -26 -20 -37 -20 -19 0
-24 15 -8 25 32 20 41 175 15 258 -15 49 -15 57 -1 92 9 21 14 40 12 42 -7 7
-64 -26 -103 -60 l-36 -32 7 44 c3 24 14 57 22 73 9 16 13 32 10 36 -12 12
-59 -24 -77 -60 -11 -21 -32 -45 -47 -55 -15 -9 -37 -25 -49 -36 -25 -23 -22
-30 -43 103 -52 337 -169 560 -323 617 -42 15 -122 15 -172 -1z m-2286 -847
c82 -13 158 -49 209 -99 73 -70 73 -72 -20 -126 -45 -27 -118 -75 -162 -107
-65 -49 -83 -57 -95 -48 -49 35 -85 44 -146 33 l-60 -10 -62 41 -61 42 69 27
c138 53 207 114 216 192 9 75 4 73 112 55z m-164 -16 c-33 -26 -176 -89 -245
-108 -71 -19 -223 -45 -229 -39 -5 5 95 49 215 94 95 36 213 68 259 69 l20 0
-20 -16z m749 -135 c55 -17 109 -74 136 -144 32 -81 38 -258 16 -410 -34 -233
-119 -509 -249 -804 -57 -132 -121 -258 -113 -225 3 11 17 85 30 165 46 263
67 450 73 670 9 353 -21 530 -124 722 -4 6 44 24 87 31 51 9 104 7 144 -5z
m-274 -105 c33 -89 50 -177 57 -302 l6 -114 -94 5 c-154 9 -256 57 -307 144
-15 26 -21 52 -20 79 3 37 8 43 83 97 76 54 232 148 247 148 4 0 16 -26 28
-57z m-995 -3 c-3 -5 -23 -9 -43 -9 l-37 1 30 8 c44 11 57 11 50 0z m255 -60
c0 -24 -3 -28 -17 -23 -10 3 -26 13 -36 22 -18 15 -18 16 0 22 39 16 53 10 53
-21z m800 -391 c0 -20 -4 -21 -55 -16 -29 3 -62 10 -72 17 -15 9 -13 10 12 6
23 -4 94 4 113 13 1 0 2 -9 2 -20z m-10 -198 c-13 -136 -39 -313 -45 -320 -3
-2 -5 25 -5 60 0 108 -41 223 -114 324 l-36 50 67 6 c38 3 84 13 103 21 33 14
35 14 38 -6 2 -11 -1 -72 -8 -135z m-460 -1965 l-66 -235 -59 -70 -59 -71 -18
37 c-37 75 -88 103 -130 71 -52 -41 -597 -875 -689 -1055 l-47 -92 -17 45 -17
44 46 52 c59 68 88 127 127 263 30 104 99 288 151 402 20 44 36 61 118 119
197 139 438 371 624 602 54 67 100 122 101 122 1 0 -28 -105 -65 -234z m-1233
-1696 l71 -11 -1 -127 c-2 -157 11 -214 68 -291 33 -45 113 -117 173 -156 1
-1 -37 -73 -85 -160 l-88 -157 -125 6 c-179 9 -331 -7 -512 -53 -84 -22 -180
-49 -212 -60 -33 -12 -60 -20 -62 -19 -1 2 4 28 12 58 9 33 13 78 11 112 l-5
58 56 -47 c58 -47 124 -82 153 -83 29 0 41 24 28 56 -22 59 -78 379 -67 389 8
9 157 -63 228 -110 41 -28 78 -51 81 -53 10 -5 77 163 101 252 27 102 29 269
5 334 l-16 43 29 6 c16 3 35 12 41 19 7 8 19 12 28 10 9 -2 48 -10 88 -16z
m570 -714 c59 -24 125 -49 146 -56 20 -6 37 -15 37 -18 0 -4 -10 -51 -22 -105
-16 -70 -26 -96 -35 -93 -7 3 -89 17 -181 32 -92 14 -174 29 -183 33 -14 5 -5
26 53 129 39 67 72 122 74 122 2 0 52 -20 111 -44z"/>
</g>
</svg>