<svg version="1.0" xmlns="http://www.w3.org/2000/svg"
 width="1280.000000pt" height="1132.000000pt" viewBox="0 0 1280.000000 1132.000000"
 preserveAspectRatio="xMidYMid meet">
<metadata>
Created by potrace 1.15, written by Peter Selinger 2001-2017
</metadata>
<g transform="translate(0.000000,1132.000000) scale(0.100000,-0.100000)"
fill="#000000" stroke="none">
<path d="M8195 11109 c-404 -474 -632 -780 -750 -1001 -42 -80 -79 -132 -145
-205 -212 -233 -382 -334 -635 -377 -158 -28 -171 -26 -319 56 -189 103 -548
284 -711 357 -1366 614 -2340 647 -3150 106 -324 -217 -597 -485 -1075 -1055
-312 -373 -452 -534 -606 -700 -229 -247 -532 -519 -733 -657 -39 -26 -71 -51
-71 -55 0 -3 26 -21 57 -39 l57 -32 -40 -14 c-64 -22 -67 -23 -61 -29 3 -3 32
2 64 11 l59 16 183 -90 c954 -470 2124 -637 3196 -456 77 13 141 22 142 21 2
-1 -15 -43 -36 -92 -151 -349 -247 -746 -303 -1254 -19 -177 -16 -773 5 -990
38 -382 103 -761 163 -950 120 -380 328 -800 556 -1125 415 -590 943 -1041
1618 -1381 91 -46 163 -84 160 -84 -3 0 -28 9 -56 20 -29 10 -54 17 -56 14 -3
-2 -61 -11 -129 -19 -189 -23 -212 -26 -239 -30 -14 -2 -47 -6 -75 -10 -188
-23 -448 -81 -539 -119 -57 -24 -106 -64 -106 -86 0 -76 249 -133 750 -174
375 -31 1552 -86 1834 -86 110 0 117 1 105 17 -11 13 -11 15 -1 9 7 -4 58 -68
114 -142 55 -74 108 -139 118 -144 33 -18 57 18 104 155 25 72 45 123 45 115
1 -17 -16 -17 351 1 250 11 438 27 763 61 174 18 216 26 212 37 -3 7 12 -1 32
-20 127 -111 529 -207 928 -223 l130 -5 -160 13 c-237 20 -411 48 -576 92 -91
24 -138 44 -69 29 19 -5 40 -8 45 -7 230 24 607 64 672 72 49 6 108 13 133 16
25 3 61 7 80 9 193 23 646 94 730 115 19 5 53 11 75 14 22 4 60 11 85 16 100
23 298 62 339 67 40 5 42 7 26 19 -32 24 -5 15 57 -18 67 -36 108 -82 108
-121 0 -59 -100 -133 -253 -187 -29 -10 -45 -19 -37 -19 26 -1 173 63 222 97
85 59 99 118 43 180 -116 129 -487 220 -1022 252 -210 12 -414 12 -592 0 -251
-17 -306 -20 -282 -12 19 6 1 11 -70 20 -52 7 -123 17 -159 22 -36 5 -90 12
-119 15 -30 3 -57 8 -59 10 -3 2 -17 -2 -33 -10 -15 -8 -32 -15 -36 -15 -4 0
59 38 140 84 81 47 203 122 270 167 693 465 1249 1163 1620 2034 64 151 117
678 117 1165 0 512 -40 910 -136 1359 -22 103 -33 178 -30 200 4 25 3 30 -3
16 -7 -17 -10 -13 -20 25 -7 25 -30 109 -51 188 -40 144 -49 186 -26 122 10
-26 19 -35 35 -34 11 0 21 0 21 -1 0 0 10 -28 21 -60 12 -33 25 -96 29 -140 7
-79 7 -80 9 -20 0 34 -6 88 -14 120 -20 81 -86 212 -138 277 -23 29 -56 87
-71 128 -305 797 -781 1405 -1370 1749 -250 146 -563 263 -833 311 -55 9 -87
27 -260 139 -421 273 -689 403 -950 461 -49 11 -100 20 -115 20 -19 0 -28 5
-28 17 0 39 97 379 157 548 91 257 159 372 367 614 192 224 289 315 518 484
120 89 214 163 208 165 -8 3 -8 8 0 17 12 15 -27 20 -230 30 l-115 6 -180
-212z m-994 -1529 c-32 -79 -65 -146 -72 -150 -8 -4 -41 -10 -74 -14 -103 -12
-349 -82 -426 -122 -38 -19 -43 -18 -25 7 28 41 248 196 394 279 81 46 172 98
202 115 30 18 56 31 58 30 1 -1 -24 -66 -57 -145z m2492 -8507 c-7 -2 -19 -2
-25 0 -7 3 -2 5 12 5 14 0 19 -2 13 -5z"/>
<path d="M11270 555 c-25 -7 -36 -13 -25 -13 11 0 38 5 60 13 52 17 24 17 -35
0z"/>
<path d="M11130 525 c-30 -7 -44 -13 -30 -13 14 0 48 6 75 13 65 16 27 17 -45
0z"/>
<path d="M11023 503 c9 -2 25 -2 35 0 9 3 1 5 -18 5 -19 0 -27 -2 -17 -5z"/>
<path d="M10953 493 c9 -2 25 -2 35 0 9 3 1 5 -18 5 -19 0 -27 -2 -17 -5z"/>
<path d="M10868 483 c12 -2 32 -2 45 0 12 2 2 4 -23 4 -25 0 -35 -2 -22 -4z"/>
<path d="M10748 473 c17 -2 47 -2 65 0 17 2 3 4 -33 4 -36 0 -50 -2 -32 -4z"/>
<path d="M10618 463 c17 -2 47 -2 65 0 17 2 3 4 -33 4 -36 0 -50 -2 -32 -4z"/>
<path d="M10212 453 c59 -2 158 -2 220 0 62 1 14 3 -107 3 -121 0 -172 -2
-113 -3z"/>
</g>
</svg>