<svg version="1.0" xmlns="http://www.w3.org/2000/svg"
 width="1280.000000pt" height="736.000000pt" viewBox="0 0 1280.000000 736.000000"
 preserveAspectRatio="xMidYMid meet">
<metadata>
Created by potrace 1.15, written by Peter Selinger 2001-2017
</metadata>
<g transform="translate(0.000000,736.000000) scale(0.100000,-0.100000)"
fill="#000000" stroke="none">
<path d="M4546 7275 c-245 -264 -403 -455 -489 -591 l-52 -83 -80 -25 c-93
-30 -253 -56 -342 -56 -52 0 -107 15 -330 90 -289 96 -471 145 -683 184 -370
68 -687 58 -954 -30 -199 -65 -370 -170 -711 -434 -247 -191 -376 -279 -528
-356 -107 -55 -110 -57 -86 -70 19 -10 20 -13 7 -14 -10 0 -18 -4 -18 -10 0
-6 9 -6 25 0 19 7 45 3 113 -20 483 -161 1138 -213 1697 -134 269 37 559 121
760 218 191 93 282 160 460 341 l160 162 96 27 c98 27 381 87 386 82 1 -1 -32
-77 -74 -168 l-76 -166 -91 -12 c-253 -33 -458 -117 -661 -270 -35 -26 -92
-52 -190 -85 -180 -61 -282 -103 -427 -176 -561 -286 -934 -741 -1082 -1321
-63 -247 -71 -319 -71 -658 1 -324 7 -393 62 -674 71 -367 292 -762 602 -1080
300 -306 623 -511 1066 -678 72 -27 114 -45 95 -41 -55 11 -109 5 -440 -48
-387 -63 -580 -132 -580 -208 0 -31 18 -50 71 -74 110 -50 420 -90 964 -122
55 -4 159 -10 230 -14 435 -26 922 -3 1250 59 28 5 66 12 85 15 68 11 285 58
330 71 25 8 56 14 70 15 23 0 24 1 5 10 -21 9 -13 9 165 -12 47 -5 220 -11
385 -13 l300 -4 -275 9 c-151 4 -297 12 -325 17 l-50 8 76 6 c68 6 339 86 444
132 42 19 68 28 85 31 8 2 49 10 90 19 193 43 366 53 415 25 27 -16 291 -53
307 -43 13 8 9 -18 -4 -36 -7 -9 -3 -5 10 8 12 13 22 31 22 41 0 56 -137 114
-360 155 -478 87 -1262 57 -1556 -59 -36 -15 -38 -15 -19 1 19 16 19 16 -8 10
-78 -17 -72 -13 44 32 656 254 1116 669 1445 1307 75 145 87 187 109 379 l7
60 37 -100 c89 -234 285 -573 496 -859 265 -360 589 -628 947 -787 l121 -53
-174 -7 c-582 -23 -813 -38 -847 -57 -17 -9 7 -14 128 -26 80 -8 838 -25 1095
-25 121 0 310 -5 420 -11 179 -11 207 -10 264 5 36 9 124 19 200 22 74 3 140
8 145 11 6 4 6 -1 1 -13 -12 -31 -18 -71 -7 -56 6 9 97 23 278 43 298 32 414
53 414 74 0 7 -33 26 -72 42 l-73 28 70 6 70 5 -65 2 c-100 3 -275 -14 -384
-37 -153 -32 -146 -24 23 25 792 230 1376 735 1651 1425 42 105 101 316 119
431 20 119 29 339 20 482 -18 296 -75 521 -196 776 -226 479 -712 965 -1219
1219 -422 210 -814 264 -1349 185 -1077 -160 -1873 -835 -2116 -1794 -16 -63
-29 -124 -30 -135 0 -11 -20 57 -43 150 -141 553 -384 989 -752 1345 -230 223
-481 391 -761 510 -40 16 -123 61 -185 98 -234 141 -367 205 -526 252 l-82 25
6 30 c9 48 72 258 95 319 15 43 28 60 52 72 66 34 89 69 35 53 -17 -5 -34 -7
-36 -5 -8 9 53 108 105 172 129 156 250 269 401 374 82 57 149 110 149 117 0
8 -13 13 -31 13 -17 0 -67 2 -111 5 l-80 5 -79 -85z m4801 -6091 c-3 -3 -12
-4 -19 -1 -8 3 -5 6 6 6 11 1 17 -2 13 -5z m-4260 -240 c-3 -3 -12 -4 -19 -1
-8 3 -5 6 6 6 11 1 17 -2 13 -5z"/>
<path d="M6680 1040 c-9 -6 -10 -10 -3 -10 6 0 15 5 18 10 8 12 4 12 -15 0z"/>
<path d="M6530 959 c-107 -4 -260 -16 -340 -27 -266 -36 -440 -108 -440 -181
0 -134 545 -233 1153 -209 752 29 1063 222 562 348 -225 57 -554 81 -935 69z
m1145 -169 c10 -11 16 -20 13 -20 -3 0 -13 9 -23 20 -10 11 -16 20 -13 20 3 0
13 -9 23 -20z m1 -78 c-17 -16 -18 -16 -5 5 7 12 15 20 18 17 3 -2 -3 -12 -13
-22z m-169 -78 c-3 -3 -12 -4 -19 -1 -8 3 -5 6 6 6 11 1 17 -2 13 -5z m-80
-20 c-3 -3 -12 -4 -19 -1 -8 3 -5 6 6 6 11 1 17 -2 13 -5z m-104 -21 c-7 -2
-19 -2 -25 0 -7 3 -2 5 12 5 14 0 19 -2 13 -5z m-70 -10 c-7 -2 -21 -2 -30 0
-10 3 -4 5 12 5 17 0 24 -2 18 -5z m-85 -10 c-10 -2 -26 -2 -35 0 -10 3 -2 5
17 5 19 0 27 -2 18 -5z m-715 -10 c-13 -2 -35 -2 -50 0 -16 2 -5 4 22 4 28 0
40 -2 28 -4z m600 0 c-13 -2 -33 -2 -45 0 -13 2 -3 4 22 4 25 0 35 -2 23 -4z
m-221 -10 c-62 -2 -161 -2 -220 0 -59 1 -8 3 113 3 121 0 169 -2 107 -3z"/>
<path d="M8450 824 c-76 -12 -146 -41 -182 -75 -43 -41 -48 -71 -18 -109 l20
-25 -14 36 -15 35 237 33 c130 18 247 36 259 41 18 7 29 4 53 -16 16 -14 30
-33 31 -42 0 -11 2 -13 6 -4 9 23 -25 60 -79 86 -77 37 -204 54 -298 40z"/>
<path d="M8794 628 l-19 -23 23 19 c12 11 22 21 22 23 0 8 -8 2 -26 -19z"/>
</g>
</svg>