<svg version="1.0" xmlns="http://www.w3.org/2000/svg"
 width="1207.000000pt" height="1280.000000pt" viewBox="0 0 1207.000000 1280.000000"
 preserveAspectRatio="xMidYMid meet">
<metadata>
Created by potrace 1.15, written by Peter Selinger 2001-2017
</metadata>
<g transform="translate(0.000000,1280.000000) scale(0.100000,-0.100000)"
fill="#000000" stroke="none">
<path d="M8608 12783 c-9 -10 -23 -32 -32 -50 -20 -40 -31 -47 -54 -32 -15 10
-24 6 -58 -25 -71 -67 -174 -116 -174 -84 0 8 -6 23 -14 33 -12 17 -18 12 -77
-69 -63 -87 -63 -87 -80 -64 l-17 22 -36 -28 c-20 -15 -43 -38 -52 -51 -8 -13
-29 -28 -45 -34 -17 -6 -72 -50 -122 -99 -51 -48 -145 -130 -209 -180 -170
-135 -228 -206 -228 -282 0 -40 13 -63 65 -121 54 -61 149 -203 175 -263 23
-51 21 -68 -14 -108 l-24 -27 -81 35 c-45 19 -115 41 -156 49 -61 12 -86 23
-137 61 -77 56 -220 126 -392 190 -128 47 -132 50 -234 142 -177 160 -276 210
-393 199 -88 -8 -142 -44 -302 -201 -125 -122 -149 -151 -181 -217 -33 -66
-38 -86 -38 -145 0 -43 7 -88 19 -119 13 -35 17 -62 12 -89 -13 -77 19 -154
105 -255 75 -86 80 -111 28 -129 -23 -8 -29 -19 -41 -68 -27 -117 -84 -188
-180 -225 -52 -20 -66 -21 -196 -13 -77 4 -201 8 -275 8 -121 0 -141 -2 -188
-23 -60 -27 -117 -87 -133 -142 -9 -29 -21 -41 -55 -58 -137 -69 -198 -17
-245 209 -12 58 -30 123 -41 144 -11 22 -69 90 -128 152 -162 168 -200 233
-200 337 0 93 -67 185 -167 229 -101 45 -135 -6 -65 -98 27 -34 41 -65 45 -97
16 -117 70 -219 192 -365 203 -242 192 -224 200 -313 14 -167 67 -300 151
-379 68 -64 112 -83 196 -84 l67 -1 128 130 c177 179 262 227 401 227 61 -1
84 -6 140 -32 178 -84 344 -19 404 158 11 33 25 49 65 75 58 36 96 81 155 180
26 43 57 79 84 97 60 42 84 76 84 121 0 73 -84 137 -195 148 l-59 6 -31 59
c-27 54 -30 68 -30 156 0 88 2 100 34 164 43 88 134 179 222 224 63 32 66 32
106 18 68 -24 96 -42 246 -155 169 -127 228 -157 334 -172 94 -12 139 -26 175
-51 l27 -19 -19 -32 c-26 -42 -26 -111 1 -189 25 -75 59 -135 96 -170 28 -26
321 -238 330 -238 2 0 1 4 -2 10 -11 18 -14 50 -5 50 5 0 61 -32 124 -70 163
-99 292 -166 355 -184 70 -21 70 -21 82 11 l10 27 35 -50 c19 -27 52 -75 72
-107 24 -38 46 -59 62 -63 14 -3 32 -8 41 -10 16 -4 33 -53 23 -64 -3 -2 -36
-7 -75 -11 -38 -3 -72 -9 -76 -13 -4 -4 31 -44 77 -91 l83 -84 -37 -6 c-34 -7
-36 -9 -22 -24 9 -10 43 -30 76 -46 l60 -28 -37 -46 c-20 -25 -40 -51 -45 -58
-6 -8 7 -16 44 -28 93 -31 90 -28 63 -86 -13 -28 -34 -63 -47 -78 -13 -14 -31
-35 -39 -45 -13 -18 -12 -19 29 -13 39 7 42 6 42 -16 0 -13 -27 -69 -60 -125
l-61 -101 -117 49 c-64 26 -174 78 -244 114 -70 36 -138 66 -151 66 -14 0 -59
18 -102 41 -42 22 -78 39 -80 37 -1 -2 -6 -16 -11 -31 l-9 -28 -90 70 c-50 39
-94 69 -100 68 -5 -2 -11 -20 -13 -41 l-3 -38 -52 7 c-29 4 -88 22 -132 41
-67 28 -81 31 -88 19 -13 -25 -34 -17 -89 32 l-53 47 -6 -60 c-4 -32 -7 -87
-8 -122 l-1 -63 -27 21 c-25 20 -28 20 -31 5 -2 -10 6 -46 18 -82 12 -36 20
-67 17 -69 -2 -3 -29 -7 -58 -10 -84 -9 -83 -7 -49 -73 16 -33 30 -64 30 -68
0 -13 -103 -43 -146 -43 -58 0 -73 -14 -40 -35 57 -37 24 -56 -176 -101 -71
-16 -128 -33 -128 -38 0 -5 10 -20 22 -33 l21 -23 -23 -24 c-50 -54 -201 -102
-360 -114 l-95 -8 48 -29 c26 -17 75 -52 109 -78 33 -26 74 -51 90 -54 35 -7
47 -23 18 -23 -26 0 -60 -17 -60 -30 0 -6 8 -10 17 -10 9 0 39 -13 67 -29 28
-15 90 -40 139 -55 103 -31 114 -52 45 -81 l-43 -17 50 -14 c28 -7 66 -22 85
-32 19 -11 61 -27 93 -36 31 -9 57 -22 57 -28 0 -7 -11 -24 -25 -38 l-26 -27
128 -6 c70 -4 156 -7 190 -7 56 0 63 -3 87 -31 18 -21 26 -42 26 -67 0 -81
-72 -146 -272 -248 -135 -68 -248 -150 -310 -224 -18 -21 -47 -74 -65 -117
l-31 -78 24 -3 c13 -2 24 -4 24 -6 0 -1 -15 -40 -34 -87 -40 -100 -52 -160
-36 -188 13 -26 45 -27 60 -3 8 13 9 3 8 -43 l-3 -60 -60 -9 c-33 -5 -278 -10
-545 -10 -418 -1 -500 1 -597 17 -238 38 -380 92 -486 186 -99 87 -162 111
-404 155 -89 17 -193 44 -282 76 -277 97 -417 103 -573 24 l-52 -27 -116 19
c-88 15 -167 19 -335 19 -207 0 -226 -2 -326 -28 -255 -66 -361 -136 -721
-474 -141 -133 -190 -185 -199 -212 -6 -20 -41 -106 -77 -191 -118 -280 -152
-396 -152 -516 l0 -57 -80 6 c-83 7 -89 3 -70 -33 8 -16 6 -22 -15 -36 -51
-34 -193 -28 -335 12 l-25 8 28 -35 c15 -19 41 -58 58 -86 17 -29 43 -61 57
-72 l27 -20 -38 -1 -39 0 44 -49 c24 -27 67 -68 96 -91 58 -46 62 -63 14 -68
-40 -4 -40 -13 -2 -35 16 -10 34 -27 40 -37 6 -11 31 -33 56 -50 38 -27 43
-34 32 -47 -7 -8 -21 -19 -32 -23 -15 -5 5 -17 90 -49 60 -23 121 -47 136 -53
34 -13 53 -63 39 -101 -24 -63 -90 -95 -262 -126 -179 -33 -292 -88 -357 -175
-23 -30 -42 -57 -42 -60 0 -2 7 -6 16 -8 13 -2 6 -16 -29 -59 -86 -106 -109
-177 -52 -167 l24 5 -15 -36 c-62 -144 -79 -216 -49 -205 21 9 19 -6 -14 -78
-44 -99 -46 -108 -22 -108 18 0 19 -3 11 -25 -5 -14 -30 -60 -55 -104 -25 -43
-45 -81 -45 -84 0 -4 9 -7 20 -7 11 0 20 -4 20 -8 0 -18 -163 -233 -367 -484
-57 -70 -103 -129 -103 -132 0 -6 274 160 332 202 52 37 57 36 31 -6 -17 -26
-17 -27 2 -11 26 21 44 27 122 39 36 6 83 20 105 31 l40 20 -7 -30 c-4 -20 -3
-31 4 -31 6 0 66 27 132 61 67 33 124 58 127 55 3 -3 0 -6 -6 -6 -7 0 -12 -4
-12 -9 0 -9 121 -22 222 -25 l57 -1 -20 -21 c-10 -11 -19 -25 -19 -30 0 -11
160 0 230 15 25 6 48 10 53 11 15 0 6 -35 -15 -57 -27 -29 -21 -35 23 -23 18
6 51 10 72 10 21 0 58 5 83 11 56 14 74 3 56 -36 -9 -18 -9 -25 0 -25 6 0 73
32 148 72 130 67 140 71 168 59 32 -13 62 -62 62 -100 0 -40 -43 -127 -120
-246 -126 -192 -163 -307 -144 -449 6 -40 10 -47 25 -43 14 4 19 -2 23 -27 22
-154 29 -180 54 -205 l25 -25 17 21 c16 21 18 19 63 -75 26 -54 53 -106 62
-116 15 -19 15 -19 29 -1 15 21 16 21 68 -110 22 -57 38 -77 45 -57 11 29 33
9 48 -43 54 -193 55 -194 75 -170 7 8 16 15 20 15 11 0 27 -78 51 -244 17
-124 29 -178 29 -135 0 27 77 173 118 226 43 54 207 203 224 203 5 0 8 -12 7
-28 -2 -15 0 -32 4 -39 17 -28 -437 -534 -465 -517 -24 15 -38 77 -38 171 l0
98 -47 80 c-55 94 -169 211 -240 244 -26 13 -69 34 -96 47 -55 28 -57 28 -57
9 0 -22 -7 -19 -58 26 l-47 41 -10 -26 c-8 -23 -13 -26 -40 -20 -16 3 -45 15
-64 26 -27 15 -36 16 -42 6 -6 -9 -15 -6 -37 15 -15 15 -31 27 -35 27 -3 0 -7
-28 -9 -62 -2 -47 -6 -62 -17 -60 -11 2 -12 -7 -7 -48 6 -44 4 -50 -11 -50
-37 0 -47 -15 -34 -51 10 -29 9 -36 -6 -46 -9 -7 -31 -13 -49 -13 -38 0 -52
-15 -27 -29 28 -15 7 -28 -81 -50 -43 -11 -80 -22 -83 -25 -3 -3 0 -13 8 -22
12 -14 10 -19 -13 -39 -32 -28 -120 -55 -177 -55 -23 0 -41 -3 -40 -7 0 -5 29
-30 65 -58 52 -40 61 -51 48 -58 -13 -8 -7 -15 32 -38 27 -16 61 -31 76 -34
36 -8 45 -25 23 -41 -10 -8 -17 -15 -14 -17 19 -12 102 -47 114 -47 20 0 29
-20 16 -33 -23 -23 -9 -27 83 -27 107 0 126 -10 126 -63 0 -46 -20 -70 -108
-123 -42 -27 -92 -59 -110 -73 -32 -23 -35 -24 -111 -13 -194 27 -348 132
-420 286 -16 34 -43 111 -61 171 -57 198 -113 286 -211 340 -30 16 -75 43
-101 61 -156 106 -421 44 -502 -118 -38 -76 -31 -162 16 -214 22 -25 118 -79
118 -67 0 4 -9 22 -21 38 -70 103 -86 180 -49 228 33 42 122 70 207 65 188
-12 349 -169 389 -379 41 -216 157 -397 350 -545 l76 -58 99 -4 c65 -3 99 -8
99 -16 0 -6 -7 -29 -15 -51 -21 -59 -19 -96 5 -102 18 -5 20 -14 20 -89 0 -61
3 -84 13 -84 9 0 11 -17 9 -61 -3 -46 0 -63 12 -72 12 -10 14 -20 7 -52 -22
-101 -23 -115 -6 -115 20 0 17 -16 -26 -150 -16 -51 -29 -94 -29 -97 0 -2 19
11 43 30 55 45 109 72 184 91 79 21 86 20 78 -4 -11 -35 22 -34 101 4 84 40
104 44 104 21 0 -30 30 -27 73 7 60 49 68 53 78 37 18 -30 107 42 140 115 7
14 20 26 30 26 21 0 32 31 54 155 18 98 42 162 69 184 25 21 36 4 47 -75 12
-92 15 -99 34 -84 8 7 15 11 16 9 0 -2 8 -31 17 -63 18 -63 36 -81 47 -46 14
43 38 5 59 -92 4 -16 12 -28 19 -28 7 0 17 -19 23 -43 7 -32 14 -42 29 -42 16
0 25 15 45 72 14 40 38 85 53 101 16 17 30 45 34 68 3 21 9 41 12 44 19 16 31
56 31 104 0 45 3 54 20 59 16 4 20 14 20 45 0 48 10 56 67 53 40 -2 43 0 43
23 0 26 3 27 98 41 39 6 43 9 37 29 -17 53 -17 69 0 100 19 35 17 45 -43 201
-15 37 -17 53 -9 67 9 13 5 32 -20 85 -17 37 -36 80 -42 96 -14 35 -66 67
-111 68 -19 0 -50 6 -69 13 l-34 12 53 45 c29 24 112 114 184 199 165 196 296
332 411 426 50 41 122 101 160 135 78 67 527 374 590 402 84 38 144 122 164
232 26 141 0 447 -50 595 -18 52 -34 115 -35 140 -1 25 -10 66 -20 91 -17 44
-17 48 -1 72 12 18 35 32 72 42 30 9 55 19 55 21 0 3 -7 19 -16 35 -14 29 -14
32 3 51 10 11 53 46 97 76 l78 55 -23 18 c-13 10 -27 19 -30 19 -3 0 -18 22
-33 49 -23 43 -24 51 -11 58 13 8 12 14 -6 51 -12 23 -36 51 -55 63 -19 11
-34 25 -34 29 0 5 -26 28 -57 52 -92 67 -114 90 -107 110 9 30 -20 64 -88 103
-35 20 -82 55 -106 78 -42 41 -44 42 -110 41 -54 -1 -80 -8 -130 -33 -34 -17
-73 -31 -88 -31 -15 0 -53 -18 -86 -40 -36 -24 -72 -40 -90 -40 -16 0 -66 -18
-111 -39 -105 -50 -150 -48 -208 10 -41 41 -99 134 -99 160 0 9 25 36 56 59
62 48 95 98 130 198 42 119 27 209 -41 238 -71 29 -206 9 -328 -48 l-73 -35
-23 33 c-22 32 -22 35 -8 78 20 58 85 169 146 248 62 81 71 100 71 140 -1 67
-36 118 -178 258 -75 75 -165 165 -199 200 -34 36 -87 90 -119 120 l-56 55
-16 -23 c-15 -23 -15 -22 -57 48 -56 95 -61 99 -76 67 -7 -15 -16 -27 -21 -27
-23 0 -88 43 -122 80 -28 31 -41 39 -49 31 -18 -18 -26 -13 -53 40 -14 28 -29
48 -34 43 -4 -5 -21 -47 -38 -94 -28 -79 -30 -83 -43 -62 -22 35 -29 26 -29
-35 0 -77 -6 -84 -55 -73 -22 5 -43 10 -47 10 -5 0 -8 -27 -8 -60 l0 -60 -30
0 c-26 0 -30 3 -30 29 0 62 51 224 121 383 87 198 162 311 294 444 146 147
275 201 661 280 l222 45 109 -21 c215 -42 422 -37 631 16 102 25 103 25 135 6
94 -57 282 -111 498 -142 129 -19 145 -24 207 -62 210 -129 489 -213 794 -239
105 -9 193 -9 375 0 245 12 510 34 622 52 50 8 66 7 72 -3 6 -9 13 -8 28 6 21
19 21 19 21 -6 0 -14 -5 -72 -10 -128 -6 -56 -9 -104 -6 -107 2 -3 14 0 25 7
34 17 34 -4 6 -140 -32 -155 -32 -152 1 -139 28 10 44 5 28 -9 -5 -5 -28 -14
-51 -20 -65 -19 -159 -88 -203 -149 -65 -92 -84 -151 -84 -273 -1 -109 14
-177 55 -247 18 -33 18 -33 -11 -105 -17 -40 -30 -77 -30 -81 0 -5 22 15 48
44 l48 52 50 -47 c62 -59 169 -113 254 -126 158 -24 322 48 417 184 l20 29 17
-54 c10 -30 24 -64 32 -77 12 -18 12 -23 2 -26 -7 -3 -36 -12 -64 -21 -223
-70 -342 -325 -269 -572 14 -47 14 -53 -5 -95 -31 -71 -44 -184 -31 -265 24
-142 120 -271 228 -307 52 -17 140 -23 191 -11 18 3 32 5 32 3 0 -2 -7 -25
-15 -52 -32 -106 -9 -247 55 -343 l29 -42 -48 -34 c-129 -93 -207 -268 -181
-407 28 -147 145 -254 310 -282 66 -11 143 -6 225 17 17 5 25 -4 48 -51 16
-31 52 -82 82 -113 l54 -57 -51 -18 c-29 -10 -72 -37 -101 -64 -189 -176 -135
-493 106 -623 59 -33 67 -34 167 -34 97 0 109 2 158 29 106 59 172 165 180
291 8 127 -37 235 -134 324 l-54 49 33 11 c131 46 217 191 217 365 l0 85 38
-16 c59 -25 168 -21 236 10 223 102 290 432 135 662 -33 50 -106 118 -149 140
l-33 17 55 22 c69 28 103 52 157 111 43 47 101 155 101 189 0 32 9 13 30 -60
10 -38 57 -159 105 -269 191 -444 299 -592 600 -818 254 -191 367 -259 506
-302 55 -18 59 -17 149 4 163 40 280 97 400 193 32 27 61 48 63 48 2 0 44 -57
92 -127 49 -71 91 -131 94 -135 4 -4 5 53 3 126 -5 143 6 229 41 336 l22 65
65 22 c157 54 330 9 407 -106 48 -71 22 -134 -87 -206 -39 -26 -69 -49 -66
-52 2 -3 34 -2 71 2 49 6 74 14 96 32 76 64 94 176 46 276 -50 101 -183 200
-288 214 -21 3 -39 7 -39 8 0 1 6 18 14 37 8 19 26 94 40 168 14 74 33 156 42
182 l15 48 39 -20 c22 -11 44 -20 49 -20 26 0 35 50 35 202 1 86 4 159 8 163
3 4 18 -1 31 -10 25 -16 26 -15 38 7 7 13 14 57 17 98 5 98 -17 193 -69 286
l-40 73 28 -2 c22 -2 29 3 31 21 5 35 -28 79 -179 239 -161 170 -206 231 -227
305 -26 93 -15 138 34 138 13 0 83 -31 157 -70 74 -38 142 -70 151 -70 16 0
17 6 12 45 -5 30 -4 45 4 45 6 0 64 -18 129 -40 65 -22 126 -40 135 -40 24 0
20 39 -9 82 -14 20 -25 39 -25 42 0 4 27 6 60 6 46 0 85 -9 165 -40 58 -22
107 -40 110 -40 3 0 5 13 5 30 l0 29 63 -29 c83 -40 121 -46 152 -26 36 24 31
47 -23 118 -120 157 -152 227 -152 330 0 44 -3 49 -42 76 -64 44 -83 68 -69
86 10 11 -1 21 -56 52 l-68 39 43 3 c23 2 42 7 42 11 0 11 -39 45 -90 77 -57
36 -100 74 -100 90 0 7 9 16 20 19 11 3 20 10 20 16 0 5 -29 31 -64 59 -99 78
-99 113 2 208 l56 53 -43 37 -43 37 18 45 c10 25 44 90 75 145 31 55 55 103
53 106 -2 4 -27 9 -55 13 -33 5 -69 19 -105 43 -60 40 -58 37 -44 63 7 13 7
21 0 25 -6 4 19 38 58 80 38 40 122 137 185 216 63 79 145 174 181 210 128
130 157 242 175 694 l9 220 -90 225 c-50 124 -117 278 -149 342 -48 96 -57
122 -50 141 8 21 3 32 -35 75 -45 51 -54 72 -31 72 6 0 -10 21 -38 46 l-50 45
33 -6 c49 -10 41 12 -33 85 -68 67 -79 90 -45 90 29 0 25 11 -25 72 -26 32
-45 65 -45 80 0 25 29 57 88 97 38 27 40 40 7 71 -23 21 -23 24 -9 51 8 16 44
65 79 109 36 43 65 83 65 87 0 5 -19 14 -42 20 -27 7 -58 27 -82 52 -34 35
-37 42 -26 56 12 14 9 21 -21 50 -34 33 -91 60 -244 117 -103 37 -125 52 -125
83 0 31 -30 47 -137 74 -45 11 -105 32 -134 47 -38 19 -62 25 -89 21 -57 -7
-129 -45 -184 -97 -28 -26 -63 -50 -78 -54 -15 -3 -52 -35 -88 -75 -41 -47
-72 -72 -92 -76 -17 -4 -59 -35 -98 -71 -74 -70 -119 -94 -177 -94 -41 0 -124
42 -158 80 l-19 21 27 -6 c23 -6 27 -4 27 14 0 24 -38 129 -69 189 l-21 42 29
-6 c26 -6 31 -3 37 20 7 30 -18 73 -91 156 -47 53 -55 70 -30 70 24 0 18 12
-39 72 -88 92 -195 136 -423 173 -83 13 -176 34 -207 45 -83 32 -121 90 -96
150 11 26 25 33 124 66 61 20 135 46 165 57 l54 20 -32 13 c-18 8 -31 19 -29
26 3 7 26 27 53 45 27 18 52 39 57 47 4 8 29 27 55 43 l48 28 -45 5 c-62 7
-58 26 16 75 33 22 87 64 118 93 l58 52 -43 0 -44 0 38 31 c21 17 45 45 53 61
9 17 37 53 61 80 25 26 42 48 38 48 -4 0 -53 -9 -108 -21 -161 -33 -347 -16
-334 30 3 9 8 24 12 34 7 17 2 18 -96 10 -119 -9 -216 -10 -225 -1 -3 4 2 18
12 32 21 33 15 40 -20 26 -15 -5 -59 -10 -98 -10 l-70 0 7 53 c4 28 8 57 9 62
0 6 -4 9 -10 8 -6 -1 -33 -5 -61 -9 l-50 -6 -5 66 c-3 37 -8 70 -12 73 -3 3
-14 -5 -25 -18 l-19 -24 -10 25 c-5 14 -20 54 -32 90 -29 80 -33 85 -52 63z
m2401 -3546 c74 -60 142 -107 153 -107 5 0 8 18 8 41 l0 41 104 -56 c57 -31
109 -56 115 -56 15 0 14 34 -3 75 -15 34 -14 35 8 35 36 0 85 -20 162 -67 39
-24 74 -43 78 -43 4 0 10 9 14 21 l8 20 28 -22 c34 -27 57 -79 91 -202 42
-155 55 -246 55 -377 0 -350 -45 -522 -168 -653 -32 -34 -74 -88 -93 -121 -53
-90 -170 -189 -362 -305 l-37 -23 -107 17 c-117 18 -165 37 -161 62 2 8 -9 24
-23 35 -21 16 -56 23 -160 33 -124 12 -169 20 -169 32 0 11 102 153 110 153 6
0 10 -12 10 -27 0 -16 5 -35 10 -43 8 -12 13 -11 33 9 26 24 52 78 107 222 19
48 39 94 46 104 12 16 15 16 48 -5 20 -12 40 -19 45 -16 14 9 28 60 41 146 6
41 15 92 21 113 10 38 11 38 29 22 15 -14 23 -15 34 -6 43 36 53 224 17 325
-25 72 -25 69 -2 57 39 -21 42 19 6 89 -14 28 -62 105 -106 173 -97 145 -114
182 -122 264 -5 49 -3 65 9 77 26 27 54 18 123 -37z m-2322 -249 c-3 -13 -9
-36 -13 -51 l-7 -28 49 30 48 31 46 -44 c48 -47 116 -86 149 -86 11 0 22 -4
25 -9 3 -4 -20 -11 -52 -14 -89 -9 -238 -88 -334 -177 l-77 -71 -40 26 c-24
15 -43 36 -47 51 -9 33 1 126 22 208 14 58 19 65 52 79 21 9 61 30 91 47 66
37 96 40 88 8z m577 -255 c0 -2 -16 2 -35 7 -18 6 -54 10 -80 10 -37 0 -50 5
-74 30 -16 17 -35 30 -42 30 -7 0 -13 4 -13 9 0 4 29 11 64 13 36 3 87 16 117
30 l54 24 5 -75 c3 -42 5 -77 4 -78z m851 -1143 c26 -38 49 -70 51 -70 2 0 9
11 14 25 13 35 24 31 50 -19 l24 -43 -21 -27 -21 -26 -25 42 c-28 47 -89 115
-126 141 -20 13 -22 19 -11 32 7 8 14 15 15 15 2 0 24 -31 50 -70z m-567 -65
c-16 -30 -36 -55 -44 -55 -9 0 -13 4 -9 10 3 5 -9 17 -27 26 l-33 18 25 6 c20
5 22 8 10 15 -11 7 -4 12 30 21 80 21 82 20 48 -41z m-2075 -940 c-10 -31 -16
-89 -17 -152 l-1 -103 -32 0 c-30 0 -33 3 -33 33 0 17 -6 58 -14 90 -14 60
-12 69 10 40 7 -10 14 -16 16 -13 2 3 21 40 42 82 22 43 41 77 42 75 2 -2 -4
-25 -13 -52z m331 -831 c8 -31 5 -37 -18 -28 -10 4 -15 13 -12 21 3 8 6 19 6
24 0 20 18 7 24 -17z m1336 -772 c0 -59 -9 -168 -20 -242 -23 -159 -24 -229
-6 -367 14 -108 34 -155 112 -263 l36 -50 17 22 c18 22 18 21 80 -70 34 -50
77 -107 96 -127 62 -61 123 -59 117 5 l-4 32 79 -65 c96 -80 200 -147 225
-147 17 0 19 5 13 31 -9 38 -14 41 121 -71 59 -49 111 -90 115 -90 3 0 11 15
16 33 l10 32 129 -129 128 -128 11 30 c13 41 20 45 35 27 11 -13 7 -21 -26
-52 -55 -52 -118 -90 -183 -110 -80 -25 -257 -24 -331 1 -126 43 -223 106
-289 189 -20 25 -60 64 -90 86 -136 101 -247 227 -362 413 -146 234 -197 364
-294 751 -31 122 -63 237 -71 257 -14 31 -13 36 4 60 14 17 27 24 43 21 13 -2
62 -4 109 -5 68 -1 93 3 125 20 22 11 43 18 48 16 4 -2 7 -51 7 -110z m-1296
-1182 c33 -5 63 -7 68 -4 11 7 16 -10 21 -72 l4 -51 -36 13 c-20 7 -53 13 -73
14 -34 0 -40 4 -59 43 -12 23 -29 51 -38 61 -15 18 -15 19 19 12 19 -4 62 -11
94 -16z m3115 -51 c1 -16 -45 -36 -56 -25 -3 3 5 22 18 42 20 33 23 35 30 18
4 -10 8 -26 8 -35z m-7401 -487 c72 -105 89 -122 103 -101 5 8 9 20 9 27 0 23
15 12 85 -58 38 -38 73 -70 77 -70 5 0 8 23 8 50 0 28 4 50 8 50 19 0 89 -59
136 -114 44 -52 48 -60 37 -82 -6 -13 -28 -35 -48 -47 -96 -56 -259 -168 -372
-256 -68 -53 -133 -104 -146 -113 l-22 -17 18 52 c11 31 18 81 19 126 0 63 2
72 14 62 12 -10 17 -8 26 8 13 26 7 61 -37 215 -49 171 -55 211 -42 276 10 53
29 80 55 80 6 0 39 -40 72 -88z m-208 -794 c0 -7 -12 -22 -27 -32 l-26 -19 19
31 c19 33 34 42 34 20z m-196 -167 c3 -5 -16 -26 -42 -47 l-47 -39 39 48 c42
51 42 51 50 38z"/>
</g>
</svg>