<svg version="1.0" xmlns="http://www.w3.org/2000/svg"
 width="1280.000000pt" height="1265.000000pt" viewBox="0 0 1280.000000 1265.000000"
 preserveAspectRatio="xMidYMid meet">
<metadata>
Created by potrace 1.15, written by Peter Selinger 2001-2017
</metadata>
<g transform="translate(0.000000,1265.000000) scale(0.100000,-0.100000)"
fill="#000000" stroke="none">
<path d="M7153 12433 c-20 -28 -21 -28 -51 -10 -16 9 -34 17 -39 17 -9 0 -47
-70 -41 -75 2 -1 17 -7 35 -14 34 -14 53 -9 53 14 0 25 18 26 60 5 l41 -21 14
35 c19 45 20 43 -15 61 -37 19 -32 20 -57 -12z"/>
<path d="M7293 12356 c-17 -12 -33 -31 -36 -44 -4 -19 2 -26 31 -38 20 -8 39
-11 44 -6 16 16 20 76 6 93 -12 15 -16 14 -45 -5z"/>
<path d="M6986 12282 c-2 -4 -7 -23 -11 -43 -6 -33 -4 -37 18 -43 14 -3 32 -8
40 -12 10 -4 16 5 21 30 4 20 6 39 6 43 -1 11 -69 33 -74 25z"/>
<path d="M7196 12184 c-9 -20 -16 -38 -14 -39 10 -8 70 -36 73 -33 1 2 10 18
19 35 l17 33 -33 20 c-18 11 -36 20 -39 20 -3 0 -13 -16 -23 -36z"/>
<path d="M6936 12111 c-18 -69 -19 -69 25 -76 22 -4 42 -5 43 -3 2 1 6 19 10
39 6 36 6 37 -33 47 -34 8 -41 7 -45 -7z"/>
<path d="M7136 12036 c-3 -13 -8 -31 -12 -39 -3 -10 3 -17 19 -21 14 -3 32 -8
40 -12 10 -3 18 5 26 27 15 43 15 44 -14 57 -38 18 -52 15 -59 -12z"/>
<path d="M3025 12020 c-288 -11 -541 -34 -875 -81 -649 -90 -1230 -253 -1230
-345 0 -33 271 -199 695 -427 405 -217 1210 -625 1513 -766 270 -126 699 -298
974 -392 54 -18 97 -33 95 -35 -1 -1 -60 2 -132 7 -686 44 -1321 -75 -1875
-352 -621 -311 -1126 -810 -1536 -1519 -351 -609 -561 -1258 -636 -1970 -16
-159 -16 -661 0 -835 77 -792 326 -1548 762 -2310 727 -1269 1980 -2406 3049
-2766 257 -87 445 -112 736 -98 553 27 1149 173 1688 413 l59 27 21 -28 c142
-190 465 -356 867 -447 329 -75 748 -110 1030 -87 818 68 1681 454 2461 1101
162 135 566 540 703 705 496 597 847 1225 1086 1945 157 471 247 902 296 1425
22 224 25 837 6 1055 -43 499 -102 850 -218 1310 -101 399 -107 413 -275 660
-219 323 -494 609 -801 833 -830 605 -1965 814 -3318 611 -504 -75 -952 -191
-1523 -393 l-58 -20 -202 98 c-111 54 -238 113 -282 131 -106 45 -109 49 -22
33 41 -7 159 -26 264 -41 157 -24 193 -32 211 -50 22 -22 99 -48 110 -37 6 5
-28 111 -52 166 -6 13 -2 16 18 12 27 -5 29 -2 40 49 5 23 2 27 -24 33 -17 4
-30 13 -30 20 0 8 -13 15 -31 17 -30 3 -35 10 -94 138 -131 286 -279 589 -331
678 -200 339 -542 660 -1017 952 -321 199 -833 455 -998 499 -245 67 -671 98
-1124 81z"/>
<path d="M6891 11924 c-6 -21 -9 -39 -8 -40 2 -2 21 -6 44 -10 40 -6 40 -6 47
31 9 44 8 44 -37 52 -34 5 -36 4 -46 -33z"/>
<path d="M7081 11878 c-16 -45 -14 -55 12 -61 12 -2 29 -7 38 -11 12 -5 18 3
27 31 13 42 11 46 -35 61 -30 10 -32 9 -42 -20z"/>
<path d="M6857 11763 c-7 -44 -8 -43 37 -53 38 -8 37 -10 50 51 5 23 2 27 -25
33 -51 10 -56 8 -62 -31z"/>
<path d="M7031 11714 c-12 -45 -10 -51 30 -59 36 -8 44 -2 53 41 6 28 4 32
-18 38 -13 3 -31 9 -39 12 -11 4 -18 -5 -26 -32z"/>
<path d="M6826 11605 c-8 -43 -3 -50 41 -58 35 -7 43 4 43 54 0 21 -5 29 -17
29 -10 0 -28 3 -39 6 -18 5 -22 0 -28 -31z"/>
<path d="M6985 11550 c-4 -23 -5 -43 -3 -45 1 -2 19 -6 39 -10 36 -7 36 -6 46
33 10 39 9 41 -16 47 -14 3 -33 8 -43 11 -12 4 -18 -4 -23 -36z"/>
<path d="M6796 11449 c-10 -51 -8 -56 31 -62 42 -7 53 2 53 46 0 28 -3 31 -51
41 -23 5 -27 2 -33 -25z"/>
<path d="M6945 11390 c-4 -23 -5 -43 -3 -45 1 -2 19 -6 39 -10 36 -7 36 -6 46
33 10 39 9 41 -16 47 -14 3 -33 8 -43 11 -12 4 -18 -4 -23 -36z"/>
<path d="M6767 11274 c-4 -21 -5 -40 -3 -42 3 -2 22 -6 44 -9 l40 -5 4 38 c3
22 4 41 2 42 -1 2 -20 6 -42 9 -39 5 -39 5 -45 -33z"/>
<path d="M6916 11261 c-2 -3 -7 -22 -11 -42 -7 -36 -6 -37 30 -43 44 -9 44 -8
55 37 7 35 7 35 -31 45 -22 5 -41 7 -43 3z"/>
<path d="M6746 11139 c-20 -64 -12 -79 44 -79 24 0 29 5 35 36 3 20 5 37 3 39
-2 2 -20 6 -40 10 -28 5 -39 4 -42 -6z"/>
<path d="M6870 11071 c-14 -50 -14 -48 26 -56 42 -7 49 -2 58 41 7 30 5 32
-33 42 l-41 10 -10 -37z"/>
<path d="M6716 10968 c-14 -53 -8 -66 32 -70 20 -3 39 -4 40 -2 2 1 6 21 9 43
5 39 4 41 -20 41 -14 0 -32 3 -40 6 -9 3 -17 -3 -21 -18z"/>
<path d="M6834 10906 c-8 -44 -7 -45 39 -53 35 -5 36 -4 43 31 8 44 7 45 -39
53 -35 5 -36 4 -43 -31z"/>
<path d="M6688 10783 c-3 -21 -5 -39 -4 -40 1 -1 20 -5 43 -9 l41 -6 4 38 c6
44 -3 54 -48 54 -29 0 -32 -3 -36 -37z"/>
<path d="M6805 10754 c-4 -16 -8 -35 -10 -41 -3 -7 6 -15 18 -18 58 -12 60
-11 70 28 5 21 8 40 6 42 -2 2 -21 6 -41 10 -35 7 -37 5 -43 -21z"/>
<path d="M6665 10624 c-8 -45 2 -56 46 -52 31 3 34 6 37 39 3 34 1 37 -29 43
-46 9 -46 9 -54 -30z"/>
<path d="M6777 10613 c-3 -4 -7 -24 -9 -43 -3 -33 -1 -34 36 -42 21 -5 40 -7
41 -6 2 2 6 22 10 46 6 40 6 42 -18 42 -14 0 -32 3 -40 6 -8 3 -17 2 -20 -3z"/>
<path d="M6644 10491 c-2 -2 -4 -21 -4 -41 0 -35 2 -38 37 -43 20 -4 38 -5 40
-4 1 2 5 21 9 44 l6 41 -41 4 c-23 2 -44 2 -47 -1z"/>
<path d="M6747 10452 c-3 -4 -7 -23 -11 -43 -6 -36 -6 -36 35 -43 23 -4 43 -5
44 -4 1 2 5 20 8 40 5 35 4 38 -21 44 -15 3 -32 7 -39 9 -7 2 -14 1 -16 -3z"/>
<path d="M6618 10294 c-3 -22 -4 -41 -2 -42 1 -2 20 -6 42 -9 l40 -5 4 38 c3
22 4 41 2 42 -1 2 -20 6 -42 9 l-40 5 -4 -38z"/>
<path d="M6707 10254 c-4 -21 -5 -40 -3 -42 3 -2 22 -6 44 -9 l40 -5 4 38 c3
22 4 41 2 42 -1 2 -20 6 -42 9 -39 5 -39 5 -45 -33z"/>
<path d="M6600 10156 c0 -7 -3 -28 -6 -45 -6 -31 -6 -31 35 -31 30 0 41 -4 41
-15 0 -8 12 -17 28 -21 15 -3 33 -7 40 -10 14 -4 17 3 26 53 5 31 4 32 -39 39
-26 3 -45 12 -45 19 0 7 -14 15 -31 19 -44 9 -49 8 -49 -8z"/>
<path d="M6576 9976 c-10 -48 -7 -53 34 -60 22 -3 39 -11 37 -18 -2 -13 64
-31 74 -20 4 4 10 24 13 45 6 34 5 37 -18 37 -34 0 -56 10 -56 25 0 8 -16 14
-39 17 -37 3 -40 1 -45 -26z"/>
<path d="M6556 9805 c-9 -45 -2 -55 34 -55 21 0 28 -4 24 -14 -4 -9 7 -15 37
-20 23 -4 43 -5 45 -4 1 2 4 21 6 43 3 39 2 40 -29 43 -19 2 -33 9 -33 16 0 8
-10 16 -22 20 -46 12 -56 7 -62 -29z"/>
</g>
</svg>