<svg version="1.0" xmlns="http://www.w3.org/2000/svg"
 width="1173.000000pt" height="1280.000000pt" viewBox="0 0 1173.000000 1280.000000"
 preserveAspectRatio="xMidYMid meet">
<metadata>
Created by potrace 1.15, written by Peter Selinger 2001-2017
</metadata>
<g transform="translate(0.000000,1280.000000) scale(0.100000,-0.100000)"
fill="#000000" stroke="none">
<path d="M5163 12557 c-7 -388 -87 -766 -246 -1162 -181 -452 -353 -747 -1029
-1770 -676 -1023 -1035 -1705 -1324 -2514 -51 -145 -60 -161 -66 -135 -4 16
-21 88 -38 159 -84 360 -238 794 -448 1265 -75 169 -164 352 -157 323 53 -205
40 -629 -36 -1228 -97 -775 -307 -1839 -509 -2592 -50 -183 -65 -304 -57 -458
15 -291 66 -514 245 -1065 44 -135 85 -271 92 -302 11 -55 10 -59 -25 -145
-101 -245 -270 -497 -491 -732 -160 -170 -359 -341 -832 -715 l-202 -159 6
-41 c23 -169 61 -301 123 -424 127 -251 335 -443 646 -596 226 -112 433 -179
725 -237 l154 -30 18 23 c33 44 116 244 192 465 90 265 122 346 177 456 111
221 254 363 447 446 l54 22 106 -25 c633 -151 1208 -189 1777 -116 653 84
1256 324 1763 704 242 181 393 350 627 701 291 438 481 834 860 1790 91 231
197 495 236 587 324 776 613 1271 1023 1753 121 142 710 727 1226 1216 449
427 698 672 845 835 432 478 628 881 674 1384 12 125 13 353 3 438 l-7 54 -54
-94 c-79 -136 -250 -395 -349 -528 -135 -182 -197 -256 -337 -399 -296 -304
-526 -455 -980 -646 -299 -126 -440 -187 -528 -231 -49 -24 -90 -44 -92 -44
-1 0 8 35 22 78 90 287 172 634 217 912 46 283 51 353 51 665 -1 310 -12 426
-61 620 -117 464 -413 836 -761 956 -276 95 -617 86 -1021 -27 -520 -145
-1147 -483 -1763 -949 l-46 -34 -17 102 c-75 424 -280 875 -594 1302 -66 90
-224 285 -231 285 -3 0 -7 -64 -8 -143z"/>
</g>
</svg>