<svg version="1.0" xmlns="http://www.w3.org/2000/svg"
 width="1280.000000pt" height="1258.000000pt" viewBox="0 0 1280.000000 1258.000000"
 preserveAspectRatio="xMidYMid meet">
<metadata>
Created by potrace 1.15, written by Peter Selinger 2001-2017
</metadata>
<g transform="translate(0.000000,1258.000000) scale(0.100000,-0.100000)"
fill="#000000" stroke="none">
<path d="M4919 12565 c-33 -18 -63 -90 -88 -216 -24 -114 -47 -176 -71 -189
-27 -14 -71 4 -195 83 -79 50 -120 70 -145 71 -34 1 -35 0 -38 -41 -6 -83 67
-332 185 -633 68 -171 218 -520 259 -602 l24 -48 -22 -5 c-13 -3 -264 -46
-558 -95 -736 -122 -1012 -185 -1348 -306 -568 -205 -1069 -521 -1483 -934
-433 -432 -723 -897 -1017 -1625 -313 -779 -458 -1548 -413 -2190 67 -947 380
-1999 850 -2860 627 -1146 1282 -1845 2131 -2270 882 -442 2080 -728 2940
-701 328 10 537 37 855 112 925 217 1795 687 2471 1337 773 742 1538 2349
1743 3662 90 569 93 1309 10 1903 -96 685 -313 1310 -613 1757 -52 77 -93 141
-91 143 6 7 419 -99 530 -136 141 -47 494 -202 606 -267 170 -98 281 -190 395
-327 284 -341 579 -939 814 -1651 18 -54 34 -97 36 -95 6 7 53 491 69 708 22
320 33 674 40 1275 8 698 -7 942 -70 1192 -102 401 -422 807 -897 1136 -262
182 -421 243 -1009 392 -368 93 -576 155 -979 290 -939 316 -1408 418 -1835
402 -638 -25 -1248 -255 -1760 -662 l-91 -72 -269 -4 -269 -4 -48 95 c-119
234 -125 343 -38 690 43 169 50 280 22 343 -57 129 -270 278 -482 336 -87 24
-115 25 -151 6z"/>
</g>
</svg>