<svg version="1.0" xmlns="http://www.w3.org/2000/svg"
 width="1133.000000pt" height="1280.000000pt" viewBox="0 0 1133.000000 1280.000000"
 preserveAspectRatio="xMidYMid meet">
<metadata>
Created by potrace 1.15, written by Peter Selinger 2001-2017
</metadata>
<g transform="translate(0.000000,1280.000000) scale(0.100000,-0.100000)"
fill="#000000" stroke="none">
<path d="M3808 12793 c-11 -3 -18 -14 -18 -27 0 -18 10 -28 49 -44 129 -53
303 -201 391 -331 80 -119 153 -303 200 -501 11 -47 40 -193 65 -324 l45 -239
69 -121 c38 -67 67 -122 66 -124 -2 -2 -32 4 -67 12 -128 32 -498 109 -679
141 -296 54 -448 69 -689 69 -441 0 -718 -69 -1160 -290 -463 -232 -768 -442
-1050 -724 -542 -542 -850 -1234 -970 -2180 -50 -401 -73 -1039 -46 -1280 155
-1349 366 -2213 736 -3010 195 -422 499 -906 840 -1340 37 -47 141 -186 230
-310 442 -609 714 -944 1010 -1241 402 -402 747 -621 1185 -749 451 -131 1049
-142 1760 -30 191 30 462 43 740 37 341 -9 506 -31 840 -111 280 -68 292 -70
425 -70 100 0 141 4 205 22 114 33 242 96 401 199 77 50 200 125 274 168 324
188 395 262 617 650 158 277 674 1234 748 1389 29 61 111 230 183 376 435 889
644 1389 792 1900 67 233 100 368 251 1045 l80 360 -4 735 c-6 816 -14 984
-68 1360 -86 604 -299 1110 -654 1555 -106 133 -393 420 -530 529 -526 419
-1154 681 -1870 780 -263 36 -336 41 -680 40 -448 0 -648 -20 -1213 -121 -39
-7 -41 -24 24 202 59 207 147 458 219 628 l16 38 -77 36 c-101 46 -168 53
-249 24 -102 -37 -147 -42 -170 -21 -29 26 -94 57 -136 64 -33 6 -39 3 -78
-39 -23 -25 -44 -59 -48 -75 -3 -17 -8 -30 -12 -30 -3 0 -127 121 -276 270
l-270 270 -160 85 c-350 188 -550 267 -807 319 -146 30 -415 46 -480 29z"/>
</g>
</svg>