<svg version="1.0" xmlns="http://www.w3.org/2000/svg"
 width="1241.000000pt" height="1280.000000pt" viewBox="0 0 1241.000000 1280.000000"
 preserveAspectRatio="xMidYMid meet">
<metadata>
Created by potrace 1.15, written by Peter Selinger 2001-2017
</metadata>
<g transform="translate(0.000000,1280.000000) scale(0.100000,-0.100000)"
fill="#000000" stroke="none">
<path d="M3926 12613 c-9 -98 -39 -403 -66 -677 -32 -323 -50 -546 -50 -632
l0 -134 -72 -36 c-40 -20 -127 -67 -193 -104 -522 -293 -936 -592 -1313 -947
l-133 -125 -217 145 c-338 226 -655 463 -910 680 -51 43 -96 76 -99 73 -6 -6
130 -174 276 -341 119 -135 469 -486 643 -644 l115 -105 -138 -153 c-301 -334
-560 -654 -684 -843 -876 -1341 -1198 -2489 -1050 -3745 124 -1051 549 -2059
1223 -2905 391 -490 924 -982 1429 -1319 542 -361 1187 -608 1876 -720 375
-61 580 -76 1047 -76 379 1 451 4 770 36 556 55 1134 166 1775 341 482 131
1148 497 1695 932 551 438 1046 980 1459 1596 590 880 921 1674 1046 2505 42
287 50 402 49 760 -1 481 -36 802 -150 1365 -79 388 -243 846 -465 1295 -376
761 -846 1317 -1614 1906 -216 166 -258 195 -475 319 -859 492 -1742 784
-2630 870 -185 18 -618 24 -801 11 -178 -13 -448 -44 -559 -65 -39 -8 -70 -10
-70 -7 0 4 23 105 51 225 27 120 49 225 47 233 -6 32 -267 -439 -268 -484 0
-7 -17 -17 -37 -22 -495 -127 -571 -155 -1142 -415 -68 -31 -127 -53 -131 -49
-8 9 -8 8 -75 473 -42 284 -125 919 -125 947 0 7 -4 13 -8 13 -5 0 -16 -80
-26 -177z"/>
</g>
</svg>