<svg version="1.0" xmlns="http://www.w3.org/2000/svg"
 width="1199.000000pt" height="1280.000000pt" viewBox="0 0 1199.000000 1280.000000"
 preserveAspectRatio="xMidYMid meet">
<metadata>
Created by potrace 1.15, written by Peter Selinger 2001-2017
</metadata>
<g transform="translate(0.000000,1280.000000) scale(0.100000,-0.100000)"
fill="#000000" stroke="none">
<path d="M5531 12755 c-8 -383 -34 -893 -50 -997 -80 -502 -110 -1002 -81
-1333 5 -60 14 -187 20 -281 21 -361 88 -608 332 -1228 197 -499 227 -596 187
-596 -4 0 -43 69 -87 154 -138 266 -360 623 -552 886 -42 58 -120 166 -174
240 -260 357 -519 610 -846 829 -199 133 -307 180 -450 196 -30 3 -67 2 -82
-2 -26 -8 -21 -13 148 -188 l175 -180 118 -240 c283 -576 502 -967 741 -1321
l115 -172 180 -148 c213 -174 459 -391 531 -466 229 -239 377 -471 459 -724
19 -58 35 -107 35 -110 0 -2 -10 -4 -22 -3 -17 0 -35 18 -68 71 -25 39 -83
111 -129 160 -76 81 -400 380 -505 467 -60 50 -219 152 -316 204 -178 95 -555
231 -689 248 -37 4 -116 22 -177 39 -155 44 -209 48 -270 21 l-49 -22 60 -52
c116 -99 211 -207 430 -487 152 -194 300 -350 407 -431 92 -68 270 -160 583
-299 261 -116 454 -211 564 -277 254 -153 469 -373 567 -580 14 -31 80 -230
146 -442 95 -307 127 -398 158 -447 52 -83 123 -226 174 -353 53 -129 90 -240
83 -247 -14 -15 -85 37 -149 107 -39 44 -87 89 -107 101 -20 12 -134 120 -253
239 -213 213 -476 458 -888 829 -353 317 -589 541 -802 759 -163 167 -211 211
-232 211 -49 0 -389 316 -592 550 -500 578 -763 1162 -809 1800 -4 47 -16 112
-26 144 -11 33 -25 96 -30 140 -6 45 -21 133 -34 196 -37 178 -62 335 -90 570
-24 197 -31 229 -81 380 -79 240 -149 494 -259 943 -94 378 -100 397 -121 397
-19 0 -25 -8 -35 -42 -6 -24 -19 -52 -29 -63 -10 -11 -28 -56 -40 -100 -30
-109 -76 -237 -180 -510 -147 -387 -203 -577 -229 -795 -27 -216 3 -420 109
-740 159 -481 432 -944 957 -1622 62 -80 113 -153 113 -161 0 -13 -10 -13 -70
4 -55 16 -126 55 -339 189 -714 448 -1178 697 -1651 887 -231 93 -490 180
-685 229 -147 37 -151 37 -178 20 -21 -15 -27 -26 -27 -55 0 -30 8 -44 41 -76
23 -22 134 -146 247 -275 354 -405 571 -608 784 -735 82 -49 84 -49 513 -147
766 -174 1140 -258 1148 -258 4 0 2 9 -5 20 -33 52 70 78 130 33 34 -26 40
-50 12 -55 -33 -5 -26 -22 11 -29 39 -6 255 -97 405 -170 208 -101 397 -248
529 -410 33 -41 111 -127 174 -191 110 -113 113 -117 87 -124 -42 -10 -75 4
-137 59 -145 127 -316 234 -814 507 -218 120 -248 134 -330 150 -132 27 -310
47 -570 65 -395 27 -594 56 -780 115 -90 29 -142 36 -178 22 -16 -7 -12 -16
34 -82 98 -139 200 -227 655 -570 363 -273 494 -343 700 -372 50 -7 93 -18 97
-25 4 -7 22 -13 40 -13 65 1 1052 -173 1060 -187 4 -7 21 -13 38 -13 16 0 82
-13 147 -29 410 -102 738 -258 1007 -480 105 -87 339 -276 455 -368 89 -71
223 -207 269 -272 l42 -61 -31 0 c-56 0 -177 30 -264 65 -91 37 -104 43 -206
111 -51 33 -83 46 -150 59 -112 23 -384 100 -650 185 -642 206 -924 272 -1220
287 l-115 5 -95 -40 c-66 -28 -116 -42 -165 -46 -113 -11 -193 -34 -310 -91
-121 -60 -197 -114 -404 -289 -141 -119 -164 -148 -186 -239 -14 -54 55 -84
75 -32 19 49 75 55 315 29 126 -13 156 -19 207 -45 85 -43 223 -86 357 -111
159 -30 518 -30 881 0 140 12 284 23 320 26 36 2 155 16 265 32 164 22 238 27
415 28 214 1 303 -8 438 -41 34 -9 61 -19 60 -22 -2 -4 -28 -41 -58 -82 l-54
-76 -88 -12 c-49 -6 -117 -22 -152 -34 -389 -142 -634 -653 -597 -1247 10
-163 26 -224 94 -355 145 -278 431 -467 648 -427 91 17 146 48 228 129 l73 73
57 -44 c132 -104 281 -160 421 -160 106 -1 171 27 245 101 28 28 64 58 81 66
l30 16 362 -362 c199 -199 362 -369 362 -378 0 -32 -113 -69 -310 -99 -190
-29 -280 -55 -352 -102 l-62 -40 120 -62 c65 -34 240 -135 388 -225 318 -192
479 -275 642 -330 153 -51 237 -68 420 -83 188 -15 311 -15 494 -1 230 18 330
43 835 213 516 174 718 217 975 207 227 -8 395 -62 576 -184 53 -35 148 -89
212 -119 136 -64 125 -65 290 15 156 77 267 169 310 259 15 30 15 36 1 60 -14
25 -21 27 -109 35 -334 27 -552 76 -999 224 l-233 78 -35 70 c-35 68 -36 71
-29 158 12 176 67 384 153 587 25 58 121 256 213 440 181 360 201 406 260 575
47 137 78 276 86 392 6 80 12 98 60 195 30 59 54 110 54 113 0 3 -36 -9 -81
-25 -92 -33 -147 -77 -360 -290 -373 -373 -603 -762 -681 -1153 -17 -88 -22
-145 -21 -267 0 -179 22 -305 79 -456 36 -97 43 -162 21 -204 -19 -36 -49 -30
-148 28 -46 27 -235 129 -419 227 -434 230 -581 314 -770 440 -208 139 -301
214 -455 369 -154 155 -241 274 -332 453 l-66 131 18 86 c16 78 20 86 40 86
17 0 31 -13 53 -53 100 -178 338 -338 607 -409 115 -30 129 -31 320 -32 179
-1 209 2 285 22 174 48 292 114 389 218 128 137 192 343 156 500 -67 291 -356
535 -703 595 -37 6 -76 18 -87 25 -27 19 -136 18 -161 -1 -14 -11 -50 -14
-139 -15 -143 0 -235 -18 -330 -64 -183 -87 -327 -251 -419 -474 -18 -45 -38
-87 -44 -94 -16 -19 -120 -74 -127 -66 -10 10 45 236 85 348 115 323 313 613
699 1027 126 136 146 154 181 159 37 6 43 12 99 103 111 181 200 376 339 747
157 416 229 588 259 609 28 21 9 45 -35 45 -59 0 -133 -34 -277 -128 -71 -47
-167 -100 -211 -118 -746 -301 -1260 -1041 -1438 -2069 -23 -134 -23 -145 -10
-265 7 -69 13 -167 14 -219 0 -72 4 -99 16 -112 10 -11 21 -57 30 -121 17
-128 17 -118 -1 -118 -8 0 -78 80 -155 178 l-141 177 -150 330 c-472 1035
-715 1665 -885 2303 l-44 167 31 94 c32 96 63 141 96 141 28 0 41 -13 59 -55
9 -22 27 -55 41 -73 13 -17 41 -64 61 -104 70 -135 206 -241 367 -286 39 -11
93 -33 120 -50 275 -169 740 -61 930 217 99 145 112 320 34 473 l-22 42 24 16
c163 107 282 284 309 458 11 67 10 74 -16 139 -89 223 -285 393 -549 476 -177
56 -423 61 -609 13 -257 -67 -450 -217 -555 -431 -28 -55 -53 -115 -56 -133
-5 -24 -15 -36 -38 -46 -49 -21 -120 -76 -223 -171 -108 -99 -124 -102 -124
-26 0 28 -5 96 -12 153 -8 77 -8 103 0 106 15 5 16 32 2 32 -15 0 -12 58 3 63
9 3 9 7 -2 21 -11 14 -12 34 -2 124 7 59 14 226 16 372 2 146 9 315 14 375 33
362 21 805 -35 1320 -4 40 -122 398 -351 1070 -190 556 -354 1033 -364 1060
l-18 50 0 -40z"/>
<path d="M3190 7751 c0 -11 26 -22 34 -14 12 12 5 23 -14 23 -11 0 -20 -4 -20
-9z"/>
<path d="M0 10 c0 -5 7 -10 15 -10 8 0 15 5 15 10 0 6 -7 10 -15 10 -8 0 -15
-4 -15 -10z"/>
</g>
</svg>