<svg version="1.0" xmlns="http://www.w3.org/2000/svg"
 width="894.000000pt" height="1280.000000pt" viewBox="0 0 894.000000 1280.000000"
 preserveAspectRatio="xMidYMid meet">
<metadata>
Created by potrace 1.15, written by Peter Selinger 2001-2017
</metadata>
<g transform="translate(0.000000,1280.000000) scale(0.100000,-0.100000)"
fill="#000000" stroke="none">
<path d="M5084 12768 c-15 -18 -47 -75 -71 -125 -24 -51 -46 -93 -51 -93 -4 0
-25 11 -47 25 -22 13 -45 25 -52 25 -6 0 -21 -19 -32 -43 -23 -48 -28 -143
-11 -257 5 -35 7 -66 5 -68 -6 -6 -102 66 -123 93 -10 13 -45 42 -77 64 l-59
41 -38 -37 -37 -36 -3 -116 -3 -115 -29 -7 c-36 -10 -46 -24 -46 -67 0 -55 35
-138 119 -276 106 -175 161 -291 161 -335 l-1 -36 -34 39 c-19 21 -42 59 -51
85 -54 151 -138 284 -212 335 l-42 29 -24 -22 c-22 -21 -33 -41 -50 -94 -5
-16 -12 -13 -53 21 -62 51 -108 74 -141 70 -43 -5 -47 -43 -29 -303 2 -29 1
-30 -46 -33 -40 -3 -50 -7 -59 -28 -16 -34 13 -124 74 -227 26 -45 48 -90 48
-99 0 -10 7 -18 15 -18 8 0 15 -7 15 -15 0 -22 -18 -18 -52 10 -21 18 -37 24
-52 19 -36 -11 -48 -26 -41 -51 10 -42 83 -139 141 -189 l56 -48 -50 -22 c-51
-23 -72 -47 -72 -83 0 -33 89 -195 189 -344 140 -208 270 -495 311 -686 42
-195 55 -351 55 -691 0 -266 -3 -346 -18 -440 -49 -311 -153 -753 -207 -883
-36 -86 -85 -160 -103 -155 -20 7 -64 99 -90 188 -37 127 -88 421 -94 540 -11
208 18 296 175 532 124 186 126 190 118 256 -10 82 -8 81 -106 62 -47 -9 -88
-15 -92 -13 -3 2 3 29 15 61 18 48 21 80 21 204 1 96 -3 151 -10 158 -13 13
-100 -27 -193 -88 -50 -33 -54 -34 -64 -17 -15 28 -88 105 -109 116 -15 8 -28
1 -70 -38 -108 -101 -139 -156 -199 -351 -12 -40 -26 -75 -30 -78 -10 -6 -1
234 12 326 5 36 16 97 24 135 16 78 20 332 6 404 -10 48 -33 73 -59 64 -10 -3
-32 -17 -51 -31 -33 -24 -34 -25 -47 -7 -8 10 -14 40 -14 66 0 65 -18 146 -37
165 -14 13 -17 13 -32 -1 -10 -8 -20 -15 -24 -15 -3 0 -22 27 -41 59 -20 33
-53 74 -73 92 l-37 32 -59 -63 c-67 -71 -103 -141 -117 -226 -5 -31 -12 -59
-14 -62 -3 -2 -23 3 -46 12 -22 9 -47 16 -55 16 -27 0 -81 -58 -94 -101 -25
-82 -8 -400 25 -483 6 -16 4 -18 -10 -13 -10 4 -19 7 -22 7 -8 0 -43 78 -60
135 -10 33 -36 147 -58 254 -41 193 -44 201 -88 215 -10 3 -39 51 -67 109 -52
109 -97 161 -129 150 -9 -3 -35 -19 -56 -35 -22 -15 -45 -28 -51 -28 -6 0 -17
15 -23 34 -13 35 -96 136 -113 136 -5 0 -9 -7 -9 -16 0 -25 -17 -7 -23 24 -7
34 -50 66 -77 57 -10 -3 -23 -20 -29 -37 -14 -39 -14 -159 -1 -228 6 -29 8
-55 6 -58 -3 -2 -24 34 -47 79 -73 146 -162 259 -232 295 -42 22 -99 15 -113
-14 -21 -43 -28 -43 -104 3 -41 24 -84 45 -94 45 -11 0 -36 -11 -56 -25 l-37
-25 -79 15 c-107 20 -151 20 -163 -3 -5 -10 -7 -55 -4 -100 l6 -81 -42 -7
c-88 -14 -86 -68 5 -205 30 -45 53 -90 52 -98 -2 -10 -16 -17 -38 -19 -69 -5
-80 -11 -80 -40 0 -34 69 -179 116 -244 19 -27 34 -53 34 -58 0 -6 -25 -10
-55 -10 l-55 0 0 -40 c0 -58 34 -138 101 -241 33 -50 58 -93 56 -95 -2 -3 -35
3 -73 12 -72 16 -166 21 -203 9 -12 -3 -21 -14 -21 -24 0 -23 81 -187 114
-230 14 -19 23 -37 21 -41 -2 -4 -29 -12 -60 -19 -33 -8 -55 -18 -55 -26 0
-16 106 -160 144 -194 34 -32 33 -45 -9 -77 -69 -52 -46 -82 120 -159 52 -24
95 -48 96 -52 2 -26 10 -57 19 -73 12 -23 146 -126 224 -173 31 -19 53 -37 49
-40 -3 -4 -26 -7 -49 -7 -60 0 -171 -25 -294 -66 -115 -38 -154 -59 -144 -76
4 -6 45 -28 91 -50 l84 -39 -46 -52 c-40 -46 -61 -88 -35 -72 12 7 193 -70
198 -85 2 -6 -4 -22 -13 -37 -17 -25 -17 -27 0 -39 26 -19 162 -49 220 -48 28
1 108 17 179 37 72 21 146 37 165 37 l36 -1 -32 -28 c-18 -15 -33 -31 -33 -36
0 -4 -22 -37 -49 -74 -65 -89 -74 -106 -58 -119 22 -19 136 -52 199 -59 80 -8
102 -28 93 -85 l-7 -41 52 5 c40 4 96 27 244 102 105 53 200 96 211 96 11 0
35 9 53 20 18 11 37 20 42 20 26 0 2 -22 -82 -77 -101 -66 -223 -173 -250
-221 -15 -25 -16 -31 -3 -35 8 -4 18 -21 23 -38 4 -18 14 -36 22 -39 99 -49
157 -63 329 -80 51 -5 94 -10 95 -12 24 -54 69 -69 231 -75 105 -4 151 -1 240
16 61 11 152 25 202 31 88 11 98 10 185 -15 51 -14 109 -37 128 -50 19 -13
101 -88 182 -167 141 -136 149 -147 192 -238 104 -220 138 -412 171 -955 15
-251 45 -537 90 -848 l24 -168 -20 -20 c-27 -27 -19 -64 20 -100 l29 -27 -39
-38 c-21 -21 -39 -41 -39 -45 0 -3 20 -37 45 -74 25 -38 47 -85 50 -104 4 -20
10 -43 15 -52 7 -14 2 -18 -28 -24 -20 -4 -43 -11 -49 -17 -24 -19 -14 -76 27
-153 27 -52 40 -89 40 -116 0 -22 11 -64 25 -92 45 -97 75 -248 100 -517 21
-221 31 -520 18 -520 -16 0 -151 120 -238 211 -86 90 -134 176 -191 334 -27
77 -28 87 -28 260 0 124 6 208 17 270 17 91 23 310 9 318 -4 3 -25 -1 -47 -10
-72 -26 -70 -27 -66 65 3 76 1 85 -23 117 -21 27 -34 34 -68 37 l-41 3 -18 65
c-10 36 -35 99 -56 140 -43 86 -63 96 -110 56 -41 -35 -68 -122 -88 -291 -9
-77 -23 -153 -30 -170 l-13 -30 -11 28 c-22 56 -32 210 -21 319 34 323 33 362
-8 381 -20 9 -31 7 -63 -11 -21 -12 -40 -22 -43 -22 -2 0 -13 27 -25 61 -18
55 -85 159 -102 159 -15 0 -73 -77 -95 -126 -12 -28 -30 -87 -39 -130 -8 -44
-18 -85 -21 -93 -11 -33 -25 11 -34 114 -20 207 -57 328 -116 374 -36 29 -62
26 -99 -8 l-30 -30 -95 85 c-52 46 -102 84 -111 84 -22 0 -88 -73 -101 -112
-10 -27 -14 -29 -42 -23 -62 14 -59 16 -55 -60 10 -170 3 -430 -14 -490 -9
-33 -21 -100 -27 -150 -19 -156 -31 -225 -41 -225 -29 0 -52 181 -39 310 32
317 33 355 19 385 -18 38 -49 43 -94 15 l-35 -21 -11 28 c-30 73 -62 131 -88
163 l-30 35 -31 -30 c-53 -51 -83 -127 -117 -305 l-9 -45 -17 39 c-10 21 -17
64 -17 97 0 68 -31 239 -54 293 -22 53 -55 96 -80 106 -24 9 -61 -7 -90 -39
-18 -20 -18 -20 -98 52 -84 76 -113 96 -140 97 -19 0 -59 -45 -77 -88 -13 -31
-34 -42 -85 -42 -19 0 -40 -12 -66 -38 -40 -40 -37 -27 -53 -222 -2 -19 -8
-25 -26 -25 -19 0 -32 14 -65 70 -49 83 -170 211 -210 221 -42 10 -49 -4 -38
-77 5 -35 9 -65 8 -66 0 0 -35 23 -76 53 -125 92 -300 168 -344 151 -16 -6
-17 -23 -14 -188 4 -224 12 -213 -150 -203 l-112 7 0 -47 c0 -25 11 -78 24
-116 22 -62 23 -71 10 -85 -9 -8 -31 -15 -50 -15 -64 0 -95 -65 -57 -120 9
-14 47 -59 83 -100 76 -86 110 -129 110 -140 0 -5 -22 -11 -50 -15 -27 -4 -53
-11 -56 -16 -12 -20 40 -100 97 -150 47 -40 59 -57 59 -80 0 -38 -17 -44 -143
-53 -103 -7 -163 -24 -173 -51 -8 -21 18 -58 65 -92 23 -15 41 -31 41 -34 0
-4 -18 -9 -39 -13 -36 -5 -101 -48 -101 -65 0 -4 34 -29 76 -56 66 -41 79 -46
100 -37 23 11 53 7 55 -7 0 -3 2 -22 4 -41 4 -43 51 -88 190 -183 l96 -65 -53
-7 c-77 -10 -209 -41 -293 -70 -41 -14 -91 -27 -112 -29 -56 -5 -54 -29 3 -66
26 -16 67 -37 91 -46 23 -9 43 -18 43 -20 0 -3 -21 -30 -46 -60 l-45 -57 48
-17 c62 -23 162 -66 169 -73 3 -3 -2 -19 -11 -36 -9 -18 -13 -36 -10 -41 15
-24 113 -45 210 -45 82 1 119 7 209 33 60 18 128 32 150 32 l41 -1 -33 -27
c-18 -15 -32 -31 -32 -35 0 -5 -17 -29 -38 -53 -21 -24 -50 -64 -63 -89 -21
-39 -22 -47 -9 -55 23 -15 114 -41 197 -55 42 -7 80 -19 84 -27 5 -7 9 -32 9
-55 0 -42 1 -43 35 -43 38 0 265 97 357 153 69 41 191 83 210 71 7 -5 35 -11
63 -14 46 -5 50 -7 55 -35 5 -28 8 -30 49 -27 40 2 42 1 36 -19 -6 -19 -4 -21
16 -15 56 15 117 18 140 6 30 -17 89 -63 89 -71 0 -3 -26 -7 -57 -8 -67 -2
-102 -22 -117 -69 -13 -37 -42 -70 -33 -37 2 11 8 29 12 40 7 17 5 17 -20 -5
-43 -38 -105 -140 -105 -171 0 -34 19 -79 34 -79 6 0 18 -5 26 -10 12 -8 9
-15 -19 -44 -29 -30 -32 -38 -21 -51 14 -17 56 -20 65 -5 8 13 42 13 51 -1 3
-6 1 -22 -6 -35 -18 -33 -3 -48 78 -75 93 -31 154 -28 308 15 72 20 149 36
170 36 l39 -1 -33 -27 c-18 -15 -32 -30 -32 -35 0 -4 -20 -32 -45 -62 -60 -74
-79 -113 -66 -129 15 -17 101 -44 194 -60 41 -7 80 -16 86 -20 6 -4 11 -30 11
-58 l0 -51 43 5 c50 6 203 71 301 128 37 22 94 49 126 61 32 12 66 29 75 39 9
10 41 101 70 202 62 214 76 251 130 347 40 71 58 87 88 75 24 -9 29 -37 12
-70 -8 -16 -15 -37 -15 -47 0 -10 -13 -44 -30 -76 -48 -95 -100 -333 -85 -382
6 -19 12 -20 49 -15 22 4 51 9 64 13 19 4 22 1 22 -25 0 -58 15 -79 74 -101
98 -36 97 -37 139 16 91 116 127 169 143 212 10 25 19 48 20 49 1 2 24 -12 50
-32 26 -20 53 -36 61 -36 24 0 63 52 78 104 31 113 29 249 -7 420 -9 45 -9 82
0 164 15 132 32 166 87 170 181 15 456 -274 510 -534 26 -127 37 -356 42 -884
5 -478 -5 -1004 -24 -1220 l-6 -75 67 62 c36 35 79 65 94 69 71 15 69 11 76
146 3 68 11 492 16 943 6 451 15 873 20 938 11 129 48 263 97 347 37 63 126
153 178 181 62 33 86 20 131 -74 29 -61 38 -101 59 -242 28 -192 31 -202 91
-340 23 -55 46 -113 50 -130 10 -43 22 -55 58 -55 18 0 38 6 45 13 15 14 23 5
83 -97 51 -86 106 -141 171 -172 44 -20 54 -21 71 -10 28 18 38 61 31 134 -3
34 -3 62 0 62 3 0 37 -16 75 -35 129 -65 180 -56 180 30 0 62 -31 137 -110
267 -37 62 -64 115 -58 117 24 8 99 -63 179 -170 79 -105 166 -196 210 -220
15 -8 22 -3 38 29 35 68 41 70 134 27 45 -20 110 -50 143 -66 75 -35 79 -35
100 -4 14 21 14 34 4 94 -13 76 -9 91 21 91 36 0 33 28 -9 83 -54 71 -89 106
-144 147 -49 37 -64 59 -25 39 12 -7 60 -37 106 -67 102 -67 166 -88 215 -72
43 14 50 31 30 81 -9 22 -14 43 -10 46 3 3 41 11 83 17 76 11 78 12 95 48 16
33 22 37 65 43 179 23 237 57 212 122 -14 38 -73 98 -136 140 -29 18 -53 38
-53 42 0 5 16 18 35 30 67 39 34 98 -80 140 -73 27 -128 56 -143 74 -10 12 -6
19 22 40 18 15 37 38 40 52 4 14 15 34 26 45 19 19 19 23 6 49 -28 53 -141
121 -235 142 -28 6 -51 12 -51 14 0 3 7 20 16 39 23 47 13 66 -33 66 -21 0
-137 -16 -258 -35 -249 -39 -409 -54 -419 -37 -18 30 157 98 332 129 80 14
110 15 208 5 111 -11 117 -13 276 -87 232 -109 289 -119 353 -61 l37 34 42
-17 c74 -32 179 -54 261 -55 l80 -1 3 27 c5 46 -46 125 -137 209 -47 43 -82
81 -79 84 8 8 88 -23 128 -49 103 -68 336 -94 357 -41 3 8 0 28 -5 45 -16 44
9 54 117 46 99 -7 199 5 212 25 18 28 9 61 -26 96 -19 19 -35 36 -35 36 0 1
26 1 58 -1 102 -6 175 25 208 90 l16 30 -55 54 c-55 53 -125 95 -182 108 -52
13 -57 24 -30 64 30 44 31 54 5 77 -36 32 -150 46 -430 52 -272 5 -320 12
-265 34 42 16 324 24 410 11 107 -17 294 -26 369 -18 49 6 74 14 94 31 l27 24
-27 50 c-32 58 -37 53 87 71 96 14 156 36 218 79 75 52 62 80 -63 131 -41 17
-77 36 -81 42 -4 7 3 31 17 53 23 40 23 43 7 57 -48 43 -231 59 -373 33 -126
-23 -200 -30 -200 -18 0 19 72 43 217 73 81 17 164 35 183 42 35 11 130 76
130 89 0 4 -12 22 -27 40 -26 31 -27 33 -9 43 51 29 124 97 154 141 31 46 32
50 16 62 -10 7 -36 13 -58 13 -62 0 -204 -26 -270 -49 -73 -26 -100 -28 -71
-5 31 24 114 65 174 85 33 12 79 40 120 75 125 107 133 158 25 168 -19 2 -37
5 -39 8 -3 2 4 26 14 54 11 27 22 75 26 107 7 51 5 57 -11 57 -43 0 -152 -24
-186 -41 -52 -27 -67 -24 -84 16 -8 19 -21 35 -29 35 -8 0 -57 -29 -110 -65
l-95 -65 0 62 c0 95 -5 97 -92 56 -40 -19 -110 -63 -156 -98 -46 -34 -86 -59
-89 -56 -4 4 3 40 15 81 28 95 28 131 1 145 -27 15 -64 6 -112 -27 -20 -14
-41 -23 -45 -19 -4 4 -9 48 -13 98 -6 103 -20 125 -68 107 -55 -21 -171 -157
-171 -201 0 -27 -12 -22 -55 22 -21 22 -49 40 -60 40 -24 0 -55 -30 -78 -75
-19 -38 -52 -185 -67 -295 -13 -94 -33 -172 -55 -210 l-13 -25 -11 28 c-17 45
-13 99 20 282 36 196 36 291 -1 388 -34 91 -63 90 -169 -8 -39 -36 -74 -65
-79 -65 -4 0 -18 9 -32 20 -14 11 -32 20 -42 20 -34 0 -104 -110 -127 -200
-20 -76 -20 -76 -51 -27 -16 26 -33 47 -38 47 -12 0 -77 -71 -92 -99 -7 -13
-20 -52 -29 -85 -15 -57 -19 -62 -59 -80 -88 -40 -111 -144 -112 -507 0 -239
-15 -312 -88 -433 -56 -94 -156 -206 -183 -206 -10 0 -19 3 -19 7 0 4 25 59
55 123 79 169 108 318 70 361 -14 15 -14 24 5 95 26 99 34 172 26 218 -6 30
-11 36 -33 36 -15 0 -50 -13 -80 -30 -29 -16 -54 -30 -55 -30 -2 0 -3 44 -4
98 -1 102 -31 212 -58 212 -7 0 -38 -18 -69 -41 -32 -22 -62 -37 -67 -34 -6 3
-10 19 -10 35 0 37 -35 147 -60 188 -11 18 -28 32 -39 32 -11 0 -50 -27 -85
-61 -74 -68 -122 -153 -132 -231 -4 -28 -11 -47 -17 -45 -6 2 -29 33 -50 69
-22 36 -51 71 -64 77 -35 16 -74 -8 -117 -73 -39 -60 -96 -173 -96 -193 0 -18
-8 -16 -37 7 -14 11 -32 20 -40 20 -8 0 -12 4 -8 10 7 12 -30 50 -49 50 -21 0
-54 -46 -68 -94 -6 -22 -11 -92 -11 -153 1 -104 -5 -131 -23 -102 -12 20 -98
69 -121 69 -35 0 -46 -33 -41 -124 3 -58 15 -110 41 -186 39 -113 55 -190 40
-190 -5 0 -27 18 -48 41 -22 22 -66 61 -97 86 -52 40 -58 48 -58 81 0 20 -11
123 -24 227 -47 366 -61 571 -60 900 0 380 5 412 116 698 21 55 47 77 88 77
56 0 142 -35 185 -75 20 -19 43 -35 51 -35 8 0 14 -5 14 -10 0 -36 225 -230
266 -230 13 0 41 15 63 35 l38 35 79 -41 c71 -37 85 -41 136 -37 82 6 91 17
86 104 -5 78 -1 69 -133 287 -42 71 -74 131 -71 135 23 22 101 -81 176 -233
97 -195 193 -295 284 -295 47 0 78 -17 159 -89 32 -28 67 -51 77 -51 49 0 73
117 47 230 -9 36 -14 66 -12 68 2 2 30 -23 63 -55 63 -62 192 -144 267 -170
64 -21 89 -12 122 47 15 28 31 50 34 50 3 0 26 -16 50 -35 42 -33 153 -85 211
-99 33 -7 57 14 59 52 3 56 -3 119 -17 173 -18 71 -18 79 1 79 9 0 27 12 41
27 24 26 25 26 54 10 26 -16 34 -16 89 -3 34 8 63 11 66 6 6 -9 143 -87 189
-107 69 -31 96 -3 96 100 0 66 1 68 23 61 57 -18 101 -24 219 -31 146 -7 160
-2 151 53 -3 19 -3 34 -1 34 3 0 31 -12 62 -26 67 -30 168 -43 191 -24 8 7 15
23 15 37 0 34 21 38 76 14 74 -33 110 -27 127 20 11 32 -51 139 -120 207 l-66
65 61 -7 c57 -6 62 -5 62 12 0 29 -96 182 -148 235 -26 26 -77 69 -114 94 -38
26 -66 48 -64 50 2 3 21 0 42 -6 60 -15 287 -35 317 -27 15 3 33 19 41 35 14
26 21 28 89 34 40 4 97 11 125 18 59 12 64 27 37 92 -20 49 -19 53 15 65 37
14 55 48 42 83 -28 73 -111 128 -233 156 -39 8 -67 19 -62 23 4 5 62 13 128
19 224 20 263 45 230 147 -5 16 9 38 69 103 42 46 76 89 76 96 0 36 -85 73
-225 96 -59 10 -75 17 -100 44 -32 34 -55 40 -180 48 -32 2 -42 7 -52 28 -11
23 -21 27 -72 33 -73 8 -193 -6 -329 -39 -57 -14 -113 -25 -125 -25 -37 0 0
25 86 59 105 42 165 73 207 109 l35 30 -24 25 c-29 32 -80 57 -116 57 -30 0
-30 -5 4 90 25 69 16 86 -44 96 -85 12 -269 -17 -345 -56 -52 -26 -56 -26 -64
12 -8 43 -33 78 -53 78 -36 0 -210 -108 -311 -193 -268 -225 -388 -306 -494
-335 -32 -9 -38 -8 -38 4 0 21 18 54 46 84 35 39 163 185 222 253 29 34 65 86
79 116 26 52 26 54 8 67 -10 8 -27 14 -37 14 -32 0 -31 26 5 131 20 56 33 107
31 114 -14 37 -141 17 -251 -39 l-70 -35 -22 25 c-28 32 -55 30 -148 -10 -43
-19 -98 -40 -121 -47 -29 -8 -53 -24 -70 -47 -14 -19 -40 -44 -58 -56 -44 -29
-110 -112 -177 -221 -58 -94 -126 -179 -127 -158 0 7 22 61 49 120 61 133 78
195 63 229 -8 16 -20 24 -37 24 -33 0 -113 -40 -193 -97 -34 -24 -70 -44 -80
-44 -77 3 -108 -2 -147 -20 -25 -12 -51 -31 -57 -43 -6 -11 -17 -25 -24 -29
-8 -4 -14 -14 -14 -21 0 -7 -20 -54 -45 -104 -24 -51 -54 -124 -66 -161 -35
-118 -161 -323 -276 -452 -100 -113 -350 -349 -369 -349 -39 0 7 164 136 489
43 109 99 240 125 291 60 120 201 354 261 432 160 211 414 433 556 486 218 81
750 186 1133 222 379 36 506 64 570 124 43 41 44 61 5 114 -16 23 -30 44 -30
46 0 2 38 18 85 35 122 44 197 85 233 126 74 83 29 110 -218 130 -92 8 -114
18 -85 39 38 28 182 85 281 111 200 52 339 142 319 206 -14 43 -90 63 -298 78
-66 5 -124 14 -130 20 -7 7 9 19 59 42 216 99 252 118 287 154 48 49 48 79 2
106 -19 12 -35 27 -35 35 0 8 22 39 50 69 44 48 50 61 50 98 0 72 -9 90 -41
83 -15 -3 -68 -8 -118 -12 l-91 -7 -17 41 c-19 48 -33 56 -82 42 -57 -15 -144
-76 -276 -193 -66 -59 -123 -107 -127 -107 -17 0 -6 29 37 99 52 84 78 118
186 243 92 106 139 189 123 215 -6 10 -23 19 -38 21 -36 5 -33 27 12 81 48 57
62 83 62 113 0 29 -17 48 -42 48 -27 0 -33 26 -18 82 10 40 10 61 0 110 -13
60 -13 60 -44 54 -17 -4 -68 -25 -113 -47 -44 -23 -86 -38 -92 -35 -6 4 -11
18 -11 31 0 13 -3 30 -6 39 -12 32 -102 13 -161 -34 -47 -37 -37 -12 24 57 77
88 88 106 106 176 21 81 13 87 -109 87 -63 0 -93 3 -89 10 28 45 25 238 -3
267 -20 19 -84 12 -200 -23 -96 -29 -102 -27 -128 44 -22 57 -28 62 -66 52
-89 -26 -167 -113 -272 -305 -43 -77 -86 -151 -96 -165 l-19 -25 -11 30 c-7
19 -9 67 -5 140 4 67 2 143 -5 195 -11 83 -49 189 -76 211 -19 16 -71 -19
-109 -72 -17 -23 -44 -58 -61 -77 l-31 -36 -28 18 c-20 13 -30 15 -38 7 -18
-18 -27 -13 -27 14 0 33 -12 32 -54 -5 -47 -41 -61 -77 -86 -210 l-22 -115
-36 0 -36 0 -21 80 c-25 98 -64 179 -88 183 -12 3 -52 -31 -123 -103 l-104
-107 6 123 c10 185 -20 363 -62 376 -6 2 -30 -10 -54 -26 -24 -16 -48 -27 -52
-25 -5 3 -25 38 -44 77 -63 125 -136 217 -172 217 -6 0 -23 -15 -38 -32z
m-196 -209 c-2 -6 -8 -10 -13 -10 -5 0 -11 4 -13 10 -2 6 4 11 13 11 9 0 15
-5 13 -11z m27 -360 c29 -56 61 -166 52 -176 -4 -4 -13 2 -21 12 -15 20 -86
208 -86 226 0 21 31 -13 55 -62z m-438 -115 c-3 -3 -12 -4 -19 -1 -8 3 -5 6 6
6 11 1 17 -2 13 -5z m2726 -466 c-27 -35 -68 -95 -91 -135 -38 -65 -73 -103
-94 -103 -17 0 -6 33 27 85 37 58 181 215 197 215 5 0 -12 -28 -39 -62z
m-3201 -113 c0 -5 -5 -11 -11 -13 -6 -2 -11 4 -11 13 0 9 5 15 11 13 6 -2 11
-8 11 -13z m1926 -98 c3 -102 -16 -238 -36 -245 -7 -2 -19 13 -28 35 -14 32
-15 50 -6 121 15 113 42 206 56 192 5 -5 12 -52 14 -103z m-1861 87 c-3 -3
-12 -4 -19 -1 -8 3 -5 6 6 6 11 1 17 -2 13 -5z m-1907 -1105 c0 -11 -11 -11
-29 0 -7 5 -10 14 -6 20 5 9 10 9 21 0 8 -6 14 -15 14 -20z m230 -69 c0 -5 -4
-10 -9 -10 -6 0 -13 5 -16 10 -3 6 1 10 9 10 9 0 16 -4 16 -10z m525 -280 c8
-13 -15 -13 -35 0 -12 8 -11 10 7 10 12 0 25 -4 28 -10z m4908 -177 c-7 -2
-19 -2 -25 0 -7 3 -2 5 12 5 14 0 19 -2 13 -5z m-3182 -926 c-8 -8 -11 1 -11
29 0 53 14 67 18 19 2 -21 -1 -42 -7 -48z m4 -77 c-3 -5 -11 -10 -16 -10 -6 0
-7 5 -4 10 3 6 11 10 16 10 6 0 7 -4 4 -10z m-18 -97 c-3 -10 -5 -4 -5 12 0
17 2 24 5 18 2 -7 2 -21 0 -30z m3250 -1508 c28 -8 62 -24 75 -36 l23 -20 -35
4 c-47 7 -150 46 -150 58 0 13 29 11 87 -6z m-1678 -161 c2 -2 2 -6 -1 -9 -7
-8 -108 25 -108 35 0 8 98 -15 109 -26z m-86 -51 c-7 -2 -19 -2 -25 0 -7 3 -2
5 12 5 14 0 19 -2 13 -5z m262 -32 c-28 -11 -85 -21 -85 -15 0 9 45 23 75 23
25 0 27 -2 10 -8z m214 -12 c33 -12 41 -33 16 -43 -20 -7 -19 -50 0 -66 9 -8
12 -17 7 -22 -15 -15 -37 2 -57 45 -13 28 -33 49 -59 63 -32 18 -35 23 -20 27
35 9 81 7 113 -4z m112 -183 c15 -13 34 -26 41 -29 10 -3 8 -9 -5 -23 -18 -19
-19 -18 -47 16 -27 32 -38 60 -24 60 3 0 19 -11 35 -24z m39 -141 c13 -16 6
-35 -15 -35 -13 0 -35 29 -35 44 0 12 38 5 50 -9z m105 -51 c49 -33 85 -65 85
-76 0 -4 -13 -8 -30 -8 -16 0 -30 5 -30 10 0 6 -7 10 -15 10 -8 0 -15 6 -15
14 0 7 -11 21 -25 30 -23 15 -35 46 -17 46 4 0 25 -12 47 -26z m-4645 -1645
c6 -11 10 -28 8 -37 -3 -13 -8 -9 -21 15 -20 37 -21 43 -7 43 5 0 14 -9 20
-21z m1200 -128 c5 -11 10 -25 10 -32 0 -18 -27 7 -33 31 -7 26 9 26 23 1z
m1321 -371 c18 -15 20 -19 8 -20 -9 0 -24 9 -34 20 -23 26 -4 26 26 0z m2997
-1138 c6 -18 -15 -14 -22 4 -4 10 -1 14 6 12 6 -2 14 -10 16 -16z m-2807 -73
c120 -81 146 -142 110 -259 -28 -89 -78 -168 -128 -204 -24 -16 -45 -28 -47
-25 -9 10 -11 537 -1 531 6 -3 35 -22 66 -43z m1736 -45 c-3 -3 -12 -4 -19 -1
-8 3 -5 6 6 6 11 1 17 -2 13 -5z m294 -917 c-13 -13 -26 -3 -16 12 3 6 11 8
17 5 6 -4 6 -10 -1 -17z"/>
<path d="M7315 8970 c-3 -6 1 -13 10 -16 19 -8 30 0 20 15 -8 14 -22 14 -30 1z"/>
<path d="M30 3344 c0 -17 22 -14 28 4 2 7 -3 12 -12 12 -9 0 -16 -7 -16 -16z"/>
<path d="M3084 1645 c-10 -8 -14 -15 -8 -15 5 0 19 7 30 15 10 8 14 15 8 15
-5 0 -19 -7 -30 -15z"/>
<path d="M4087 1464 c-8 -8 1 -24 14 -24 5 0 9 7 9 15 0 15 -12 20 -23 9z"/>
</g>
</svg>