<svg version="1.0" xmlns="http://www.w3.org/2000/svg"
 width="1280.000000pt" height="640.000000pt" viewBox="0 0 1280.000000 640.000000"
 preserveAspectRatio="xMidYMid meet">
<metadata>
Created by potrace 1.15, written by Peter Selinger 2001-2017
</metadata>
<g transform="translate(0.000000,640.000000) scale(0.100000,-0.100000)"
fill="#000000" stroke="none">
<path d="M6635 5503 c-385 -19 -772 -83 -1227 -203 -262 -69 -411 -114 -838
-255 -732 -241 -856 -264 -1555 -281 -321 -8 -477 4 -548 41 -64 33 -77 32
-77 -5 0 -83 61 -123 215 -141 110 -12 213 -8 605 22 329 25 610 36 610 22 0
-11 -26 -25 -193 -102 -59 -27 -157 -82 -217 -121 -151 -99 -184 -110 -324
-110 -62 0 -194 9 -292 19 -99 11 -271 27 -384 36 -234 19 -276 26 -344 61
-57 30 -76 22 -55 -22 23 -47 74 -74 139 -74 68 0 102 -19 80 -45 -36 -43
-116 -58 -168 -31 -96 50 -140 189 -92 293 18 41 45 65 183 160 49 34 81 82
71 107 -17 45 -162 1 -248 -74 -107 -95 -152 -262 -109 -414 22 -79 95 -158
163 -176 82 -22 175 -9 275 39 121 58 125 60 221 71 174 19 587 -30 624 -75
10 -12 6 -18 -21 -34 -19 -12 -58 -26 -89 -33 -132 -28 -235 -95 -415 -268
-164 -158 -225 -207 -278 -221 -52 -13 -183 -69 -342 -144 -248 -117 -451
-191 -689 -251 -334 -84 -696 -231 -974 -396 -502 -298 -444 -689 142 -969
197 -93 540 -199 1166 -358 517 -131 726 -197 819 -260 169 -113 472 -265 614
-308 203 -61 592 -88 1517 -104 1198 -22 3502 22 4305 82 282 21 616 69 798
115 237 60 400 147 677 364 152 119 353 195 855 325 768 198 1241 397 1439
605 58 61 126 184 126 228 0 45 -34 96 -134 200 -262 272 -596 444 -1131 582
-268 69 -302 92 -330 227 -41 199 -47 217 -81 251 -25 25 -40 32 -71 32 -64 0
-139 46 -250 153 -58 55 -121 106 -145 117 -54 23 -173 40 -286 40 -120 0
-202 14 -269 45 -46 21 -98 67 -277 243 -122 120 -248 239 -282 264 -369 281
-825 461 -1509 597 -541 108 -1015 153 -1400 134z m540 -148 c893 -67 1724
-293 2182 -595 118 -77 206 -165 268 -265 145 -237 269 -329 580 -430 77 -25
158 -57 181 -70 50 -29 93 -91 124 -177 91 -252 140 -348 176 -348 8 0 22 17
31 37 28 69 1 194 -82 374 -83 179 -83 206 2 179 73 -24 122 -91 188 -260 56
-142 117 -240 220 -350 114 -123 125 -172 62 -296 -39 -76 -135 -193 -284
-344 -144 -147 -163 -155 -138 -60 17 65 18 80 6 80 -6 0 -58 -54 -118 -120
-59 -66 -123 -131 -143 -145 l-35 -25 -3 24 c-2 13 17 69 42 123 52 113 78
191 112 342 27 119 43 291 27 291 -17 0 -53 -96 -89 -239 -40 -160 -85 -256
-196 -423 -92 -137 -172 -228 -200 -228 -18 0 -20 4 -14 31 3 18 22 70 42 118
125 296 163 417 148 477 -11 43 -28 12 -84 -151 -59 -170 -110 -274 -175 -357
-59 -75 -115 -107 -207 -119 -148 -18 -256 -70 -367 -174 -79 -75 -108 -122
-87 -143 11 -11 21 -11 53 -2 61 19 85 11 96 -30 11 -44 20 -50 84 -50 57 0
68 -9 59 -46 -10 -37 -78 -33 -175 10 -109 50 -164 63 -201 49 -37 -14 -44 -4
-35 43 10 57 104 271 146 332 50 75 68 85 151 83 64 -1 69 0 78 23 12 32 48
56 83 56 57 0 138 54 121 82 -9 14 -125 8 -238 -12 -60 -11 -117 -20 -125 -20
-9 0 27 24 79 52 237 128 332 196 430 312 119 142 210 395 240 674 16 149 -4
272 -44 272 -26 0 -36 -63 -46 -270 -10 -229 -21 -283 -80 -405 -115 -239
-286 -424 -451 -486 -59 -23 -199 -38 -199 -22 0 17 43 50 149 112 172 102
282 199 366 327 49 73 112 254 88 254 -4 0 -32 -34 -61 -75 -53 -75 -172 -218
-257 -310 l-47 -50 22 40 c125 224 160 311 185 452 39 223 -83 600 -184 568
-32 -10 -26 -35 34 -154 103 -207 118 -303 70 -447 -53 -158 -153 -322 -205
-339 -11 -3 -29 -1 -41 5 -23 13 -55 -6 -212 -121 -121 -91 -197 -123 -197
-85 0 16 52 87 117 160 90 101 172 274 173 362 0 47 -17 67 -52 62 -22 -3 -23
-7 -20 -68 5 -97 -42 -185 -162 -306 -147 -147 -270 -192 -337 -125 -54 54
-28 109 45 95 23 -4 58 -7 78 -7 72 2 169 80 209 167 19 41 27 166 11 166 -4
0 -20 -26 -36 -58 -61 -126 -172 -231 -226 -216 -44 13 -81 5 -132 -27 -41
-27 -60 -32 -106 -32 -101 0 -202 66 -202 132 0 41 -20 90 -40 101 -34 18 -85
11 -132 -19 -25 -16 -49 -34 -52 -40 -16 -25 -83 -12 -143 29 -74 49 -153 132
-153 160 0 57 180 70 351 26 100 -25 155 -49 226 -98 71 -48 144 -78 193 -78
47 0 130 32 130 49 0 10 -5 12 -80 31 -52 14 -167 70 -228 112 -70 48 -160 89
-230 104 -247 52 -488 -45 -507 -204 -18 -154 -30 -214 -59 -306 -49 -150 -51
-163 -27 -175 36 -20 150 17 196 63 20 20 23 30 16 48 -12 34 3 63 49 97 62
45 200 66 200 31 0 -5 -31 -35 -70 -66 -38 -31 -70 -60 -70 -64 0 -13 42 -20
128 -20 69 0 85 -3 102 -20 21 -21 21 -59 -1 -118 -5 -13 -9 -33 -9 -45 0 -20
4 -18 35 16 18 20 39 37 46 37 20 0 99 -88 101 -113 3 -42 -3 -71 -24 -111
-32 -63 -149 -223 -219 -300 -63 -69 -144 -130 -160 -120 -4 2 -5 42 -2 87 5
78 4 85 -26 137 -57 101 -83 165 -93 225 -5 33 -13 74 -17 90 -7 30 -7 30 -23
-20 -9 -27 -28 -96 -43 -152 -54 -204 -144 -319 -145 -185 0 50 -25 89 -60 97
-32 7 -50 30 -50 64 0 34 18 33 78 -3 66 -41 82 -44 107 -16 21 23 14 76 -14
111 -35 44 -155 24 -382 -64 -101 -39 -102 -37 -37 165 69 211 85 289 70 323
-13 27 -34 32 -49 13 -21 -27 -47 -110 -94 -298 -31 -125 -61 -221 -84 -267
-53 -108 -114 -150 -179 -124 -65 27 -71 26 -116 -28 -47 -56 -63 -62 -81 -30
-16 31 -4 118 37 278 19 74 33 142 32 150 -2 9 -37 -33 -80 -96 -137 -197
-238 -301 -254 -259 -7 18 19 68 61 121 61 75 106 186 130 315 30 164 30 164
-52 5 -90 -173 -105 -197 -187 -283 -55 -58 -161 -131 -172 -119 -3 2 13 32
35 66 64 99 141 311 141 387 0 63 -52 18 -76 -66 -9 -30 -23 -76 -31 -101 -45
-149 -278 -421 -424 -495 -49 -24 -123 -32 -134 -14 -3 5 15 24 41 42 103 72
131 97 187 169 67 87 121 186 181 336 69 173 81 251 40 267 -49 19 -71 -19
-83 -144 -15 -144 -80 -277 -186 -384 -63 -64 -185 -139 -185 -114 0 8 29 56
65 108 122 177 215 400 176 425 -13 8 -49 -42 -111 -155 -103 -186 -130 -229
-179 -282 -86 -94 -170 -127 -391 -153 -69 -8 -143 -18 -164 -21 -39 -6 -38
-5 107 136 140 135 216 231 246 307 15 36 7 87 -11 81 -7 -3 -37 -51 -69 -109
-63 -117 -132 -199 -193 -232 -36 -19 -56 -22 -156 -21 -102 0 -147 8 -397 62
-407 88 -447 95 -618 95 -149 0 -294 -15 -514 -53 -165 -29 -244 -27 -311 8
-73 37 -93 75 -87 163 7 112 69 201 164 235 65 23 143 17 250 -18 133 -44 214
-44 333 1 150 56 238 71 443 75 98 2 131 6 143 17 34 34 -20 74 -98 73 -31 0
-48 4 -48 12 0 27 105 150 280 325 227 228 323 310 416 356 67 33 81 36 206
44 181 11 218 24 218 75 0 33 -28 44 -117 44 -146 0 -382 -68 -509 -147 -156
-97 -203 -109 -272 -74 -54 27 -145 43 -232 39 -80 -3 -91 -13 -44 -40 26 -15
70 -29 272 -84 60 -17 63 -30 11 -56 -52 -27 -175 -24 -279 7 -88 26 -145 32
-155 15 -12 -19 48 -59 128 -86 151 -49 181 -85 107 -128 -29 -17 -52 -21
-125 -20 -76 0 -99 4 -148 27 -60 28 -101 34 -112 16 -11 -17 25 -49 96 -85
61 -30 119 -82 119 -105 0 -25 -34 -71 -73 -97 -63 -44 -197 -109 -281 -137
-100 -34 -161 -32 -272 6 -171 59 -318 39 -427 -61 -98 -89 -143 -221 -118
-343 27 -124 108 -180 292 -200 121 -13 262 6 342 48 29 15 70 37 92 48 55 30
203 35 316 12 210 -42 553 -187 617 -260 l30 -34 -19 -73 c-10 -40 -24 -117
-31 -170 -14 -113 -5 -171 27 -176 53 -8 66 -14 80 -42 8 -16 15 -38 15 -50 0
-17 -6 -20 -37 -20 -41 0 -94 12 -159 36 -59 21 -71 53 -56 152 15 96 15 169
1 177 -19 12 -57 -35 -91 -113 -54 -124 -92 -197 -103 -197 -18 0 -16 102 4
256 12 84 21 175 21 203 -1 51 -1 51 -19 29 -10 -12 -32 -72 -50 -135 -68
-241 -107 -328 -157 -350 -50 -23 -51 1 -6 139 44 135 55 217 27 193 -9 -7
-41 -62 -71 -121 -57 -112 -100 -169 -128 -169 -28 0 -19 71 25 192 22 62 49
149 60 193 19 81 26 215 11 215 -14 0 -56 -87 -115 -240 -31 -80 -77 -181
-102 -225 -42 -74 -99 -145 -116 -145 -17 0 -17 36 -2 115 12 64 14 88 5 97
-28 28 -101 -67 -102 -132 0 -57 -59 -92 -91 -54 -22 27 -12 90 32 187 61 135
68 272 9 175 -10 -17 -28 -59 -40 -92 -78 -223 -112 -288 -150 -284 -38 4 -37
53 4 213 37 142 44 209 25 221 -19 11 -46 -35 -68 -116 -50 -176 -52 -181 -77
-192 -56 -26 -245 33 -299 93 -25 28 -28 29 -89 23 l-64 -7 -45 42 c-47 44
-107 149 -166 292 -54 131 -81 147 -61 38 7 -35 25 -106 42 -157 16 -52 28
-96 25 -98 -8 -8 -107 107 -140 164 -41 70 -64 132 -72 197 -8 59 -14 51 -46
-60 -12 -44 -25 -84 -29 -88 -4 -4 -41 37 -83 91 -78 101 -142 159 -187 168
-122 24 -230 160 -276 349 -14 57 -23 79 -24 60 -5 -102 -19 -188 -33 -203
-15 -14 -24 -12 -112 32 l-95 47 62 82 c213 280 615 549 781 522 58 -10 123
-39 164 -76 20 -17 39 -27 43 -22 5 4 4 33 -1 63 -9 60 0 138 26 210 50 139
200 276 350 319 22 7 88 16 146 20 141 11 159 22 209 126 70 146 197 246 510
405 303 153 624 282 1085 436 291 97 706 218 868 253 88 19 319 47 452 54 189
10 749 6 930 -8z m3873 -1589 c51 -46 67 -120 36 -164 -30 -44 -74 -17 -113
68 -48 106 0 167 77 96z m537 -463 c184 -52 545 -206 734 -313 140 -80 195
-121 228 -172 38 -56 40 -151 4 -218 -48 -93 -155 -196 -285 -274 -205 -124
-1031 -383 -1591 -500 -269 -56 -912 -131 -1720 -201 -820 -70 -878 -73 -2340
-107 -727 -17 -2788 -17 -3090 0 -835 46 -1326 110 -1939 253 -679 159 -1130
340 -1308 527 -78 81 -92 113 -92 197 0 52 5 80 21 110 89 167 346 325 813
498 428 158 582 197 611 154 24 -35 -57 -121 -143 -154 -77 -29 -84 -47 -46
-107 l32 -49 -22 -18 c-23 -18 -37 -22 -254 -64 -128 -25 -238 -60 -238 -75 0
-16 66 -20 165 -10 135 13 418 13 490 -1 92 -17 135 -37 135 -64 0 -40 -116
-79 -294 -101 -90 -10 -48 -21 119 -28 277 -12 445 -62 382 -114 -22 -19 -132
-40 -296 -57 -86 -9 -176 -19 -201 -23 l-45 -6 55 -7 c30 -4 116 -8 190 -8
170 -1 450 -18 555 -32 123 -18 143 -35 77 -68 -100 -50 -314 -81 -619 -89
-133 -4 -244 -10 -248 -14 -13 -12 5 -27 48 -40 31 -10 116 -12 337 -9 583 9
691 7 733 -11 20 -10 37 -24 37 -33 0 -33 -62 -45 -274 -53 -113 -5 -209 -11
-212 -15 -14 -14 31 -48 85 -65 47 -14 92 -16 285 -14 293 3 434 -19 666 -105
99 -37 138 -58 127 -69 -15 -15 -867 94 -1350 172 -121 20 -221 33 -223 31 -9
-9 149 -69 243 -93 302 -76 826 -126 1758 -166 396 -17 2327 -17 2850 0 640
21 1128 41 1890 77 1172 57 1545 93 2079 201 359 73 377 77 372 81 -2 3 -65
-3 -140 -11 -159 -19 -258 -20 -273 -5 -8 8 -8 18 0 35 19 44 0 50 -111 34
-163 -23 -231 -24 -238 -5 -11 27 14 65 54 82 31 14 83 17 317 19 266 2 435
13 535 35 87 19 121 30 116 38 -3 4 -115 11 -248 15 -247 7 -361 17 -410 37
-114 46 137 91 582 104 202 6 341 19 369 35 12 6 11 9 -5 18 -30 15 -94 22
-310 32 -218 10 -274 22 -274 59 0 51 141 80 480 101 449 27 490 55 98 65
-373 10 -472 32 -409 89 66 60 258 85 513 67 169 -12 258 -10 287 9 47 28 -64
48 -338 60 -239 11 -311 24 -311 57 0 24 66 43 177 53 132 12 187 41 132 71
-15 8 -38 8 -84 0 -48 -9 -70 -8 -89 0 -54 25 -24 76 55 93 53 12 54 14 53 47
0 19 5 37 10 41 14 10 61 2 171 -29z m-2060 -313 c9 -15 -47 -68 -80 -76 -28
-7 -55 3 -58 21 -2 11 98 65 119 65 7 0 16 -5 19 -10z m-768 -210 c39 -23 73
-80 48 -80 -16 0 -86 41 -117 68 -39 34 17 44 69 12z m-29 -135 c44 -14 85
-31 91 -39 33 -39 -97 -227 -168 -242 -71 -15 -74 -19 -67 -85 8 -65 -2 -89
-34 -89 -22 0 -60 45 -60 71 0 22 -19 29 -47 16 -47 -21 -123 37 -123 95 0 63
110 219 189 270 57 36 112 37 219 3z m552 -150 c28 -17 36 -28 38 -57 4 -44
-16 -86 -93 -193 -97 -134 -114 -192 -72 -240 17 -20 36 -28 81 -34 43 -6 64
-14 78 -31 22 -28 22 -33 1 -59 l-18 -21 -93 19 c-129 27 -304 79 -341 102
-36 22 -39 41 -11 86 21 35 63 52 88 36 31 -19 36 -39 22 -82 -7 -23 -10 -44
-6 -49 25 -24 231 352 253 459 9 49 -8 31 -75 -78 -96 -155 -162 -204 -162
-119 0 19 16 79 35 135 19 55 35 103 35 107 0 4 -26 -27 -58 -67 -110 -139
-183 -184 -198 -124 -15 59 25 177 68 204 41 25 80 30 238 28 136 -2 159 -5
190 -22z m-1852 -21 c4 -37 -29 -81 -74 -100 -39 -16 -120 -19 -129 -4 -8 13
78 104 118 124 18 9 43 15 57 14 20 -2 26 -9 28 -34z m127 -114 c21 -40 19
-82 -5 -112 -48 -62 -477 -240 -631 -263 -56 -8 -89 6 -89 38 0 34 46 71 125
103 39 15 123 53 189 86 127 62 174 72 183 38 9 -34 29 -23 104 60 40 44 81
80 91 80 9 0 24 -13 33 -30z m320 -57 c-16 -152 -83 -229 -285 -330 -134 -67
-228 -97 -273 -87 -63 13 -89 90 -44 132 56 52 122 50 174 -5 17 -20 36 -32
42 -28 6 3 11 33 11 65 0 68 5 73 85 85 99 14 160 58 242 172 25 35 47 63 50
63 2 0 1 -30 -2 -67z m-766 51 c87 -18 -14 -89 -274 -192 -393 -157 -699 -225
-649 -145 19 31 68 52 144 63 70 10 140 41 140 61 0 6 16 17 35 25 28 11 45
12 72 5 47 -13 78 -5 98 25 21 33 62 51 140 64 79 13 120 32 127 58 8 30 98
49 167 36z m-699 -59 c0 -26 -86 -89 -184 -135 -175 -83 -226 -93 -226 -45 0
40 104 111 236 161 111 42 174 49 174 19z m-1450 -5 c20 -11 40 -66 40 -112 0
-16 3 -28 8 -28 4 0 24 18 45 40 41 44 76 51 115 24 18 -12 22 -24 20 -51 -4
-48 -38 -72 -114 -82 -74 -11 -142 -44 -212 -105 -53 -46 -75 -55 -87 -36 -9
15 15 219 34 280 12 38 24 59 41 67 30 15 84 17 110 3z m3359 -84 c57 -52 79
-65 118 -72 39 -7 49 -13 51 -31 5 -31 -50 -104 -115 -154 -123 -95 -287 -122
-243 -40 14 27 81 61 118 61 33 0 67 32 77 72 6 22 1 33 -23 58 -27 27 -37 30
-89 30 -69 0 -83 -11 -83 -60 0 -26 -7 -43 -27 -63 -63 -59 -222 -107 -258
-77 -18 15 -20 64 -2 78 6 5 26 13 44 16 38 9 124 67 213 146 62 55 126 100
142 100 5 0 39 -29 77 -64z m1455 -10 c127 -46 168 -102 107 -145 -42 -30
-103 -27 -176 7 -107 51 -164 124 -117 151 30 18 118 12 186 -13z m-4319 -21
c74 -20 120 -50 141 -93 18 -39 12 -64 -23 -92 -47 -37 -135 -21 -113 21 13
23 -24 68 -88 105 -59 34 -83 54 -76 65 8 14 94 10 159 -6z m3351 -10 c20 -20
23 -29 14 -45 -21 -39 -75 -51 -124 -29 -14 7 -27 18 -31 27 -23 61 89 99 141
47z m-2948 -60 c5 -35 -41 -68 -101 -73 -62 -5 -86 12 -67 47 17 33 60 51 115
48 42 -2 50 -5 53 -22z m-479 -63 c12 -22 5 -33 -35 -57 -41 -24 -64 -63 -71
-126 -9 -73 -41 -109 -98 -109 -24 0 -46 4 -49 9 -3 5 5 25 19 45 49 72 57 97
51 146 -5 40 -3 49 16 68 47 44 148 58 167 24z m-339 -41 c16 -31 12 -59 -12
-75 -30 -21 -44 -20 -68 4 -24 24 -26 53 -4 74 22 23 71 20 84 -3z m1033 10
c33 -13 41 -39 20 -64 -28 -31 -91 -55 -194 -73 -52 -8 -98 -20 -104 -25 -6
-6 -4 -22 4 -44 14 -41 9 -55 -23 -55 -32 0 -48 22 -48 65 0 47 20 75 85 118
101 67 206 98 260 78z m2565 -7 c60 -41 -16 -110 -93 -84 -42 14 -60 42 -45
69 5 11 15 22 22 24 28 11 95 6 116 -9z m-1850 -20 c26 -18 27 -34 6 -76 -26
-51 -7 -52 120 -9 191 65 276 72 276 22 0 -32 -46 -78 -92 -90 -24 -7 -171
-16 -333 -22 -159 -5 -333 -13 -385 -19 -213 -23 -240 -24 -240 -7 0 9 20 28
46 43 87 51 353 151 444 167 61 10 136 6 158 -9z m-1194 -127 c-2 -61 -61
-107 -139 -107 -46 0 -80 32 -65 60 25 47 110 90 170 87 34 -2 35 -3 34 -40z
m2235 17 c34 -28 39 -49 15 -58 -27 -10 -262 -7 -269 4 -3 6 26 26 67 45 91
44 143 46 187 9z m-2812 -65 c20 -32 11 -59 -18 -59 -31 0 -59 28 -59 60 0 58
42 57 77 -1z m1001 -32 c19 -15 -3 -27 -50 -27 -45 0 -68 8 -68 25 0 24 88 26
118 2z m4181 -217 c-25 -15 -265 -56 -603 -105 -722 -103 -1126 -133 -2081
-155 -818 -19 -2504 -29 -3195 -20 -644 9 -814 15 -805 30 10 16 324 22 1635
30 1290 9 1582 14 2220 40 858 35 1854 105 2475 174 143 16 378 20 354 6z
m-7155 -170 c7 -7 -55 -10 -194 -10 -126 0 -200 4 -194 9 5 5 27 12 49 14 67
8 328 -2 339 -13z m6546 -106 c-20 -5 -327 -51 -465 -69 -186 -25 -531 -44
-1000 -55 -527 -12 -2559 -12 -2625 -1 -31 6 12 9 137 10 101 0 387 5 635 11
249 5 667 14 928 20 1064 23 1901 52 2165 74 146 13 255 17 225 10z m-5510
-89 c355 -16 461 -22 530 -32 l45 -6 -40 -8 c-114 -22 -1074 5 -1308 37 -195
27 263 32 773 9z m4779 -131 c2 -2 2 -6 0 -8 -6 -6 -693 -25 -1289 -36 -750
-14 -2072 -21 -2025 -11 87 19 1056 49 1955 61 548 7 1349 3 1359 -6z m-5069
-4 c25 -16 3 -23 -70 -23 -73 0 -95 7 -70 23 19 12 121 12 140 0z m754 -46
c91 -13 43 -24 -104 -24 -87 0 -150 4 -150 9 0 17 166 27 254 15z"/>
<path d="M6250 5279 c-193 -17 -362 -51 -404 -82 -29 -22 -13 -45 36 -52 54
-8 134 1 638 73 348 51 397 60 350 65 -75 9 -502 6 -620 -4z"/>
<path d="M7644 4897 c-70 -41 -199 -179 -276 -295 -54 -82 -49 -132 14 -132
30 0 58 39 58 81 0 42 45 113 126 198 86 93 114 128 114 148 0 16 -9 16 -36 0z"/>
<path d="M8400 4895 c-170 -41 -445 -201 -500 -290 -50 -80 10 -61 158 52 99
75 233 144 341 173 40 12 87 28 104 37 29 15 30 16 12 29 -23 17 -43 17 -115
-1z"/>
<path d="M7915 4868 c-88 -38 -196 -109 -231 -151 -39 -46 -74 -126 -74 -169
0 -21 4 -38 8 -38 31 0 319 271 383 361 19 27 19 29 2 29 -10 0 -49 -15 -88
-32z"/>
<path d="M8652 4749 c-152 -18 -312 -65 -312 -93 0 -23 73 -29 186 -17 175 20
295 52 323 85 11 13 9 17 -14 26 -30 11 -78 11 -183 -1z"/>
<path d="M4785 4705 c-67 -18 -97 -53 -89 -104 7 -46 -12 -88 -62 -133 -77
-70 -108 -168 -53 -168 31 0 120 96 200 216 87 132 105 170 88 190 -14 17 -19
17 -84 -1z"/>
<path d="M4544 4641 c-89 -65 -154 -156 -154 -215 0 -41 2 -42 36 -20 41 28
184 228 184 259 0 13 -30 2 -66 -24z"/>
<path d="M4284 4602 c-57 -42 -178 -176 -235 -261 -41 -60 -49 -81 -47 -110 2
-29 8 -37 26 -39 39 -6 67 23 115 120 26 54 74 126 112 173 60 71 95 123 95
140 0 13 -30 3 -66 -23z"/>
<path d="M8745 4590 c-33 -4 -103 -19 -155 -33 -113 -31 -223 -47 -328 -48
-48 0 -94 -7 -122 -17 -80 -31 -77 -92 8 -127 27 -12 323 -57 329 -51 1 1 -5
25 -14 53 -27 85 -12 96 102 68 69 -16 135 -19 135 -6 0 5 -4 21 -10 35 -8 21
-6 28 13 41 47 33 171 10 295 -55 41 -22 82 -40 91 -40 44 0 121 78 121 122 0
10 -13 24 -28 32 -60 31 -284 45 -437 26z"/>
<path d="M5955 4384 c-26 -26 3 -92 53 -118 59 -31 142 -32 142 -2 0 18 -103
114 -135 126 -35 13 -41 13 -60 -6z"/>
<path d="M8130 4274 c-75 -20 -231 -96 -305 -149 -84 -59 -169 -147 -194 -199
-25 -51 -28 -137 -6 -156 20 -17 86 -6 155 26 99 46 143 105 155 209 4 33 13
69 20 81 20 32 74 53 199 79 143 30 186 47 186 75 0 45 -103 62 -210 34z"/>
<path d="M6413 4183 c-35 -12 4 -71 60 -92 35 -13 127 -14 127 -2 0 28 -155
105 -187 94z"/>
<path d="M5820 4109 c-94 -9 -149 -29 -173 -61 -17 -23 -18 -29 -6 -54 20 -40
45 -41 206 -4 166 38 270 47 344 30 30 -7 117 -39 194 -72 174 -73 241 -94
259 -79 30 25 -12 94 -78 128 -99 51 -298 96 -501 113 -138 11 -135 11 -245
-1z"/>
<path d="M5962 3961 c-45 -12 -60 -27 -46 -49 18 -30 76 -52 134 -52 66 0 104
17 108 48 3 17 -4 26 -31 37 -44 18 -124 26 -165 16z"/>
<path d="M9946 3885 c-17 -44 -1 -133 21 -112 10 11 19 73 13 96 -7 30 -25 38
-34 16z"/>
<path d="M9523 3555 c-13 -23 -47 -185 -64 -299 -13 -94 -2 -118 30 -65 28 45
40 87 53 189 13 100 1 211 -19 175z"/>
<path d="M10304 3495 c-56 -86 -70 -305 -20 -305 23 0 35 31 46 112 5 40 17
94 26 121 9 26 13 59 10 72 -8 33 -40 33 -62 0z"/>
<path d="M2451 3417 c-49 -60 -58 -219 -19 -351 43 -148 61 -105 61 149 0 203
-8 242 -42 202z"/>
<path d="M2577 3343 c-23 -22 16 -250 47 -282 13 -12 16 -8 26 30 28 101 -29
296 -73 252z"/>
<path d="M3720 3345 c0 -11 103 -56 171 -75 73 -20 159 -27 159 -12 0 14 -91
64 -142 78 -50 13 -188 20 -188 9z"/>
<path d="M2047 3221 c-63 -118 -78 -164 -78 -238 0 -124 75 -204 250 -264 79
-27 136 -25 156 5 13 20 14 29 5 46 -10 19 -17 21 -79 14 -82 -8 -117 7 -161
67 -69 96 -85 202 -54 367 8 46 14 85 12 87 -2 2 -25 -36 -51 -84z"/>
<path d="M10755 3146 c-51 -51 -53 -161 -3 -154 50 7 91 131 56 166 -17 17
-26 15 -53 -12z"/>
<path d="M2236 3145 c-9 -25 -7 -158 4 -175 15 -24 25 15 25 97 0 71 -15 113
-29 78z"/>
<path d="M2754 3106 c-13 -54 32 -175 71 -190 49 -19 57 30 21 139 -21 65 -25
70 -54 73 -26 3 -32 -1 -38 -22z"/>
<path d="M5812 3118 c-18 -22 -40 -89 -71 -211 -33 -127 -94 -268 -158 -363
-60 -88 -77 -124 -59 -124 15 0 97 104 158 200 111 174 202 422 178 486 -10
26 -32 31 -48 12z"/>
<path d="M7016 3089 c-12 -28 -20 -95 -26 -203 -5 -89 -16 -199 -24 -246 -8
-46 -14 -86 -12 -88 6 -5 62 100 89 168 54 137 74 350 37 395 -23 27 -47 18
-64 -26z"/>
<path d="M5393 3018 c-75 -82 -227 -397 -207 -429 17 -28 151 160 202 284 34
80 52 167 35 167 -5 0 -19 -10 -30 -22z"/>
<path d="M4460 2997 c-82 -28 -23 -81 91 -81 105 0 181 57 108 83 -41 14 -154
13 -199 -2z"/>
<path d="M4838 2891 c-80 -40 -158 -108 -158 -137 0 -4 26 -4 59 -1 99 9 201
65 201 112 0 47 -40 57 -102 26z"/>
<path d="M7507 2893 c-11 -10 -8 -111 2 -118 14 -8 31 28 31 64 0 49 -15 73
-33 54z"/>
<path d="M3921 2781 c-24 -15 8 -25 81 -25 70 0 93 8 68 24 -19 12 -130 13
-149 1z"/>
<path d="M4263 2783 c-36 -14 -3 -23 81 -23 91 0 130 11 83 24 -26 7 -147 7
-164 -1z"/>
<path d="M3424 2750 c-22 -5 -58 -15 -78 -24 -30 -12 -37 -20 -34 -38 2 -18
13 -26 53 -36 117 -30 327 40 275 92 -14 14 -161 18 -216 6z"/>
<path d="M4999 2735 c-52 -19 -117 -53 -177 -92 -42 -28 -50 -38 -41 -49 23
-27 105 -12 211 41 62 30 124 87 114 104 -9 15 -62 13 -107 -4z"/>
<path d="M9953 2708 c-26 -29 -59 -94 -68 -135 -5 -26 -3 -33 9 -33 19 0 60
60 81 119 25 73 17 91 -22 49z"/>
<path d="M2737 2604 c-10 -11 -9 -152 2 -159 13 -8 20 7 27 57 6 44 -14 117
-29 102z"/>
<path d="M8072 2564 c-16 -11 -22 -24 -20 -42 4 -39 39 -40 80 -3 32 30 32 32
14 46 -25 19 -46 19 -74 -1z"/>
<path d="M3027 2403 c-15 -14 -6 -44 23 -75 29 -32 31 -32 45 -14 19 25 19 46
-1 74 -14 21 -53 30 -67 15z"/>
<path d="M3785 2340 c-7 -44 2 -120 15 -120 11 0 20 38 20 87 0 78 -24 100
-35 33z"/>
<path d="M3226 2144 c-8 -40 1 -94 14 -94 5 0 15 18 21 40 9 30 9 46 1 65 -16
35 -29 31 -36 -11z"/>
<path d="M1033 2623 c-22 -8 -14 -40 13 -62 37 -29 96 -44 128 -31 64 24 -6
101 -91 99 -21 0 -44 -3 -50 -6z"/>
<path d="M12015 2402 c-80 -17 -696 -216 -845 -273 -44 -17 -82 -35 -85 -39
-21 -33 600 136 846 231 95 36 157 97 84 81z"/>
<path d="M515 2303 c11 -8 61 -35 110 -58 178 -84 375 -134 375 -95 0 26 -412
171 -484 170 -21 -1 -21 -1 -1 -17z"/>
<path d="M1062 2118 c3 -7 34 -28 70 -47 56 -29 79 -34 157 -39 61 -3 91 -1
91 6 0 12 -134 66 -201 81 -63 15 -122 14 -117 -1z"/>
<path d="M1464 2006 c-18 -14 -18 -15 11 -26 32 -12 115 -5 115 10 0 9 -63 30
-91 30 -8 0 -24 -6 -35 -14z"/>
</g>
</svg>