<svg version="1.0" xmlns="http://www.w3.org/2000/svg"
 width="861.000000pt" height="1280.000000pt" viewBox="0 0 861.000000 1280.000000"
 preserveAspectRatio="xMidYMid meet">
<metadata>
Created by potrace 1.15, written by Peter Selinger 2001-2017
</metadata>
<g transform="translate(0.000000,1280.000000) scale(0.100000,-0.100000)"
fill="#000000" stroke="none">
<path d="M5134 12780 c-409 -107 -825 -670 -1092 -1475 -98 -296 -192 -744
-217 -1030 -3 -38 -8 -85 -11 -104 l-5 -33 -107 104 c-554 542 -1122 632
-1260 198 -7 -19 -16 -73 -21 -120 -39 -355 173 -876 535 -1315 45 -55 105
-122 133 -150 28 -27 51 -52 51 -55 0 -4 -44 -36 -98 -73 -470 -318 -807 -818
-916 -1357 -76 -375 -54 -620 93 -1052 16 -48 27 -90 23 -92 -4 -2 -45 -12
-92 -21 -371 -75 -754 -251 -1085 -499 -155 -116 -404 -364 -518 -517 -456
-611 -632 -1337 -506 -2083 160 -942 846 -1743 1773 -2071 104 -37 126 -49
184 -101 897 -805 2133 -1113 3319 -829 494 119 989 357 1377 662 60 48 106
76 145 88 138 43 337 138 521 248 207 125 473 355 642 557 175 208 359 527
453 784 225 612 200 1323 -66 1929 -209 475 -576 895 -1022 1169 -84 52 -112
77 -197 174 -55 63 -100 119 -100 125 0 18 -99 208 -145 278 -55 83 -124 163
-197 227 -31 27 -55 55 -52 62 2 7 13 59 24 115 106 547 2 1090 -301 1575
-201 323 -514 609 -871 797 l-108 57 41 71 c256 456 427 973 514 1552 40 269
49 399 49 675 0 258 -9 386 -40 574 -116 692 -445 1062 -850 956z"/>
</g>
</svg>