<svg version="1.0" xmlns="http://www.w3.org/2000/svg"
 width="1280.000000pt" height="640.000000pt" viewBox="0 0 1280.000000 640.000000"
 preserveAspectRatio="xMidYMid meet">
<metadata>
Created by potrace 1.15, written by Peter Selinger 2001-2017
</metadata>
<g transform="translate(0.000000,640.000000) scale(0.100000,-0.100000)"
fill="#000000" stroke="none">
<path d="M3325 6090 c-49 -31 -139 -49 -320 -65 -93 -8 -192 -20 -220 -26 -27
-7 -113 -43 -190 -82 -184 -91 -201 -97 -325 -106 -86 -6 -116 -13 -165 -37
-95 -46 -234 -199 -271 -298 -15 -40 53 14 162 127 119 126 121 127 264 147
104 14 165 34 235 75 157 92 162 94 538 156 392 65 473 75 669 85 l136 7 39
-30 c46 -37 96 -62 230 -118 94 -40 200 -101 190 -111 -2 -2 -39 5 -83 16 -43
10 -117 26 -164 34 -111 19 -488 51 -498 42 -3 -4 10 -38 31 -76 35 -65 47
-110 28 -110 -5 0 -53 16 -107 36 -120 44 -198 50 -240 18 -36 -26 -41 -44
-14 -44 39 0 91 -32 107 -66 22 -46 12 -64 -30 -57 -50 8 -57 -14 -11 -33 51
-21 98 -7 161 50 l48 43 -33 7 c-19 5 -32 14 -32 23 0 11 5 13 18 8 66 -28
129 -28 286 1 43 8 96 14 117 14 51 0 51 17 -1 66 -39 37 -50 67 -30 79 6 4
35 -18 65 -49 36 -38 58 -54 69 -50 20 8 21 20 1 28 -8 3 -15 11 -15 17 0 12
8 10 77 -15 23 -9 92 -20 153 -26 61 -6 191 -27 288 -47 162 -33 193 -36 365
-38 l187 -3 68 -35 c115 -60 245 -83 566 -103 106 -6 113 -8 203 -54 52 -26
104 -51 116 -54 12 -3 28 -19 36 -36 33 -76 118 -131 272 -177 78 -23 101 -34
134 -68 24 -24 66 -50 104 -65 48 -19 65 -32 75 -55 20 -47 62 -90 129 -135
72 -48 98 -86 131 -190 71 -221 23 -429 -111 -485 -19 -8 -43 -15 -53 -15 -10
0 -23 -13 -30 -30 -8 -19 -31 -42 -59 -58 -39 -23 -58 -27 -118 -27 -68 0 -73
-2 -73 -21 0 -41 -26 -50 -80 -27 l-49 21 -7 -22 c-8 -28 -42 -64 -76 -82 -26
-13 -28 -13 -28 3 0 39 -16 47 -46 24 -16 -11 -68 -30 -116 -42 -48 -12 -95
-27 -105 -34 -17 -13 -17 -14 1 -21 10 -4 60 -1 111 6 77 10 97 10 121 -1 41
-20 36 -34 -14 -37 -71 -5 -36 -22 47 -22 145 0 227 44 238 129 5 37 8 41 34
41 34 0 35 -3 12 -41 -18 -30 -11 -51 9 -31 7 7 23 12 35 12 21 0 22 3 13 20
-26 49 39 93 139 93 65 0 66 0 104 43 21 24 46 44 55 44 12 0 6 -10 -19 -33
-21 -17 -56 -59 -79 -92 -24 -33 -54 -72 -68 -87 l-26 -28 27 0 c14 0 29 -4
32 -10 3 -5 10 -10 15 -10 17 0 191 246 227 322 42 85 48 86 84 16 18 -35 21
-37 35 -23 9 8 27 18 41 21 22 6 31 0 60 -35 20 -23 48 -48 64 -57 28 -14 30
-14 54 13 32 36 31 40 -8 47 -50 9 -117 92 -117 144 0 14 -9 21 -30 26 -17 3
-47 18 -66 32 -31 24 -33 28 -19 44 28 31 17 100 -16 100 -19 0 -22 -10 -19
-66 1 -32 -21 -60 -40 -49 -11 7 -14 132 -4 159 3 9 12 12 22 9 15 -6 -23 70
-68 137 -25 37 -86 154 -98 188 -6 19 -27 41 -54 58 -112 69 -159 105 -234
180 -75 75 -84 81 -149 97 -139 35 -307 145 -362 238 -11 17 -26 29 -38 29
-12 0 -59 11 -106 25 -46 14 -105 27 -131 30 -25 2 -70 11 -99 19 -29 9 -123
23 -208 32 -217 21 -279 37 -346 88 -28 22 -35 23 -90 14 -33 -5 -114 -8 -180
-5 -153 7 -237 31 -473 136 -177 79 -260 111 -339 131 -31 8 -42 16 -45 33 -2
12 -15 28 -30 35 -17 8 -28 21 -28 33 0 18 -9 19 -272 19 -253 0 -275 -2 -303
-20z m3696 -1740 c23 -13 24 -26 3 -34 -20 -8 -54 11 -54 29 0 17 23 19 51 5z
m-681 -420 c0 -31 -44 -70 -80 -70 -55 0 -31 51 35 75 22 8 41 14 43 15 1 0 2
-9 2 -20z"/>
<path d="M3029 5713 c-1 -5 -2 -15 -3 -23 -1 -17 -42 -40 -73 -40 -37 0 -34
-16 6 -32 48 -19 73 -55 75 -110 1 -36 5 -43 26 -49 30 -8 160 -11 160 -4 0 4
-7 19 -15 36 -14 26 -14 35 -1 80 18 58 15 69 -19 69 -15 0 -23 5 -20 13 6 16
-79 67 -111 67 -13 0 -25 -3 -25 -7z"/>
<path d="M3834 5521 c6 -86 2 -103 -19 -82 -6 6 -63 14 -129 20 -116 10 -119
10 -137 -12 -48 -57 -32 -90 27 -55 33 19 53 23 124 23 61 -1 94 -6 118 -18
17 -10 32 -19 32 -22 0 -2 -25 -4 -55 -4 -31 0 -80 -9 -114 -22 -44 -15 -72
-20 -100 -15 -35 5 -40 3 -46 -16 -22 -72 -116 -135 -175 -118 -50 14 -93 60
-57 60 8 0 22 9 32 20 18 20 17 20 -48 20 -63 0 -67 -1 -67 -23 0 -23 -17 -47
-33 -47 -5 0 -7 7 -3 15 8 21 -38 19 -89 -4 -43 -19 -95 -73 -95 -97 0 -20 60
-15 70 6 26 57 21 55 121 55 89 0 95 -1 116 -26 13 -15 47 -36 77 -48 34 -15
57 -31 65 -47 16 -36 14 -43 -14 -56 -23 -11 -30 -8 -70 32 -57 56 -68 46 -15
-14 43 -50 49 -76 25 -96 -13 -11 -8 -17 30 -41 72 -45 59 -61 -27 -34 l-48
14 0 -52 c-1 -64 -16 -93 -64 -122 -50 -30 -30 -41 34 -20 68 23 95 3 48 -35
-36 -29 -16 -33 75 -15 111 23 117 26 94 64 -9 16 -17 32 -17 35 0 14 64 4 87
-14 36 -28 84 -26 113 5 40 43 77 48 272 40 l179 -7 -7 26 c-7 28 1 31 140 40
44 4 81 8 84 11 3 2 -6 32 -18 66 -25 66 -63 119 -86 119 -18 0 -18 14 0 49
25 47 40 55 76 36 92 -48 267 -61 384 -30 53 14 61 14 68 1 5 -8 25 -20 46
-26 48 -13 193 -13 229 1 l28 10 -24 18 c-16 12 -22 24 -18 35 7 18 19 20 65
7 34 -10 62 -6 62 9 0 5 -12 10 -27 12 -17 2 -29 10 -31 21 -3 15 5 17 57 17
68 0 83 12 49 41 l-23 21 23 -5 c29 -7 30 23 2 41 -30 18 -24 41 15 58 44 18
86 18 132 -1 45 -19 53 -12 24 19 -48 51 -165 53 -233 5 l-29 -21 -38 25 c-66
44 -113 59 -203 64 -127 8 -240 -18 -437 -101 l-81 -34 -48 19 c-26 10 -82 25
-125 34 -92 20 -144 54 -125 85 9 14 9 28 0 56 -7 25 -8 43 -1 56 9 16 4 21
-28 35 -21 9 -80 18 -132 21 l-94 5 7 -92z m191 -22 c25 -12 45 -25 45 -29 0
-4 -9 -15 -21 -26 -19 -17 -22 -17 -47 -3 -15 9 -43 25 -62 35 -19 10 -37 20
-40 22 -2 2 2 7 10 12 24 16 67 11 115 -11z m-101 -55 c13 -5 14 -9 5 -20 -15
-18 -39 -18 -39 -1 0 12 9 27 16 27 1 0 10 -3 18 -6z m157 -87 c-6 -6 -39 -14
-73 -18 -52 -6 -64 -5 -74 9 -7 9 -10 19 -7 22 9 9 158 15 162 7 2 -5 -2 -14
-8 -20z m974 -15 c57 -29 112 -89 97 -104 -9 -9 -21 -8 -52 1 -45 13 -47 16
-24 39 15 15 15 17 -4 33 -12 9 -52 22 -89 29 -96 18 -114 32 -33 27 39 -3 82
-13 105 -25z m-357 -100 c-4 -17 -9 -17 -75 -10 -32 4 -28 17 9 33 38 15 71 4
66 -23z m-1110 -24 c-2 -19 -10 -24 -45 -26 -37 -3 -43 0 -43 16 0 27 8 32 52
32 35 0 39 -2 36 -22z m1474 -20 c13 -21 9 -24 -26 -20 -18 2 -47 -3 -64 -12
-48 -25 -72 -21 -72 12 0 27 0 27 77 30 53 1 79 -2 85 -10z m-437 -38 c-3 -5
-17 -10 -31 -10 -13 0 -24 5 -24 10 0 6 14 10 31 10 17 0 28 -4 24 -10z m130
0 c-3 -5 -17 -10 -31 -10 -13 0 -24 5 -24 10 0 6 14 10 31 10 17 0 28 -4 24
-10z m269 -50 c17 -17 -7 -31 -50 -29 -54 3 -62 12 -32 34 23 15 63 13 82 -5z
m-855 -19 c11 -7 9 -12 -10 -24 -13 -8 -39 -18 -56 -22 -28 -6 -33 -4 -33 12
0 11 5 24 12 31 14 14 67 16 87 3z m126 -171 c8 -13 -31 -50 -55 -50 -25 0
-27 35 -2 49 22 13 49 14 57 1z"/>
<path d="M3240 5521 c0 -24 36 -37 56 -20 13 11 12 14 -8 25 -33 19 -48 17
-48 -5z"/>
<path d="M1734 5349 c-29 -30 -60 -51 -319 -222 -135 -88 -241 -186 -272 -253
-15 -31 -25 -36 -129 -69 -114 -37 -154 -61 -154 -94 0 -17 5 -17 53 9 53 28
184 64 191 52 8 -14 10 -58 3 -69 -13 -20 -44 -15 -61 9 -19 26 -32 18 -17
-10 6 -12 11 -42 11 -69 0 -57 10 -76 36 -71 15 3 19 12 17 41 -3 41 4 44 49
21 21 -11 51 -15 97 -13 53 2 76 -2 116 -21 36 -17 73 -25 135 -28 99 -5 172
8 250 44 53 24 120 78 120 96 0 14 -131 -16 -219 -50 -22 -8 94 123 133 151
23 16 50 23 106 27 70 5 75 7 78 29 3 20 1 22 -15 16 -31 -13 -136 -35 -173
-35 -29 0 -37 -6 -50 -33 -15 -32 -24 -37 -172 -91 -27 -10 -48 -24 -48 -32 0
-20 -13 -18 -45 7 l-27 22 27 25 c17 15 23 28 17 34 -11 11 -121 13 -181 3
-40 -7 -67 -25 -37 -25 20 0 76 -48 76 -66 0 -10 -13 -14 -46 -14 -52 0 -101
20 -134 55 -29 31 -22 76 24 142 43 63 116 121 276 218 162 98 246 166 289
234 39 60 37 74 -5 30z"/>
<path d="M5495 5285 c16 -13 31 -22 34 -20 5 6 -41 44 -54 44 -5 0 3 -11 20
-24z"/>
<path d="M5600 5266 c0 -8 7 -22 16 -30 15 -15 44 -22 44 -11 0 3 -7 17 -16
30 -18 27 -44 33 -44 11z"/>
<path d="M4985 4993 c-36 -8 -75 -25 -75 -34 0 -14 238 15 254 31 10 10 -138
12 -179 3z"/>
<path d="M4525 4881 c-10 -18 36 -24 53 -7 15 15 14 16 -15 16 -18 0 -34 -4
-38 -9z"/>
<path d="M5016 4882 c-3 -6 14 -13 39 -17 45 -6 85 0 85 13 0 11 -117 14 -124
4z"/>
<path d="M4444 4795 c-16 -12 -17 -14 -2 -15 9 0 38 -9 64 -20 34 -15 50 -18
58 -10 8 8 3 18 -17 36 -32 27 -74 31 -103 9z"/>
<path d="M6616 4705 c-4 -15 -21 -35 -41 -47 -36 -21 -43 -44 -25 -79 9 -16 7
-19 -15 -19 -43 0 -67 -17 -55 -39 14 -26 -16 -61 -90 -106 -55 -33 -89 -69
-77 -81 3 -3 16 6 30 20 21 20 36 26 72 26 26 0 54 -4 63 -9 14 -7 30 6 80 65
34 41 78 84 98 97 34 21 35 23 28 72 -6 54 -32 117 -50 122 -7 2 -15 -8 -18
-22z"/>
<path d="M738 4629 c-98 -98 -128 -211 -79 -295 l22 -37 -29 -31 c-52 -55 -66
-93 -70 -198 l-4 -97 -54 -26 c-84 -41 -121 -91 -211 -280 -34 -72 -42 -101
-43 -147 0 -48 -7 -71 -47 -145 -25 -48 -57 -109 -71 -135 -16 -31 -26 -71
-30 -115 -4 -55 -11 -77 -38 -116 -57 -83 -78 -150 -78 -257 -1 -106 15 -166
64 -244 17 -25 37 -79 46 -119 37 -168 65 -231 121 -274 40 -31 51 -14 18 25
-31 38 -31 50 0 62 38 14 65 -4 109 -72 30 -46 50 -65 83 -79 46 -19 51 -27
30 -48 -16 -17 14 -41 113 -91 95 -48 143 -99 259 -272 150 -224 206 -262 494
-332 l174 -43 104 -89 c232 -199 360 -268 548 -294 51 -7 100 -7 158 0 76 10
90 9 139 -10 85 -31 97 -28 143 38 69 99 96 121 157 131 33 6 37 10 58 72 l23
67 -44 55 c-43 55 -138 133 -197 164 -56 29 -166 62 -245 73 -68 10 -82 16
-99 40 -22 29 -73 50 -172 71 -82 17 -129 44 -146 84 -20 49 -18 60 9 41 37
-27 108 -58 121 -53 19 8 8 51 -18 75 -11 11 -55 27 -96 37 -45 11 -83 27 -96
40 -13 13 -54 32 -93 44 -86 26 -162 66 -323 169 -137 88 -199 121 -273 146
-38 13 -53 24 -65 48 -8 18 -27 40 -41 50 -25 19 -139 38 -139 24 0 -4 12 -33
28 -64 20 -42 59 -88 150 -177 67 -65 122 -123 122 -127 0 -14 -129 -9 -164 6
-59 25 -115 86 -198 218 -78 124 -153 208 -186 208 -9 0 4 -20 32 -50 36 -39
46 -56 46 -84 l0 -34 -118 87 c-64 49 -123 96 -131 105 -12 14 -10 16 12 16
14 0 29 4 32 10 3 5 -4 48 -16 95 -37 146 -6 154 120 31 95 -92 116 -106 160
-106 51 0 81 17 81 45 0 31 19 70 74 150 23 33 42 61 42 63 1 2 48 -27 103
-64 100 -65 133 -97 165 -161 15 -31 20 -33 69 -33 35 0 63 -7 85 -20 l33 -20
-6 44 c-9 56 5 65 48 32 33 -25 81 -34 102 -18 16 10 104 231 112 276 l6 39
-54 -6 c-30 -4 -73 -10 -96 -13 -40 -6 -43 -5 -54 22 -22 58 -33 134 -21 146
9 9 17 7 31 -6 19 -18 20 -17 26 7 10 40 -11 65 -83 100 l-67 32 0 90 c0 50 4
107 8 128 l8 37 -54 0 c-48 0 -58 -4 -96 -39 -70 -65 -156 -105 -230 -107 -36
-1 -67 -7 -71 -14 -5 -8 -15 0 -29 24 -47 75 -105 103 -147 71 -25 -19 -32
-19 -30 3 1 17 -15 20 -46 7 -24 -10 -23 11 2 53 14 23 27 32 46 32 l27 0 -6
90 c-4 49 -15 111 -25 138 l-19 49 24 23 c13 13 32 53 44 94 47 165 69 198
134 210 19 4 35 9 35 12 0 19 -27 47 -65 70 -25 14 -45 31 -45 37 0 6 -6 2
-14 -8 -13 -19 -15 -18 -55 9 -47 33 -46 38 28 85 26 17 53 42 59 56 10 22 18
25 67 25 55 0 120 23 110 39 -2 5 -24 6 -49 4 -56 -7 -70 12 -32 42 33 26 74
39 171 56 86 14 115 34 35 24 -30 -3 -75 -9 -100 -12 -25 -3 -52 -11 -60 -19
-22 -19 -85 -44 -112 -44 -14 0 -49 23 -86 55 -76 66 -108 77 -133 46 l-18
-22 -15 30 c-25 47 -21 62 13 55 37 -8 54 17 74 102 8 33 20 71 27 83 22 42 1
34 -52 -20z m16 -422 c-4 -7 -16 -22 -27 -34 -11 -13 -18 -26 -14 -29 13 -13
43 8 62 43 12 24 28 39 43 41 12 2 22 0 22 -5 0 -13 -36 -69 -79 -124 -22 -27
-43 -58 -46 -69 -4 -11 -11 -18 -16 -15 -5 4 -3 17 5 33 15 31 11 53 -9 46
-27 -11 -37 -68 -25 -136 6 -35 13 -70 16 -80 3 -12 -3 -18 -26 -23 -16 -4
-37 -14 -46 -22 -11 -12 -18 -13 -26 -5 -9 9 -3 23 20 56 32 44 32 45 26 133
-5 80 -4 92 18 132 14 25 38 52 57 62 35 19 56 17 45 -4z m78 -297 c-6 -11
-12 -26 -12 -33 0 -13 -44 -16 -56 -4 -10 10 60 73 71 64 6 -5 5 -15 -3 -27z
m-171 -107 c-15 -30 -139 -135 -150 -128 -21 13 9 50 80 100 41 28 75 51 77
49 2 -1 -1 -11 -7 -21z m-188 -205 c-12 -64 -69 -148 -100 -148 -16 0 -16 -2
2 51 9 24 13 49 10 57 -3 10 1 12 16 7 23 -8 47 9 60 42 12 33 19 28 12 -9z
m279 -80 c23 -19 30 -48 12 -48 -27 0 -54 20 -54 40 0 23 19 26 42 8z m166
-360 c17 -17 15 -55 -4 -62 -23 -9 -34 2 -34 33 0 40 15 52 38 29z m280 -246
c2 -15 -2 -22 -12 -22 -11 0 -16 9 -16 26 0 31 23 28 28 -4z m247 -296 c25
-20 28 -27 17 -38 -11 -11 -15 -10 -24 7 -6 10 -22 30 -35 43 -44 44 -16 36
42 -12z m-92 -21 c29 -25 35 -45 15 -45 -20 1 -70 49 -63 60 9 15 17 12 48
-15z m272 -35 c8 -12 -35 -69 -52 -69 -20 -1 -15 31 9 56 24 25 34 28 43 13z
m-505 -915 c16 -19 3 -55 -21 -55 -15 0 -19 7 -19 35 0 37 18 47 40 20z m310
-80 c18 -19 21 -28 12 -37 -9 -9 -19 -5 -42 17 -16 16 -30 32 -30 37 0 17 38
7 60 -17z m-70 -109 c0 -6 16 -27 35 -46 19 -18 32 -37 29 -42 -11 -17 -53 -7
-73 18 -20 26 -28 74 -15 87 9 9 24 -2 24 -17z m147 -47 c16 -31 2 -36 -40
-12 -24 15 -33 27 -35 53 l-4 34 34 -26 c18 -14 38 -36 45 -49z m-228 25 c12
-14 20 -28 17 -32 -7 -6 -56 37 -56 50 0 15 16 8 39 -18z m530 -50 c-11 -13
-14 -13 -27 0 -21 20 -7 39 19 25 17 -8 18 -13 8 -25z m48 -116 c-7 -4 -22 -8
-34 -8 -20 0 -23 5 -23 35 l0 36 35 -28 c23 -19 30 -30 22 -35z m771 -60 c8
24 22 0 22 -39 0 -59 -29 -52 -83 22 -33 45 -25 55 21 27 25 -15 37 -18 40
-10z m-180 -147 c4 -26 1 -26 -43 -2 -33 18 -35 20 -19 35 14 15 19 15 38 3
11 -8 22 -24 24 -36z m46 -97 c3 -9 6 -29 6 -45 0 -27 -2 -29 -20 -19 -20 11
-25 35 -14 64 3 9 10 16 14 16 4 0 11 -7 14 -16z"/>
<path d="M6750 4605 c0 -34 -42 -95 -107 -155 -37 -35 -62 -60 -54 -55 7 4 44
16 83 25 84 22 114 41 135 84 15 32 14 34 -12 74 -29 44 -45 53 -45 27z"/>
<path d="M830 4485 c-23 -28 50 -125 96 -125 33 0 37 15 7 29 -22 10 -25 16
-20 46 3 19 4 35 3 35 -2 0 -19 7 -39 15 -30 12 -37 12 -47 0z"/>
<path d="M1396 4240 c114 -116 165 -150 230 -150 45 0 116 37 120 61 1 9 5 25
8 36 9 29 -62 57 -209 83 -117 21 -219 52 -230 71 -4 5 -11 9 -16 9 -5 0 38
-49 97 -110z m310 -89 c-7 -11 -70 -31 -101 -31 -36 0 7 30 56 38 48 9 54 8
45 -7z"/>
<path d="M4322 4327 c-7 -8 -6 -17 2 -30 18 -24 26 -21 26 7 0 29 -14 41 -28
23z"/>
<path d="M5950 4282 c-19 -9 -37 -25 -38 -36 -4 -17 2 -18 57 -14 46 3 67 10
86 28 14 13 25 27 25 32 0 15 -95 8 -130 -10z"/>
<path d="M4191 4209 c-13 -45 -10 -55 14 -45 21 8 29 31 21 61 -9 36 -21 31
-35 -16z"/>
<path d="M2386 4222 c-3 -5 -21 -13 -40 -16 -32 -6 -54 -30 -37 -40 4 -3 24
-1 43 5 43 11 66 35 51 50 -7 7 -13 7 -17 1z"/>
<path d="M3440 4213 c-129 -16 -283 -49 -288 -61 -6 -17 15 -32 46 -32 15 0
22 -6 22 -20 0 -17 -7 -20 -46 -20 -25 0 -54 5 -65 11 -25 13 -42 -6 -60 -62
-9 -28 -8 -41 2 -60 l14 -24 3 23 c4 27 56 62 91 62 20 0 23 -4 19 -32 -3 -18
-8 -41 -13 -51 -7 -16 -4 -16 27 3 19 11 94 35 167 54 160 42 214 67 246 114
34 50 32 68 -7 80 -39 12 -122 20 -158 15z"/>
<path d="M1020 4163 c-31 -39 -24 -116 14 -166 54 -71 180 -109 234 -71 22 15
22 17 5 29 -16 12 -13 16 40 40 41 19 56 30 48 38 -7 7 -18 5 -36 -7 -26 -17
-45 -14 -45 6 0 6 3 9 6 5 9 -9 61 19 67 37 9 24 -8 27 -49 9 -60 -26 -170
-23 -216 5 -31 19 -55 49 -46 57 8 7 115 25 151 25 31 0 38 3 27 10 -8 5 -52
10 -97 10 -77 0 -83 -1 -103 -27z"/>
<path d="M7206 4081 c-42 -23 -84 -41 -93 -41 -9 0 -13 -3 -9 -7 4 -5 58 -10
119 -13 l112 -6 61 -59 c34 -33 87 -83 118 -112 55 -50 56 -52 56 -107 0 -54
1 -56 28 -56 36 0 95 -37 127 -79 14 -19 25 -28 25 -20 0 25 -64 123 -149 229
-45 55 -90 119 -102 141 -21 43 -23 43 -86 24 -15 -5 -23 -3 -23 4 0 6 7 11
15 11 22 0 19 12 -13 56 -61 83 -85 88 -186 35z"/>
<path d="M1856 3989 c-84 -29 -156 -66 -156 -81 0 -15 79 7 154 44 45 21 95
38 114 38 22 0 32 4 30 13 -8 21 -51 17 -142 -14z"/>
<path d="M7116 3961 c-3 -5 4 -11 15 -14 16 -4 20 -10 14 -24 -4 -10 -10 -28
-12 -41 -5 -21 -3 -22 21 -12 40 15 83 12 161 -10 38 -11 71 -20 72 -20 2 0 3
11 3 25 0 18 -8 28 -27 36 -50 20 -58 26 -61 48 -3 20 -9 21 -92 21 -49 0 -91
-4 -94 -9z"/>
<path d="M6833 3913 c-52 -4 -52 -4 -46 -34 5 -29 5 -29 -39 -29 -48 0 -64
-12 -86 -63 -7 -15 -12 -40 -12 -54 l0 -26 24 22 c13 12 66 38 117 57 98 36
163 74 173 101 4 9 5 17 3 19 -6 7 -85 11 -134 7z"/>
<path d="M5800 3881 c0 -11 -22 -46 -49 -78 -47 -56 -71 -94 -71 -109 0 -5 5
-3 12 4 7 7 22 12 34 12 17 0 24 8 29 30 6 28 56 80 76 80 6 0 19 -5 30 -11
19 -10 19 -11 -6 -41 -21 -24 -23 -33 -14 -45 11 -12 14 -12 22 4 6 10 10 19
11 19 1 1 11 5 23 8 16 5 28 0 48 -21 l27 -28 -22 44 c-13 27 -20 54 -17 70 5
25 3 26 -36 26 -33 0 -42 4 -45 19 -2 10 2 22 10 27 8 6 0 9 -24 9 -31 0 -38
-4 -38 -19z"/>
<path d="M1710 3854 c0 -17 9 -57 20 -89 24 -70 25 -116 5 -155 -17 -33 -45
-39 -69 -14 -19 18 -21 34 -5 34 7 0 9 11 5 33 -4 17 -8 42 -10 54 -4 30 -74
113 -94 112 -16 -1 -16 -2 0 -6 16 -4 15 -7 -2 -36 -25 -40 -25 -64 -1 -132
19 -53 19 -54 0 -60 -23 -8 -25 -34 -4 -61 23 -31 18 -44 -18 -44 -49 0 -80
26 -73 61 5 28 4 29 -34 29 -37 0 -40 2 -35 23 9 33 -8 44 -111 70 -78 20 -91
26 -111 56 -34 50 -31 68 12 63 43 -5 88 5 80 18 -9 14 -94 11 -138 -4 -58
-21 -111 -62 -135 -105 -12 -21 -22 -42 -22 -46 0 -4 25 16 56 44 50 46 94 66
94 42 0 -11 -45 -76 -90 -131 -52 -63 -80 -111 -80 -139 0 -20 8 -13 49 40 62
82 97 114 106 99 11 -18 -4 -60 -37 -106 -21 -29 -28 -49 -23 -61 5 -15 10
-12 26 20 31 60 119 103 119 58 0 -10 -13 -35 -30 -56 -16 -21 -30 -41 -30
-45 0 -19 14 -14 44 16 19 19 43 34 54 34 18 0 20 -5 15 -33 -3 -23 0 -37 11
-46 14 -12 20 -10 44 12 93 89 283 74 335 -27 l20 -38 -27 -80 c-32 -96 -29
-103 62 -137 84 -30 95 -41 83 -74 -16 -40 -14 -149 3 -172 17 -24 52 -13 40
13 -22 50 -8 172 26 222 17 24 38 -13 45 -79 9 -78 15 -92 26 -61 12 30 26 40
61 40 25 0 27 -2 18 -24 -5 -13 -5 -49 -1 -82 5 -32 4 -73 -1 -90 -9 -36 -38
-55 -38 -26 0 19 -18 42 -33 42 -4 0 -7 -12 -5 -27 2 -20 14 -32 47 -49 24
-12 48 -29 53 -38 12 -22 3 -46 -17 -46 -8 0 -15 -4 -15 -10 0 -5 8 -10 18
-10 10 0 28 -7 40 -16 25 -17 31 -50 7 -40 -8 3 -22 9 -30 12 -8 3 -15 1 -15
-5 0 -15 63 -45 140 -66 36 -9 86 -28 112 -41 40 -20 51 -22 73 -12 20 9 40 9
88 -1 103 -21 157 -56 157 -102 0 -27 2 -28 58 -31 l57 -3 -2 -31 c-4 -54 23
-68 134 -70 93 -1 97 -2 121 -30 l26 -29 -40 -3 c-61 -5 -66 -22 -6 -22 28 0
74 -9 102 -20 60 -24 88 -25 116 -6 19 13 26 13 63 -6 58 -29 141 -26 286 10
66 17 141 33 168 37 46 6 47 5 47 -19 l0 -26 110 0 c75 0 163 9 282 29 95 17
250 37 343 46 194 18 270 34 335 73 63 37 38 38 -124 7 -160 -31 -216 -30
-231 3 -6 13 -18 22 -32 22 -18 0 -23 6 -23 25 0 18 -8 28 -27 36 -50 20 -58
26 -61 47 -4 25 -4 25 183 56 182 31 260 56 312 101 35 29 45 33 77 28 28 -4
44 0 74 20 59 38 101 47 292 57 270 15 299 19 310 41 13 23 12 23 -33 4 -51
-21 -157 -19 -273 6 -170 35 -285 26 -298 -25 -5 -19 -19 -26 -88 -45 -182
-47 -353 -66 -483 -53 -60 6 -74 5 -97 -12 -33 -23 -101 -23 -170 0 -47 15
-49 17 -32 35 32 36 104 61 229 80 69 10 138 25 154 33 29 15 85 74 93 97 2 7
9 9 17 5 9 -6 11 -21 6 -52 -4 -29 -2 -44 4 -44 6 0 11 5 11 10 0 15 61 50 87
50 12 0 31 -9 41 -20 18 -20 19 -20 39 2 12 13 44 71 72 130 57 119 85 148
128 132 35 -12 38 -27 11 -39 -28 -12 -65 -84 -74 -144 l-7 -44 61 7 c34 4 98
18 144 31 46 14 107 28 136 31 41 5 52 10 52 25 0 28 38 46 111 52 74 7 99 16
183 66 l60 36 166 -3 c148 -3 172 -1 222 18 83 31 141 73 236 174 248 260 285
294 373 335 46 22 95 49 109 61 l25 21 -25 -6 c-50 -14 -118 -48 -260 -130
-80 -46 -152 -87 -162 -90 -27 -10 -33 30 -9 61 11 14 18 31 15 38 -4 10 2 12
19 9 19 -4 32 6 68 48 l43 52 -64 -7 c-97 -10 -166 -33 -205 -67 -31 -27 -40
-30 -73 -24 -20 4 -43 12 -51 18 -11 9 -16 8 -25 -7 -28 -46 -49 -66 -72 -66
-29 0 -30 8 -7 49 19 32 14 47 -12 38 -8 -4 -15 -18 -15 -34 0 -37 -21 -67
-102 -144 -38 -35 -68 -70 -68 -76 0 -16 45 -38 94 -47 l38 -7 -7 37 -7 37 41
-42 c23 -24 41 -44 41 -46 0 -8 -99 -65 -113 -65 -8 0 -42 27 -75 60 -50 50
-66 60 -95 60 -22 0 -40 -7 -53 -22 -10 -12 -13 -18 -6 -14 7 4 22 4 33 1 18
-6 20 -12 14 -41 -7 -39 1 -42 47 -18 40 21 56 6 32 -31 -16 -24 -107 -85
-128 -85 -5 0 -2 8 7 18 23 25 21 64 -4 91 -41 44 -130 66 -157 39 -16 -16
-15 -39 1 -35 8 1 13 -18 15 -65 l3 -68 -38 0 c-23 0 -58 -12 -90 -30 -29 -17
-77 -43 -105 -60 -64 -36 -91 -37 -123 -6 l-23 23 -18 -39 c-21 -48 -67 -88
-100 -88 -13 0 -24 2 -24 5 0 2 15 25 33 51 27 38 32 55 33 104 0 33 6 66 13
74 6 7 36 24 66 36 62 25 68 35 26 36 -49 2 -64 12 -58 40 3 20 1 24 -11 19
-39 -15 -102 -17 -118 -4 -13 11 -15 11 -13 -2 2 -7 -3 -29 -10 -47 -10 -25
-11 -36 -2 -45 8 -8 11 -6 11 11 0 26 40 55 69 50 21 -3 21 -3 -3 -53 -14 -32
-33 -55 -50 -63 -40 -18 -55 -15 -49 9 4 12 0 25 -8 30 -22 13 -27 11 -31 -13
-2 -19 -14 -26 -72 -40 -76 -18 -113 -42 -82 -54 10 -4 35 3 61 17 41 22 46
22 61 8 12 -12 13 -22 6 -35 -5 -11 -13 -37 -17 -59 -8 -46 -30 -75 -57 -75
-17 0 -19 5 -13 30 8 38 -4 39 -75 6 -38 -18 -59 -22 -78 -16 -15 4 -33 9 -41
11 -8 3 -18 -11 -26 -37 -15 -52 -36 -82 -72 -105 -42 -28 -68 -24 -83 11 -12
28 -30 41 -30 21 0 -5 -14 -23 -31 -40 -21 -22 -40 -31 -62 -31 -38 0 -68 16
-51 28 6 4 21 26 33 49 27 54 62 79 90 64 37 -20 67 -13 91 22 12 17 51 54 87
80 57 43 103 96 103 120 0 15 -43 -4 -105 -44 -58 -39 -59 -39 -67 -18 -13 34
9 87 42 104 20 11 65 15 147 17 75 0 102 3 74 7 -25 3 -46 11 -48 17 -5 15 61
72 93 80 19 5 29 2 36 -10 8 -15 11 -15 40 0 55 28 136 113 154 160 24 62 10
66 -20 7 -43 -85 -112 -131 -155 -104 -11 7 -7 18 21 53 40 48 98 140 98 154
0 5 -4 3 -9 -5 -5 -8 -33 -26 -62 -40 -56 -28 -75 -51 -40 -51 12 0 21 -2 21
-5 0 -14 -146 -177 -175 -195 -32 -20 -66 -26 -78 -14 -3 3 10 26 29 51 37 49
39 55 24 84 -11 19 -12 19 -54 -6 -45 -26 -131 -43 -162 -31 -16 6 -16 8 1 26
17 18 16 21 -9 65 -15 25 -29 45 -31 45 -7 0 -35 -32 -35 -40 0 -5 7 -7 15 -4
11 5 15 -1 15 -23 0 -16 -5 -34 -12 -41 -17 -17 -69 -15 -96 4 -20 14 -22 14
-22 -3 0 -46 -56 -56 -127 -24 l-42 19 -3 -26 c-2 -21 -9 -28 -30 -30 -26 -3
-26 -3 -10 -32 14 -25 15 -35 4 -74 -6 -26 -12 -56 -12 -69 0 -22 1 -22 20 3
11 14 31 58 46 98 31 84 51 92 99 42 l29 -30 13 25 c10 18 22 25 44 25 25 0
61 -12 77 -25 10 -9 -134 -264 -195 -344 -41 -54 -42 -66 -3 -46 53 28 84 13
56 -27 -9 -12 -16 -30 -16 -38 0 -38 -24 -50 -141 -70 -64 -11 -232 -49 -374
-85 -248 -63 -413 -94 -502 -95 -39 0 -43 2 -43 24 0 36 -18 41 -40 13 -11
-14 -31 -28 -45 -31 -30 -8 -93 17 -101 39 -6 14 -9 14 -23 2 -21 -19 -77 -37
-113 -37 -28 0 -28 0 -12 25 13 20 14 28 4 40 -11 13 -16 13 -41 0 -38 -20
-65 -12 -140 41 -68 48 -117 62 -78 23 20 -20 21 -22 4 -32 -31 -17 -90 10
-152 68 -31 30 -59 55 -60 55 -2 0 -1 -11 3 -25 l6 -25 -53 33 c-71 43 -119
90 -119 116 0 18 3 20 19 11 11 -5 31 -10 45 -10 24 0 26 3 26 50 0 63 -19
110 -56 139 -21 16 -31 35 -35 64 -3 23 -9 49 -13 59 -5 12 -3 16 11 15 12 -2
24 12 38 41 l20 43 75 -2 c79 -3 140 7 140 22 0 5 -11 9 -25 9 -53 0 -22 18
51 30 119 19 175 39 211 75 38 38 45 71 13 61 -11 -3 -29 -9 -40 -12 -28 -9
-25 12 4 31 33 22 133 56 186 64 40 6 45 9 50 36 4 24 11 31 35 35 36 6 40 31
8 45 -13 5 -23 17 -23 27 0 18 13 22 123 33 l57 6 0 45 c0 39 -3 44 -27 51
-16 5 -60 7 -99 7 -124 -2 -234 -76 -234 -156 l0 -30 31 26 c36 31 59 33 59 7
0 -67 -143 -159 -262 -168 -72 -6 -138 2 -138 17 0 6 11 10 25 10 14 0 25 5
25 11 0 8 -23 10 -73 7 -66 -4 -84 -11 -210 -76 -76 -40 -145 -72 -154 -72
-23 0 -43 31 -32 52 5 9 36 33 69 53 47 28 60 42 60 61 0 29 -1 29 -50 4 -53
-27 -80 -27 -73 1 5 20 3 21 -23 16 -46 -9 -90 19 -134 85 -22 33 -40 64 -40
69 0 6 -13 33 -30 62 -29 50 -30 51 -30 21z m688 -375 c56 -15 63 -23 33 -39
-28 -15 -75 -12 -123 7 -56 21 -56 22 -33 39 21 16 36 15 123 -7z m3832 -79
c0 -13 -7 -20 -20 -20 -13 0 -20 7 -20 20 0 13 7 20 20 20 13 0 20 -7 20 -20z
m-3950 -65 c0 -18 -5 -25 -20 -25 -15 0 -20 7 -20 25 0 18 5 25 20 25 15 0 20
-7 20 -25z m3750 -35 c0 -13 -48 -36 -56 -27 -4 3 -4 13 -1 22 7 17 57 21 57
5z m-1535 -10 c8 -13 -59 -85 -116 -122 -40 -26 -47 -34 -39 -49 18 -33 11
-70 -19 -100 -33 -33 -78 -41 -66 -11 4 9 20 55 37 102 37 105 70 157 111 175
37 17 83 19 92 5z m-235 -334 c0 -17 -35 -40 -73 -50 -25 -6 -28 -4 -25 16 5
37 98 69 98 34z m-2092 -341 c1 -1 0 -10 -4 -19 -10 -25 -48 -16 -52 12 -3 20
-1 22 25 16 15 -4 29 -8 31 -9z m2299 -99 c-10 -8 -27 -12 -37 -9 -33 9 -22
23 18 23 33 -1 35 -2 19 -14z m-693 -82 c-15 -22 -15 -27 -3 -34 10 -7 2 -14
-31 -29 -84 -38 -225 -21 -269 33 -13 16 -12 17 15 9 16 -4 62 -7 102 -6 55 1
83 7 120 26 26 13 55 25 65 26 17 1 17 0 1 -25z m-1071 -27 c32 -12 36 -16 23
-26 -22 -18 -118 13 -109 36 6 16 22 14 86 -10z m437 -32 c14 -14 29 -25 33
-25 3 0 22 14 41 31 39 34 69 35 74 2 3 -18 -3 -23 -33 -29 -26 -5 -35 -11
-33 -23 3 -13 18 -17 75 -19 54 -2 73 -7 77 -19 5 -12 1 -14 -18 -9 -35 9 -56
-3 -56 -31 0 -20 -4 -24 -17 -18 -10 4 -52 11 -93 14 -78 7 -124 24 -117 44 4
13 33 13 79 2 24 -6 26 -5 21 14 -8 31 -28 38 -123 43 -47 3 -93 9 -103 13
-15 6 -16 4 -9 -16 6 -17 24 -29 58 -40 44 -14 46 -16 24 -22 -14 -3 -59 -9
-101 -13 -83 -7 -135 4 -163 35 -15 17 -15 19 -1 25 9 3 35 -1 58 -9 58 -20
77 -19 77 5 0 13 -9 22 -27 26 -60 13 -55 17 32 30 50 8 97 16 105 18 38 12
114 -4 140 -29z m960 -65 c41 -12 77 -37 67 -47 -4 -3 -42 1 -84 10 -43 10
-96 19 -118 20 -39 3 -39 3 -15 14 32 15 104 16 150 3z m237 -34 c-10 -8 -27
-12 -37 -9 -33 9 -22 23 18 23 33 -1 35 -2 19 -14z"/>
<path d="M6500 3851 c-8 -4 -39 -20 -68 -35 -29 -15 -60 -25 -69 -22 -24 9
-88 -5 -71 -15 23 -15 134 -11 148 6 7 8 30 25 51 37 47 26 55 53 9 29z"/>
<path d="M6053 3774 c-21 -9 -15 -26 7 -19 32 10 36 -21 6 -56 -15 -17 -24
-34 -20 -38 4 -3 9 0 11 7 10 27 36 42 74 42 37 0 39 2 39 30 0 27 -3 30 -32
30 -18 0 -42 2 -53 5 -11 2 -26 2 -32 -1z"/>
<path d="M4862 3698 c-32 -65 -21 -98 13 -42 24 39 32 79 18 87 -5 2 -19 -18
-31 -45z"/>
<path d="M6367 3743 c-9 -8 24 -32 46 -33 10 0 17 7 17 20 0 15 -7 20 -28 20
-16 0 -32 -3 -35 -7z"/>
<path d="M6256 3697 c-28 -21 -16 -41 12 -22 22 16 30 35 14 35 -5 0 -16 -6
-26 -13z"/>
<path d="M1430 3651 c0 -26 4 -31 24 -31 36 0 37 12 5 38 l-29 24 0 -31z"/>
<path d="M4581 3609 c-24 -34 -60 -79 -79 -101 -19 -21 -32 -38 -30 -38 17 0
122 37 161 56 49 25 127 90 127 105 0 21 -32 7 -48 -21 -26 -45 -50 -39 -54
12 -4 63 -26 59 -77 -13z"/>
<path d="M6926 3635 c-66 -23 -76 -47 -10 -26 16 5 50 12 77 16 26 3 45 10 42
16 -9 13 -64 10 -109 -6z"/>
<path d="M3972 3597 c-7 -26 -32 -66 -67 -105 -61 -70 -68 -96 -30 -106 40
-10 32 -43 -15 -62 -45 -18 -51 -31 -17 -36 41 -6 33 -47 -41 -210 -38 -84
-72 -164 -75 -178 -6 -24 -4 -23 22 8 15 17 34 32 42 32 11 0 15 14 15 53 1
41 12 77 52 162 67 146 76 177 69 242 -5 51 -3 58 34 115 36 57 50 110 31 122
-5 3 -13 -14 -20 -37z"/>
<path d="M4130 3598 c0 -7 -28 -38 -61 -69 l-62 -57 21 -22 21 -23 7 27 c3 15
16 33 27 41 22 16 58 20 56 8 -4 -22 4 -32 30 -41 26 -9 31 -7 50 19 11 15 21
33 21 39 0 14 -17 13 -22 -2 -7 -20 -29 2 -48 48 -18 41 -40 59 -40 32z"/>
<path d="M4792 3583 c-36 -17 -72 -58 -72 -80 0 -16 95 53 105 76 8 21 3 21
-33 4z"/>
<path d="M7360 3524 c-17 -43 -13 -54 20 -54 31 0 37 9 19 27 -8 8 -8 17 0 32
10 18 9 21 -9 21 -13 0 -24 -10 -30 -26z"/>
<path d="M7738 3517 c-38 -11 -52 -27 -23 -27 12 0 15 -7 10 -32 l-6 -33 63 0
c106 -1 193 -48 213 -114 7 -22 5 -23 -16 -17 -64 17 -105 18 -118 2 -8 -9
-12 -19 -9 -22 3 -2 43 -12 89 -20 122 -23 169 -54 169 -111 0 -28 -4 -28 -46
-3 -20 13 -35 17 -39 10 -3 -5 0 -10 7 -10 10 0 10 -2 0 -9 -10 -6 -2 -11 24
-16 80 -15 123 -48 202 -156 52 -72 92 -109 145 -134 40 -20 42 -22 39 -63 -3
-46 1 -48 75 -43 26 2 39 -4 58 -28 61 -72 211 -173 312 -209 26 -10 104 -55
173 -101 148 -100 363 -206 515 -256 61 -20 130 -49 155 -65 82 -53 229 -120
336 -156 117 -38 217 -52 309 -44 l60 5 -75 12 c-41 7 -133 31 -204 53 -70 22
-152 43 -182 46 -49 6 -55 9 -65 39 -11 28 -18 33 -73 44 -82 17 -197 73 -248
121 -31 30 -49 40 -75 40 -53 0 -136 34 -241 98 -103 63 -181 105 -222 117
-14 4 -45 25 -70 45 -52 43 -164 112 -266 163 -60 30 -103 68 -282 244 -176
173 -217 219 -244 273 -43 85 -153 195 -292 293 -60 43 -111 76 -115 76 -3 -1
-23 -6 -43 -12z"/>
<path d="M5691 3424 c-28 -36 -26 -48 4 -28 14 9 25 25 25 35 0 25 -5 24 -29
-7z"/>
<path d="M5450 3370 c-19 -16 -30 -29 -24 -30 5 0 23 14 39 30 37 38 29 39
-15 0z"/>
<path d="M5234 3348 l-29 -33 33 29 c17 17 32 31 32 33 0 8 -8 1 -36 -29z"/>
<path d="M6351 3259 c-84 -124 -214 -182 -561 -250 -215 -42 -350 -78 -412
-110 -21 -10 -56 -19 -78 -19 -44 0 -104 -21 -132 -47 -19 -17 -24 -48 -9 -57
4 -3 62 13 127 35 292 98 510 150 712 168 136 13 138 13 282 161 58 59 115
113 128 121 16 10 21 19 17 32 -12 30 -39 18 -74 -34z"/>
<path d="M3420 3250 c0 -12 -9 -33 -20 -47 l-20 -26 20 -14 c14 -10 20 -25 20
-51 0 -63 18 -22 25 58 6 63 4 78 -9 89 -14 12 -16 10 -16 -9z"/>
<path d="M1022 3238 c7 -19 34 -32 53 -24 14 5 15 9 5 21 -15 18 -63 20 -58 3z"/>
<path d="M5197 3213 c-11 -11 -8 -33 5 -33 6 0 20 -7 30 -17 17 -15 18 -15 18
8 0 37 -33 63 -53 42z"/>
<path d="M4118 3180 c-9 -14 -29 -59 -44 -100 -14 -41 -35 -87 -46 -102 -24
-35 -9 -36 31 -3 46 40 83 123 79 181 l-3 49 -17 -25z"/>
<path d="M3180 3120 c0 -14 -8 -20 -32 -22 -46 -4 -46 -25 1 -39 23 -7 43 -10
45 -8 2 2 7 20 11 40 5 28 3 38 -9 42 -11 5 -16 1 -16 -13z"/>
<path d="M3477 2952 c-42 -73 -77 -134 -77 -137 0 -3 6 -5 14 -5 22 0 83 80
91 120 4 19 18 57 32 83 13 27 23 53 21 59 -2 6 -39 -48 -81 -120z"/>
<path d="M3930 3060 c-8 -5 -23 -11 -32 -14 -15 -4 -16 -9 -7 -30 15 -33 6
-54 -26 -58 -29 -3 -37 -21 -11 -26 28 -6 96 70 96 107 0 17 -1 31 -2 30 -2 0
-10 -4 -18 -9z"/>
<path d="M3614 2981 c-17 -39 -30 -52 -63 -67 -42 -18 -47 -36 -19 -71 13 -16
38 -17 38 -1 0 6 17 34 39 62 46 61 55 86 39 109 -11 14 -16 10 -34 -32z"/>
<path d="M7239 3011 c-18 -15 -21 -22 -13 -31 8 -8 14 -9 18 -1 4 6 24 11 45
11 35 0 61 14 61 32 0 17 -88 8 -111 -11z"/>
<path d="M3352 2985 c-27 -30 -58 -103 -48 -112 7 -7 78 62 92 89 33 63 4 78
-44 23z"/>
<path d="M3205 2944 c-40 -76 -79 -108 -119 -99 -17 3 -63 10 -103 15 -40 4
-77 11 -84 15 -7 5 -10 1 -7 -10 1 -10 11 -22 21 -26 9 -5 25 -13 35 -18 10
-5 16 -18 15 -30 -3 -21 -2 -21 19 -7 19 14 24 13 50 -9 16 -14 35 -25 41 -25
16 0 154 161 167 194 27 73 4 73 -35 0z"/>
<path d="M6423 2864 c-88 -19 -349 -131 -311 -133 41 -2 353 112 383 140 11
11 7 11 -72 -7z"/>
<path d="M7094 2850 c-23 -9 -39 -28 -31 -36 8 -9 106 17 118 32 10 12 5 14
-27 13 -22 0 -49 -4 -60 -9z"/>
<path d="M1774 2802 c-8 -22 -6 -29 10 -37 11 -5 23 -23 27 -40 4 -16 10 -42
13 -57 7 -32 46 -41 46 -10 -1 30 -25 86 -56 129 l-31 41 -9 -26z"/>
<path d="M7622 2818 c-19 -19 -15 -48 7 -48 12 0 23 11 30 30 9 26 8 30 -8 30
-9 0 -22 -5 -29 -12z"/>
<path d="M2870 2775 c0 -10 10 -15 33 -15 30 1 31 1 13 15 -25 19 -46 19 -46
0z"/>
<path d="M8092 2743 c2 -22 13 -33 48 -50 57 -28 63 -28 55 0 -10 31 -24 43
-68 62 l-38 16 3 -28z"/>
<path d="M8127 2620 c-3 -11 -13 -23 -24 -26 -74 -27 -85 -34 -74 -48 10 -12
22 -8 77 26 35 22 64 42 64 44 0 2 -9 8 -19 13 -15 9 -20 7 -24 -9z"/>
<path d="M1870 2587 c0 -37 24 -77 46 -77 20 0 19 74 -2 94 -26 27 -44 20 -44
-17z"/>
<path d="M5215 2520 c-11 -18 121 -18 139 0 7 7 -12 10 -61 10 -40 0 -75 -4
-78 -10z"/>
<path d="M8163 2484 c-33 -14 -45 -34 -20 -34 13 0 77 37 77 45 0 8 -23 4 -57
-11z"/>
<path d="M1915 2470 c-3 -5 -2 -10 3 -10 6 0 15 -14 21 -31 12 -34 43 -38 49
-6 7 36 -55 76 -73 47z"/>
<path d="M5243 2464 c-7 -3 -13 -10 -13 -15 0 -12 117 -12 125 1 3 6 -4 10
-18 10 -14 0 -37 2 -53 5 -16 2 -35 2 -41 -1z"/>
<path d="M2350 2402 c0 -44 39 -52 133 -25 54 15 58 18 41 30 -11 8 -47 13
-96 13 -68 0 -78 -2 -78 -18z"/>
<path d="M5391 2406 c-14 -17 11 -41 34 -32 21 7 19 23 -4 35 -14 8 -22 7 -30
-3z"/>
<path d="M4570 2376 c0 -7 -10 -21 -22 -29 l-23 -16 26 0 c31 -1 54 22 45 44
-7 19 -26 20 -26 1z"/>
<path d="M7952 2376 c-33 -11 -34 -26 -2 -26 17 0 47 27 39 34 -2 2 -19 -2
-37 -8z"/>
<path d="M4627 2373 c-4 -3 -7 -9 -7 -12 0 -9 82 -12 110 -5 l25 7 -30 7 c-40
10 -90 12 -98 3z"/>
<path d="M7848 2369 c-20 -11 -24 -44 -8 -54 6 -3 10 -2 10 4 0 5 9 13 20 16
11 3 20 15 20 26 0 21 -15 24 -42 8z"/>
<path d="M1770 2324 c-63 -13 -145 -27 -182 -30 l-68 -7 30 -34 c16 -18 39
-52 51 -74 20 -39 21 -40 34 -21 20 27 55 32 128 16 34 -7 76 -13 93 -14 29 0
33 -4 43 -42 6 -24 15 -49 20 -57 13 -20 31 -4 31 29 0 49 19 44 77 -20 31
-33 82 -79 113 -100 63 -43 137 -76 147 -66 4 3 1 6 -5 6 -7 0 -12 7 -12 15 0
32 52 12 112 -43 26 -24 48 -23 48 2 0 20 -26 38 -94 66 -52 21 -61 29 -61 50
0 28 -11 40 -40 40 -78 1 -129 46 -86 76 26 19 27 44 2 44 -30 0 -44 25 -36
68 5 29 2 42 -10 52 -14 11 -17 10 -22 -8 -7 -28 -20 -28 -44 1 -23 28 -24 57
-1 57 14 0 15 2 2 10 -26 17 -151 10 -270 -16z"/>
<path d="M4810 2189 c-116 -18 -121 -29 -10 -25 61 2 122 10 145 19 l40 16
-60 -1 c-33 0 -85 -4 -115 -9z"/>
<path d="M2510 2100 c0 -5 13 -18 29 -29 31 -22 131 -30 131 -11 0 6 -25 10
-55 10 -30 0 -55 4 -55 8 0 5 -11 14 -25 20 -14 6 -25 7 -25 2z"/>
<path d="M3440 2050 l0 -42 33 6 c75 16 167 19 197 6 44 -18 32 -34 -31 -40
-78 -7 -37 -20 65 -20 83 0 83 0 79 24 -6 29 23 51 80 61 69 13 38 22 -100 29
-76 3 -180 9 -230 12 l-93 7 0 -43z"/>
<path d="M275 2049 c4 -13 21 -48 36 -78 16 -30 29 -63 29 -75 0 -16 10 -24
40 -34 22 -6 46 -12 54 -12 7 0 16 -13 19 -29 4 -17 29 -52 62 -84 30 -31 55
-60 55 -66 0 -5 28 -25 63 -43 45 -24 106 -76 227 -194 91 -88 187 -173 213
-189 53 -30 155 -65 194 -65 17 0 41 -17 76 -53 29 -30 103 -85 167 -125 63
-39 135 -87 159 -108 40 -35 49 -38 110 -40 44 -2 67 -7 70 -16 10 -31 83 -86
157 -117 43 -18 124 -59 179 -91 199 -117 307 -151 495 -155 125 -3 125 -3
149 -32 l23 -29 56 14 c38 10 78 12 128 7 66 -6 112 -20 329 -98 107 -39 239
-50 462 -37 138 7 229 18 338 40 172 35 289 39 448 14 191 -29 209 -31 251
-22 77 15 290 28 756 43 737 24 1062 52 1348 116 120 26 339 60 430 66 89 5
102 4 102 -10 0 -9 5 -19 12 -23 7 -5 9 -2 5 8 -22 59 124 120 413 172 213 39
354 49 570 43 l195 -5 22 24 22 24 53 -19 c79 -29 147 -40 313 -51 203 -13
232 -18 292 -48 l52 -26 67 17 c66 16 69 16 214 -13 163 -33 387 -63 585 -79
137 -12 555 -31 640 -30 l50 0 -48 13 c-27 7 -53 18 -59 24 -19 19 36 25 77 8
20 -9 47 -13 60 -10 18 4 25 1 30 -15 3 -11 3 -26 -1 -32 -14 -22 81 -3 132
27 l49 29 -43 6 c-42 5 -62 20 -62 47 0 14 75 16 135 2 49 -11 57 -4 25 22
-21 17 -34 20 -90 14 -42 -3 -86 0 -125 9 -77 18 -116 19 -141 0 -18 -13 -17
-14 18 -15 36 0 88 -17 88 -29 0 -3 -37 -4 -83 -3 -45 2 -109 -1 -142 -7 -50
-9 -60 -9 -68 4 -4 8 -22 15 -38 15 -24 0 -30 4 -27 18 4 19 0 19 91 8 56 -7
72 -6 84 7 25 24 -17 41 -83 32 -57 -7 -94 5 -94 31 0 18 34 32 128 50 109 21
255 17 447 -11 402 -60 503 -66 650 -40 49 9 81 11 83 5 2 -6 25 -10 52 -10
39 0 54 -5 77 -28 16 -15 44 -35 62 -45 18 -9 35 -26 38 -37 6 -21 23 -24 133
-21 147 4 270 65 270 134 0 15 5 18 20 13 11 -3 29 -9 39 -12 18 -5 19 -1 17
65 -2 39 -9 77 -16 86 -11 13 -6 22 32 58 55 52 83 118 76 182 -13 115 -127
255 -259 318 -75 36 -184 62 -212 51 -11 -4 -42 17 -92 61 -289 251 -683 380
-987 321 -98 -19 -129 -32 -122 -50 3 -9 -5 -19 -22 -28 -40 -19 -35 -33 14
-35 40 -3 42 -2 36 22 -5 21 -1 27 22 36 70 26 179 41 282 37 98 -3 114 -6
174 -36 58 -28 129 -94 116 -107 -2 -3 -21 5 -42 16 l-38 20 7 -21 c8 -26 -8
-26 -45 0 -16 11 -43 23 -62 26 l-33 6 42 -38 c37 -34 98 -132 88 -142 -2 -2
-20 5 -42 16 -21 11 -87 34 -146 51 -58 17 -113 34 -121 37 -12 4 -13 -1 -6
-29 10 -45 -16 -106 -58 -135 -16 -12 -33 -22 -36 -22 -4 0 -35 22 -70 49
l-62 49 -11 -29 c-11 -27 -43 -41 -43 -19 0 17 -82 50 -125 50 -22 0 -55 -4
-73 -9 -27 -8 -36 -7 -53 10 -15 15 -33 19 -90 19 -75 0 -124 11 -304 65 -126
38 -205 52 -205 37 0 -6 -10 -8 -22 -5 -43 9 61 -76 136 -111 87 -41 159 -64
341 -111 77 -20 173 -48 214 -62 59 -20 78 -23 95 -14 56 30 86 31 170 7 115
-34 251 -49 407 -45 l135 4 64 39 c54 33 73 39 110 37 25 -1 164 -3 310 -4
247 -2 268 -3 311 -23 55 -26 94 -74 107 -131 11 -49 9 -53 -30 -53 -46 0 -97
26 -108 56 -13 32 -6 42 15 24 32 -27 26 1 -8 35 -25 25 -44 35 -66 35 l-31 0
0 -84 c0 -110 -26 -183 -47 -130 -3 9 -13 14 -24 11 -15 -4 -17 -2 -9 13 15
28 12 80 -4 80 -8 0 -17 -7 -20 -17 -6 -14 -12 -11 -42 18 l-36 34 7 -35 c5
-32 -2 -107 -21 -200 -6 -33 -5 -34 9 -16 13 18 18 19 54 7 32 -11 45 -11 64
-1 l24 13 -22 -25 c-23 -24 -31 -58 -15 -58 42 0 116 37 173 86 64 56 124 93
134 82 4 -3 -14 -47 -39 -97 -25 -50 -46 -104 -46 -120 0 -18 13 -47 35 -75
19 -26 35 -48 35 -50 0 -3 -33 -12 -72 -21 -104 -23 -169 -12 -393 70 -55 20
-129 43 -164 50 -73 16 -95 9 -145 -43 -15 -17 -41 -36 -58 -43 -25 -10 -31
-9 -43 7 -21 27 -19 31 24 60 58 38 65 73 9 43 -12 -6 -48 -31 -81 -55 -61
-45 -91 -53 -120 -31 -16 11 -11 17 43 65 33 29 60 57 60 62 0 5 -30 -9 -67
-31 -126 -73 -213 -86 -297 -42 l-34 18 88 75 c106 89 141 106 181 90 59 -25
55 -34 -36 -94 -88 -59 -102 -76 -61 -76 25 0 51 18 143 101 44 39 70 53 151
78 114 35 152 60 152 99 0 54 -15 58 -56 13 -36 -41 -99 -81 -126 -81 -6 0 2
15 19 32 56 60 51 102 -10 79 -15 -6 -68 -17 -119 -26 -51 -8 -108 -18 -125
-21 -30 -4 -33 -8 -33 -40 0 -19 -6 -47 -14 -63 -26 -50 -125 -103 -258 -136
-34 -9 -71 -19 -82 -22 -35 -10 -5 17 77 71 77 50 131 96 112 96 -5 0 -53 -21
-108 -46 -54 -26 -114 -50 -133 -54 -31 -7 -34 -6 -34 15 0 12 -7 28 -15 35
-22 19 -45 4 -45 -28 0 -51 -21 -57 -76 -23 -58 36 -124 64 -124 54 0 -5 5
-25 10 -45 16 -55 0 -80 -48 -76 -29 2 -38 8 -44 28 -4 14 -13 45 -20 70 -11
38 -17 46 -40 48 -31 4 -33 -2 -13 -38 27 -47 14 -130 -20 -130 -8 0 -29 19
-46 42 -26 37 -30 50 -27 96 3 51 2 52 -25 52 -15 0 -39 -7 -52 -16 l-25 -16
24 -24 c13 -14 29 -44 35 -68 6 -24 13 -51 17 -60 8 -22 -37 -39 -71 -26 -32
12 -32 36 -1 44 13 3 26 12 29 19 4 11 -5 13 -43 9 l-49 -4 -12 46 c-7 30 -21
53 -35 63 l-23 15 26 22 c20 17 27 34 31 77 l5 54 -20 -25 c-11 -14 -34 -53
-51 -87 -33 -63 -75 -103 -111 -103 -24 0 -26 15 -6 50 22 38 18 50 -15 50
-23 0 -44 -12 -79 -45 -58 -54 -111 -75 -111 -44 0 10 14 31 30 46 31 27 40
63 16 63 -8 0 -16 -7 -20 -15 -10 -27 -44 -16 -77 24 l-31 39 -28 -32 c-16
-18 -53 -45 -82 -60 -59 -32 -108 -73 -108 -92 0 -8 36 -14 110 -19 93 -6 115
-4 135 9 32 21 38 20 30 -4 -10 -32 16 -33 76 -5 67 31 99 33 99 5 0 -10 -9
-24 -20 -30 -31 -16 -24 -27 20 -33 62 -8 90 -31 90 -73 0 -78 -47 -137 -92
-113 -21 11 -21 12 -3 25 10 8 25 14 32 14 7 0 13 4 13 9 0 5 -9 7 -19 4 -19
-5 -44 15 -68 53 -11 18 -12 18 -12 -4 -2 -49 -18 -62 -74 -61 -39 1 -66 -5
-105 -25 -53 -27 -72 -27 -72 0 0 21 -18 17 -25 -6 -5 -17 -15 -20 -65 -20
-32 0 -62 5 -65 10 -4 7 -11 8 -18 1 -24 -19 -84 -21 -167 -6 -262 49 -267 49
-359 24 -8 -2 -17 7 -22 24 -4 16 -13 35 -20 43 -10 12 -14 12 -26 -6 -21 -29
-44 -25 -101 20 -27 22 -52 40 -55 40 -2 0 -7 -14 -10 -30 -6 -29 -8 -30 -67
-30 -33 0 -60 2 -60 6 0 3 10 23 22 44 28 48 17 63 -18 25 -23 -25 -30 -27
-70 -21 -24 3 -70 19 -102 35 l-59 30 5 54 c3 34 0 57 -7 61 -7 5 -11 -6 -11
-33 0 -50 -15 -91 -34 -91 -8 0 -28 8 -45 17 -30 18 -32 18 -80 -9 -27 -16
-60 -28 -74 -28 -24 0 -24 1 -14 44 5 24 7 52 2 62 -6 18 -8 17 -16 -4 -7 -18
-16 -22 -49 -22 -45 0 -52 -16 -20 -45 20 -19 20 -19 -11 -32 -47 -20 -52 -17
-46 26 4 31 1 44 -14 57 -18 16 -19 16 -19 -5 0 -36 -28 -37 -64 -2 -40 39
-53 40 -26 3 32 -43 37 -101 12 -132 l-21 -25 -43 43 c-24 23 -47 42 -51 42
-4 0 -7 -11 -7 -24 0 -51 -30 -41 -54 18 -13 32 -18 37 -31 26 -20 -17 -19
-25 6 -59 16 -22 19 -33 11 -47 -9 -16 -10 -16 -16 4 -14 43 -44 26 -80 -45
-51 -102 -89 -148 -141 -173 -25 -12 -49 -20 -52 -16 -3 3 15 28 40 55 46 49
64 88 53 116 -9 26 -24 17 -37 -22 -15 -49 -27 -63 -51 -63 -18 0 -19 6 -16
60 1 33 1 60 -2 60 -28 0 -110 -107 -110 -143 0 -11 9 -21 20 -24 20 -5 20 -7
4 -24 -13 -15 -31 -19 -79 -19 -35 0 -67 -5 -74 -12 -17 -16 -14 -8 26 68 29
55 30 61 13 57 -16 -4 -23 3 -35 30 -16 39 -30 53 -39 38 -4 -5 -1 -11 4 -13
12 -4 15 -29 12 -99 -2 -42 -5 -47 -30 -52 -16 -3 -50 -26 -77 -51 -64 -58
-84 -64 -92 -25 -6 32 -23 50 -23 25 0 -26 -21 -29 -42 -6 -15 15 -23 19 -31
11 -8 -8 -8 -14 1 -23 16 -16 15 -41 0 -35 -7 2 -40 -6 -74 -18 -37 -14 -66
-20 -75 -15 -10 7 -6 12 16 20 35 13 75 48 75 66 0 6 -9 14 -20 17 -15 4 -20
14 -20 40 0 20 4 47 10 61 7 21 6 26 -10 31 -11 3 -36 26 -56 51 -58 70 -73
54 -28 -32 14 -27 30 -64 34 -83 8 -33 6 -37 -54 -96 -64 -63 -134 -105 -175
-105 -20 0 -15 9 43 70 56 60 66 76 66 106 l0 36 -18 -22 -18 -22 -27 32 -27
32 0 -52 c0 -62 -19 -110 -55 -138 -66 -52 -70 -10 -8 84 35 53 39 80 7 54 -8
-8 -29 -33 -45 -57 -41 -59 -60 -68 -92 -43 -26 20 -26 20 -32 0 -9 -30 -53
-79 -86 -95 -35 -19 -102 -20 -97 -3 3 7 23 23 46 36 38 21 55 42 34 42 -4 0
-39 -20 -77 -45 -58 -39 -123 -68 -133 -60 -1 1 10 16 26 33 25 27 112 179
112 196 0 3 -9 6 -19 6 -11 0 -32 16 -47 35 -38 50 -61 44 -82 -20 -11 -31
-24 -51 -34 -53 -10 -2 -39 17 -67 43 -45 42 -50 44 -56 26 -3 -11 -23 -28
-43 -38 -34 -17 -37 -21 -34 -56 5 -52 -31 -97 -109 -136 -84 -42 -96 -40 -59
10 32 45 83 171 95 234 l7 40 -27 -29 c-20 -22 -33 -27 -56 -24 -24 4 -29 2
-23 -11 3 -9 8 -45 11 -81 l5 -65 -61 -47 c-58 -46 -142 -80 -158 -64 -4 4 16
30 45 57 47 44 68 89 42 89 -5 0 -10 -5 -10 -10 0 -12 -41 -30 -52 -24 -11 7
16 85 46 132 15 24 26 45 24 47 -2 2 -21 -1 -43 -6 -22 -5 -53 -11 -70 -15
-25 -5 -27 -7 -12 -15 50 -29 38 -83 -32 -138 -37 -29 -119 -66 -128 -57 -2 2
5 19 17 37 24 40 65 166 74 229 l7 45 -28 -32 c-35 -40 -77 -144 -62 -154 16
-10 -13 -69 -52 -106 -46 -44 -219 -117 -219 -93 0 5 21 26 47 47 91 75 123
106 123 120 0 11 -9 7 -31 -11 -17 -14 -37 -26 -46 -26 -20 0 -11 49 28 147
16 40 29 76 29 79 0 4 -31 -23 -70 -59 -89 -85 -106 -94 -120 -67 -13 24 -67
60 -91 60 -10 0 -27 -22 -43 -55 -31 -61 -79 -107 -109 -103 -33 5 -29 21 15
51 27 20 37 32 30 39 -16 16 -53 -1 -107 -53 -82 -77 -134 -89 -151 -34 -10
30 -8 39 13 69 14 18 40 42 58 52 32 17 34 17 61 0 l27 -18 -7 33 c-12 62 -48
98 -82 85 -15 -6 -15 -8 2 -27 22 -24 12 -45 -32 -70 -55 -32 -68 -31 -84 4
-20 42 -64 68 -82 48 -9 -9 -10 -15 -2 -18 25 -9 44 -30 58 -65 l15 -36 -70
-42 c-57 -34 -78 -41 -109 -38 -37 3 -39 2 -45 -31 -8 -42 -29 -75 -61 -96
l-24 -15 0 74 0 74 31 7 c57 13 91 106 41 113 -20 3 -22 0 -17 -21 5 -19 0
-30 -25 -50 -26 -22 -109 -55 -114 -45 0 2 -7 13 -13 25 -19 33 -16 73 8 112
11 18 18 36 15 39 -6 5 -67 -57 -104 -107 -33 -44 -65 -41 -98 9 -31 46 -51
48 -44 4 16 -93 -6 -166 -58 -196 -33 -20 -42 -15 -42 19 0 13 -8 40 -19 61
-10 20 -24 56 -31 79 -13 42 -14 43 -57 43 -54 0 -58 -22 -8 -51 19 -12 35
-29 35 -39 0 -15 -6 -17 -38 -13 -34 5 -133 -23 -222 -61 -12 -5 -15 3 -17 34
-2 37 -1 40 17 30 31 -17 41 -12 91 42 l48 52 -37 13 c-54 19 -62 17 -62 -16
0 -20 -8 -35 -22 -45 -34 -24 -38 -20 -38 30 l0 46 -37 -7 c-39 -7 -99 -37
-188 -93 -47 -30 -158 -63 -170 -50 -3 3 -1 17 5 32 10 26 9 26 -29 20 -23 -4
-60 0 -92 9 -97 27 -129 30 -129 12 0 -9 7 -26 16 -39 22 -35 -1 -44 -32 -13
-25 25 -96 47 -151 47 -95 0 -257 72 -458 204 -197 129 -232 147 -272 140 -47
-9 -125 37 -293 176 -158 130 -208 160 -319 190 -132 37 -173 70 -296 235 -95
128 -104 136 -169 160 -64 23 -126 81 -162 150 -16 30 -35 55 -42 55 -32 0
-77 37 -127 105 -61 82 -81 101 -70 64z m11650 -458 c33 -16 73 -41 89 -57
l29 -29 -27 -3 c-15 -2 -39 4 -54 14 -23 15 -127 97 -142 112 -10 9 47 -10
105 -37z m-121 -37 c24 -23 20 -51 -8 -58 -13 -3 -31 -9 -40 -12 -13 -5 -15 0
-10 27 9 52 12 59 28 59 8 0 22 -7 30 -16z m-219 -370 c-22 -17 -46 -15 -53 4
-2 8 8 12 35 12 36 -1 37 -1 18 -16z m-1755 -84 c0 -16 -40 -48 -67 -53 -34
-6 -88 12 -74 26 5 5 38 15 73 22 35 7 64 13 66 14 1 0 2 -3 2 -9z m2816 -54
c3 -8 -2 -41 -11 -72 -9 -31 -14 -65 -12 -76 7 -25 -5 -23 -33 7 -13 14 -29
25 -37 25 -14 0 -18 47 -5 68 10 15 73 61 85 62 4 0 10 -7 13 -14z m-2396 -66
c0 -17 -7 -20 -41 -20 -42 0 -45 14 -5 30 34 14 46 11 46 -10z m928 -52 c18
-18 16 -44 -2 -29 -10 9 -20 9 -40 0 -35 -16 -47 -2 -17 22 27 22 42 24 59 7z
m-927 -28 c19 -11 19 -11 -1 -50 -13 -25 -29 -42 -46 -46 -33 -9 -37 -2 -25
41 5 20 7 43 4 51 -6 17 38 20 68 4z m1737 -29 c11 -6 8 -13 -13 -29 -34 -27
-115 -45 -185 -40 l-55 3 35 19 c37 21 151 54 185 55 11 0 26 -3 33 -8z
m-4248 -121 c0 -4 -16 -18 -36 -30 -38 -22 -60 -16 -48 13 10 28 84 43 84 17z
m2575 -80 c8 0 15 -5 15 -11 0 -14 -77 -6 -92 9 -21 21 2 32 32 17 16 -8 36
-15 45 -15z m-5345 -83 c0 -15 -58 -67 -74 -67 -26 0 -18 30 17 70 28 32 34
35 45 22 6 -9 12 -20 12 -25z m911 33 c24 -13 24 -19 -5 -53 -21 -27 -24 -27
-40 -12 -9 9 -16 30 -16 46 0 23 4 29 21 29 11 0 29 -5 40 -10z m-1066 -39
c-21 -41 -74 -75 -159 -100 -99 -30 -101 -26 -11 22 45 23 103 58 130 78 28
20 51 35 53 34 2 -2 -4 -17 -13 -34z m1235 34 c0 -29 -72 -111 -118 -135 -40
-20 -132 -49 -132 -42 0 17 90 94 160 136 73 44 90 52 90 41z m-2110 -69 c0
-40 -2 -43 -24 -39 -19 4 -28 -2 -42 -24 -31 -50 -57 -73 -82 -73 -13 0 -22 3
-20 8 43 95 86 147 134 162 16 4 30 9 32 9 1 1 2 -19 2 -43z"/>
<path d="M8344 2056 c-10 -8 -16 -18 -12 -22 9 -9 85 12 93 26 10 16 -59 12
-81 -4z"/>
<path d="M3275 2040 c-6 -10 31 -49 48 -50 4 0 7 14 7 30 0 25 -4 30 -24 30
-14 0 -28 -5 -31 -10z"/>
<path d="M9550 2032 c0 -26 37 -59 51 -45 8 8 6 18 -6 37 -20 30 -45 34 -45 8z"/>
<path d="M8165 2020 c-61 -5 -115 -21 -115 -35 0 -3 33 -5 74 -5 58 0 79 4 97
19 13 11 22 21 19 23 -3 2 -36 1 -75 -2z"/>
<path d="M9692 1958 c8 -12 20 -24 26 -26 20 -6 13 27 -7 38 -30 15 -35 12
-19 -12z"/>
<path d="M3482 1908 c6 -18 22 -20 43 -3 19 14 18 14 -13 15 -22 0 -32 -4 -30
-12z"/>
<path d="M9810 1911 c0 -39 48 -72 102 -70 22 1 26 3 13 6 -11 3 -37 21 -58
39 -37 34 -57 42 -57 25z"/>
<path d="M3938 1820 c-4 -26 -1 -30 19 -30 12 0 52 -14 88 -32 48 -24 68 -29
76 -21 9 9 -2 18 -40 38 -55 27 -73 51 -50 66 9 6 -4 9 -37 9 -50 0 -52 -1
-56 -30z"/>
<path d="M10661 1841 c-18 -12 -8 -16 84 -37 91 -20 250 -24 280 -6 18 10 15
11 -21 12 -23 0 -86 9 -139 20 -103 21 -181 25 -204 11z"/>
<path d="M2500 1808 c-27 -9 -31 -12 -15 -15 47 -10 50 -14 21 -33 l-29 -18
44 -13 c24 -8 83 -13 132 -14 l87 0 0 -42 c0 -33 4 -43 16 -43 9 0 29 -9 45
-21 29 -20 80 -23 85 -4 4 13 -150 131 -223 172 -68 37 -115 46 -163 31z"/>
<path d="M3335 1802 c-16 -4 -28 -12 -26 -17 7 -20 39 -55 50 -55 14 0 14 13
-1 28 -21 21 0 25 42 8 22 -9 57 -16 78 -16 20 -1 54 -7 75 -15 33 -11 38 -11
33 1 -6 17 23 34 59 34 14 0 24 4 21 9 -3 4 -49 11 -103 15 -54 3 -120 8 -148
10 -27 3 -63 2 -80 -2z"/>
<path d="M3860 1790 c12 -22 18 -24 40 -10 11 7 9 11 -13 19 -38 15 -39 14
-27 -9z"/>
<path d="M10090 1802 c0 -17 39 -44 55 -39 22 9 18 22 -10 35 -31 14 -45 15
-45 4z"/>
<path d="M11037 1743 c-15 -14 -6 -24 20 -21 34 4 43 28 11 28 -14 0 -28 -3
-31 -7z"/>
<path d="M4172 1528 c-19 -19 -14 -28 16 -28 34 0 57 14 48 29 -9 15 -49 14
-64 -1z"/>
<path d="M4970 1475 c-70 -52 -68 -82 3 -46 36 18 53 33 55 49 4 29 -15 28
-58 -3z"/>
<path d="M3280 1466 c0 -23 37 -39 76 -31 45 8 43 22 -3 27 -21 3 -46 8 -55
12 -13 6 -18 4 -18 -8z"/>
<path d="M3870 1440 c0 -21 40 -38 59 -25 18 10 13 21 -14 33 -36 17 -45 15
-45 -8z"/>
<path d="M5066 1439 c-30 -24 -34 -39 -8 -39 24 0 62 28 62 46 0 20 -23 17
-54 -7z"/>
<path d="M9110 1402 c-16 -13 -21 -25 -17 -36 6 -16 9 -16 37 4 30 21 35 40
13 47 -5 2 -20 -5 -33 -15z"/>
<path d="M9242 1373 c4 -20 30 -28 56 -18 16 6 15 8 -2 21 -28 20 -58 18 -54
-3z"/>
<path d="M4722 1358 c-19 -19 -14 -28 16 -28 27 0 52 15 52 32 0 13 -55 9 -68
-4z"/>
<path d="M8865 1358 c-27 -14 -75 -60 -75 -70 0 -4 23 -8 50 -8 37 0 50 4 50
14 0 8 11 27 25 42 14 15 25 29 25 30 0 9 -57 3 -75 -8z"/>
<path d="M4055 1353 c-11 -3 -24 -9 -30 -14 -6 -6 19 -9 69 -7 52 2 81 7 84
16 3 9 -11 12 -50 11 -29 -1 -62 -3 -73 -6z"/>
<path d="M9586 1328 c-11 -15 -12 -26 -5 -40 14 -26 39 -23 39 6 0 13 3 31 6
40 9 24 -22 20 -40 -6z"/>
<path d="M3743 1274 c-9 -24 11 -36 57 -32 56 4 62 24 13 37 -51 15 -63 14
-70 -5z"/>
<path d="M12150 1272 c0 -11 -13 -38 -30 -60 -35 -48 -38 -77 -11 -92 23 -12
24 -11 45 59 18 62 21 111 6 111 -5 0 -10 -8 -10 -18z"/>
<path d="M11945 1261 c-3 -11 -35 -49 -70 -84 -48 -47 -65 -71 -65 -91 0 -36
18 -40 71 -17 24 12 65 21 92 21 l47 0 0 71 c0 45 -4 68 -10 64 -6 -3 -18 7
-28 24 -20 36 -28 38 -37 12z"/>
<path d="M9630 1205 c-66 -34 -137 -95 -109 -95 31 1 96 40 139 84 24 25 42
46 40 46 -3 -1 -34 -16 -70 -35z"/>
<path d="M9495 1208 c-5 -5 -26 -22 -45 -38 -19 -15 -32 -31 -28 -35 10 -10
68 25 85 52 15 22 6 38 -12 21z"/>
<path d="M3693 1153 c-42 -8 -23 -23 30 -23 28 0 68 -4 87 -10 39 -11 59 0 35
20 -17 14 -112 22 -152 13z"/>
<path d="M4749 1130 l-24 -19 41 -1 c37 0 64 13 64 32 0 16 -58 8 -81 -12z"/>
<path d="M4537 1104 c-12 -12 14 -34 40 -34 18 0 24 5 21 18 -3 17 -48 29 -61
16z"/>
<path d="M3368 1005 c2 -14 -1 -54 -8 -89 -11 -61 -8 -106 9 -106 4 0 15 16
24 35 20 41 42 53 68 37 22 -14 29 -15 29 -3 0 5 -13 14 -29 21 -20 8 -39 31
-61 71 -17 32 -33 59 -34 59 -2 0 -1 -11 2 -25z"/>
<path d="M4490 970 c0 -16 4 -30 9 -30 5 0 19 14 31 30 l21 30 -30 0 c-28 0
-31 -3 -31 -30z"/>
<path d="M4640 966 c0 -31 2 -33 28 -32 30 3 32 5 32 41 0 21 -5 25 -30 25
-27 0 -30 -3 -30 -34z"/>
<path d="M12135 989 c-9 -13 -9 -12 43 -32 48 -19 92 -22 92 -6 0 5 -5 7 -10
4 -6 -4 -31 5 -56 19 -52 29 -60 31 -69 15z"/>
<path d="M12350 875 c0 -21 46 -29 90 -16 65 19 57 31 -19 31 -56 0 -71 -3
-71 -15z"/>
<path d="M6910 832 c0 -4 9 -13 20 -20 28 -17 25 -43 -11 -100 -23 -38 -29
-55 -21 -67 6 -12 11 -14 16 -6 4 6 18 11 32 11 19 0 24 5 24 25 0 14 7 42 15
62 21 50 19 59 -19 82 -34 22 -56 27 -56 13z"/>
<path d="M6241 751 c-11 -7 -9 -11 8 -20 36 -20 28 -67 -19 -112 l-40 -39 25
-6 c19 -5 33 1 60 25 20 17 43 31 52 31 11 0 14 6 9 23 -4 12 -10 41 -13 65
-5 39 -8 42 -37 42 -17 0 -37 -4 -45 -9z"/>
<path d="M7052 677 c-33 -34 -39 -47 -23 -47 16 0 71 51 71 66 0 22 -13 17
-48 -19z"/>
<path d="M6681 629 c-8 -14 -9 -25 -3 -31 7 -7 14 -3 22 12 16 29 -1 46 -19
19z"/>
</g>
</svg>