<svg version="1.0" xmlns="http://www.w3.org/2000/svg"
 width="660.000000pt" height="1280.000000pt" viewBox="0 0 660.000000 1280.000000"
 preserveAspectRatio="xMidYMid meet">
<metadata>
Created by potrace 1.15, written by Peter Selinger 2001-2017
</metadata>
<g transform="translate(0.000000,1280.000000) scale(0.100000,-0.100000)"
fill="#000000" stroke="none">
<path d="M2190 12794 c-14 -2 -63 -9 -110 -15 -113 -15 -264 -53 -380 -96
-710 -265 -1288 -961 -1547 -1863 -189 -658 -202 -1390 -38 -2157 79 -369 253
-872 476 -1376 646 -1459 1629 -2751 2579 -3389 l135 -91 68 -256 c37 -141
134 -515 217 -832 l150 -576 -69 -72 c-235 -242 -356 -620 -311 -968 72 -546
427 -965 915 -1079 118 -28 320 -25 440 5 253 64 479 235 619 472 45 75 116
243 116 274 0 14 7 15 48 8 26 -4 110 -8 187 -7 159 0 249 19 378 78 105 47
174 94 257 173 126 118 206 248 252 408 32 113 32 306 0 418 -105 368 -446
617 -845 617 l-92 0 -105 403 c-57 221 -170 654 -251 962 l-146 560 24 48
c197 395 367 964 467 1562 192 1148 155 2510 -100 3654 -133 599 -373 1162
-703 1649 -548 809 -1320 1339 -2136 1467 -95 15 -441 29 -495 19z"/>
</g>
</svg>