<svg version="1.0" xmlns="http://www.w3.org/2000/svg"
 width="1280.000000pt" height="668.000000pt" viewBox="0 0 1280.000000 668.000000"
 preserveAspectRatio="xMidYMid meet">
<metadata>
Created by potrace 1.15, written by Peter Selinger 2001-2017
</metadata>
<g transform="translate(0.000000,668.000000) scale(0.100000,-0.100000)"
fill="#000000" stroke="none">
<path d="M9320 6674 c-19 -2 -82 -9 -140 -15 -633 -66 -1250 -329 -1752 -746
-552 -459 -956 -1132 -1113 -1854 l-16 -77 -198 -51 -198 -51 -290 0 c-333 0
-367 -5 -438 -71 -23 -22 -48 -53 -55 -69 -7 -17 -14 -30 -16 -30 -2 0 -23 13
-47 30 -125 84 -403 158 -727 192 -158 16 -661 16 -869 -1 -210 -16 -463 -46
-661 -77 -132 -21 -184 -25 -260 -20 -432 28 -1147 36 -1460 16 -350 -22 -613
-63 -798 -125 -124 -42 -177 -72 -231 -130 -88 -96 -57 -212 76 -282 260 -138
911 -167 2183 -97 303 17 401 15 695 -10 404 -35 561 -41 1035 -41 398 1 509
4 618 18 159 20 295 48 377 77 56 19 61 20 70 4 37 -62 76 -102 124 -127 54
-27 57 -27 244 -27 l189 0 281 -71 c155 -38 290 -72 299 -75 12 -4 19 -21 23
-62 4 -31 20 -124 36 -206 149 -760 552 -1451 1127 -1929 502 -417 1077 -663
1752 -748 135 -18 533 -18 670 -1 635 78 1183 301 1680 686 134 103 422 390
530 526 349 442 587 971 684 1519 42 238 51 336 51 591 0 255 -9 353 -51 591
-97 548 -335 1077 -684 1519 -108 136 -396 423 -530 526 -485 375 -1025 600
-1631 680 -108 14 -504 27 -579 18z"/>
</g>
</svg>