<svg version="1.0" xmlns="http://www.w3.org/2000/svg"
 width="995.000000pt" height="1280.000000pt" viewBox="0 0 995.000000 1280.000000"
 preserveAspectRatio="xMidYMid meet">
<metadata>
Created by potrace 1.15, written by Peter Selinger 2001-2017
</metadata>
<g transform="translate(0.000000,1280.000000) scale(0.100000,-0.100000)"
fill="#000000" stroke="none">
<path d="M8107 12786 c-8 -9 -28 -16 -44 -16 -16 0 -33 -4 -39 -10 -6 -6 -19
-5 -37 5 -22 11 -27 12 -27 0 0 -7 -13 -16 -30 -20 -16 -4 -32 -11 -35 -16 -4
-5 -15 -9 -25 -9 -24 0 -37 -20 -19 -31 22 -13 3 -22 -21 -9 -11 6 -30 8 -42
5 -18 -6 -20 -13 -15 -52 5 -45 5 -45 -24 -41 -31 5 -40 -8 -13 -19 14 -5 13
-9 -7 -25 -23 -17 -23 -19 -5 -29 15 -9 16 -13 5 -20 -8 -5 -23 -9 -34 -9 -23
0 -28 -32 -10 -60 5 -8 10 -28 10 -44 0 -25 5 -31 33 -38 l34 -9 -24 -20 -23
-21 30 -24 30 -24 -33 0 -33 0 25 -33 c34 -44 33 -57 -4 -57 -16 0 -30 -4 -30
-10 0 -5 7 -10 16 -10 12 0 15 -7 12 -30 -3 -17 -1 -33 4 -36 5 -4 0 -13 -11
-21 -12 -8 -21 -22 -21 -32 0 -30 -45 -71 -70 -64 -15 4 -21 1 -20 -8 4 -28 0
-39 -17 -39 -15 0 -15 -1 0 -18 10 -10 17 -22 17 -26 0 -4 -14 9 -31 29 -25
28 -34 33 -49 25 -13 -7 -21 -7 -26 1 -4 8 -9 7 -15 -2 -9 -15 -16 -2 -21 41
-4 30 -48 43 -48 15 0 -9 -6 -15 -12 -12 -7 2 -12 10 -11 18 2 8 -6 20 -16 26
-17 10 -20 9 -26 -14 -4 -19 -9 -23 -18 -14 -6 6 -19 11 -29 11 -10 0 -18 7
-18 15 0 19 -28 33 -60 30 -28 -3 -40 10 -40 42 0 32 -43 41 -81 19 -30 -18
-68 -14 -70 7 -1 7 -2 19 -3 27 -2 25 -61 25 -79 0 -13 -18 -18 -20 -35 -9
-11 7 -18 19 -14 27 4 11 0 13 -18 7 -18 -6 -27 -2 -41 16 l-19 24 0 -30 c-1
-29 -2 -29 -11 -7 -8 22 -10 23 -26 6 -11 -11 -18 -13 -21 -5 -2 6 -15 11 -28
11 -13 0 -24 5 -24 11 0 6 -9 8 -20 4 -12 -4 -20 -2 -20 5 0 6 -4 9 -9 6 -5
-3 -14 1 -21 9 -11 14 -15 14 -31 -1 -16 -14 -19 -14 -38 5 -25 25 -56 27 -65
5 -3 -8 -10 -12 -16 -9 -6 4 -24 -5 -41 -19 -31 -26 -49 -33 -49 -18 0 4 -20
12 -44 18 -25 5 -43 6 -40 2 3 -4 1 -8 -5 -8 -6 0 -16 10 -22 22 -11 21 -12
21 -23 -13 -6 -19 -16 -34 -21 -34 -6 0 -21 -10 -35 -22 -13 -13 -37 -23 -52
-23 -21 0 -31 -6 -38 -24 -5 -13 -13 -25 -19 -27 -6 -2 -12 -24 -14 -49 -5
-61 -22 -99 -49 -108 -13 -4 -88 -5 -168 -1 -80 4 -182 7 -227 8 -67 1 -83 4
-83 16 0 8 -8 15 -18 15 -11 0 -27 9 -38 21 -10 11 -26 18 -36 16 -10 -3 -18
-2 -18 2 0 4 -7 16 -16 27 -13 16 -15 16 -10 2 7 -22 -1 -23 -21 -3 -11 11
-13 27 -9 53 3 20 3 31 0 25 -3 -7 -15 -13 -26 -13 -17 0 -19 4 -14 26 6 23 4
26 -13 21 -12 -3 -21 -1 -21 4 0 5 -6 9 -12 10 -20 1 -72 69 -71 91 2 19 1 19
-11 3 -12 -17 -14 -15 -25 15 -6 18 -14 30 -17 27 -10 -9 -44 12 -44 27 0 7
-9 21 -20 31 -11 10 -20 24 -20 31 0 23 -21 26 -36 5 -22 -30 -51 -27 -58 7
-3 15 -5 36 -3 47 2 16 -5 21 -30 23 -18 2 -33 7 -33 13 0 13 -26 11 -49 -3
-26 -16 -48 -4 -73 38 -14 24 -23 32 -28 23 -6 -9 -19 -8 -57 5 -57 20 -113
26 -113 11 0 -5 -8 -1 -18 11 -28 34 -50 37 -76 9 -21 -22 -24 -23 -50 -10
-16 8 -35 15 -43 15 -8 0 -11 5 -8 10 3 6 -1 10 -9 10 -8 0 -16 -10 -18 -22
-2 -18 -11 -24 -37 -26 -18 -2 -38 1 -44 7 -15 15 -27 14 -27 -4 0 -8 -9 -15
-21 -15 -11 0 -32 -14 -46 -30 -14 -17 -30 -27 -36 -23 -33 20 -54 11 -73 -30
-17 -37 -23 -42 -54 -43 -58 -2 -60 -3 -57 -26 1 -18 -5 -25 -30 -33 -21 -6
-36 -18 -42 -35 -8 -21 -10 -22 -10 -5 -1 16 -3 17 -10 6 -5 -8 -7 -29 -4 -46
l5 -32 -58 -8 c-64 -8 -83 -23 -84 -70 -1 -34 -19 -64 -37 -58 -6 2 -14 -1
-18 -6 -9 -15 -42 -14 -47 1 -3 7 -13 -6 -23 -29 -10 -23 -22 -40 -27 -37 -5
4 -9 0 -7 -7 4 -30 -1 -50 -11 -44 -6 4 -17 -9 -25 -28 -8 -19 -22 -37 -31
-41 -9 -3 -14 -12 -10 -21 3 -8 0 -16 -7 -17 -7 0 -23 -3 -37 -4 -14 -2 -77
-10 -140 -18 -63 -9 -155 -20 -205 -26 -380 -46 -781 -111 -1062 -170 -116
-25 -130 -25 -138 0 -3 11 -13 20 -21 20 -12 0 -14 7 -9 29 6 27 4 29 -16 24
-20 -6 -22 -3 -16 25 4 19 2 32 -3 32 -6 0 -10 6 -10 13 0 21 -37 50 -54 44
-10 -4 -20 1 -26 13 -7 13 -6 20 3 23 18 6 -10 37 -34 37 -13 0 -17 5 -12 16
5 13 2 15 -15 10 -18 -6 -24 -1 -36 28 -8 20 -19 36 -25 36 -5 0 -8 11 -5 25
2 14 0 25 -5 25 -6 0 -13 15 -16 34 -5 27 -11 33 -26 29 -29 -8 -55 5 -41 19
20 20 15 69 -8 75 -11 3 -20 12 -20 20 0 8 -4 12 -9 9 -16 -11 -40 5 -34 21 5
13 2 15 -15 11 -19 -5 -22 -2 -22 23 0 26 -3 29 -35 29 -32 0 -74 27 -75 48 0
4 -7 16 -15 26 -12 15 -17 17 -29 7 -19 -16 -35 -7 -30 17 2 9 -4 26 -14 38
-21 25 -69 39 -74 23 -3 -8 -14 -7 -35 5 -20 10 -34 12 -38 6 -10 -16 -35 -12
-42 8 -7 21 -33 52 -44 52 -4 0 -10 -8 -12 -17 -4 -14 -5 -13 -6 4 l-1 22 -35
-20 c-32 -19 -35 -19 -35 -4 0 17 -7 17 -65 2 -22 -6 -35 -19 -35 -35 0 -21
-123 -65 -138 -50 -6 6 -15 0 -24 -19 -7 -15 -21 -28 -30 -28 -16 0 -68 -65
-68 -85 0 -5 -6 -13 -13 -17 -25 -15 -49 -61 -42 -82 8 -27 -13 -91 -39 -115
-13 -12 -17 -20 -9 -23 8 -3 9 -13 2 -36 -11 -39 -12 -107 -1 -107 4 0 14 6
22 13 7 6 1 -3 -14 -22 -15 -18 -25 -39 -23 -45 1 -6 22 -20 45 -31 l42 -21
-22 -22 c-17 -17 -19 -22 -7 -22 8 0 20 5 27 12 9 9 12 5 12 -21 0 -28 3 -32
21 -26 19 6 21 4 17 -20 -7 -33 23 -70 41 -52 8 8 19 5 39 -10 l29 -21 28 26
c15 15 25 21 21 15 -4 -7 -2 -13 3 -13 6 0 11 -7 11 -15 0 -18 14 -19 42 -4
19 10 20 9 15 -12 -6 -23 -4 -24 45 -20 l52 3 -17 -26 c-23 -34 -22 -36 11
-30 19 4 32 1 41 -10 7 -9 17 -13 22 -10 5 3 9 -2 9 -11 0 -9 14 -34 32 -56
28 -34 30 -42 20 -64 -15 -33 -15 -35 3 -35 40 0 1 -21 -147 -79 -309 -122
-574 -277 -719 -421 -91 -90 -132 -149 -163 -232 -37 -99 -39 -156 -12 -292
13 -66 22 -125 20 -130 -5 -14 -48 169 920 -3946 466 -1977 853 -3624 860
-3660 8 -36 19 -108 25 -161 27 -245 143 -461 366 -685 190 -190 375 -320 672
-470 507 -257 1108 -417 1838 -491 214 -21 840 -24 1045 -5 201 20 478 58 625
87 1069 213 1832 701 2019 1292 36 115 53 277 39 376 -9 62 -8 83 2 105 8 15
18 54 24 87 12 69 65 358 121 660 42 224 667 3585 751 4040 27 149 58 315 69
370 11 55 47 249 80 430 33 182 69 375 80 430 11 55 47 249 80 430 90 483 126
675 155 810 14 66 51 243 80 394 l55 273 -21 82 c-30 116 -76 197 -173 299
-45 48 -85 87 -89 87 -3 0 -45 26 -94 59 -232 155 -589 304 -998 416 -77 22
-148 47 -157 57 -22 21 -23 42 -3 58 8 7 15 19 15 26 0 8 11 20 25 26 14 6 25
17 25 24 0 8 11 21 24 29 24 16 25 16 5 36 -23 23 -17 39 15 39 28 0 52 26 48
52 -2 10 2 18 8 18 7 0 8 6 0 19 -13 26 -13 31 5 31 20 0 19 17 -2 29 -16 8
-15 11 10 20 31 12 32 18 12 57 -10 20 -11 32 -4 41 6 6 8 17 4 23 -3 5 0 10
7 10 7 0 18 11 24 25 10 21 9 25 -7 30 -22 7 -26 35 -5 35 8 0 21 14 30 30 12
25 12 35 2 55 -7 14 -16 22 -19 18 -4 -3 -7 8 -7 25 0 19 -8 40 -20 52 -20 20
-20 20 0 52 25 41 26 60 3 51 -15 -6 -16 -4 -5 9 10 13 8 18 -12 32 -14 9 -31
16 -38 17 -7 0 -3 4 9 9 28 11 21 38 -14 51 -14 5 -21 14 -17 20 4 7 -4 10
-25 7 -26 -2 -40 5 -79 42 -25 25 -45 51 -44 57 2 7 -5 12 -15 11 -37 -3 -53
2 -53 17 0 10 -11 15 -35 16 -51 2 -86 6 -126 14 -26 5 -40 3 -52 -9z"/>
<path d="M7220 12081 c0 -5 5 -13 10 -16 6 -3 10 -2 10 4 0 5 -4 13 -10 16 -5
3 -10 2 -10 -4z"/>
</g>
</svg>