<svg
   xmlns:dc="http://purl.org/dc/elements/1.1/"
   xmlns:cc="http://creativecommons.org/ns#"
   xmlns:rdf="http://www.w3.org/1999/02/22-rdf-syntax-ns#"
   xmlns:svg="http://www.w3.org/2000/svg"
   xmlns="http://www.w3.org/2000/svg"
   xmlns:sodipodi="http://sodipodi.sourceforge.net/DTD/sodipodi-0.dtd"
   xmlns:inkscape="http://www.inkscape.org/namespaces/inkscape"
   width="769.3031"
   height="383.92068"
   viewBox="0 0 769.30308 383.92069"
   id="svg10590"
   version="1.1"
   inkscape:version="0.91 r13725"
   sodipodi:docname="simpletaco.svg">
  <defs
     id="defs10592" />
  <sodipodi:namedview
     id="base"
     pagecolor="#ffffff"
     bordercolor="#666666"
     borderopacity="1.0"
     inkscape:pageopacity="0.0"
     inkscape:pageshadow="2"
     inkscape:zoom="0.76"
     inkscape:cx="405.49057"
     inkscape:cy="176.56013"
     inkscape:document-units="px"
     inkscape:current-layer="g11205"
     showgrid="false"
     fit-margin-top="0"
     fit-margin-left="0"
     fit-margin-right="0"
     fit-margin-bottom="0"
     units="px"
     inkscape:window-width="1916"
     inkscape:window-height="1035"
     inkscape:window-x="4"
     inkscape:window-y="1"
     inkscape:window-maximized="1" />
  <metadata
     id="metadata10595">
    <rdf:RDF>
      <cc:Work
         rdf:about="">
        <dc:format>image/svg+xml</dc:format>
        <dc:type
           rdf:resource="http://purl.org/dc/dcmitype/StillImage" />
        <dc:title></dc:title>
      </cc:Work>
    </rdf:RDF>
  </metadata>
  <g
     inkscape:label="Layer 1"
     inkscape:groupmode="layer"
     id="layer1"
     transform="translate(512.11483,-585.51463)">
    <g
       id="g11205">
      <g
         id="g11242">
        <path
           style="fill:#ddc07d;fill-opacity:1;fill-rule:evenodd;stroke:#95814a;stroke-width:3;stroke-linecap:round;stroke-linejoin:round;stroke-miterlimit:4;stroke-dasharray:none;stroke-opacity:1"
           d="m 245.62656,937.28352 c -23.19397,16.50325 -55.59846,29.05914 -89.31874,29.77292 l -569.40704,-100.77497 71.64108,-64.19785 z"
           id="path11142"
           inkscape:connector-curvature="0"
           sodipodi:nodetypes="ccccc" />
        <path
           transform="matrix(0.98713626,0.1598812,0.1598812,-0.98713626,0,0)"
           d="m 392.92454,-885.01593 a 337.08859,285.3006 0 0 1 -168.5443,247.07757 337.08859,285.3006 0 0 1 -337.0886,-10e-6 337.08859,285.3006 0 0 1 -168.54429,-247.07757 l 337.088595,10e-6 z"
           sodipodi:end="3.1415927"
           sodipodi:start="0"
           sodipodi:ry="285.3006"
           sodipodi:rx="337.08859"
           sodipodi:cy="-885.01593"
           sodipodi:cx="55.835945"
           sodipodi:type="arc"
           id="path11140"
           style="opacity:1;fill:#ddc07d;fill-opacity:1;stroke:#988347;stroke-width:3.10835195;stroke-linecap:round;stroke-linejoin:round;stroke-miterlimit:4;stroke-dasharray:none;stroke-opacity:1" />
        <path
           inkscape:connector-curvature="0"
           id="path11152"
           d="m -128.39571,736.95536 c 9.20288,-11.69882 3.2172,-28.03784 12.09525,-40.00736 1.78151,-13.10722 11.2996,-19.20647 15.72328,-24.76831 3.349464,1.0347 5.321954,-5.76833 8.467214,6.16024 2.90042,8.91942 6.01102,20.76141 11.16485,6.51282 2.80852,-7.38285 14.98754,-19.48503 14.88646,-19.53848 4.11781,9.54979 12.42004,19.51673 21.39928,25.12091 6.10165,1.3482 6.68831,-8.49762 9.30404,-12.09525 -1.01409,-8.034 15.161892,-1.77156 14.886452,-5.58242 11.7459602,-8.88787 3.160708,-12.45849 11.6764882,-1.57978 7.53099,3.57962 24.1540378,21.21249 28.3308678,8.0926 8.06337,-5.55522 19.766512,-30.31991 20.21435,-9.2193 8.74831,5.64724 20.89335,30.21516 30.027447,16.66253 7.7537,-7.60215 11.368584,-15.32275 22.009874,-13.46178 5.987931,5.63686 19.583407,29.93623 29.232417,28.34823 6.5007,1.3253 20.18203,-12.97045 21.3292,-6.51282 5.51801,7.43394 6.76822,14.29712 15.85145,10.28741 6.39367,-6.31674 18.32465,-6.07447 20.95375,3.45572 4.05095,4.38313 -10.81009,19.84233 -10.81009,19.84233 9.49971,2.43374 34.48113,-6.60373 34.48113,-6.60373 2.31226,2.36971 -1.5422,15.60666 2.8469,20.67977 2.51934,5.38677 12.91651,-9.12585 13.90036,-0.21089 1.86244,8.11093 -0.0595,14.28892 3.72162,20.46888 -1.35468,4.12345 3.62652,2.56618 10.23444,2.79121 7.26317,0.0141 0.75384,19.21047 5.58242,20.46889 -1.8664,10.48371 -27.48459,8.71926 -27.91211,19.53847 4.74268,9.74116 5.32372,1.32469 17.67767,8.37364 9.35191,7.92914 28.33589,2.11314 17.66411,16.80286 -5.41495,10.49472 -4.91672,22.56235 -5.56885,32.57862 0.52166,2.28819 2.90335,4.15434 9.42033,6.09384 9.17032,1.28016 6.16506,11.07406 -0.1163,18.02657 -5.5498,8.44941 -16.30385,20.41504 -20.46888,21.39928 -3.73472,0.38449 -2.41885,-0.13686 -11.23493,-0.9304 -10.52117,-0.0139 -21.04628,0.0201 -31.56364,0 -11.20213,-2.77362 -9.08179,-13.97556 -22.32969,-10.23444 -14.79125,4.11074 -27.51149,14.28217 -43.43459,14.55302 -10.25828,-0.21384 15.47189,9.06724 13.81676,-7.46463 -8.74173,-8.70908 -9.6722,-21.48257 -15.04155,-27.55728 -15.70614,-5.12618 -32.861511,6.76278 -49.311391,8.37363 -11.263035,1.27207 -23.637595,4.46478 -35.355345,1.86081 -6.68776,-9.67338 -8.75506,-10.65323 -18.14287,-16.28206 -9.2426298,-4.29164 -17.66718976,-5.62502 -28.73331,-10.10916 -7.93648,-2.15263 -18.55914,-0.59892 -27.54903,-2.5368 -4.50955,-1.77438 -5.75908,-13.85896 -13.96313,-18.52257 1.70729,-3.91492 -10.072,-0.90581 -16.84309,-0.27548 -6.18068,0.59033 -13.69092,0.1474 -20.37306,0.27548 -7.92431,-5.09361 -12.378964,-7.68398 -13.854404,-15.41448 -3.86711,-6.73196 -9.15242,-17.27628 -9.40569,-26.45368 -0.83484,-7.67167 1.86115,-16.5317 -1.86081,-23.26009 2.48122,-5.85237 -0.14322,-16.42976 0,-18.60807 -0.78966,-3.03435 -2.82233,-14.45176 -5.58242,-15.81687 0.20288,-1.51435 -11.74257,-6.01842 -4.12866,-3.19826 l -0.98856,-0.0582 -2.32601,-0.4652 0,0 z"
           style="fill:#66bb57;fill-opacity:1;fill-rule:evenodd;stroke:#448e32;stroke-width:2;stroke-linecap:butt;stroke-linejoin:miter;stroke-miterlimit:4;stroke-dasharray:none;stroke-opacity:1"
           sodipodi:nodetypes="cccccccccccccccccccccccccccccccccccccccccccccccccccccccc" />
        <path
           style="fill:#a26239;fill-opacity:1;fill-rule:evenodd;stroke:#bb8152;stroke-width:2;stroke-linecap:round;stroke-linejoin:round;stroke-miterlimit:4;stroke-dasharray:none;stroke-opacity:1"
           d="m -336.80612,722.99931 c 1.76906,-25.71978 45.73443,-64.98674 63.90019,-33.97789 12.29852,-18.26181 29.46416,-41.24276 39.54629,-21.91395 -1.36434,-29.09856 21.16524,-31.30173 24.51119,-21.27124 5.99124,-34.24732 69.00611,-41.58414 90.68718,-19.5989 12.89153,-14.2258 53.885798,-6.00823 56.65244,7.20382 27.439271,-10.38682 41.930316,15.54088 68.9417347,5.2021 25.5097203,3.73344 9.4880773,42.52162 38.0877003,23.24833 14.270947,15.62767 23.796207,25.10941 47.420378,18.30916 32.940847,-7.23638 15.774567,41.14249 48.356827,41.79198 24.31721,9.6213 -4.0205,38.54398 28.47354,37.97117 26.12819,13.02325 18.58706,47.65003 41.80168,67.39126 -6.38299,19.24168 -11.62213,30.55509 2.61428,45.55045 -14.59618,25.19736 12.68336,57.45597 -18.37053,74.3758 -31.679,-13.52682 -38.44295,16.24585 -71.6245,6.28298 C 97.403557,940.88676 76.278222,884.99861 40.002868,900.84582 9.6252238,912.08019 18.99977,860.74442 -7.9912778,881.75708 c -21.8968272,9.61828 -43.1270212,2.08469 -57.7351602,-11.00616 -32.737973,10.63767 -68.091902,20.34598 -102.665022,16.91258 -31.62658,-3.23855 -55.79161,-27.26705 -89.64275,-18.83933 -30.09664,-11.06126 -71.22078,-9.88524 -74.09354,-51.77592 -21.30995,-12.85811 -47.09211,-53.99775 -23.04979,-72.61324 6.41993,-5.45197 6.22497,-25.47549 18.37142,-21.4357 z"
           id="path11144"
           inkscape:connector-curvature="0"
           sodipodi:nodetypes="ccccccccccccccccccccccc" />
        <path
           style="fill:#d64230;fill-opacity:1;fill-rule:evenodd;stroke:#af3030;stroke-width:1.74315441;stroke-linecap:round;stroke-linejoin:round;stroke-miterlimit:4;stroke-dasharray:none;stroke-opacity:1"
           d="m 123.24892,684.38506 c -2.77528,-1.0076 -5.98001,-0.73665 -8.07744,1.47955 -3.44536,1.90407 -7.57717,1.72862 -11.117,3.41649 -1.993,0.89495 -4.341617,1.93972 -5.283831,4.02398 -0.719617,3.09848 1.679711,5.74283 1.843311,8.76356 1.25304,3.83274 1.05476,7.99724 -0.0987,11.82512 -0.746702,4.52435 1.28572,8.85509 1.57699,13.32366 1.27339,2.61706 4.8809,2.89813 6.27625,5.55652 2.55595,1.55746 5.06561,-0.89555 7.59303,-1.26857 4.98744,-1.29608 9.99747,-2.5367 14.87326,-4.20513 3.41695,-1.1387 7.41708,-0.0911 9.63181,2.80323 2.04364,3.4019 5.80623,-0.016 5.7162,-2.96043 1.08541,-2.83982 1.36442,-6.06469 -0.11346,-8.8368 -0.85539,-2.76715 -1.91198,-5.54013 -3.72202,-7.83669 -0.49088,-3.1008 0.75497,-6.50736 -1.29786,-9.23712 -0.12093,-3.15657 -1.87424,-5.72906 -4.77405,-6.96989 -2.14108,-1.5284 -3.1061,-3.54125 -5.27713,-4.77173 -0.66571,-2.31628 -2.76287,-2.4375 -4.43554,-3.93891 -1.27214,-0.0594 -2.15932,-0.60162 -3.31386,-1.16684 z"
           id="path11170"
           inkscape:connector-curvature="0" />
        <path
           style="fill:#d64230;fill-opacity:1;fill-rule:evenodd;stroke:#af3030;stroke-width:1.74315441;stroke-linecap:round;stroke-linejoin:round;stroke-miterlimit:4;stroke-dasharray:none;stroke-opacity:1"
           d="m 133.48336,760.67816 c -3.29218,-1.62779 -6.85968,0.34191 -9.57242,2.21482 -4.86831,1.41149 -10.39949,1.87015 -14.23305,5.55073 -1.96649,2.98394 0.39523,6.29688 1.18153,9.25114 0.6184,2.74431 1.24219,5.56168 0.64079,8.38747 -0.55147,3.48441 -1.41181,7.09 -0.339,10.56931 0.95429,5.37358 1.62648,11.44164 5.95966,15.29329 2.06055,2.02214 4.41671,3.71892 6.87082,5.22904 7.0759,-2.56047 14.50611,-3.95771 21.65122,-6.3087 2.98665,-1.19742 6.80895,-1.04824 8.94167,-3.80058 1.6816,-2.24849 2.48413,-5.11863 2.75598,-7.86113 -0.45272,-4.35224 -2.24513,-8.43572 -4.42308,-12.1677 -0.94909,-3.34097 0.19003,-7.09082 -1.60261,-10.22219 -0.21164,-3.89387 -4.09965,-5.75331 -6.83092,-7.81765 -0.69485,-2.34292 -4.46999,-3.44955 -4.52912,-5.52791 -2.09995,-0.19549 -3.53326,-2.23558 -5.64124,-2.42975 -0.25748,-0.15585 -0.55667,-0.23605 -0.83023,-0.36019 z"
           id="path11168"
           inkscape:connector-curvature="0" />
        <path
           style="fill:#d64230;fill-opacity:1;fill-rule:evenodd;stroke:#af3030;stroke-width:1.74315441;stroke-linecap:round;stroke-linejoin:round;stroke-miterlimit:4;stroke-dasharray:none;stroke-opacity:1"
           d="m 36.196963,654.94634 c -5.846269,-1.29432 -9.060268,5.53352 -14.529468,6.36472 -3.852647,1.77789 -10.104095,5.31734 -6.992197,10.34602 3.009147,4.63964 5.10063,9.97143 4.569631,15.60462 0.1598,6.20426 3.22103,11.99862 6.147239,17.33231 3.244089,3.40453 7.807732,7.60098 12.840503,7.13229 6.070138,-3.74421 12.861469,-6.18812 19.104878,-9.66364 4.371016,-1.80313 9.669226,-4.36806 9.256252,-9.98338 0.981618,-6.1621 -3.890284,-10.84824 -6.916848,-15.53585 -1.426746,-4.53558 -1.931606,-10.18085 -6.188981,-12.9654 -4.518699,-1.59351 -8.077498,-5.6282 -11.939041,-7.27654 -1.794118,-0.41237 -3.503591,-1.18446 -5.351968,-1.35515 z"
           id="path11172"
           inkscape:connector-curvature="0" />
        <path
           style="fill:#f2b65c;fill-opacity:1;fill-rule:evenodd;stroke:#bea16c;stroke-width:1px;stroke-linecap:butt;stroke-linejoin:miter;stroke-opacity:1"
           d="m 65.128256,682.99195 c 9.014671,9.40074 10.853059,22.82253 16.75627,33.91497 0.58748,7.53824 9.50008,16.15684 9.8968,3.58838 2.53229,-10.56007 1.11917,-22.29337 -7.51879,-29.77814 -7.45236,-7.36141 -10.090651,-27.74608 -19.812692,-24.0733 -6.261788,2.36557 1.693643,13.99274 0.678436,20.0697"
           id="path11174"
           inkscape:connector-curvature="0"
           sodipodi:nodetypes="ccccac" />
        <path
           inkscape:connector-curvature="0"
           id="path11183"
           d="m 107.48396,731.96518 c 9.97721,8.37218 13.2544,21.51692 20.32106,31.90694 1.39816,7.4307 11.18944,15.03635 10.22645,2.49854 1.377,-10.77179 1.49617,-25.07505 -7.89962,-31.58315 -8.20381,-6.51351 -16.04877,-24.32555 -25.08791,-19.00153 -5.767627,3.39711 3.19493,13.728 2.84198,19.87904"
           style="fill:#f2b65c;fill-opacity:1;fill-rule:evenodd;stroke:#bea16c;stroke-width:1px;stroke-linecap:butt;stroke-linejoin:miter;stroke-opacity:1"
           sodipodi:nodetypes="ccccac" />
        <path
           style="fill:#66bb57;fill-opacity:1;fill-rule:evenodd;stroke:#448e32;stroke-width:2;stroke-linecap:butt;stroke-linejoin:miter;stroke-miterlimit:4;stroke-dasharray:none;stroke-opacity:1"
           d="m -302.38119,664.38388 c 9.20288,-11.69882 3.2172,-28.03784 12.09525,-40.00736 1.78151,-13.10722 11.2996,-19.20647 15.72328,-24.76831 3.34946,1.0347 5.32195,-5.76833 8.46721,6.16024 2.90042,8.91942 6.01102,20.76141 11.16485,6.51282 2.80852,-7.38285 14.98754,-19.48503 14.88646,-19.53848 4.11781,9.54979 12.42004,19.51673 21.39928,25.12091 6.10165,1.3482 6.68831,-8.49762 9.30404,-12.09525 -1.01409,-8.034 9.57947,-11.0756 9.30403,-14.88646 11.74596,-8.88787 8.74313,-3.15445 17.25891,7.72426 7.53099,3.57962 12.05879,20.28209 16.23562,7.1622 8.06337,-5.55522 14.18409,-19.15507 20.21435,-9.2193 8.74831,5.64724 20.89335,30.21516 30.02745,16.66253 7.7537,-7.60215 17.881405,-13.46194 28.52269,-11.60097 5.987939,5.63686 13.070585,19.70179 22.719598,18.11379 6.500692,1.3253 20.182023,-4.59682 21.3292,1.86081 5.518009,7.43394 6.768219,14.29712 15.851446,10.28741 6.393673,-6.31674 18.3246493,-6.07447 20.9537555,3.45572 4.0509449,4.38313 4.8789825,11.73026 8.7283869,14.2599 9.4997066,2.43374 23.4913776,-3.75699 27.0378966,-0.0909 2.312264,2.36971 14.274656,-4.86222 18.663758,0.21089 2.519342,5.38677 -2.900342,11.34303 -1.916492,20.25799 1.862436,8.11093 -0.05948,14.28892 3.721615,20.46888 -1.354681,4.12345 3.626519,2.56618 10.23444,2.79121 7.263168,0.0141 17.501109,-0.32801 22.329688,0.93041 -1.866393,10.48371 -0.50289,21.74491 -0.930404,32.56412 4.742678,9.74116 5.323719,1.32469 17.67767,8.37364 9.351902,7.92914 28.335882,2.11314 17.664102,16.80286 -5.41495,10.49472 -4.91672,22.56235 -5.56885,32.57862 0.52166,2.28819 2.90335,4.15434 9.42033,6.09384 9.17032,1.28016 6.16506,11.07406 -0.1163,18.02657 -5.5498,8.44941 -16.30385,20.41504 -20.468878,21.39928 -3.734721,0.38449 -2.418843,-0.13686 -11.234929,-0.9304 -10.521164,-0.0139 -21.046275,0.0201 -31.56364,0 -11.202124,-2.77362 -9.081793,-13.97556 -22.329688,-10.23444 -14.791247,4.11074 -27.511489,14.28217 -43.4345935,14.55302 -10.2582775,-0.21384 -28.2570775,15.58007 -29.9122065,-0.9518 -8.741731,-8.70908 -9.6722,-21.48257 -15.041547,-27.55728 -15.706144,-5.12618 -32.861518,6.76278 -49.311398,8.37363 -11.26303,1.27207 -23.63759,4.46478 -35.35534,1.86081 -6.68776,-9.67338 -8.75506,-10.65323 -18.14287,-16.28206 -9.24263,-4.29164 -17.66719,-5.62502 -28.73331,-10.10916 -7.93648,-2.15263 -18.55914,-0.59892 -27.54903,-2.5368 -4.50955,-1.77438 -5.75908,-13.85896 -13.96313,-18.52257 1.70729,-3.91492 -10.072,-0.90581 -16.84309,-0.27548 -6.18068,0.59033 -13.69092,0.1474 -20.37306,0.27548 -7.92431,-5.09361 -12.37896,-7.68398 -13.8544,-15.41448 -3.86711,-6.73196 -9.15242,-17.27628 -9.40569,-26.45368 -0.83484,-7.67167 1.86115,-16.5317 -1.86081,-23.26009 2.48122,-5.85237 -0.14322,-16.42976 0,-18.60807 -0.78966,-3.03435 -2.82233,-14.45176 -5.58242,-15.81687 0.20288,-1.51435 -11.74258,-6.01842 -4.12866,-3.19826 l -0.98856,-0.0582 -2.32601,-0.4652 0,0 z"
           id="path11149"
           inkscape:connector-curvature="0"
           sodipodi:nodetypes="cccccccccccccccccccccccccccccccccccccccccccccccccccccccc" />
        <path
           style="opacity:1;fill:#eac97b;fill-opacity:1;stroke:#ab9557;stroke-width:3.10835195;stroke-linecap:round;stroke-linejoin:round;stroke-miterlimit:4;stroke-dasharray:none;stroke-opacity:1"
           id="path11138"
           sodipodi:type="arc"
           sodipodi:cx="-29.391676"
           sodipodi:cy="-930.65796"
           sodipodi:rx="337.08859"
           sodipodi:ry="285.3006"
           sodipodi:start="0"
           sodipodi:end="3.1415927"
           d="m 307.69692,-930.65796 a 337.08859,285.3006 0 0 1 -168.5443,247.07757 337.08859,285.3006 0 0 1 -337.0886,-1e-5 337.08859,285.3006 0 0 1 -168.54429,-247.07757 l 337.088594,10e-6 z"
           transform="matrix(0.98713626,0.1598812,0.1598812,-0.98713626,0,0)" />
        <path
           style="fill:#d64230;fill-opacity:1;fill-rule:evenodd;stroke:#af3030;stroke-width:1.74315441;stroke-linecap:round;stroke-linejoin:round;stroke-miterlimit:4;stroke-dasharray:none;stroke-opacity:1"
           d="m 180.40953,808.46294 c -5.84627,-1.29432 -9.06027,5.53352 -14.52947,6.36472 -3.85264,1.7779 -10.10409,5.31734 -6.99219,10.34602 3.00914,4.63964 5.10063,9.97143 4.56959,15.60462 0.15981,6.20426 3.22108,11.99861 6.14728,17.33231 3.24408,3.40453 7.80772,7.60099 12.84049,7.13229 6.07014,-3.74421 12.86147,-6.18812 19.10488,-9.66364 4.37102,-1.80313 9.66923,-4.36807 9.25626,-9.98338 0.98161,-6.1621 -3.89029,-10.84824 -6.91684,-15.53586 -1.42674,-4.53558 -1.93163,-10.18084 -6.189,-12.96539 -4.5187,-1.59353 -8.07749,-5.62816 -11.93903,-7.27658 -1.79411,-0.41239 -3.5036,-1.18442 -5.35197,-1.35511 z"
           id="path11154"
           inkscape:connector-curvature="0" />
        <path
           inkscape:connector-curvature="0"
           id="path11185"
           d="m 135.83893,801.15321 c 9.01468,9.40074 6.20104,18.17051 12.10425,29.26295 0.58748,7.53824 14.1521,20.80886 14.54882,8.2404 2.53229,-10.56007 7.632,-17.64135 -1.00596,-25.12612 -3.72618,-3.68071 7.44322,-9.30404 -6.47788,-23.07339 -5.08551,-5.03008 -14.42851,-9.88894 -19.84764,-5.65193 -5.27325,4.12295 1.69365,13.99274 0.67844,20.0697"
           style="fill:#f2b65c;fill-opacity:1;fill-rule:evenodd;stroke:#bea16c;stroke-width:1px;stroke-linecap:butt;stroke-linejoin:miter;stroke-opacity:1"
           sodipodi:nodetypes="ccccsac" />
        <path
           style="fill:#eac97b;fill-opacity:1;fill-rule:evenodd;stroke:#eed783;stroke-width:9;stroke-linecap:round;stroke-linejoin:round;stroke-miterlimit:4;stroke-dasharray:none;stroke-opacity:1"
           d="m -383.75314,776.06866 118.45917,44.06964"
           id="path11199"
           inkscape:connector-curvature="0" />
        <path
           inkscape:connector-curvature="0"
           id="path11201"
           d="m -418.4674,792.61365 118.45917,44.06965"
           style="fill:#eac97b;fill-opacity:1;fill-rule:evenodd;stroke:#eed783;stroke-width:9;stroke-linecap:round;stroke-linejoin:round;stroke-miterlimit:4;stroke-dasharray:none;stroke-opacity:1" />
        <path
           style="fill:#eac97b;fill-opacity:1;fill-rule:evenodd;stroke:#eed783;stroke-width:9;stroke-linecap:round;stroke-linejoin:round;stroke-miterlimit:4;stroke-dasharray:none;stroke-opacity:1"
           d="m -450.90265,808.47873 118.45916,44.06964"
           id="path11203"
           inkscape:connector-curvature="0" />
      </g>
    </g>
  </g>
</svg>