<svg version="1.0" xmlns="http://www.w3.org/2000/svg"
 width="1280.000000pt" height="1280.000000pt" viewBox="0 0 1280.000000 1280.000000"
 preserveAspectRatio="xMidYMid meet">
<metadata>
Created by potrace 1.15, written by Peter Selinger 2001-2017
</metadata>
<g transform="translate(0.000000,1280.000000) scale(0.100000,-0.100000)"
fill="#000000" stroke="none">
<path d="M9175 12794 c-90 -10 -250 -46 -344 -78 -813 -277 -1255 -1159 -990
-1979 71 -221 214 -454 382 -625 l82 -82 -931 -931 -930 -930 -82 11 c-237 32
-638 30 -947 -5 -1305 -151 -2833 -819 -3895 -1704 -234 -195 -528 -504 -712
-749 -706 -942 -969 -2140 -707 -3222 272 -1119 1114 -2014 2204 -2345 369
-112 634 -150 1045 -150 364 0 600 29 937 115 733 187 1392 572 1938 1131 669
686 1280 1735 1643 2824 248 743 368 1482 333 2046 -7 101 -16 215 -22 254
l-10 69 930 930 930 930 103 -100 c709 -682 1859 -556 2405 264 111 166 187
350 234 564 20 88 23 132 23 308 0 224 -13 313 -75 503 -150 458 -527 836
-991 991 -183 62 -298 80 -508 79 -124 -1 -210 -6 -260 -16 -41 -9 -76 -15
-76 -14 -1 1 5 38 13 82 21 111 21 403 0 515 -23 119 -52 228 -87 315 -202
507 -630 866 -1164 976 -99 20 -372 33 -471 23z"/>
</g>
</svg>