<svg
   width="199.82156mm"
   height="132.06421mm"
   viewBox="0 0 199.82156 132.06421"
   version="1.1"
   id="svg453"
   inkscape:version="1.2.2 (732a01da63, 2022-12-09)"
   sodipodi:docname="simple plates in a tray.svg"
   xmlns:inkscape="http://www.inkscape.org/namespaces/inkscape"
   xmlns:sodipodi="http://sodipodi.sourceforge.net/DTD/sodipodi-0.dtd"
   xmlns="http://www.w3.org/2000/svg"
   xmlns:svg="http://www.w3.org/2000/svg">
  <sodipodi:namedview
     id="namedview455"
     pagecolor="#505050"
     bordercolor="#eeeeee"
     borderopacity="1"
     inkscape:showpageshadow="0"
     inkscape:pageopacity="0"
     inkscape:pagecheckerboard="0"
     inkscape:deskcolor="#505050"
     inkscape:document-units="mm"
     showgrid="false"
     inkscape:zoom="0.2102413"
     inkscape:cx="-589.79848"
     inkscape:cy="451.86174"
     inkscape:current-layer="layer1" />
  <defs
     id="defs450" />
  <g
     inkscape:label="Layer 1"
     inkscape:groupmode="layer"
     id="layer1"
     transform="translate(13.076042,-28.353485)">
    <path
       d="m 68.085606,28.353491 c 29.62783,-0.0134 53.691274,23.89995 53.694274,53.35981 0.003,29.797319 -23.950944,53.952999 -53.537534,53.988999 -29.59559,0.0351 -53.73026,-24.15644 -53.70179,-53.828509 0.0287,-29.55586 23.98995,-53.5068 53.54505,-53.5203"
       fill="#fefefe"
       id="path6384"
       style="fill:#000000;fill-opacity:1;stroke-width:0.749918" />
    <path
       d="m 68.092266,33.150471 c 26.97996,-0.0122 48.892804,21.76396 48.895534,48.59094 0.003,27.134279 -21.810414,49.131139 -48.752804,49.163909 -26.95058,0.0319 -48.9283,-21.99753 -48.90236,-49.017769 0.0261,-26.91439 21.84593,-48.7248 48.75963,-48.73708"
       fill="#fefefe"
       id="path6386"
       style="stroke-width:0.682897" />
    <path
       d="m 99.239546,82.055881 c 0,17.12952 -13.91445,31.060499 -31.04081,31.076679 -17.18405,0.0165 -31.12101,-13.935559 -31.14915,-31.182949 -0.0278,-17.22205 13.97389,-31.04502 31.42851,-31.02636 16.95256,0.0175 30.76145,13.9936 30.76145,31.13263"
       fill="#6e4100"
       id="path6388"
       style="fill:#000000;fill-opacity:1;stroke-width:0.351836" />
    <path
       d="m 68.123666,55.736471 c 14.51266,-0.007 26.2997,11.70696 26.30117,26.13734 0.001,14.59566 -11.73194,26.427889 -26.2244,26.445519 -14.49686,0.0172 -26.31878,-11.832589 -26.30484,-26.366919 0.014,-14.47739 11.75104,-26.20933 26.22807,-26.21594"
       fill="#fefefe"
       id="path6390"
       style="stroke-width:0.367334" />
    <path
       d="m 118.81022,48.073051 c 22.28031,-0.0101 40.37615,17.9729 40.37841,40.12689 0.002,22.407759 -18.01125,40.572979 -40.26054,40.600049 -22.256064,0.0264 -40.405474,-18.16579 -40.384064,-40.479359 0.0216,-22.22618 18.04058,-40.23743 40.266194,-40.24758"
       fill="#fefefe"
       id="path5963"
       style="fill:#000000;fill-opacity:1;stroke-width:0.563943" />
    <path
       d="m 118.81639,52.514561 c 19.82864,-0.009 35.93325,15.9952 35.93526,35.71141 0.002,19.942059 -16.02933,36.108419 -35.83036,36.132509 -19.807054,0.0235 -35.959344,-16.16686 -35.940284,-36.025099 0.0192,-19.78046 16.05543,-35.80979 35.835384,-35.81882"
       fill="#fefefe"
       id="path5965"
       style="stroke-width:0.501888" />
    <path
       d="m 142.23817,88.457561 c 0,12.881499 -10.46375,23.357679 -23.34287,23.369849 -12.92251,0.0124 -23.403194,-10.47962 -23.424354,-23.449759 -0.0209,-12.95109 10.508454,-23.34604 23.634434,-23.33201 12.74842,0.0132 23.13279,10.52327 23.13279,23.41192"
       fill="#6e4100"
       id="path5380"
       style="fill:#000000;fill-opacity:1;stroke-width:0.264583" />
    <path
       d="m 118.84,69.499371 c 10.45316,-0.005 18.94311,8.43227 18.94417,18.82616 0.001,10.51295 -8.45026,19.035449 -18.88887,19.048149 -10.44178,0.0124 -18.956864,-8.522759 -18.946814,-18.991529 0.0101,-10.42776 8.464024,-18.87802 18.891514,-18.88278"
       fill="#fefefe"
       id="path5386"
       style="stroke-width:0.264583" />
    <path
       id="rect2737"
       style="fill:#ffffff;stroke:#080808;stroke-width:4;stroke-dasharray:none;stop-color:#000000"
       d="M -4.1726936,115.21905 H 177.05599 c 0.86518,0 1.73642,0.71434 1.56169,1.56168 l -8.2639,40.07528 c -0.17474,0.84734 -0.69651,1.56168 -1.56168,1.56168 H 4.0911964 c -0.86517,0 -1.38695,-0.71434 -1.56168,-1.56168 l -8.26389,-40.07528 c -0.17473,-0.84734 0.6965,-1.56168 1.56168,-1.56168 z"
       sodipodi:nodetypes="sssssssss" />
    <rect
       style="fill:#ffffff;fill-opacity:1;stroke:#080808;stroke-width:4;stroke-dasharray:none;stroke-opacity:1;paint-order:normal;stop-color:#000000"
       id="rect2735"
       width="195.82156"
       height="13.911223"
       x="-11.076042"
       y="108.46664"
       rx="4"
       ry="4" />
  </g>
</svg>