<svg xmlns="http://www.w3.org/2000/svg" width="307.42126" height="314.08597">
  <defs>
    <clipPath id="a">
      <path d="M27.36 67.348h277.974V635.88H27.36V67.348z"/>
    </clipPath>
  </defs>
  <g clip-path="url(#a)" transform="matrix(1.25 0 0 -1.25 -46.55112 399.77321)">
    <path fill="#8dc63f" d="m211.65 223.3874-5.089-72.65 14.356 4.195c.317 24.755 9.073 65.069 18.13 84.419l-20.398-12.988-6.999-2.976z"/>
    <path fill="#d7df23" d="m206.561 150.738 5.089 72.65-31.314-.017 5.226-75.475 20.999 2.842z"/>
    <path fill="#9bafba" d="m134.5986 245.4037 35.148 16.226c18.859-1.879 57.6-11.503 69.506-16.763-10.645-22.979-23.697-71.873-25.106-99.736l10.056-2.096c-2.218 46.902 30.637 116.381 55.095 141.991-4.694-1.208-7.88-1.108-11.122.829-1.081.646-2.168 1.495-3.321 2.568-5.703-7.286-17.86-26.215-22.741-37.445-14.093 5.069-52.646 14.625-63.078 16.193l16.095 34.955-7.353 1.622-15.154-35.361-4.349.987-34.743-16.361 1.067-7.609z"/>
    <path d="M103.4988 103.1814c-3.01-8.972-10.201-15.191-16.059-13.888-1.076.239-2.033.715-2.858 1.389-3.67 2.995-4.756 9.893-2.299 17.218 2.917 8.691 9.756 14.799 15.507 13.988.186-.027.371-.06.554-.101 5.858-1.302 8.165-9.632 5.155-18.606"/>
    <path fill="#bcd8e1" d="M97.8858 104.4842c-1.348-4.018-4.567-6.802-7.19-6.219-2.624.584-3.658 4.314-2.31 8.331 1.348 4.019 4.569 6.804 7.192 6.22 2.624-.584 3.656-4.313 2.308-8.332"/>
    <path fill="#8b909e" d="m97.7894 121.8882-7.47 2.348c-11.216-3.137-18.895-19.942-11.705-31.041l5.967-2.513c-3.67 2.995-4.755 9.892-2.299 17.217 2.918 8.693 9.756 14.8 15.507 13.989"/>
    <path fill="#9bafba" d="m91.5036 109.4769 70.478 46.588 62.352-11.026-7.773-6.319-1.704.341-47.949 9.62-36.273-22.071-25.075-15.258-14.056-1.875z"/>
    <path d="m105.5596 111.3519 25.075 15.257.352-.427-17.911-14.034 44.723-11.737-3.654-3.479c-3.406 1.017-48.585 14.42-48.585 14.42"/>
    <path fill="#9bafba" d="m221.9787 137.7808-6.823-9.057s-44.847-35.091-46.617-36.475l-17.857-2.646c-2.486.695-59.178 19.874-59.178 19.874l14.056 1.875s45.179-13.403 48.585-14.42l19.839 5.297s39.059 35.251 40.873 36.832l1.704-.342 7.773 6.32 1.28-1.537-3.635-5.721z"/>
    <path fill="#fff" d="M91.5036 109.4769s56.692-19.179 59.179-19.874l.457-.149-.16-.411-58.452 14.192-2.408 6.621 1.384-.379z"/>
    <path fill="#ce9468" d="M89.476 186.473c-.094-2.617-6.549-4.551-14.412-4.318-4.63.138-8.714.995-11.273 2.21-1.787.85-2.828 1.874-2.79 2.95.097 2.618 6.55 4.552 14.414 4.319 7.863-.233 14.159-2.544 14.061-5.161"/>
    <path fill="#f9d177" d="m84.1277 140.4821-20.337 43.883c2.559-1.215 6.643-2.072 11.273-2.21 7.863-.233 14.317 1.701 14.412 4.318l14.696-41.482-20.044-4.509z"/>
    <path fill="#9bafba" d="m133.5314 253.0125-93.51-44.01 11.256-2.062 83.321 38.463-1.067 7.609z"/>
    <path fill="#78cdd1" d="m118.0437 198.9449 16.948 15.291 49.181 1.833-3.134-12.499-62.995-4.625z"/>
    <path fill="#008396" d="m181.0391 203.5703 3.133 12.498 6.677-74.874-4.467-1.218-5.343 63.594z"/>
    <path fill="#5a9b9f" d="m129.5079 138.8944-11.464 60.051 62.995 4.625 5.343-63.594-56.874-1.082z"/>
    <path fill="#9fc4c6" d="m173.8017 165.3048-2.19 26.11-2.599 27.37-40.464-4.416 10.175-51.184 35.078 2.12z"/>
    <path fill="#71707f" d="m119.393 225.4841 15.907-58.016 46.434-5.634 5.973 4.574-26.238 17.913-41.915 41.155-.161.008z"/>
    <path fill="#fff" d="m88.691 205.7381 45.813 9.398-3.806-13.48-52.287-12.809 10.28 16.891z"/>
    <path fill="#f0eada" d="m92.4218 153.0196-14.01 35.827 52.286 12.81 17.172-54.524 2.034-6.88-57.482 12.767z"/>
    <path fill="#bcd8e1" d="m147.8696 147.1333-17.172 54.524 3.807 13.478 23.156-60.114-9.791-7.888zm-4.4669 9.0091c0-2.095-5.527-3.793-12.346-3.793-6.818 0-12.346 1.698-12.346 3.793s5.528 3.793 12.346 3.793c6.819 0 12.346-1.698 12.346-3.793"/>
    <path fill="#8dc640" d="M143.4027 156.1424c0-2.095-5.527-3.793-12.346-3.793-6.818 0-12.346 1.698-12.346 3.793l2.212-20.01c3.321-1.793 11.542-2.475 19.65-.424l2.83 20.434z"/>
    <path fill="#bcd8e1" d="M119.0513 160.5287c0-2.095-5.527-3.793-12.346-3.793-6.816 0-12.344 1.698-12.344 3.793s5.528 3.793 12.344 3.793c6.819 0 12.346-1.698 12.346-3.793"/>
    <path fill="#3bb54a" d="m115.9636 136.6338 3.087 23.895c0-2.095-5.527-3.793-12.345-3.793-6.817 0-12.344 1.698-12.344 3.793l.254-23.231c3.6-.835 18.384-1.703 21.348-.664"/>
    <path fill="#f2eeea" d="M140.2799 156.0452c0-1.255-3.948-2.274-8.814-2.274-4.869 0-8.815 1.019-8.815 2.274 0 1.255 3.946 2.274 8.815 2.274 4.866 0 8.814-1.019 8.814-2.274m-26.0056 4.2986c0-1.255-3.948-2.274-8.816-2.274-4.869 0-8.813 1.019-8.813 2.274 0 1.255 3.944 2.274 8.813 2.274 4.868 0 8.816-1.019 8.816-2.274"/>
    <path fill="#f0d7af" d="m140.2835 144.503 4.946-13.721 1.04-2.862 12.726-5.308-11.595 26.321-7.117-4.43z"/>
    <path fill="#6d726e" d="m57.9678 182.5309-3.298 5.295s88.945-19.128 92.32-19.532l-.561-.198-88.305 14.773-.156-.338z"/>
    <path fill="#9bafba" d="m153.6859 144.6493-84.821 17.739-4.266 7.24 88.035-21.526 1.052-3.453zm61.3375 71.5681 3.929-34.364 6.95 12.988-1.964 26.923-8.915-5.547z"/>
    <path fill="#9bafba" d="m143.5621 180.0846 6.57-1.215 17.923-48.664-10.104-4.465-14.389 54.344z"/>
    <path fill="#6d726e" d="m216.7233 160.9571-1.41-7.215-52.462-38.255 1.633 2.921c3.095 2.726 52.239 42.549 52.239 42.549m-73.0051-29.2195-64.468 13.403-2.245.42-1.531-6.813 80.553-9.817-.053.201-12.256 2.606z"/>
    <path fill="#9bafba" d="m171.6112 191.4147 2.19-26.11 3.097-31.027 4.937 4.419-5.741 56.101-4.483-3.383zm19.3902 9.789 5.74-53.169 6.045 3.924-2.87 54.521-8.915-5.276z"/>
    <path fill="#9bafba" d="M152.8709 170.0513c18.563 12.579 64.441 36.785 74.448 39.087l-2.287-8.655-1.85-6.995c-15.536-4.186-52.648-22.57-66.715-32.68l-3.596 9.243z"/>
    <path fill="#6d726e" d="M156.4669 160.8082c14.067 10.11 51.179 28.494 66.715 32.681l1.85 6.994c-11.374-2.588-59.271-28.408-68.709-39.45l.144-.225z"/>
    <path fill="#9bafba" d="M160.4711 149.6472c22.475 16.374 53.234 35.965 61.021 38.541l-.542-2.663-1.747-8.553c-9.505-4.255-39.673-23.652-56.21-35.696l-2.522 8.371z"/>
    <path fill="#6d726e" d="M162.9928 141.2759c16.538 12.044 46.705 31.441 56.21 35.696l1.747 8.554c-13.732-7.807-39.571-27.2-58.581-43.64l.624-.61zm-6.2368 41.2761 74.593 41.468c.061.338 1.383 3.928 2.693 7.474-10.758-5.524-49.926-28.517-77.442-48.862l.156-.08z"/>
    <path fill="#9bafba" d="M239.2521 244.8665c-10.644-22.978-23.696-71.873-25.104-99.735l10.055-2.096c-2.219 46.901 30.637 116.38 55.095 141.99-4.695-1.208-7.88-1.108-11.123.829-1.081.645-2.168 1.496-3.321 2.569-5.701-7.286-17.86-26.215-22.741-37.446l-2.861-6.111z"/>
    <path fill="#6d726e" d="m222.6726 142.9583 1.53.077c-2.219 46.901 30.637 116.381 55.095 141.99-4.694-1.207-7.88-1.108-11.122.829-31.219-43.888-48.23-99.895-45.503-142.896m-72.5407 35.9119 17.924-48.664.462-1.338-4.937-2.792-13.526 52.751.077.043z"/>
    <path d="M238.8262 137.9612c1.171-3.412 1.094-7.989-.505-12.75-2.966-8.842-10.054-14.971-15.827-13.687-1.059.236-2.002.705-2.815 1.369-2.872 2.344-4.139 7.109-3.328 12.587.211 1.423.561 2.892 1.063 4.381 2.873 8.567 9.613 14.586 15.282 13.787.182-.026.364-.06.543-.099 2.667-.594 4.587-2.662 5.587-5.588"/>
    <path fill="#58595b" d="M238.8262 137.9612c-1 2.926-2.92 4.994-5.587 5.588-.179.039-.361.073-.543.099-5.669.799-12.409-5.22-15.282-13.787-.502-1.489-.852-2.958-1.063-4.381l22.475 12.481z"/>
    <path fill="#bcd8e1" d="M232.7892 126.4953c-1.328-3.959-4.501-6.704-7.086-6.128-2.585.575-3.604 4.25-2.277 8.21 1.33 3.96 4.504 6.704 7.089 6.129 2.584-.575 3.604-4.252 2.274-8.211"/>
    <path fill="#8b909e" d="M219.6795 112.8932c-2.872 2.344-4.139 7.11-3.328 12.586.21 1.423.561 2.894 1.062 4.381 2.874 8.567 9.613 14.587 15.283 13.787l-7.364 2.313c-11.053-3.09-18.621-19.653-11.534-30.59l5.881-2.477z"/>
    <path d="M168.5391 92.249c1.77 1.384 46.617 36.475 46.617 36.475l.484-.548-41.712-37.101-5.389 1.174z"/>
    <path d="M179.9981 97.2372c1.26-3.679 1.176-8.614-.545-13.746-3.2-9.534-10.84-16.143-17.065-14.758-1.144.255-2.159.761-3.037 1.477-3.095 2.525-4.461 7.664-3.587 13.569.228 1.534.606 3.12 1.145 4.725 3.1 9.236 10.364 15.725 16.477 14.863.197-.027.392-.062.587-.106 2.874-.639 4.944-2.869 6.025-6.024"/>
    <path fill="#58595b" d="M179.9981 97.2372c-1.081 3.155-3.151 5.385-6.025 6.024-.195.044-.39.079-.587.106-6.113.862-13.377-5.627-16.477-14.863-.539-1.605-.917-3.191-1.145-4.725l24.234 13.458z"/>
    <path fill="#bcd8e1" d="M173.488 84.8748c-1.432-4.269-4.854-7.227-7.641-6.608-2.787.62-3.887 4.584-2.453 8.853 1.432 4.269 4.852 7.227 7.641 6.608 2.788-.62 3.885-4.584 2.453-8.853"/>
    <path fill="#8b909e" d="M159.3513 70.2099c-3.095 2.525-4.462 7.664-3.587 13.57.228 1.533.606 3.119 1.144 4.725 3.1 9.236 10.366 15.724 16.478 14.862l-7.94 2.495c-11.914-3.332-20.074-21.19-12.435-32.982l6.34-2.67z"/>
    <path fill="#ed1b35" d="M277.6998 300.7314s-5.74 1.259-14.27 3.13c-24.23 5.317-70.965 15.571-72.523 15.919-11.656.833-15.649-12.21-11.149-15.49 5.627-1.197 87.489-19.756 87.489-19.756l10.453 16.197z"/>
    <path fill="#d1223e" d="M179.758 304.2905c5.627-1.198 87.489-19.756 87.489-19.756l10.453 16.197s-5.741 1.259-14.27 3.13l-83.534 1.02-.138-.591z"/>
    <path fill="#860010" d="M283.1779 292.4101c0-4.933-4.467-8.932-9.975-8.932-5.509 0-9.974 3.999-9.974 8.932 0 4.932 4.465 8.928 9.974 8.928 5.508 0 9.975-3.996 9.975-8.928"/>
    <path fill="#e5eef1" d="M204.4888 290.1784s-1.422 1.505-5.02 7.807c-3.598 6.302-9.244 12.775 2.226 8.122 11.47-4.65 5.53-7.847 13.593-3.905 8.063 3.944 12.223 10.521 14.168 2.973 1.948-7.549 8.873-4.896-.995-11.919-9.867-7.025-5.503-4.16-9.867-7.025-4.365-2.869-12.043-2.228-12.043-2.228l-2.062 6.175z"/>
    <path fill="none" stroke="#e7eef3" stroke-miterlimit="10" stroke-width=".486" d="M204.4888 290.1784s-1.422 1.505-5.02 7.807c-3.598 6.302-9.244 12.775 2.226 8.122 11.47-4.65 5.53-7.847 13.593-3.905 8.063 3.944 12.223 10.521 14.168 2.973 1.948-7.549 8.873-4.896-.995-11.919-9.867-7.025-5.503-4.16-9.867-7.025-4.365-2.869-12.043-2.228-12.043-2.228l-2.062 6.175z"/>
    <path fill="#ce9468" d="M210.7273 226.9728c-.803-2.689-3.898-4.248-6.911-3.482l-25.805 6.57c-3.012.767-4.808 3.571-4.008 6.262l15.812 53.135c.803 2.688 3.895 4.246 6.909 3.48l25.807-6.57c3.014-.766 4.811-3.57 4.007-6.258l-15.811-53.137z"/>
    <path fill="#b7906b" d="M189.2526 286.0506s21.344-9.32 36.061-8.157l-1.254-3.74s-16.671-.75-35.88 8.772l1.073 3.125z"/>
    <path fill="#b7906b" d="M190.6036 290.1118s21.343-9.32 36.061-8.156l-1.254-3.741s-16.672-.75-35.881 8.772l1.074 3.125zm-2.6154-8.3318s21.344-9.32 36.061-8.157l-1.254-3.739s-16.671-.751-35.88 8.771l1.073 3.125z"/>
    <path fill="#b7906b" d="M186.7072 277.4595s21.344-9.319 36.061-8.156l-1.254-3.74s-16.671-.751-35.88 8.772l1.073 3.124z"/>
    <path fill="#b7906b" d="M185.4665 273.2747s21.344-9.32 36.061-8.156l-1.255-3.741s-16.67-.75-35.879 8.772l1.073 3.125z"/>
    <path fill="#b7906b" d="M184.0917 269.1277s21.343-9.32 36.061-8.157l-1.254-3.74s-16.672-.75-35.88 8.772l1.073 3.125z"/>
    <path fill="#b7906b" d="M182.717 264.9823s21.343-9.32 36.061-8.157l-1.255-3.74s-16.671-.75-35.88 8.772l1.074 3.125z"/>
    <path fill="#b7906b" d="M181.6673 260.4472s21.344-9.319 36.061-8.156l-1.255-3.74s-16.67-.751-35.879 8.772l1.073 3.124z"/>
    <path fill="#b7906b" d="M180.2925 256.3027s21.343-9.32 36.06-8.157l-1.254-3.74s-16.671-.751-35.879 8.772l1.073 3.125z"/>
    <path fill="#b7906b" d="M179.4566 251.9953s21.343-9.32 36.061-8.157l-1.254-3.74s-16.671-.75-35.88 8.772l1.073 3.125z"/>
    <path fill="#b7906b" d="M177.7717 247.7957s21.343-9.32 36.061-8.157l-1.254-3.74s-16.672-.75-35.88 8.772l1.073 3.125z"/>
    <path fill="#b7906b" d="M176.7071 243.7065s21.344-9.32 36.061-8.157l-1.254-3.74s-16.671-.75-35.88 8.772l1.073 3.125z"/>
    <path fill="#b7906b" d="M175.1571 239.4665s21.343-9.32 36.061-8.157l-1.254-3.74s-16.672-.75-35.881 8.772l1.074 3.125z"/>
    <path fill="#fff" d="m193.0088 261.6493 1.009.553c.831.454 1.325.821 1.48 1.104.214.388.2.756-.046 1.11-.114.164-.244.293-.392.389-.15.097-.397.203-.745.324-.428.155-.7.323-.827.503-.181.26-.146.576.104.945l.512.747c.352.525.545 1.052.573 1.582.032.53-.096 1.004-.389 1.425-.413.594-1.002.935-1.774 1.022-.767.088-1.571-.097-2.407-.554-.855-.467-1.553-1.09-2.097-1.867-.544-.778-.855-1.586-.939-2.422-.083-.836.093-1.568.526-2.194.185-.264.41-.467.675-.604.268-.138.611-.226 1.027-.268.263-.017.443-.047.542-.09.099-.041.189-.119.271-.238.125-.179.156-.373.1-.581-.061-.209-.193-.371-.402-.485-.347-.187-.755-.249-1.23-.184-.474.066-.936.241-1.389.523-.451.28-.832.646-1.143 1.092-.589.851-.84 1.828-.753 2.934.091 1.102.49 2.17 1.204 3.2.713 1.028 1.639 1.856 2.779 2.481.865.472 1.714.751 2.546.839.83.087 1.597-.02 2.296-.321.701-.305 1.276-.779 1.726-1.431.675-.974.808-2.081.397-3.323-.199-.591-.482-1.081-.849-1.473.413-.149.753-.307 1.009-.485.258-.177.483-.402.671-.673.311-.446.46-.92.449-1.425-.01-.502-.178-.977-.508-1.426-.181-.241-.416-.468-.7-.675-.284-.209-.726-.478-1.324-.803l-1.721-.942c-.204-.112-.361-.19-.466-.23-.109-.04-.228-.065-.361-.075-.343-.004-.61.133-.801.409-.076.116-.138.247-.181.399-.045.153-.087.389-.126.706l-1.105 7.886c-.056.429-.057.736-.009.923.05.186.176.335.38.446.196.11.404.144.615.1.213-.042.375-.146.489-.311.089-.13.164-.397.224-.811l1.08-7.751zm5.4193 8.7936c.055.037.111.072.172.107.469.254.919.355 1.354.299.434-.057.766-.256 1.005-.601.193-.277.284-.598.276-.962-.008-.364-.114-.884-.315-1.56l-.279-.928c-.153-.48-.173-.799-.06-.964.069-.099.159-.154.279-.166.119-.013.242.016.373.086.265.146.579.45.948.912.364.462.694.961.987 1.505.172.306.286.498.346.581.062.082.139.15.236.202.156.087.322.108.497.067.174-.045.313-.14.413-.288.116-.165.147-.365.095-.607-.053-.24-.198-.569-.437-.99-.379-.661-.782-1.207-1.198-1.636-.413-.427-.874-.78-1.376-1.056-.568-.309-1.09-.438-1.576-.383-.483.051-.863.275-1.138.67-.246.358-.324.812-.228 1.359.089.415.252.996.489 1.742.175.524.271.851.291.974.019.123-.004.234-.073.332-.082.118-.19.171-.324.161-.133-.008-.322-.078-.569-.205.052-.312.052-.552-.003-.724-.051-.17-.17-.303-.35-.402-.187-.101-.379-.134-.57-.096-.195.039-.349.139-.465.305-.082.117-.15.363-.204.735l-.163 1.213c-.056.418-.06.706-.017.866.045.163.164.294.354.4.181.101.37.133.565.098.193-.036.348-.134.463-.298.079-.118.146-.346.189-.68l.013-.068z"/>
    <path fill="#fff" d="M203.8598 269.5877c-.347.185-.607.405-.785.661-.479.692-.377 1.533.309 2.523.223.32.45.609.681.866.231.256.408.417.533.487.178.098.366.13.558.095.192-.037.344-.135.454-.293.118-.17.135-.352.051-.545-.062-.113-.258-.382-.583-.809l-.428-.55c-.177-.24-.285-.435-.323-.589-.036-.156-.009-.296.077-.425.06-.081.15-.166.28-.248.406.56.703.891.89.995.152.082.324.103.516.06.193-.043.344-.139.446-.287.093-.135.128-.272.106-.415-.022-.142-.108-.308-.258-.496-.067-.093-.197-.263-.384-.506l-.55-.725c-.224-.3-.367-.539-.434-.72-.064-.18-.053-.334.037-.463.132-.189.341-.205.629-.048.356.195.762.552 1.217 1.07.456.518.859 1.083 1.212 1.701.241.437.438.694.584.774.164.09.332.117.507.077.175-.038.313-.132.418-.28.134-.195.149-.439.048-.731-.099-.293-.353-.732-.754-1.321-.44-.622-.869-1.131-1.284-1.528-.417-.397-.855-.721-1.319-.974-.553-.304-1.066-.425-1.541-.364-.478.062-.854.297-1.136.702-.438.636-.365 1.403.226 2.306"/>
    <path fill="#fff" d="M212.4508 271.2235c-.192-.466-.38-.812-.561-1.039-.181-.225-.419-.419-.705-.576-.499-.273-.991-.345-1.478-.221-.487.126-.897.428-1.226.903-.432.621-.619 1.386-.571 2.299.05.908.337 1.796.86 2.662.17.297.389.608.657.933.272.325.553.616.847.876.296.262.566.457.811.59.512.282.896.238 1.152-.132.118-.169.143-.332.079-.492-.068-.159-.242-.352-.526-.581-.469-.373-.845-.742-1.133-1.108-.287-.368-.527-.773-.724-1.22-.248-.554-.383-1.09-.397-1.612-.019-.52.073-.928.275-1.22.112-.161.239-.264.388-.313.147-.05.292-.036.432.042.203.109.362.298.482.563.114.265.215.649.295 1.152l-.043.211c-.07.406-.107.623-.101.655l-.089.651c-.057.406-.06.709-.006.909.055.197.181.352.387.464.18.098.362.134.545.104.185-.03.328-.116.427-.26.093-.134.163-.382.212-.744l.087-.682c.013-.101.026-.2.038-.302.016-.104.026-.21.036-.316.037-.332.092-.55.163-.652.127-.186.289-.222.488-.115.123.068.245.207.361.415.118.209.297.598.54 1.167.145.335.243.548.299.641.055.096.135.169.236.226.145.081.312.105.492.073s.317-.112.405-.24c.218-.311.126-.882-.278-1.709-.303-.618-.581-1.083-.836-1.395-.255-.314-.556-.565-.899-.753-.554-.303-1.03-.254-1.421.146"/>
    <path fill="#fff" d="M217.5223 279.1697c-.446-.42-.806-.904-1.087-1.457-.283-.556-.446-1.094-.489-1.615-.044-.524.048-.947.275-1.276.105-.153.238-.252.399-.298.157-.043.313-.021.467.061.169.093.329.285.485.573.155.29.278.623.377 1.002l-.427 3.01zm-.243 1.733-.408 2.967c-.054.415-.06.704-.016.865.044.164.16.296.354.4.187.105.375.137.568.101.192-.037.347-.138.459-.3.083-.118.148-.367.204-.748l.992-7.121c.051-.353.128-.605.231-.754.042-.055.108-.094.198-.107.093-.017.175-.009.241.03.126.068.235.191.335.368.099.178.299.61.594 1.295.115.281.206.474.273.577.064.105.148.184.25.239.139.076.304.096.496.059.189-.037.328-.121.418-.249.095-.138.121-.345.074-.615-.044-.272-.168-.623-.369-1.051-.293-.614-.577-1.086-.85-1.422-.274-.338-.574-.596-.9-.776-.255-.139-.5-.198-.735-.179-.238.021-.477.121-.721.305-.342-.8-.798-1.357-1.376-1.673-.468-.257-.951-.32-1.444-.192-.493.129-.902.426-1.226.892-.447.646-.644 1.403-.59 2.27.054.865.337 1.728.857 2.582.516.857 1.214 1.602 2.091 2.237"/>
    <path fill="#faed23" d="m161.2369 263.421-8.059-5.233s-1.472-.579-1.942-1.756c-.584-1.458-14.037-37.45-14.037-37.45s-.55-1.658.081-2.471c0 0 1.096-1.729 2.72-1.926l50.15-8.155s3.589-.837 6.16 1.53l2.879 3.545-37.952 51.916z"/>
    <path fill="#fcf38e" d="M145.8719 217.0936c-3.148.447-4.326 4.132-2.578 8.201l14.551 33.852c1.654 3.845 5.309 6.146 8.115 5.178l44.871-15.464c1.844-.635 2.361-3.619 1.182-6.689l-10.318-26.864c-1.234-3.21-3.859-5.591-5.896-5.302l-49.927 7.088z"/>
    <path fill="#f0eada" d="M175.8291 229.094c-5.021-7.727-19.969-5.502-24.435.256-4.467 5.756 4.696 9.826 13.726 15.443 9.028 5.616 2.461 10.081 18.97 4.895 7.388-2.32-2.73-12.086-8.261-20.594"/>
    <path fill="#f0eada" d="M196.2131 222.7012c-1.579-2.959-19.969-5.503-24.435.255-4.466 5.757 4.696 9.827 13.726 15.444 9.028 5.616 13.888 9.292 18.972 4.895 5.63-4.871-3.519-11.713-8.263-20.594"/>
    <path fill="#04a8ad" d="M162.935 241.6789c-.123-.496-.55-.702-1.057-.601-.456.091-.62.323-.62.736.015.273-.484.603-1.234.752-2.02.404-4.202-2.166-4.658-4.006-.466-1.868.384-2.926 1.395-3.128.994-.199 2.228.154 2.846.643.128.373.388.797 1.072.659.588-.116.754-.548.697-.782-.061-.233-.192-.483-.682-.814-.889-.543-2.741-1.247-4.45-.89-2.006.4-3.118 1.986-2.439 4.716.545 2.191 3.37 5.427 6.437 4.816 1.825-.364 2.868-1.399 2.693-2.101m4.7788-4.9374c.128.511.079.659-.198.714-.457.091-1.521.012-2.676-.845l-.667-2.687c.055-.118.073-.26.027-.434-.089-.366-.72-.486-1.24-.382-.489.098-.629.294-.554.6.059.235.131.389.235.46l1.882 7.563c.017.135-.074.322-.043.453.12.482.627.657 1.213.54.262-.053.71-.448.619-.813-.035-.146-.156-.291-.256-.409l-.855-3.446.031-.007c1.255.639 2.508.864 3.374.692.864-.173 1.024-.695.781-1.673l-1.002-4.031c-.007-.089.079-.23.051-.347-.084-.335-.665-.541-1.123-.451-.505.102-.801.36-.724.667.04.16.123.358.282.449l.843 3.387zm6.2683 3.1788c-.215-.861-.811-1.262-1.316-1.162-.524.103-.662.438-.561.846.186.746.689 1.258 1.309 1.134.474-.094.671-.394.568-.818m-1.013-3.245-1.039-4.176c.066-.074.153-.276.11-.451-.124-.497-.864-.58-1.368-.479-.424.085-.668.409-.562.832.064.264.234.398.318.459l1.009 4.058c-.077.108-.086.278-.053.409.103.408.245.841 1.238.642.375-.075.722-.542.63-.845-.064-.248-.23-.369-.283-.449m7.9525-1.4645c-.101-.408-.471-.656-1.123-.527-.359.072-.392.278-.431.47-.055.194-.121.407-.677.518-.569.113-1.125-.052-1.713-.425-.679-.387-1.471-1.102-1.72-2.093-.221-.891.152-1.518 1.132-1.713.375-.075.75-.012 1.12.099.404.117.878.361 1.181.683.194.375.367.648.887.543.62-.122.701-.554.647-.772-.041-.161-.759-.984-1.837-1.397-.823-.356-1.636-.454-2.646-.253-1.616.323-2.38 1.517-2.038 2.889.419 1.679 1.329 2.325 2.515 3.023.572.376 1.84.722 2.719.546 1.256-.251 2.14-.964 1.984-1.591m2.8109-1.9092.028-.021c.601.417.987.662 1.349.881l1.804.989c.079.244.394.412.735.343.572-.114.761-.52.67-.885-.082-.335-.444-.478-.687-.429l-2.847-1.67 1.912-2.91c.316-.032.56-.295.483-.603-.103-.423-.577-.666-1.213-.538-.276.054-.431.254-.464.535l-1.276 1.957c-.184.297-.42.651-.734 1.249l-.035-.007-.453-1.811c.013-.156.101-.357.06-.517-.126-.511-.49-.669-1.144-.539-.391.078-.864.311-.707.938.026.103.092.304.269.392l1.836 7.387c-.066.075-.129.302-.092.448.083.336.317.657 1.131.495.621-.124.835-.365.719-.833-.03-.117-.107-.286-.226-.353l-1.118-4.498zm6.8852-1.6946c2.999-.124 3.462.014 3.512.218.088.351-.091.801-.81.944-.928.186-1.98-.325-2.702-1.162m4.979-.013c-.164-.656-.819-1.154-4.751-.998l-.778.032c-.141-.217-.239-.473-.31-.765-.183-.731.169-1.107.871-1.246 1.125-.225 2.214.17 2.607.506.035.346.436.587.975.48.602-.121.646-.497.575-.788-.103-.409-1.946-1.835-4.622-1.302-1.384.276-2.311 1.028-1.936 2.533.674 2.715 3.298 4.246 5.434 3.819 1.843-.368 2.076-1.701 1.935-2.271m2.0814-4.4907c.057-.119.066-.214.026-.374-.092-.38-.701-.412-1.14-.323-.407.081-.78.308-.693.658.044.175.121.282.298.37l.566 2.278c-.112.099-.182.296-.124.53.058.234.201.467.455.799l.292 1.167c-.05.148-.071.275-.024.465.074.292.656.498 1.16.397.621-.123.749-.364.673-.672-.05-.203-.185-.33-.276-.419l-.143-.568c1.974.908 2.78 1.055 3.367.937.587-.117 1.099-.74.983-1.208l-1.184-4.76c.01-.093.054-.194.003-.399-.112-.453-.479-.548-1.081-.428-.554.111-.782.371-.694.721.04.161.132.249.242.351l1.016 4.088c.025.103-.191.329-.306.351-.164.033-.814-.037-2.653-.895l-.763-3.066z"/>
    <path fill="#b3b4b4" d="M172.1666 221.3484c-.34-2.228-6.492-3.312-13.744-2.423-7.247.89-12.847 3.415-12.507 5.644.34 2.226 6.494 3.311 13.743 2.422 7.249-.889 12.85-3.417 12.508-5.643"/>
    <path fill="#ec2127" d="m164.4578 188.0257 7.709 33.323c-.34-2.229-6.493-3.312-13.745-2.423-7.246.89-12.846 3.415-12.506 5.643l-.407-8.549-.619-12.945.426-10.862c3.905-2.311 12.655-4.345 19.142-4.187"/>
    <path fill="#e6e6e6" d="m144.0896 202.1201 1.26 17.136c1.26-1.506 20.717-4.733 22.473-4.82l-1.527-12.099c-8.365-.611-17.641-2.944-22.206-.217"/>
    <path fill="#f2eeea" d="M168.781 221.8996c-.205-1.334-4.567-1.901-9.741-1.266-5.175.635-9.206 2.231-9.003 3.566.205 1.335 4.567 1.903 9.742 1.268 5.176-.635 9.207-2.233 9.002-3.568"/>
    <path fill="#ed1d24" d="m148.4005 213.7938.17.005-.263-1.58-.181-.001c.032.434-.052.77-.252 1.009-.198.239-.476.353-.831.344-.311-.009-.576-.105-.792-.287-.213-.182-.339-.42-.387-.712-.042-.274-.005-.519.114-.742.118-.224.405-.514.866-.873.547-.423.902-.793 1.069-1.109.165-.317.212-.675.145-1.072-.086-.509-.324-.933-.706-1.27-.38-.33-.789-.479-1.228-.445-.251.02-.557.121-.917.305-.146.074-.24.113-.282.115-.09.008-.169-.066-.242-.219l-.157.011.255 1.662.16-.008c-.069-.461.005-.837.219-1.133.217-.296.503-.456.855-.482.34-.025.631.059.87.248.245.193.397.462.454.809.043.261-.005.514-.138.76-.134.246-.445.566-.928.958-.39.319-.638.568-.756.746-.116.179-.191.375-.228.587-.035.212-.035.444.006.698.075.492.275.893.603 1.209.332.317.728.484 1.197.498.257.007.532-.044.823-.153.138-.049.239-.074.294-.072.048.002.083.014.104.037.021.023.049.075.084.157m3.8956-4.8971c.118.615.083 1.117-.1 1.502-.182.384-.489.579-.917.585-.422.005-.785-.171-1.088-.529-.301-.352-.501-.832-.607-1.439-.106-.592-.074-1.069.097-1.433.17-.367.46-.567.875-.597.418-.03.785.127 1.097.474.315.35.529.83.643 1.437m.879-.035c-.125-.654-.448-1.183-.967-1.585-.508-.393-1.074-.567-1.692-.52-.612.049-1.077.291-1.401.728-.32.433-.43.954-.325 1.568.108.625.393 1.141.865 1.551.479.415 1.034.623 1.667.617.646-.006 1.149-.233 1.505-.679.359-.452.477-1.013.348-1.68m5.7662 2.2798.237-.004-.855-3.949c-.057-.255-.036-.432.059-.528.096-.098.314-.159.652-.183l-.049-.217-1.791.044.175.834-.024.001c-.601-.56-1.204-.811-1.816-.765-.433.033-.754.201-.969.5-.214.299-.278.659-.195 1.084l.451 2.277c.043.232.019.392-.081.476-.098.085-.298.129-.594.134l.04.208 1.476.122.221-.002-.651-3.229c-.062-.31-.02-.56.13-.751.148-.193.381-.299.698-.322.441-.03.909.189 1.4.662l.53 2.504c.07.324.061.528-.024.611-.089.086-.342.135-.76.15l.045.217 1.695.126zm3.114-1.2389-.703-3.047c.328-.425.773-.661 1.353-.703.492-.035.959.14 1.402.533.445.394.75.906.903 1.532.167.685.13 1.255-.111 1.711-.246.454-.634.685-1.164.693-.531.01-1.091-.233-1.68-.719m.279 1.204-.193-.836c.419.298.789.51 1.109.635.322.124.668.185 1.037.18.754-.007 1.327-.27 1.711-.791.385-.525.484-1.18.289-1.953-.198-.794-.645-1.43-1.325-1.909-.668-.471-1.4-.672-2.19-.612-.538.043-1.037.273-1.498.691l-.716-3.101c-.073-.316-.061-.532.037-.645.096-.114.316-.192.652-.232l-.052-.219-2.711.332.048.212c.341-.041.579-.025.719.048.138.076.237.237.293.485l1.489 6.583c.072.328.067.539-.021.631-.086.092-.329.139-.729.146l.051.228 1.737.13.263-.003z"/>
    <path fill="#9bafba" d="M234.0422 231.4939c-1.311-3.546-2.632-7.136-2.693-7.474l-74.593-41.468-6.624-3.681-6.57 1.214.255 8.99 92.861 49.591c-.135-.441-1.382-3.788-2.636-7.172"/>
    <path fill="#f7bd5b" d="m116.0732 234.7894 5.444 26.836-23.2 6.402 1.538-25.714 16.218-7.524z"/>
    <path fill="#faa74a" d="m164.52 251.6194-48.447-16.83 5.445 26.836 49.214 12.929-6.212-22.935z"/>
    <path fill="#f9c97b" d="m154.9212 278.6301-56.604-10.603 23.201-6.401 49.214 12.928-15.811 4.076z"/>
    <path fill="#be1e2d" d="m133.9038 259.8995-.093-.03-.495-.226-.318-.189-.669-.472-.463-.413-.514-.559-.138-.282-.363-.427-.204-.476-.24-.519-.165-.481-.127-.558-.234-.713.046-.614-.042-.136-.001-.473.04-.063.014-.693.094-.611.009-.04.236-.733.163-.446.654-1.109.37-.387.359-.239.195-.189.428-.226.296-.156.436-.083-.038.149-.098.056-.191.403-.122.284-.252.789-.318.96-.104.866-.047.051-.056.309-.031.777-.032.543.022.338-.003.887.135.813.175.825.093.237.233.669.194.456.255.528.118.256.194.35.377.557.303.479-.081-.039zm1.86 2.222.1-.085.131-.048.108-.121-.298-.337-.415-.489.066-.043.195.013.034-.003.598.004.799-.086.139-.075.124.017.563-.114.784-.234.835-.483.292-.263.371-.544.221-.574.134-.85-.106-.448-.012-.175-.091-.246-.046-.243-.028-.055-.253-.413-.01-.081-.295-.515-.54-.535-.691-.53-.584-.318-.196-.082-.538-.196-.212-.007-.188-.051-.425-.014-.527.111-.358.147-.326.147-.509.576-.201.323-.094.491.029.41-.05.227.289.551.31.373.124.169.504.337.005.06.33.098.063.055.224.033.322-.09.531-.253.596-.383.014-.054-.021-.044-.225.071-.183.023-.353-.077-.072-.055-.143.003-.073-.145-.132-.004-.19-.204-.227-.194-.038-.069-.172-.062-.312-.476-.009-.262-.046-.293-.004-.454.256-.447.051-.068.404-.234.219-.022.544.025.478.177.488.199.778.516.339.345.614.806.202.429.236.859.039.432-.063.557-.219.45-.152.277-.392.442-.784.474-.607.197-.474.048-.861.079-1.01-.143-.153-.042-.115.013-.476-.133-.144-.08-.195-.275-.587-.895-.322-.547-.031-.096-.187-.291-.055-.183-.302-.62-.021-.216-.07-.096-.065-.51-.088-.155-.081-.232.026-.144-.094-.086.025-.238-.063-.576-.064-.665.002-.556-.066-.202.017-.204.018-.724.111-.617.027-.191-.009-.108.132-.699.287-1.061.042-.029.254-.605.232-.711.177-.17.07-.215.18-.147.848-.121 1.217.063 1.268.348.605.232.956.53.957.699.343.352.585.816.149.399.107.433-.045.704-.054.114-.216.275-.427.227.15.081.046.024.452-.01.384-.117.214-.196.211-.264.053-.689-.098-.069.073-.068-.037-.132-.169-.551-.343-.618-.404-.469-.709-.65-.175-.127-.555-.371-.508-.317-.541-.267-.392-.197-1.722-.454-.504-.107-.997-.06-.217.007.301-.419.146-.234.135-.108.277-.275-.022-.103-.108-.089-.182.057-.087.006-.163.119-.383.407-.13.13-.259.338-.2.217-1.038.281-.583.212-.813.369-.55.345-.505.457-.55.588-.1.047-.562.781-.142.304-.464 1.099-.182.625.013.057.01-.041-.138.699-.028.617.086.465-.016.313.084.512.067.08-.036.095.204.673.163.38.262.526.203.354.178.357.321.399.679.716.546.47.491.316.375.219.157.113.606.277.485.25.563.139.553.164.621.134.099.124.138.231.095.021.194.174.028.14.118.043.22.36.178.065zm6.9835-.7473.366.027.584-.059.137-.171.026-.596.022-.176-.053-.121.012-.282-.042-.058.08-.144-.073-.083.015-.125h.078l-.048-.067.037-.065-.021-.197-.057-.043.076-.056-.037-.111.032-.213-.045-.123.047-.331-.052-.031.075-.048-.051-.068.021-.07-.073-.093.031-.216-.019-.042-.007-.631-.114-.123.116-.017-.037-.329.039.008-.01-.143-.043-.03-.002-.303-.02-.072.066-.088-.102-.206.066-.059-.111-.107.047-.026.083-.005-.055-.054.037-.056-.056-.091.017-.064-.048-.079.069-.277-.072-.029.043-.189-.078-.081.018-.35.129.084-.068.057.05.043.178.473.067.047.135.475.162.244.115.051-.055.05.226.458.06.205.066.045.01.039.451.718.123.068.301.079.273-.04.298-.264.096-.428-.026-.082.053-.079-.085-.172.073-.054-.039-.132.055.014-.025-.315-.069-.065.124-.126-.13-.223.069-.064-.015-.118.059-.106-.124-.034.123-.165-.094-.11.06-.003-.093-.12.038-.226.082.014-.01-.098-.045-.013-.04-.067.142-.149-.115-.081.181-.691.052-.04.077-.131.096-.028.313.197.249.285.058.168.091-.049-.182-.406-.152-.283-.288-.22-.253-.076-.342.05-.046.063-.177.025-.032.143-.253.232.042.09-.025.021-.084-.023.008.154-.125.432.06.027-.127.06.018.186-.046.395-.066-.009.087.112-.016.469-.093.079.138.102.018.176-.067.029-.053.388.072.162v.506l-.07.073-.092-.024-.317-.535-.398-.758-.328-.779-.325-1.064-.155-.714-.121-.995-.092-.74-.05-.263-.154-.155-.19.038-.043-.033-.119.093-.182-.026-.053.075.042.072-.042.195.016.501-.017.173.044.142.074.072-.001.483-.048.21.09.487-.01.044.09.223-.093.002-.026.09.075.177-.063.187.034.173.071.04-.082.364.042.138-.052.187.044.061-.022.368.084.283-.105.116.046.164-.078.093.088.197.027.112-.083.015.063.169-.062.145.061.11-.046.302-.005.8.053.06-.074.047.078.188-.073.04-.009.492.039.773-.04 1.18.002.439-.035.022-.429-.298-.147-.154-.081-.018-.688-.64.076-.122.204-.363-.193.001-.471.444-.09.212.071.184.203.063.088.086.158-.02.059.041-.029.066.225.099.103.087.307.125.629.36-.035.056zm7.1787-3.7353-.256-.151-.325-.316-.221-.349-.282-.574-.15-.827.031-.037.054-.02.39.222.51.466.463.685.134.434.005.228-.104.223-.249.016zm-.406.261.236.035.623-.21.067-.072.278-.177.062-.35-.117-.366-.116-.16-.447-.599-.047-.032-.072-.002-.033-.073-.572-.43-.298-.131.007-.055-.199-.02-.202-.112.116-.647-.021-.025.362-.426.425-.105.261.06.231.098.367.229.387.421.046.06.306.466-.062-.431-.244-.459-.442-.402-.44-.264-.169.005-.143-.081-.106.043-.076-.032-.472.1-.474.261-.177.182-.2.289-.239.754-.427.28.096.063.297-.101.042.178.133.703.265.533.277.386.476.447.234.106.201.063zm4.1903.7571-.24-.143-.301-.301-.197-.336-.258-.548-.126-.793.03-.036.049-.021.364.21.47.444.424.656.118.418.001.217-.101.217-.233.016zm-.387.252.22.033.59-.206.064-.07.264-.171.063-.34-.103-.35-.105-.152-.411-.573-.043-.03-.069-.002-.028-.07-.532-.41-.277-.125.008-.05-.186-.018-.187-.106.119-.622-.019-.024.345-.411.399-.107.246.056.216.092.34.218.356.401.042.056.28.446-.051-.414-.223-.439-.406-.381-.41-.25-.158.005-.133-.075-.1.042-.071-.033-.445.103-.449.255-.169.175-.192.279-.237.725-.404.274.091.061.278-.101.037.171.112.675.24.51.254.369.44.425.217.103.187.056zm5.235 1.5671.061-.189-.009-.286.035-.158-.047-.045.008-.098-.178-.351-.067-.11-.136-.112-.246-.128-.028.017-.256-.019-.159.023-.107.014-.273.179-.113.129-.129.38-.02.221.094.202.172.114.083.012.072-.005.28-.127.007-.024.107-.038.034-.059-.1-.059-.201-.037-.088-.082-.112-.241.009-.15.019-.037.104-.098.067-.091.188-.042.188.008.13.088.23.365.059.308-.018.129-.136.454-.221.3-.067.057-.201.115-.085.002-.05.054-.064-.024-.269.005-.121-.09-.038.017-.026-.016-.019-.039-.121-.045-.233-.228-.152-.402-.041-.154.034-.643.016-.105.121-.333.075-.107.011-.058.049-.054.328-.379.329-.265.79-.5.674-.519.224-.308.114-.06.153-.263.22-.585.028-.188.013-.264-.037-.055.039-.073-.058-.217.031-.095-.086-.182.02-.162-.098-.065.031-.053-.08-.173-.012-.04-.083-.068-.044-.137-.209-.306-.03-.011-.401-.352-.332-.172-.435-.164-.07.013-.08-.062-.396.02-.665.213-.24.174-.112.035-.386.316-.071.121-.093.078-.196.386-.043.193-.069.085-.007.24-.051.135.012.236-.03.098.043.083-.015.103.064.17.008.089.071.119.005.099.358.465.061.02.007.028.31.255.562.182.158.013.365-.066.152-.051.346-.269.237-.292.034-.111.077-.14-.034-.045.08-.149-.017-.282-.036-.039.03-.017.005-.043-.09-.096-.005-.168-.123-.204-.009-.126-.19-.096-.043-.073-.361-.107-.329.074-.278.248-.148.263-.024.557.057.077.032.011.035-.007.067-.06-.031-.21.078-.284.348-.235.077-.012.082.027.066.027.24.226.061.271-.01.085.042.126-.07.405-.15.266-.139.184-.276.127-.256.003-.312-.128-.366-.422-.209-.449-.023-.007-.088-.584.048-.259-.008-.138.17-.553.289-.462.094-.086.364-.248.145-.034.151-.058.165.009.052-.037.116.054.162-.007.401.194.29.255.082.025.019.094.03.011.17.31.182.471-.007.102.045.163-.029.035.047.108-.023.732-.148.489-.178.307-.274.383-.22.27-.085.035-.048.054-.067.034-.008.048-.496.345-.093.067-.53.415-.255.274-.214.215-.268.405.017.047-.062.146-.022.081-.066.466.04.205.036.17.273.373.129.126.386.216.05.021.522.107.175-.007.384-.051.328-.121.115-.07.147-.143.237-.353zm2.8591.2558-.203-.128-.254-.271-.16-.307-.206-.5-.082-.727.027-.033.044-.021.308.187.397.401.347.596.089.383-.006.202-.096.2-.205.018zm-.345.239.192.027.521-.2.059-.064.234-.163.068-.312-.079-.323-.087-.138-.34-.52-.035-.026h-.059l-.024-.066-.45-.367-.236-.109.007-.048-.162-.013-.158-.095.125-.573-.018-.023.315-.384.353-.103.212.047.185.081.288.195.299.362.035.052.23.405-.031-.38-.18-.399-.343-.344-.349-.224-.138.008-.114-.068-.09.04-.059-.026-.391.1-.399.242-.152.164-.177.26-.232.67-.361.257.076.054.246-.096.026.156.077.62.191.463.209.337.369.383.187.09.16.051z"/>
    <path fill="#c2bd99" d="m141.9053 179.6176-68.672 2.051-7.502 56.939 68.982 1.36 7.192-60.35z"/>
    <path fill="#dcd9c5" d="m133.7479 239.8582-67.577-1.452 4.205 6.1 66.348 2.44-2.976-7.088z"/>
    <path fill="#a9a573" d="m141.709 180.0951-7.974 59.887 3.13 6.98 8.47-61.833-3.626-5.034z"/>
    <path fill="#ebd3b4" d="M131.7247 212.0563c.521-12.422-10.987-23.559-25.983-25.24-15.319-1.718-29.119 6.971-30.56 19.805-1.486 13.255 10.739 25.388 27.012 26.678 15.906 1.258 28.99-8.429 29.531-21.243"/>
    <path fill="#cb6b56" d="M117.4268 222.5251c.157-2.652-2.266-5.023-5.42-5.309-3.17-.289-5.906 1.628-6.102 4.299-.195 2.688 2.256 5.1 5.464 5.369 3.195.269 5.902-1.691 6.058-4.359m-20.2919-3.1525c.224-2.676-2.213-5.073-5.454-5.371-3.258-.3-6.121 1.627-6.385 4.321-.266 2.713 2.201 5.153 5.497 5.435 3.283.279 6.115-1.692 6.342-4.385m-2.8774-15.6796c.229-2.582-2.169-4.931-5.366-5.258-3.212-.331-6.043 1.499-6.311 4.098-.272 2.618 2.155 5.006 5.404 5.319 3.237.312 6.04-1.558 6.273-4.159m14.028-8.6104c.181-2.502-2.176-4.792-5.274-5.133-3.112-.342-5.82 1.41-6.036 3.928-.222 2.533 2.164 4.864 5.313 5.19 3.136.323 5.816-1.468 5.997-3.985m2.6058 14.7823c.174-2.587-2.222-4.925-5.361-5.238-3.155-.314-5.892 1.529-6.106 4.135-.216 2.619 2.208 5 5.4 5.296 3.178.295 5.889-1.59 6.067-4.193m11.3958-9.2824c.135-2.506-2.218-4.789-5.269-5.114-3.067-.329-5.7 1.437-5.874 3.959-.173 2.539 2.211 4.86 5.311 5.173 3.091.308 5.694-1.496 5.832-4.018m6.979 11.7989c.117-2.563-2.264-4.876-5.328-5.178-3.073-.305-5.698 1.527-5.851 4.108-.152 2.596 2.257 4.947 5.369 5.236 3.097.284 5.693-1.587 5.81-4.166"/>
    <path fill="#74664b" d="M76.3593 226.6564c-.854 3.968-1.01 4.697-1.257 5.53-.259.883-.628 1.298-1.834 1.473-.295.05-.913.073-1.424.072-.401-.003-.632.049-.671.237-.041.185.205.24.753.241 1.899.004 4.098-.068 5.044-.067 1.357.007 3.207.085 4.648.088 3.738.008 5.239-.976 5.767-1.32.72-.478 1.718-1.505 1.988-2.727.727-3.289-1.631-5.879-5.817-6.273-.153-.014-.489-.046-.653-.035-.159.01-.383.015-.421.19-.043.2.159.294.808.354 1.694.15 3.64 1.86 3.106 4.297-.175.787-.611 2.379-2.52 3.538-1.261.784-2.556.916-3.275.906-.478-.004-.949-.035-1.224-.114-.151-.053-.214-.204-.155-.479l2.19-10.097c.505-2.338.942-4.348 1.338-5.419.249-.696.558-1.226 1.514-1.173.439.022 1.12.084 1.57.159.331.055.495.007.521-.118.037-.173-.185-.288-.515-.346-2.014-.344-4.024-.61-4.869-.754-.755-.129-2.864-.573-4.253-.811-.459-.08-.725-.042-.765.149-.03.136.095.241.521.311.525.091.932.212 1.232.319.664.221.71.83.681 1.621-.068 1.134-.514 3.215-1.037 5.634l-.991 4.614zm18.8112-.3188c-.638 2.85-.756 3.381-.913 3.975-.192.639-.466.85-.97.969-.268.059-.549.072-.83.063-.229-.006-.369.035-.408.214-.027.113.146.162.5.173.835.021 2.326.016 2.929.033.527.015 1.854.092 2.633.112.252.008.418-.03.442-.137.038-.168-.064-.212-.27-.219-.205-.005-.359-.032-.578-.08-.535-.104-.643-.367-.544-1.01.083-.58.199-1.095.823-3.866l.725-3.233c.398-1.77.729-3.241.996-4.005.178-.486.378-.746.985-.734.277.002.725.055 1.012.102.218.036.328-.053.347-.139.03-.127-.109-.216-.327-.254-1.292-.221-2.679-.393-3.239-.488-.471-.08-1.9-.394-2.762-.542-.273-.047-.44-.005-.469.13-.021.093.029.218.303.264.322.054.566.118.752.197.419.162.48.45.428 1.018-.077.797-.417 2.31-.823 4.131l-.742 3.326zm15.7173-5.3887c1.574.249 2.026.67 2.168 1.191.063.259.105.533.103.762-.005.171.008.269.108.281.116.017.175-.09.26-.458.121-.516.173-1.56.161-1.964-.019-.293-.089-.439-.356-.486-2.557-.439-5.336-.834-8.874-1.44-.209-.036-.327.009-.355.133-.024.104-.028.212.111.555 1.65 4.156 3.257 8.181 4.671 11.653l-3.111-.118c-.883-.034-1.922-.072-2.424-.395-.525-.349-.723-.951-.673-1.358.015-.249-.057-.313-.161-.32-.126-.009-.207.07-.253.275-.092.409-.176 1.987-.19 2.518-.033.244.033.329.134.331.169.002.296-.096.755-.104 1.711-.013 2.53.028 3.228.047l4.909.132c.155.004.268-.047.285-.122.032-.126.009-.182-.017-.293-1.304-3.657-2.856-7.592-4.413-11.446l3.934.626zm9.8493 1.5666c1.232.195 1.576.559 1.676 1.017.042.228.066.471.062.672-.008.152-.003.236.076.247.093.013.144-.081.221-.408.108-.459.174-1.382.178-1.738-.01-.257-.06-.387-.271-.423-2.005-.344-4.165-.643-6.896-1.11-.158-.027-.251.011-.275.123-.022.089-.027.183.068.48 1.16 3.608 2.302 7.125 3.313 10.178l-2.426-.091c-.684-.026-1.492-.057-1.868-.338-.396-.302-.532-.831-.481-1.188.017-.215-.034-.274-.117-.278-.094-.005-.161.064-.201.242-.084.358-.191 1.74-.221 2.205-.034.216.015.288.096.289.13.005.23-.083.584-.09 1.326-.018 1.96.017 2.503.031l3.844.102c.12.004.213-.04.228-.107.028-.113.013-.163-.005-.261-.93-3.228-2.039-6.683-3.147-10.04l3.059.486z"/>
    <path fill="#74664b" d="M127.1413 226.8089c.048.005.052.037.031.082l-1.759 3.22c-.022.044-.051.121-.078.12-.037-.002-.029-.081-.032-.127l-.233-3.43c-.01-.065.022-.094.059-.088l2.012.223zm-2.059-.988c-.061-.007-.07-.026-.074-.107l-.154-1.883c-.033-.352-.002-.693.036-.854.057-.239.19-.366.521-.311l.162.027c.132.022.171-.036.192-.116.026-.111-.028-.152-.139-.172-.356-.06-.875-.1-1.229-.159-.115-.02-.704-.172-1.302-.274-.142-.026-.216-.004-.244.11-.02.084.004.157.096.173.104.017.232.055.335.072.496.184.588.636.655 1.367l.855 8.672c.031.371.079.526.187.528.157.004.233-.117.408-.405.419-.704 3.336-5.81 4.401-7.643.632-1.08.936-1.198 1.112-1.215.142-.006.251-.004.355.015.081.013.133-.024.153-.11.024-.101-.02-.14-.36-.198-.324-.057-1.004-.174-1.814-.282-.178-.014-.29-.033-.312.057-.016.077-.007.125.089.157.063.026.099.156.02.301l-1.378 2.471c-.041.072-.078.084-.124.077l-2.447-.298z"/>
    <path fill="#9bafba" d="m66.5827 197.4431 20.468-55.635 5.44-.405-19.792 55.874-6.116.166z"/>
    <path fill="#6d726e" d="m68.8642 162.3888-4.265 7.239 1.11-.717 86.386-23.187-.293-.246-82.848 17.102-.09-.191z"/>
    <path fill="#9bafba" d="m78.0259 141.7316 84.825-26.244 52.462 38.255 1.41 7.215-.65 2.295c-7.818-4.56-38.857-25.971-48.017-33.047l-10.105-4.465-9.978 3.664-4.255 2.333-64.467 13.403s-28.659 52.154-30.69 55.705l.103.033 94.898-20.794.256 8.99-92.541 17.867-11.255 2.062-2.781-1.563c.499-.685 38.233-68.692 38.233-68.692l2.552 2.983z"/>
    <path fill="#9bafba" d="m119.0058 185.8045 19.846-53.862 6.377-1.161-4.945 13.722-14.731 40.871-6.547.43z"/>
    <path fill="#9bafba" d="M146.9899 168.2936c-3.375.405-92.32 19.533-92.32 19.533l3.298-5.296 91.398-23.295-2.376 9.058z"/>
    <path fill="#9bafba" d="m92.6829 191.7679 20.515-55.215 5.843-.938-20.076 55.803-6.282.35z"/>
  </g>
</svg>