<svg width="24" height="24" viewBox="0 0 24 24" fill="none" xmlns="http://www.w3.org/2000/svg">
<path d="M21.75 2.25L19.4999 4.5M19.4999 4.5L18 5.99979M19.4999 4.5L17.2499 2.25M19.4999 4.5L21.7499 6.75M18 5.99979L21.4394 9.43911C22.0251 10.0249 22.0251 10.9746 21.4394 11.5604L21.3107 11.6891C20.7249 12.2749 19.7751 12.2749 19.1894 11.6891L15.75 8.2498M18 5.99979L14.5607 2.56043C13.9749 1.97465 13.0251 1.97465 12.4394 2.56043L12.3107 2.68911C11.7249 3.2749 11.7249 4.22465 12.3107 4.81043L15.75 8.2498M15.75 8.2498L8.24999 15.7499M8.24999 15.7499L11.6894 19.1893C12.2751 19.7751 12.2751 20.7248 11.6894 21.3106L11.5607 21.4393C10.9749 22.0251 10.0251 22.0251 9.43936 21.4393L6 17.9999M8.24999 15.7499L4.81068 12.3106C4.22489 11.7248 3.27514 11.7248 2.68936 12.3106L2.56068 12.4393C1.97489 13.0251 1.97489 13.9748 2.56068 14.5606L6 17.9999M6 17.9999L4.49988 19.5M4.49988 19.5L2.24988 21.75M4.49988 19.5L2.24988 17.25M4.49988 19.5L6.74988 21.75" stroke="black" stroke-width="1.5" stroke-linecap="round" stroke-linejoin="round"/>
</svg>