<svg
   width="210mm"
   height="297mm"
   viewBox="0 0 210 297"
   version="1.1"
   id="svg1"
   inkscape:version="1.3.1 (6036e22fae, 2023-11-19, custom)"
   sodipodi:docname="shoe.svg"
   xmlns:inkscape="http://www.inkscape.org/namespaces/inkscape"
   xmlns:sodipodi="http://sodipodi.sourceforge.net/DTD/sodipodi-0.dtd"
   xmlns="http://www.w3.org/2000/svg"
   xmlns:svg="http://www.w3.org/2000/svg">
  <sodipodi:namedview
     id="namedview1"
     pagecolor="#ffffff"
     bordercolor="#000000"
     borderopacity="0.25"
     inkscape:showpageshadow="2"
     inkscape:pageopacity="0.0"
     inkscape:pagecheckerboard="0"
     inkscape:deskcolor="#d1d1d1"
     inkscape:document-units="mm"
     inkscape:zoom="0.32233549"
     inkscape:cx="-120.99195"
     inkscape:cy="1099.7858"
     inkscape:window-width="1920"
     inkscape:window-height="1043"
     inkscape:window-x="0"
     inkscape:window-y="0"
     inkscape:window-maximized="1"
     inkscape:current-layer="layer1" />
  <defs
     id="defs1" />
  <g
     inkscape:label="Layer 1"
     inkscape:groupmode="layer"
     id="layer1">
    <path
       style="fill:#1a1a1a;stroke-width:0.215935"
       d="m 97.753536,98.431767 c 10.583434,11.506653 21.246734,22.957103 33.040754,33.247963 5.14196,4.96266 10.29638,10.00185 16.87845,12.99193 9.05067,5.52583 18.62779,10.0552 28.46797,13.97186 3.02667,1.6896 7.8249,1.81313 8.14681,6.22122 2.37993,8.66526 -4.50189,15.96816 -12.51502,17.98266 -9.63574,3.52056 -20.06281,3.54462 -30.19353,3.21504 -12.92935,-2.42493 -25.85541,-5.17947 -38.37117,-9.32455 -8.508613,-1.61967 -14.740008,-5.06799 -23.205296,-6.64521 -14.055464,-2.2668 -28.801715,-8.48099 -41.81371,-14.18833 -7.478921,-3.6125 -14.556576,-9.70125 -16.502436,-18.06829 -3.446353,-7.17837 7.466229,-7.06132 7.495042,-13.5787 2.122037,-4.65962 3.471929,-9.68411 6.606194,-13.87535 4.591493,-6.63965 8.688964,-13.613993 13.294393,-20.237303 5.303138,-4.70384 8.714386,5.06327 9.016367,9.31545 0.58608,6.808973 3.541628,8.940393 13.642525,11.893413 8.54015,2.77934 18.36813,6.67334 18.788327,0.40695 1.064523,-5.85735 2.310824,-14.642213 7.22433,-13.328753 z"
       id="path3"
       sodipodi:nodetypes="cccccccccccccccccc" />
    <rect
       style="fill:#f9f9f9;stroke-width:0.119214"
       id="rect4"
       width="2.7742889"
       height="10.440238"
       x="161.05144"
       y="29.901436"
       ry="1.3431367"
       transform="matrix(0.82188053,0.56965989,-0.72455398,0.68921805,0,0)" />
    <rect
       style="fill:#f9f9f9;stroke-width:0.119214"
       id="rect4-2"
       width="2.7742889"
       height="10.440238"
       x="167.96428"
       y="30.657433"
       ry="1.3431367"
       transform="matrix(0.82188053,0.56965989,-0.72455398,0.68921805,0,0)" />
    <rect
       style="fill:#f9f9f9;stroke-width:0.119214"
       id="rect4-7"
       width="2.7742889"
       height="10.440238"
       x="175.39929"
       y="31.185699"
       ry="1.3431367"
       transform="matrix(0.82188053,0.56965989,-0.72455398,0.68921805,0,0)" />
    <rect
       style="fill:#f9f9f9;stroke-width:0.119214"
       id="rect4-29"
       width="2.7742889"
       height="10.440238"
       x="183.0871"
       y="32.60347"
       ry="1.3431367"
       transform="matrix(0.82188053,0.56965989,-0.72455398,0.68921805,0,0)" />
  </g>
</svg>